<svg width="139" height="112" viewBox="0 0 139 112" fill="none" xmlns="http://www.w3.org/2000/svg">
<path d="M13.6705 2.40915C14.9967 2.05034 16.425 2.40915 17.5982 3.12677C18.7714 3.84439 19.6386 4.92082 20.4037 6.09977C21.781 8.35515 22.291 11.3794 22.291 14.0449C19.3325 13.8911 16.8841 11.5332 15.6599 10.303C13.7725 8.30389 11.5791 3.53684 13.6705 2.40915Z" fill="#F5F5F5"/>
<path d="M26.9839 15.8902C25.7597 14.9162 25.2496 13.276 25.5047 11.7382C25.7597 10.2005 26.7799 8.91899 28.0041 8.0476C28.6162 7.63753 29.3304 7.32998 29.9935 7.53501C30.6056 7.74005 31.0647 8.35515 31.1667 9.02151C31.2687 9.68787 31.1667 10.3542 30.9116 10.9693C30.1975 13.1222 29.0753 15.07 26.9839 15.8902Z" fill="#F5F5F5"/>
<path d="M28.6672 22.2975C28.6162 22.2975 28.3102 21.7336 27.8511 20.7597C27.596 20.2471 27.392 19.632 27.29 18.9144C27.137 18.1968 26.9839 17.4279 26.9329 16.6078C26.7799 14.9162 27.137 13.4298 27.596 12.4046C27.8001 11.892 28.0551 11.5332 28.2592 11.2769C28.4632 11.0206 28.5652 10.9181 28.5652 10.9181C28.6162 10.9693 28.1571 11.4819 27.8001 12.4558C27.392 13.4297 27.137 14.9162 27.239 16.5565C27.29 17.3767 27.443 18.1455 27.596 18.8632C27.6981 19.5808 27.9021 20.1446 28.1061 20.6572C28.4632 21.6824 28.7182 22.2975 28.6672 22.2975Z" fill="#E0E0E0"/>
<path d="M15.6089 5.89474C15.6089 5.89474 15.8639 6.09977 16.221 6.50984C16.5781 6.91991 17.1392 7.53501 17.8023 8.35515C19.1285 9.89291 20.9649 12.0458 22.9032 14.5062C24.8415 16.9666 26.5249 19.222 27.7491 20.8622C28.3612 21.6824 28.8203 22.3487 29.1263 22.8613C29.4324 23.3227 29.6364 23.5789 29.5854 23.6302C29.5854 23.6302 29.3814 23.3739 29.0243 22.9638C28.6672 22.4513 28.1571 21.8362 27.545 21.0673C26.3208 19.427 24.5865 17.2229 22.6482 14.7625C20.7098 12.3533 18.9755 10.2005 17.6493 8.56018C17.0371 7.79131 16.5271 7.1762 16.119 6.66362C15.8129 6.15103 15.6089 5.946 15.6089 5.89474Z" fill="#E0E0E0"/>
<path d="M24.9946 18.7606C22.3421 16.9153 18.7715 16.454 15.7619 17.5817C14.9968 17.8892 14.1806 18.4018 14.1296 19.222C14.1296 20.0421 14.8948 20.6572 15.6599 20.9648C18.8225 22.2975 22.7502 21.4261 25.0966 18.9144" fill="#F5F5F5"/>
<path d="M17.8022 18.8632C17.8022 18.8632 17.9553 18.8119 18.2613 18.7094C18.5674 18.6069 18.9755 18.5556 19.4855 18.4531C20.5567 18.2993 22.036 18.0943 23.6683 18.4018C24.4844 18.5556 25.1986 18.8632 25.8617 19.222C26.4738 19.5808 26.9839 20.0421 27.341 20.4009C27.698 20.811 27.9531 21.1698 28.1061 21.4261C28.2591 21.6824 28.3611 21.8362 28.3101 21.8362C28.2591 21.8874 27.9021 21.3236 27.1369 20.5547C26.7289 20.1959 26.2698 19.7858 25.6577 19.427C25.0455 19.0682 24.3314 18.8119 23.5663 18.6581C21.985 18.3506 20.5057 18.5043 19.4855 18.6069C18.4654 18.7606 17.8022 18.9144 17.8022 18.8632Z" fill="#E0E0E0"/>
<path d="M29.2794 84.6279C38.7671 80.0147 42.4908 69.1991 43.715 59.1011C43.919 57.4096 44.3781 55.6668 43.817 54.0778C43.2559 52.4888 41.5726 51.2073 39.9913 51.6687C38.6651 52.0787 37.8999 53.4114 37.0328 54.4879C35.8596 55.9231 34.2783 56.9995 32.544 57.6146C31.4218 57.9735 30.0445 58.1272 29.0753 57.3584C27.7491 56.3332 27.9021 54.3341 28.2082 52.6426C28.7183 49.567 29.2284 46.4403 29.7385 43.3648C29.9935 41.7245 30.2996 40.033 30.0445 38.3414C29.7895 36.7011 28.8713 35.0609 27.392 34.3433C25.9128 33.6256 23.8214 34.2407 23.2093 35.8298C22.9542 36.4961 23.0053 37.2137 22.8522 37.8801C22.6992 38.5465 22.2401 39.2641 21.577 39.3666C20.8629 39.4691 20.3018 38.854 19.8937 38.2902C18.4654 36.3423 17.6493 33.9844 16.8841 31.6778C16.119 29.3712 15.4559 27.0133 14.1807 24.9117C12.9054 22.8101 11.0181 21.0673 8.67167 20.5547C6.32525 20.0421 3.57076 21.1185 2.60158 23.3227C1.53039 25.6293 2.55057 28.2435 3.72378 30.3451C5.4581 33.5231 7.65149 36.4449 10.253 38.9565C10.712 39.4179 11.2221 39.8792 11.3242 40.5455C11.5282 41.7245 10.304 42.6471 9.13076 42.8522C7.85553 43.0572 6.52929 42.7497 5.20305 42.6471C3.87681 42.5959 2.39755 42.9547 1.73443 44.0824C0.765252 45.6714 1.93846 47.6705 3.11167 49.0545C5.50911 51.8224 8.41663 54.1803 11.6302 55.9744C12.7524 56.6407 13.9766 57.2046 14.8438 58.2297C15.7109 59.2549 16.068 60.8439 15.2519 61.9204C14.4867 62.9968 12.9054 63.1506 11.6812 62.6892C10.457 62.2279 9.43681 61.3565 8.2636 60.7414C6.12122 59.5112 3.16268 59.2037 1.42837 60.9465C0.25516 62.0741 -0.101904 63.8682 0.153142 65.5085C0.408188 67.1487 1.17333 68.6352 1.98947 70.0192C4.948 74.8888 9.07975 79.092 14.0276 81.7574C18.9755 84.4229 23.7704 85.7044 29.2794 84.6279Z" fill="#EBEBEB"/>
<path d="M27.9532 85.1405C28.2083 81.1423 28.4123 83.1927 27.6982 77.913C27.0351 72.6334 25.8109 66.8925 24.3826 60.9465C24.0255 59.46 23.6175 57.9735 23.2604 56.5382C22.9033 55.103 22.5463 53.6677 22.0872 52.2838C21.22 49.5158 20.1488 46.9529 19.1287 44.4925C18.0575 42.0833 16.9353 39.7767 15.9151 37.6751C14.8439 35.5735 13.8747 33.6256 12.8545 31.8828C10.8652 28.3973 8.92683 25.7831 7.54958 24.0403C6.83545 23.1689 6.27435 22.5025 5.91729 22.0924C5.71325 21.8874 5.56022 21.7336 5.4582 21.5799C5.35619 21.4773 5.30518 21.4261 5.30518 21.4261C5.30518 21.4261 5.35619 21.4773 5.4582 21.6311C5.56022 21.7849 5.71325 21.9387 5.86628 22.1437C6.22334 22.605 6.78444 23.2714 7.44756 24.1428C8.82481 25.8856 10.7121 28.4998 12.6505 31.9854C13.6197 33.7281 14.6399 35.676 15.66 37.7776C16.6802 39.8792 17.8024 42.1346 18.8226 44.595C19.8938 47.0041 20.914 49.6183 21.7811 52.335C22.2402 53.719 22.5973 55.103 22.9543 56.5895C23.3114 58.0247 23.6685 59.5112 24.0766 60.9977C25.5558 66.9437 26.78 72.6334 27.4432 77.913C28.1573 83.1927 27.9532 81.0911 27.7492 85.0892" fill="#E0E0E0"/>
<path d="M22.036 52.2838C22.036 52.2838 22.138 52.0275 22.291 51.6174C22.444 51.1561 22.6481 50.541 22.9031 49.7208C23.4132 48.0805 24.0253 45.8252 24.6885 43.3648C25.3516 40.8531 25.9637 38.649 26.5248 37.0087C26.7798 36.1886 26.9839 35.5735 27.1369 35.1121C27.2899 34.6508 27.3409 34.3945 27.3409 34.3945C27.3409 34.3945 27.1879 34.5995 27.0349 35.0609C26.8308 35.4709 26.5758 36.1373 26.3207 36.9062C25.7596 38.4952 25.0965 40.7506 24.4334 43.211C23.7703 45.6714 23.2092 47.8755 22.7501 49.567C22.5461 50.3359 22.393 51.0023 22.24 51.5149C22.087 52.0275 21.985 52.2838 22.036 52.2838Z" fill="#E0E0E0"/>
<path d="M1.42847 44.9025C1.42847 44.9025 1.73452 45.005 2.24461 45.1588C2.80571 45.3126 3.57085 45.4664 4.54003 45.7739C6.42737 46.2865 9.07984 47.1066 11.9364 48.1318C14.7929 49.157 17.3433 50.1821 19.1287 51.0023C20.0468 51.4124 20.7609 51.7199 21.271 51.9762C21.7811 52.2325 22.0362 52.335 22.0872 52.335C22.0872 52.335 21.8321 52.1812 21.322 51.8737C20.812 51.6174 20.0978 51.2586 19.2307 50.7973C17.4453 49.9259 14.8949 48.8494 12.0384 47.8243C9.18186 46.7991 6.52938 46.0302 4.59104 45.5176C3.62186 45.2613 2.85672 45.1076 2.29562 45.005C1.73452 44.9025 1.42847 44.8513 1.42847 44.9025Z" fill="#E0E0E0"/>
<path d="M27.545 77.503C27.545 77.503 27.596 77.4517 27.749 77.2467C27.9021 77.0416 28.0551 76.8366 28.2591 76.5291C28.6672 75.914 29.2793 74.9913 29.9424 73.8636C31.3707 71.557 33.207 68.3789 35.1964 64.7908C37.1857 61.2027 39.0221 57.9735 40.3993 55.6668C41.0624 54.5391 41.6235 53.6165 42.0316 52.9501C42.1846 52.6426 42.3377 52.3863 42.4907 52.1812C42.5927 52.0275 42.6437 51.9249 42.6437 51.9249C42.6437 51.9249 42.5927 51.9762 42.4397 52.1812C42.2867 52.3863 42.1336 52.5913 41.9296 52.8989C41.5215 53.514 40.9094 54.4366 40.2463 55.5643C38.818 57.8709 36.9817 61.049 34.9923 64.6371C33.003 68.2252 31.1667 71.4545 29.7894 73.7611C29.1263 74.8888 28.5652 75.8114 28.1571 76.4778C28.0041 76.7854 27.8511 77.0416 27.698 77.2467C27.545 77.4005 27.494 77.503 27.545 77.503Z" fill="#E0E0E0"/>
<path d="M0.714355 63.8169C0.714355 63.8169 0.816374 63.8682 0.969401 63.9707C1.17344 64.0732 1.42848 64.227 1.73454 64.3808C2.44867 64.7396 3.41784 65.2522 4.59105 65.8673C6.98848 67.0975 10.3551 68.8403 14.0278 70.7881C17.7004 72.7359 21.067 74.4275 23.5155 75.6577C24.7397 76.2728 25.7088 76.7341 26.423 77.0416C26.729 77.1954 26.9841 77.2979 27.2391 77.4005C27.4432 77.503 27.5452 77.503 27.5452 77.503C27.5452 77.503 27.4432 77.4517 27.2901 77.3492C27.0861 77.2467 26.8311 77.0929 26.525 76.9391C25.8109 76.5803 24.8417 76.0677 23.6685 75.4526C21.2711 74.2224 17.9044 72.4796 14.2318 70.5318C10.5591 68.584 7.19252 66.8925 4.79509 65.6622C3.57087 65.0471 2.60169 64.5858 1.88757 64.2783C1.58151 64.1245 1.32647 64.022 1.07142 63.9194C0.816374 63.8682 0.714355 63.8169 0.714355 63.8169Z" fill="#E0E0E0"/>
<path d="M136.195 111.897C136.195 111.949 106.048 112 68.9134 112C31.7277 112 1.63232 111.949 1.63232 111.897C1.63232 111.846 31.7277 111.795 68.9134 111.795C106.048 111.795 136.195 111.846 136.195 111.897Z" fill="#263238"/>
<path d="M8.97779 58.9474C8.97779 58.9474 11.1712 57.4609 13.9257 62.7405C16.6802 68.0201 17.7004 71.0956 17.7004 71.0956C17.7004 71.0956 18.4145 72.2233 19.1796 71.4545C19.9448 70.7368 20.9649 68.6352 22.2402 68.9941C23.5664 69.3529 24.0255 70.8906 23.8215 73.0947C23.5664 75.2989 23.2604 80.1684 23.2094 80.6297C23.1583 81.0398 23.4134 81.7062 24.0255 81.2961C24.6376 80.886 28.0042 76.9904 29.7385 78.7332C31.4728 80.476 29.7895 86.5245 29.6365 87.1908C29.4835 87.8572 29.5855 88.1135 29.8916 88.3185C30.1976 88.4723 31.2178 87.0883 32.238 86.0119C33.2582 84.9355 34.5844 83.9103 35.5026 84.9867C36.4207 86.0632 36.7778 90.5739 32.544 98.0064L30.3506 101.287L26.3719 101.082C17.9554 100.159 14.4868 97.2375 14.1297 95.8535C13.7727 94.4696 15.456 94.0082 16.8842 93.8032C18.3125 93.5982 20.0468 93.5982 20.1488 93.2394C20.1998 92.8805 20.0468 92.6243 19.4347 92.368C18.8226 92.1117 12.9565 89.9075 12.5484 87.4984C12.1914 85.0892 17.2923 84.5767 17.9554 84.3204C18.6185 84.0641 18.2615 83.5002 17.9044 83.2952C17.5473 83.0389 13.4156 80.476 11.4772 79.3483C9.53889 78.2206 8.62073 76.9904 9.13082 75.6577C9.5899 74.3762 11.8853 74.7863 12.9055 74.5812C13.9257 74.3762 13.4666 73.146 13.4666 73.146C13.4666 73.146 11.6303 70.4805 8.97779 65.1497C6.47834 59.8188 9.0288 58.8961 8.97779 58.9474Z" fill="#EE3765"/>
<path d="M11.5283 63.7657C11.5793 63.8169 11.6303 63.9194 11.6813 64.0732C11.8344 64.3295 11.9874 64.6883 12.2424 65.1497C12.7525 66.1236 13.4156 67.4563 14.2828 69.1478C16.0171 72.5309 18.4145 77.2467 21.067 82.3725C23.7195 87.5497 26.1169 92.2142 27.8002 95.6485C28.6164 97.34 29.3305 98.724 29.7896 99.6979C29.9936 100.159 30.1977 100.518 30.2997 100.826C30.3507 100.928 30.4017 101.031 30.4527 101.133C30.4017 101.082 30.3507 100.979 30.2997 100.826C30.1467 100.569 29.9936 100.211 29.7386 99.7492C29.2795 98.7753 28.5654 97.4426 27.6982 95.751C25.9639 92.368 23.5665 87.6522 20.914 82.5263C18.2615 77.3492 15.8641 72.6847 14.1808 69.2503C13.3646 67.5588 12.6505 66.1748 12.1914 65.2009C11.9874 64.7396 11.7833 64.3808 11.6813 64.0732C11.6303 63.9707 11.5793 63.8682 11.5283 63.7657Z" fill="#263238"/>
<path d="M20.965 71.967C20.965 71.967 20.914 72.3771 20.761 72.9922C20.608 73.6586 20.4039 74.53 20.1999 75.5039C19.9959 76.4778 19.7918 77.3492 19.5878 78.0156C19.4858 78.3231 19.4348 78.5794 19.3838 78.7844C19.3327 78.9382 19.2817 79.0407 19.2817 79.0407C19.2817 79.0407 19.3327 78.6307 19.4858 78.0156C19.6388 77.3492 19.8428 76.4778 20.0469 75.5039C20.2509 74.53 20.506 73.6586 20.659 72.9922C20.761 72.6847 20.812 72.4284 20.863 72.2233C20.914 72.0183 20.965 71.967 20.965 71.967Z" fill="#263238"/>
<path d="M18.9079 79.0675C18.9154 79.0402 17.117 78.5152 14.891 77.895C12.665 77.2747 10.8544 76.794 10.8469 76.8213C10.8394 76.8485 12.6378 77.3735 14.8638 77.9938C17.0897 78.614 18.9004 79.0947 18.9079 79.0675Z" fill="#263238"/>
<path d="M24.0255 87.9597C24.0255 87.9597 23.9235 87.9597 23.7194 88.011C23.5154 88.011 23.2604 88.0622 22.9543 88.0622C22.2912 88.1135 21.373 88.1135 20.3528 88.0622C19.3327 88.011 18.4145 87.9597 17.7514 87.9085C17.3943 87.8572 17.1393 87.8572 16.9862 87.806C16.7822 87.7547 16.6802 87.7547 16.6802 87.7547C16.6802 87.7547 17.0882 87.7547 17.7514 87.806C18.4145 87.8572 19.3327 87.9085 20.3528 87.9085C21.373 87.9597 22.2912 87.9085 22.9543 87.9085C23.5664 87.9597 24.0255 87.9597 24.0255 87.9597Z" fill="#263238"/>
<path d="M27.2902 81.9625C27.2902 81.9625 27.1371 82.3213 26.8311 82.8851C26.525 83.449 26.117 84.1666 25.6579 84.9867C25.1988 85.8069 24.7907 86.5757 24.4337 87.0883C24.1276 87.6009 23.9236 87.9597 23.8726 87.9597C23.8726 87.9597 24.0256 87.6009 24.3316 87.0371C24.6377 86.4732 25.0458 85.7556 25.5049 84.9355C25.9639 84.1153 26.372 83.3465 26.7291 82.8339C27.0861 82.27 27.2902 81.9112 27.2902 81.9625Z" fill="#263238"/>
<path d="M32.7991 89.2412C32.7991 89.2412 32.7481 89.3437 32.6461 89.5487C32.5441 89.7538 32.3911 90.0613 32.187 90.3689C31.7789 91.0865 31.2689 92.0092 30.6567 93.0856C30.0446 94.162 29.4835 95.0847 29.0755 95.751C28.8714 96.0586 28.7184 96.3149 28.5654 96.5712C28.4633 96.7762 28.3613 96.8787 28.3613 96.8787C28.3613 96.8787 28.4123 96.7762 28.5144 96.5712C28.6164 96.3661 28.7694 96.0586 28.9734 95.751C29.3815 95.0334 29.8916 94.1108 30.5037 93.0343C31.1158 91.9579 31.6769 91.0352 32.085 90.3689C32.289 90.0613 32.4421 89.805 32.5951 89.5487C32.6971 89.2925 32.7991 89.1899 32.7991 89.2412Z" fill="#263238"/>
<path d="M28.4633 96.6224C28.4633 96.6224 28.3103 96.6224 28.1063 96.6737C27.8512 96.6737 27.5452 96.6737 27.0861 96.6737C26.2189 96.6737 25.0457 96.6737 23.7705 96.5712C22.4952 96.5199 21.322 96.3661 20.4549 96.2636C20.0468 96.2124 19.6897 96.1611 19.4347 96.1098C19.1797 96.0586 19.0776 96.0586 19.0776 96.0586C19.0776 96.0586 19.2307 96.0586 19.4347 96.0586C19.6897 96.0586 20.0468 96.1098 20.4549 96.1611C21.322 96.2124 22.4442 96.3149 23.7705 96.4174C25.0457 96.4687 26.2189 96.5199 27.0861 96.5712C27.4941 96.5712 27.8002 96.5712 28.1063 96.6224C28.3613 96.6224 28.4633 96.6224 28.4633 96.6224Z" fill="#263238"/>
<path d="M131.961 57.1533L121.3 67.5588L111.506 86.3707L100.488 107.643L86.9198 101.236L72.2802 93.7007L81.6659 75.7089L87.4809 55.5643C83.3492 58.3323 75.6978 62.0229 66.5672 60.0751C56.6204 58.0247 61.3642 20.5034 61.3642 20.5034L72.2292 20.2471L73.3004 46.7478L85.5936 41.2632V41.3144C86.3587 41.0069 86.9708 40.6993 87.3279 40.4943C94.1121 36.7524 98.6009 36.2911 105.895 38.9053L116.454 42.4421C119.26 43.6723 129.206 48.6444 131.961 57.1533Z" fill="#EE3765"/>
<path d="M94.6732 38.0851C94.6732 38.0851 94.4181 38.2389 94.0101 38.5465C93.602 38.854 93.0409 39.3153 92.4798 40.033C91.9187 40.7506 91.4086 41.7245 91.0005 42.8522C90.5924 43.9799 90.2354 45.2613 89.8783 46.6453C89.1642 49.362 88.5011 51.7712 87.991 53.5652C87.7359 54.4366 87.5319 55.1542 87.4299 55.6668C87.3789 55.9231 87.3279 56.0769 87.2768 56.2307C87.3279 56.0769 87.3789 55.8719 87.4299 55.6668C87.5829 55.1542 87.7359 54.4366 87.94 53.5652C88.399 51.7712 89.0622 49.3108 89.7763 46.6453C90.1334 45.3126 90.4904 43.9799 90.8985 42.8522C91.3066 41.7245 91.8677 40.7506 92.4288 40.033C92.9899 39.3153 93.602 38.8027 94.0101 38.5465C94.2141 38.3927 94.4181 38.2902 94.5201 38.2389C94.6222 38.1364 94.6732 38.0851 94.6732 38.0851Z" fill="#263238"/>
<g opacity="0.3">
<path d="M90.6945 43.416C87.634 51.7199 82.176 56.3332 74.4226 60.4851C74.4226 60.4851 81.0538 60.0238 87.2259 55.7693" fill="black"/>
</g>
<g opacity="0.3">
<path d="M100.386 37.5213C101.661 58.281 102.988 79.0407 104.263 99.8005L100.437 107.694L100.386 37.5213Z" fill="black"/>
</g>
<path d="M112.424 59.0499C112.373 59.0499 111.965 58.076 111.455 56.897C110.894 55.7181 110.435 54.7954 110.486 54.7442C110.486 54.7442 110.639 54.9492 110.843 55.308C111.047 55.6668 111.353 56.1794 111.608 56.7945C111.863 57.4096 112.118 57.9222 112.22 58.3323C112.373 58.7936 112.424 59.0499 112.424 59.0499Z" fill="#FAFBFB"/>
<path d="M119.004 56.0758C120.175 55.3421 121.101 54.7084 121.071 54.6603C121.041 54.6123 120.067 55.1681 118.896 55.9017C117.724 56.6354 116.799 57.2691 116.829 57.3172C116.858 57.3652 117.832 56.8094 119.004 56.0758Z" fill="#FAFBFB"/>
<path d="M117.304 51.5106C117.361 51.5077 117.367 50.7491 117.318 49.8162C117.269 48.8833 117.184 48.1294 117.128 48.1324C117.072 48.1353 117.066 48.8939 117.114 49.8268C117.163 50.7597 117.248 51.5136 117.304 51.5106Z" fill="#FAFBFB"/>
<path d="M125.989 50.8933C126.019 50.8451 125.363 50.3841 124.524 49.8635C123.685 49.3429 122.981 48.9599 122.951 49.0081C122.921 49.0563 123.578 49.5174 124.417 50.0379C125.256 50.5585 125.96 50.9415 125.989 50.8933Z" fill="#FAFBFB"/>
<path d="M113.751 66.0346C114.264 64.8391 114.638 63.8517 114.587 63.8292C114.535 63.8068 114.077 64.7578 113.563 65.9534C113.05 67.149 112.675 68.1363 112.727 68.1588C112.779 68.1812 113.237 67.2302 113.751 66.0346Z" fill="#FAFBFB"/>
<path d="M108.904 72.0991C108.954 72.0738 108.678 71.417 108.288 70.6321C107.897 69.8472 107.54 69.2314 107.489 69.2567C107.439 69.282 107.715 69.9388 108.105 70.7238C108.496 71.5087 108.853 72.1245 108.904 72.0991Z" fill="#FAFBFB"/>
<path d="M112.118 77.3492C112.118 77.4004 111.404 77.6567 110.486 77.7593C109.568 77.913 108.803 77.8618 108.803 77.8105C108.803 77.7593 109.568 77.708 110.486 77.6055C111.353 77.503 112.067 77.2979 112.118 77.3492Z" fill="#FAFBFB"/>
<path d="M116.976 70.1188C117.327 69.2845 117.57 68.5904 117.518 68.5683C117.466 68.5462 117.14 69.2046 116.788 70.0389C116.437 70.8731 116.194 71.5673 116.246 71.5893C116.298 71.6114 116.625 70.953 116.976 70.1188Z" fill="#FAFBFB"/>
<path d="M106.201 83.7565C106.15 83.8078 105.691 83.1414 105.028 82.3725C104.365 81.6037 103.804 81.0911 103.855 81.0398C103.906 80.9886 104.518 81.5011 105.181 82.27C105.793 83.0389 106.201 83.7565 106.201 83.7565Z" fill="#FAFBFB"/>
<path d="M103.534 72.286C104.029 71.429 104.391 70.7113 104.342 70.6829C104.294 70.6545 103.853 71.3261 103.358 72.1831C102.863 73.0401 102.501 73.7578 102.55 73.7862C102.599 73.8146 103.04 73.143 103.534 72.286Z" fill="#FAFBFB"/>
<path d="M105.656 66.1333C105.67 66.0784 104.886 65.8275 103.904 65.5729C102.922 65.3182 102.114 65.1562 102.1 65.211C102.086 65.2658 102.871 65.5167 103.853 65.7714C104.835 66.0261 105.642 66.1881 105.656 66.1333Z" fill="#FAFBFB"/>
<path d="M105.589 56.897C105.64 56.897 106.048 57.4609 106.507 58.1785C107.017 58.8961 107.425 59.5112 107.374 59.5112C107.323 59.5625 106.864 58.9986 106.354 58.281C105.895 57.5634 105.538 56.897 105.589 56.897Z" fill="#FAFBFB"/>
<path d="M101.557 57.4839C102.195 56.9266 102.682 56.4402 102.645 56.3975C102.608 56.3547 102.061 56.7719 101.424 57.3292C100.786 57.8865 100.299 58.3729 100.336 58.4156C100.373 58.4583 100.92 58.0412 101.557 57.4839Z" fill="#FAFBFB"/>
<path d="M104.977 51.5661C104.926 51.6174 104.263 51.0023 103.498 50.1309C102.784 49.2595 102.274 48.4906 102.325 48.4394C102.376 48.3881 102.886 49.157 103.6 50.0284C104.365 50.8998 104.977 51.5149 104.977 51.5661Z" fill="#FAFBFB"/>
<path d="M111.336 50.736C112.333 50.4301 113.128 50.1382 113.112 50.084C113.095 50.0299 112.274 50.234 111.277 50.5399C110.28 50.8459 109.485 51.1378 109.501 51.192C109.518 51.2461 110.339 51.042 111.336 50.736Z" fill="#FAFBFB"/>
<path d="M101.661 42.2883C101.61 42.2883 101.61 41.5707 101.508 40.6481C101.406 39.7767 101.202 39.059 101.253 39.059C101.304 39.059 101.559 39.7254 101.661 40.6481C101.764 41.5707 101.712 42.2883 101.661 42.2883Z" fill="#FAFBFB"/>
<path d="M94.4181 65.4572C94.4181 65.4572 94.163 65.6622 93.653 66.0211C93.1939 66.3286 92.5308 66.8412 91.8676 67.3538C91.2045 67.9176 90.5924 68.4302 90.1333 68.789C89.7252 69.1478 89.4192 69.4041 89.4192 69.4041C89.4192 69.4041 89.6232 69.0966 90.0313 68.7378C90.4394 68.3277 91.0515 67.8151 91.7146 67.2513C92.4287 66.6874 93.0408 66.2773 93.5509 65.9698C94.061 65.611 94.4181 65.4572 94.4181 65.4572Z" fill="#FAFBFB"/>
<path d="M94.0101 62.8943C93.9591 62.8943 93.449 62.0741 92.6839 61.1002C91.9698 60.1263 91.3066 59.3574 91.3066 59.3574C91.3066 59.3574 91.5107 59.5112 91.7657 59.8188C92.0208 60.1263 92.4288 60.5364 92.7859 61.049C93.143 61.5616 93.449 62.0229 93.6531 62.3304C93.9081 62.6892 94.0101 62.8943 94.0101 62.8943Z" fill="#FAFBFB"/>
<path d="M94.4161 53.756C95.2793 53.2771 95.9569 52.8486 95.9297 52.799C95.9025 52.7495 95.1807 53.0976 94.3175 53.5765C93.4544 54.0555 92.7767 54.484 92.804 54.5335C92.8312 54.5831 93.553 54.235 94.4161 53.756Z" fill="#FAFBFB"/>
<path d="M94.0102 48.3881C94.0102 48.3881 93.8061 48.2343 93.4491 47.978C93.143 47.6705 92.7349 47.2604 92.2758 46.7478C91.8678 46.2352 91.5107 45.7227 91.3067 45.3638C91.1026 45.005 90.9496 44.7487 91.0006 44.7487C91.0516 44.6975 91.6127 45.6201 92.4289 46.6453C93.245 47.6192 94.0612 48.3368 94.0102 48.3881Z" fill="#FAFBFB"/>
<path d="M98.0845 46.9725C98.4544 46.2089 98.7132 45.5698 98.6625 45.545C98.6119 45.5203 98.2709 46.1192 97.901 46.8828C97.5311 47.6464 97.2723 48.2855 97.3229 48.3102C97.3736 48.335 97.7145 47.7361 98.0845 46.9725Z" fill="#FAFBFB"/>
<path d="M96.4075 43.2622C96.3565 43.2622 96.4075 42.2883 96.2035 41.0581C95.9995 39.8792 95.6424 38.9565 95.6934 38.9053C95.6934 38.9053 95.8464 39.1103 95.9485 39.5204C96.1015 39.8792 96.2545 40.443 96.3565 41.0581C96.4585 41.6732 96.4585 42.2371 96.4585 42.6471C96.5096 43.0059 96.4585 43.2622 96.4075 43.2622Z" fill="#FAFBFB"/>
<path d="M97.2237 68.7378C97.2237 68.7378 97.2237 68.379 97.2237 67.8151C97.2237 67.2513 97.2747 66.4311 97.2237 65.5597C97.2237 64.6883 97.1217 63.8682 97.1217 63.3044C97.0707 62.7405 97.0197 62.3817 97.0707 62.3817C97.0707 62.3817 97.1727 62.7405 97.2237 63.3044C97.3257 63.8682 97.3767 64.6883 97.3767 65.5597C97.3767 66.4311 97.3767 67.2513 97.3257 67.8151C97.3257 68.379 97.2747 68.7378 97.2237 68.7378Z" fill="#FAFBFB"/>
<path d="M96.7647 76.6828C96.7136 76.7341 96.2035 76.0677 95.3364 75.5551C94.4692 74.9913 93.7041 74.7863 93.7041 74.735C93.7041 74.6838 94.5713 74.8375 95.4384 75.4014C96.3056 75.9652 96.8157 76.6828 96.7647 76.6828Z" fill="#FAFBFB"/>
<path d="M98.5557 82.8789C99.7817 82.2414 100.754 81.6838 100.729 81.6335C100.703 81.5832 99.6879 82.0593 98.462 82.6968C97.236 83.3344 96.2632 83.892 96.2891 83.9423C96.315 83.9925 97.3298 83.5165 98.5557 82.8789Z" fill="#FAFBFB"/>
<path d="M89.5404 83.8098C89.5858 83.7762 88.9325 82.8063 88.0812 81.6433C87.2299 80.4803 86.503 79.5648 86.4577 79.5983C86.4123 79.6319 87.0656 80.6018 87.9169 81.7648C88.7681 82.9277 89.495 83.8433 89.5404 83.8098Z" fill="#FAFBFB"/>
<path d="M86.0527 74.6838C86.0527 74.6838 86.0017 74.4275 86.0017 74.0174C86.0017 73.6073 86.0017 73.0435 86.0017 72.4284C86.0527 71.8133 86.1037 71.2494 86.1547 70.8394C86.2057 70.4293 86.2568 70.173 86.3078 70.173C86.3588 70.173 86.2568 71.1982 86.2057 72.4284C86.1037 73.7098 86.1037 74.6838 86.0527 74.6838Z" fill="#FAFBFB"/>
<path d="M82.3633 90.2293C82.3993 90.1858 81.6207 89.4755 80.6243 88.6429C79.6279 87.8102 78.791 87.1705 78.7549 87.2141C78.7189 87.2576 79.4975 87.9679 80.4939 88.8005C81.4903 89.6332 82.3272 90.2729 82.3633 90.2293Z" fill="#FAFBFB"/>
<path d="M84.579 89.7509C84.6353 89.7495 84.6548 88.6243 84.6224 87.2376C84.5901 85.8508 84.5182 84.7277 84.4618 84.729C84.4055 84.7303 84.3861 85.8556 84.4184 87.2423C84.4508 88.629 84.5227 89.7522 84.579 89.7509Z" fill="#FAFBFB"/>
<path d="M89.0111 99.3904C89.0111 99.3904 88.603 99.2366 87.9909 99.0316C87.3278 98.8265 86.4607 98.5703 85.4405 98.4677C84.4203 98.314 83.5021 98.314 82.839 98.3652C82.1759 98.3652 81.7678 98.4165 81.7678 98.4165C81.7678 98.4165 81.8698 98.3652 82.0739 98.3652C82.2779 98.314 82.533 98.314 82.89 98.2627C83.5531 98.2114 84.5223 98.2114 85.5425 98.3652C86.5627 98.519 87.4808 98.7753 88.093 98.9803C88.399 99.0828 88.6541 99.1854 88.8581 99.2879C88.9091 99.2879 89.0111 99.3391 89.0111 99.3904Z" fill="#FAFBFB"/>
<path d="M92.6328 101.133C92.6328 101.133 92.9389 101.287 93.3469 101.646C93.755 101.953 94.3161 102.466 94.9282 103.03C95.4893 103.594 95.9994 104.157 96.3055 104.619C96.6115 105.029 96.8156 105.336 96.8156 105.336C96.8156 105.336 96.5605 105.08 96.2545 104.67C95.8974 104.26 95.3873 103.696 94.8262 103.132C94.2651 102.568 93.704 102.056 93.2959 101.697C92.8879 101.389 92.6328 101.133 92.6328 101.133Z" fill="#FAFBFB"/>
<path d="M94.2544 84.4873C94.3068 84.4664 94.0127 83.5961 93.5976 82.5433C93.1825 81.4906 92.8035 80.654 92.7511 80.6749C92.6987 80.6957 92.9928 81.5661 93.4079 82.6189C93.8231 83.6716 94.2021 84.5081 94.2544 84.4873Z" fill="#FAFBFB"/>
<path d="M81.4618 52.0787C81.4618 52.0787 81.3088 52.2838 80.9517 52.5913C80.6457 52.8989 80.1356 53.3089 79.5745 53.6677C79.0134 54.0265 78.4523 54.3341 78.0442 54.5391C77.6362 54.7442 77.3811 54.7954 77.3811 54.7954C77.3811 54.7442 78.3503 54.3341 79.4725 53.5652C80.6457 52.7963 81.4108 52.0275 81.4618 52.0787Z" fill="#FAFBFB"/>
<path d="M82.4537 47.2573C82.491 46.4655 82.4756 45.8215 82.4193 45.8188C82.3631 45.8161 82.2872 46.4558 82.2499 47.2476C82.2126 48.0394 82.228 48.6834 82.2843 48.6861C82.3406 48.6888 82.4164 48.0491 82.4537 47.2573Z" fill="#FAFBFB"/>
<path d="M75.9194 51.4951C75.9429 51.4437 75.2353 51.0672 74.3389 50.6544C73.4425 50.2415 72.6968 49.9485 72.6734 50C72.6499 50.0514 73.3575 50.4279 74.2539 50.8407C75.1503 51.2536 75.896 51.5466 75.9194 51.4951Z" fill="#FAFBFB"/>
<path d="M87.4886 45.4296C87.5616 44.4698 87.5753 43.6883 87.5191 43.684C87.4629 43.6797 87.3582 44.4542 87.2851 45.4139C87.2121 46.3737 87.1984 47.1552 87.2546 47.1595C87.3107 47.1638 87.4155 46.3893 87.4886 45.4296Z" fill="#FAFBFB"/>
<path d="M72.5353 58.281C72.5353 58.3323 71.6682 58.076 70.699 57.4609C69.7298 56.897 69.1177 56.2307 69.1687 56.2307C69.2197 56.1794 69.8829 56.7433 70.801 57.3071C71.7702 57.9222 72.5863 58.2297 72.5353 58.281Z" fill="#FAFBFB"/>
<path d="M66.5035 53.4263C67.2824 52.5691 67.88 51.8433 67.8384 51.8051C67.7968 51.7669 67.1317 52.4308 66.3528 53.288C65.574 54.1452 64.9764 54.871 65.018 54.9092C65.0596 54.9473 65.7247 54.2834 66.5035 53.4263Z" fill="#FAFBFB"/>
<path d="M67.4344 45.9789C67.4344 46.0302 66.7203 45.7227 65.9552 45.1588C65.19 44.595 64.731 43.9799 64.731 43.9799C64.782 43.9286 65.2921 44.4924 66.0572 45.0563C66.7713 45.5689 67.4344 45.9277 67.4344 45.9789Z" fill="#FAFBFB"/>
<path d="M63.8056 48.1415C64.2241 47.6445 64.5285 47.2119 64.4855 47.1753C64.4425 47.1387 64.0684 47.512 63.6499 48.0091C63.2314 48.5061 62.927 48.9387 62.97 48.9753C63.013 49.0119 63.3871 48.6386 63.8056 48.1415Z" fill="#FAFBFB"/>
<path d="M69.6165 38.0332C70.3303 37.157 70.8735 36.4176 70.8299 36.3818C70.7863 36.3459 70.1724 37.0271 69.4586 37.9034C68.7449 38.7796 68.2016 39.519 68.2452 39.5549C68.2888 39.5907 68.9028 38.9095 69.6165 38.0332Z" fill="#FAFBFB"/>
<path d="M65.3293 37.5618C65.3717 37.5245 64.8346 36.8381 64.1296 36.0286C63.4247 35.2191 62.8189 34.5931 62.7765 34.6303C62.7341 34.6676 63.2712 35.3541 63.9761 36.1636C64.681 36.9731 65.2869 37.5991 65.3293 37.5618Z" fill="#FAFBFB"/>
<path d="M68.0966 30.6237C68.1456 30.5959 67.7923 29.8739 67.3074 29.0112C66.8225 28.1485 66.3896 27.4717 66.3405 27.4996C66.2915 27.5274 66.6448 28.2493 67.1297 29.1121C67.6146 29.9748 68.0475 30.6516 68.0966 30.6237Z" fill="#FAFBFB"/>
<path d="M67.9445 26.1419C67.8935 26.0906 68.4036 25.5268 68.7606 24.6554C69.1687 23.784 69.2707 23.0151 69.3217 23.0664C69.3727 23.0664 69.3217 23.8352 68.9136 24.7579C68.5566 25.6293 67.9955 26.1931 67.9445 26.1419Z" fill="#FAFBFB"/>
<path d="M62.6904 25.8856C62.6394 25.8856 62.5884 24.9629 63.0985 23.9378C63.3535 23.4252 63.6086 23.0151 63.8636 22.7588C64.1187 22.5025 64.2717 22.3487 64.3227 22.3487C64.3737 22.4 63.7106 23.0151 63.2515 23.989C62.7924 25.0142 62.7414 25.8856 62.6904 25.8856Z" fill="#FAFBFB"/>
<path d="M108.599 18.2993C108.497 16.9666 108.395 15.6339 108.548 14.3011C108.701 12.9684 109.16 11.6357 110.027 10.6618C110.894 9.63661 112.22 9.02151 113.547 9.17529C114.363 9.2778 115.128 9.68787 115.944 9.63661C116.913 9.58535 117.729 9.02151 118.597 8.61144C119.923 7.99634 121.504 7.84256 122.932 8.15011C123.697 8.30389 124.463 8.61144 124.973 9.17529C125.534 9.73913 125.84 10.5593 125.636 11.3281C126.605 11.3281 127.574 11.3281 128.492 11.5844C129.411 11.8407 130.329 12.3533 130.788 13.1735C131.247 13.9936 131.247 15.1725 130.533 15.8389C131.4 15.6339 132.369 16.3515 132.573 17.2229C132.777 18.0943 132.369 19.0682 131.604 19.5808C130.89 20.0934 129.513 20.3497 128.645 20.1959C127.778 20.0421 126.758 19.7858 126.044 19.222" fill="#263238"/>
<path d="M107.885 48.3881C111.557 49.3108 115.281 47.1579 116.25 43.4673C116.811 41.4169 117.219 39.7254 117.219 39.7254C117.219 39.7254 122.524 40.6481 124.309 35.5735C126.044 30.4989 129.104 18.5556 129.104 18.5556C124.105 14.0449 117.066 12.6096 110.69 14.8137L109.772 15.1213L103.039 39.8279C101.967 43.6211 104.161 47.4654 107.885 48.3881Z" fill="#B78876"/>
<path d="M117.27 39.6741C117.27 39.6741 114.006 38.854 111.302 35.5735C111.302 35.5735 111.659 39.7767 116.811 41.0069L117.27 39.6741Z" fill="#AA6551"/>
<path d="M108.599 20.6572C108.548 20.606 105.487 18.4531 104.416 21.9387C103.345 25.4243 107.068 25.7831 107.119 25.6805C107.17 25.578 108.599 20.6572 108.599 20.6572Z" fill="#B78876"/>
<path d="M106.456 24.0403C106.456 24.0403 106.405 24.0403 106.252 24.0915C106.15 24.0915 105.946 24.0915 105.793 23.989C105.487 23.7327 105.334 23.0664 105.487 22.4C105.589 22.0924 105.742 21.7849 105.895 21.5799C106.099 21.3748 106.303 21.2211 106.507 21.2723C106.711 21.2723 106.813 21.4261 106.813 21.5286C106.813 21.6311 106.762 21.6824 106.813 21.7336C106.813 21.7336 106.915 21.6824 106.915 21.5286C106.915 21.4773 106.915 21.3748 106.864 21.2723C106.813 21.1698 106.711 21.1185 106.558 21.0673C106.303 21.016 105.946 21.1698 105.742 21.4261C105.538 21.6824 105.334 21.9899 105.232 22.3487C105.028 23.0664 105.181 23.8352 105.691 24.1428C105.895 24.2966 106.15 24.2453 106.252 24.1941C106.456 24.1428 106.456 24.0403 106.456 24.0403Z" fill="#AA6551"/>
<path d="M124.769 25.8856C124.667 26.2957 124.258 26.5007 123.85 26.3982C123.442 26.2957 123.187 25.8856 123.34 25.4755C123.442 25.0654 123.85 24.8604 124.258 24.9629C124.667 25.0654 124.922 25.4755 124.769 25.8856Z" fill="#263238"/>
<path d="M125.738 25.373C125.636 25.4243 125.228 24.8604 124.412 24.6041C123.646 24.3478 122.932 24.5529 122.881 24.3991C122.83 24.3478 122.983 24.1941 123.289 24.0915C123.595 23.989 124.054 23.9378 124.565 24.1428C125.024 24.2966 125.381 24.6041 125.585 24.9117C125.789 25.168 125.789 25.373 125.738 25.373Z" fill="#263238"/>
<path d="M117.168 23.3227C117.066 23.7327 116.658 23.9378 116.25 23.8352C115.842 23.7327 115.587 23.3227 115.74 22.9126C115.842 22.5025 116.301 22.2975 116.658 22.4C117.015 22.5025 117.27 22.9126 117.168 23.3227Z" fill="#263238"/>
<path d="M118.035 22.9638C117.933 23.0151 117.525 22.4513 116.709 22.195C115.944 21.9387 115.23 22.1437 115.179 21.9899C115.128 21.9387 115.281 21.7849 115.587 21.6824C115.893 21.5799 116.352 21.5286 116.862 21.7336C117.321 21.8874 117.678 22.195 117.882 22.5025C118.086 22.7588 118.086 22.9126 118.035 22.9638Z" fill="#263238"/>
<path d="M118.953 29.6787C118.953 29.6275 119.464 29.73 120.28 29.8838C120.484 29.935 120.688 29.935 120.79 29.8325C120.892 29.6787 120.892 29.4737 120.841 29.2174C120.841 28.6535 120.79 28.0897 120.739 27.5259C120.637 25.0654 120.637 23.1176 120.739 23.1176C120.841 23.1176 120.994 25.0654 121.096 27.5259C121.096 28.141 121.147 28.7048 121.147 29.2174C121.147 29.4737 121.198 29.7812 120.994 30.0375C120.892 30.1913 120.688 30.2426 120.586 30.2426C120.433 30.2426 120.331 30.1913 120.229 30.1913C119.413 29.8838 118.902 29.73 118.953 29.6787Z" fill="#263238"/>
<path d="M116.454 29.4737C116.607 29.5249 116.301 30.3451 116.811 31.2165C117.321 32.0879 118.239 32.2929 118.239 32.3954C118.239 32.4467 117.984 32.4979 117.576 32.3954C117.219 32.2929 116.709 31.9854 116.403 31.4728C116.097 30.9602 116.046 30.3963 116.148 30.0375C116.25 29.6275 116.403 29.4224 116.454 29.4737Z" fill="#263238"/>
<path d="M125.891 23.9378C125.687 24.0915 125.228 23.6815 124.565 23.4764C123.952 23.2201 123.34 23.2201 123.289 22.9638C123.289 22.8613 123.391 22.7076 123.697 22.605C124.003 22.5025 124.412 22.5025 124.871 22.6563C125.33 22.8101 125.636 23.1176 125.789 23.3739C125.993 23.6302 125.993 23.8352 125.891 23.9378Z" fill="#263238"/>
<path d="M117.984 19.7858C117.882 19.8371 117.678 19.7346 117.423 19.632C117.168 19.4783 116.862 19.3245 116.505 19.1707C116.148 19.0169 115.791 18.9657 115.536 18.9144C115.281 18.8632 115.077 18.8119 115.026 18.7094C114.975 18.6069 115.128 18.4018 115.485 18.2481C115.842 18.0943 116.352 18.0943 116.862 18.2993C117.372 18.5043 117.78 18.8632 117.933 19.1707C118.086 19.4783 118.086 19.7346 117.984 19.7858Z" fill="#263238"/>
<path d="M128.798 20.1959C128.798 20.1959 125.024 20.1959 121.555 17.3254C119.259 15.4288 116.403 14.1474 115.638 14.5062C114.873 14.865 114.108 17.5304 111.404 17.6842C111.404 17.6842 110.435 22.8101 108.446 22.195C106.456 21.5286 109.517 13.9423 109.517 13.9423L115.026 12.6609L120.637 12.8659L125.687 13.9936L130.073 16.5053L128.798 20.1959Z" fill="#263238"/>
<path d="M100.488 0.102518H29.0244V111.897H100.488V0.102518Z" fill="#FAFBFB"/>
<path d="M100.437 111.897C100.437 111.231 100.386 65.816 100.386 0.102517L100.437 0.153776C78.5033 0.153776 54.3759 0.153776 28.9734 0.153776L29.0754 0.102517C29.0754 42.3908 29.0754 81.3474 29.0754 111.897L29.0244 111.846C72.6372 111.846 99.9271 111.897 100.437 111.897C99.9271 111.897 72.6372 111.949 28.9734 111.949H28.9224V111.897C28.9224 81.3474 28.9224 42.3908 28.9224 0.102517V0H29.0244C54.3759 0 78.5543 0 100.488 0H100.539V0.0512586C100.488 65.816 100.437 111.231 100.437 111.897Z" fill="#263238"/>
<path d="M48.1527 24.9629H39.0221C38.41 24.9629 37.8999 24.4503 37.8999 23.8352V11.1231C37.8999 10.508 38.41 9.99542 39.0221 9.99542H44.8371L49.326 14.66V23.8865C49.2749 24.4503 48.7649 24.9629 48.1527 24.9629Z" fill="#EE3765"/>
<path d="M44.7861 9.94416V13.5323C44.7861 14.1474 45.2452 14.6087 45.8573 14.6087H49.2749L44.7861 9.94416Z" fill="#EE3765"/>
<g opacity="0.2">
<path d="M44.8371 13.8398C44.8371 13.8398 44.7861 14.7112 45.7553 15.0188C45.8063 15.0188 45.8063 15.0188 45.8573 15.0188C46.3164 15.1213 49.2239 15.6339 49.2239 15.5826C49.2239 15.5314 49.2239 14.6087 49.2239 14.6087H45.8063C45.8573 14.6087 45.0412 14.6087 44.8371 13.8398Z" fill="black"/>
</g>
<g opacity="0.3">
<path d="M44.7861 9.94416V13.5323C44.7861 14.1474 45.2452 14.6087 45.8573 14.6087H49.2749L44.7861 9.94416Z" fill="white"/>
</g>
<path d="M41.9295 13.481C43.0845 13.481 44.0209 13.4351 44.0209 13.3785C44.0209 13.3219 43.0845 13.276 41.9295 13.276C40.7745 13.276 39.8381 13.3219 39.8381 13.3785C39.8381 13.4351 40.7745 13.481 41.9295 13.481Z" fill="#FAFBFB"/>
<path d="M43.3068 15.5313C45.2224 15.5313 46.7754 15.4855 46.7754 15.4288C46.7754 15.3722 45.2224 15.3263 43.3068 15.3263C41.3911 15.3263 39.8381 15.3722 39.8381 15.4288C39.8381 15.4855 41.3911 15.5313 43.3068 15.5313Z" fill="#FAFBFB"/>
<path d="M43.6128 17.2229C45.6975 17.2229 47.3875 17.177 47.3875 17.1204C47.3875 17.0637 45.6975 17.0178 43.6128 17.0178C41.5281 17.0178 39.8381 17.0637 39.8381 17.1204C39.8381 17.177 41.5281 17.2229 43.6128 17.2229Z" fill="#FAFBFB"/>
<path d="M43.6128 18.8119C45.6975 18.8119 47.3875 18.766 47.3875 18.7094C47.3875 18.6528 45.6975 18.6069 43.6128 18.6069C41.5281 18.6069 39.8381 18.6528 39.8381 18.7094C39.8381 18.766 41.5281 18.8119 43.6128 18.8119Z" fill="#FAFBFB"/>
<path d="M43.6128 20.4009C45.6975 20.4009 47.3875 20.355 47.3875 20.2984C47.3875 20.2418 45.6975 20.1959 43.6128 20.1959C41.5281 20.1959 39.8381 20.2418 39.8381 20.2984C39.8381 20.355 41.5281 20.4009 43.6128 20.4009Z" fill="#FAFBFB"/>
<path d="M43.6128 21.9899C45.6975 21.9899 47.3875 21.944 47.3875 21.8874C47.3875 21.8308 45.6975 21.7849 43.6128 21.7849C41.5281 21.7849 39.8381 21.8308 39.8381 21.8874C39.8381 21.944 41.5281 21.9899 43.6128 21.9899Z" fill="#FAFBFB"/>
<path d="M95.8464 100.826H95.4894C95.2343 100.826 95.0813 100.621 95.0813 100.416V7.38123C95.0813 7.12494 95.2853 6.97117 95.4894 6.97117H95.8464C96.1015 6.97117 96.2545 7.1762 96.2545 7.38123V100.416C96.3055 100.672 96.1015 100.826 95.8464 100.826Z" fill="#E0E0E0"/>
<path d="M95.8464 55.3593H95.4894C95.2343 55.3593 95.0813 55.1542 95.0813 54.9492V7.38123C95.0813 7.12494 95.2853 6.97117 95.4894 6.97117H95.8464C96.1015 6.97117 96.2545 7.1762 96.2545 7.38123V54.9492C96.3055 55.1542 96.1015 55.3593 95.8464 55.3593Z" fill="#EE3765"/>
<path d="M88.399 32.3954C88.399 32.4467 77.432 32.4979 63.8635 32.4979C50.2951 32.4979 39.3281 32.4467 39.3281 32.3954C39.3281 32.3442 50.2951 32.2929 63.8635 32.2929C77.432 32.2929 88.399 32.3442 88.399 32.3954Z" fill="#263238"/>
<path d="M88.399 36.1373C88.399 36.1886 77.432 36.2398 63.8635 36.2398C50.2951 36.2398 39.3281 36.1886 39.3281 36.1373C39.3281 36.086 50.2951 36.0348 63.8635 36.0348C77.432 36.0348 88.399 36.086 88.399 36.1373Z" fill="#263238"/>
<path d="M88.399 39.8279C88.399 39.8792 77.432 39.9304 63.8635 39.9304C50.2951 39.9304 39.3281 39.8792 39.3281 39.8279C39.3281 39.7767 50.2951 39.7254 63.8635 39.7254C77.432 39.7767 88.399 39.7767 88.399 39.8279Z" fill="#263238"/>
<path d="M88.399 43.5698C88.399 43.6211 77.432 43.6723 63.8635 43.6723C50.2951 43.6723 39.3281 43.6211 39.3281 43.5698C39.3281 43.5185 50.2951 43.4673 63.8635 43.4673C77.432 43.5185 88.399 43.5185 88.399 43.5698Z" fill="#263238"/>
<path d="M88.399 47.3117C88.399 47.3629 77.432 47.4142 63.8635 47.4142C50.2951 47.4142 39.3281 47.3629 39.3281 47.3117C39.3281 47.2604 50.2951 47.2091 63.8635 47.2091C77.432 47.2091 88.399 47.2604 88.399 47.3117Z" fill="#263238"/>
<path d="M88.399 51.0536C88.399 51.1048 77.432 51.1561 63.8635 51.1561C50.2951 51.1561 39.3281 51.1048 39.3281 51.0536C39.3281 51.0023 50.2951 50.951 63.8635 50.951C77.432 50.951 88.399 51.0023 88.399 51.0536Z" fill="#263238"/>
<path d="M88.399 56.897C88.399 56.9483 77.432 56.9995 63.8635 56.9995C50.2951 56.9995 39.3281 56.9483 39.3281 56.897C39.3281 56.8458 50.2951 56.7945 63.8635 56.7945C77.432 56.7945 88.399 56.8458 88.399 56.897Z" fill="#263238"/>
<path d="M88.399 60.0751C88.399 60.1263 77.432 60.1776 63.8635 60.1776C50.2951 60.1776 39.3281 60.1263 39.3281 60.0751C39.3281 60.0238 50.2951 59.9725 63.8635 59.9725C77.432 60.0238 88.399 60.0238 88.399 60.0751Z" fill="#E0E0E0"/>
<path d="M88.399 63.2531C88.399 63.3043 77.432 63.3556 63.8635 63.3556C50.2951 63.3556 39.3281 63.3043 39.3281 63.2531C39.3281 63.2018 50.2951 63.1506 63.8635 63.1506C77.432 63.2018 88.399 63.2531 88.399 63.2531Z" fill="#EBEBEB"/>
<path d="M52.3357 12.8146C52.6417 12.7634 52.9988 12.7634 53.4069 12.7634C54.07 12.7634 54.5291 12.8659 54.8351 13.1222C55.1922 13.3785 55.4473 13.8398 55.4473 14.4549C55.4473 15.1213 55.1922 15.5826 54.8862 15.8902C54.5291 16.1977 53.968 16.3515 53.2539 16.3515C52.8458 16.3515 52.5397 16.3002 52.3357 16.3002V12.8146ZM53.1518 15.7364C53.2028 15.7364 53.3049 15.7364 53.4069 15.7364C54.121 15.7364 54.5801 15.3263 54.5801 14.5062C54.5801 13.7886 54.172 13.3785 53.4579 13.3785C53.3049 13.3785 53.1518 13.3785 53.1008 13.4297V15.7364H53.1518Z" fill="black"/>
<path d="M56.7223 15.4288L56.4673 16.3515H55.6511L56.7223 12.8146H57.7935L58.8647 16.3515H57.9975L57.7425 15.4288H56.7223ZM57.5895 14.8137L57.3854 14.0449C57.3344 13.8398 57.2834 13.5835 57.2324 13.3785C57.1814 13.5835 57.1304 13.8398 57.0794 14.0449L56.8753 14.8137H57.5895Z" fill="black"/>
<path d="M59.324 12.7634H61.4663V13.4297H60.0891V14.2499H61.3643V14.9162H60.0891V16.3515H59.2729V12.7634H59.324Z" fill="black"/>
<path d="M62.7414 13.4297H61.7722V12.7634H64.4757V13.4297H63.5065V16.3002H62.7414V13.4297Z" fill="black"/>
<path d="M65.3939 15.4288L65.1389 16.3515H64.3228L65.3939 12.8146H66.4651L67.5363 16.3515H66.6692L66.4141 15.4288H65.3939ZM66.2611 14.8137L66.0571 14.0449C66.0061 13.8398 65.955 13.5835 65.904 13.3785C65.853 13.5835 65.802 13.8398 65.751 14.0449L65.547 14.8137H66.2611Z" fill="black"/>
<path d="M67.9954 12.8146C68.2504 12.7634 68.6585 12.7634 69.0665 12.7634C69.5766 12.7634 69.9337 12.8659 70.1888 13.0197C70.3928 13.1735 70.4948 13.4297 70.4948 13.7373C70.4948 14.1986 70.1888 14.5062 69.8827 14.6087C70.1377 14.7112 70.2398 14.9675 70.3418 15.2751C70.4438 15.6851 70.5458 16.1465 70.6478 16.249H69.8317C69.7807 16.1465 69.6787 15.8389 69.5766 15.4288C69.4746 14.9675 69.3216 14.865 69.0155 14.865H68.7605V16.249H67.9954V12.8146ZM68.8115 14.3524H69.1176C69.5256 14.3524 69.7297 14.1474 69.7297 13.8398C69.7297 13.5323 69.5256 13.3272 69.1686 13.3272C68.9645 13.3272 68.8625 13.3272 68.8115 13.3785V14.3524Z" fill="black"/>
<path d="M72.1782 12.8146C72.4333 12.7634 72.7903 12.7634 73.2494 12.7634C73.7595 12.7634 74.1166 12.8659 74.3206 13.0709C74.5246 13.2247 74.6777 13.5323 74.6777 13.8911C74.6777 14.2499 74.5757 14.5574 74.3716 14.7112C74.1166 14.9675 73.7085 15.07 73.2494 15.07C73.1474 15.07 73.0454 15.07 72.9944 15.07V16.3515H72.2292V12.8146H72.1782ZM72.9434 14.4549C72.9944 14.4549 73.0964 14.4549 73.1984 14.4549C73.6065 14.4549 73.8615 14.2499 73.8615 13.8911C73.8615 13.5835 73.6575 13.3785 73.2494 13.3785C73.0964 13.3785 72.9944 13.3785 72.9434 13.4297V14.4549Z" fill="black"/>
<path d="M77.2791 14.8137H76.0039V15.6339H77.4322V16.3002H75.1877V12.7634H77.3811V13.4297H76.0039V14.1474H77.2791V14.8137Z" fill="black"/>
<path d="M80.9517 14.9675C80.9517 14.5574 80.9007 14.0449 80.9007 13.5323C80.7987 13.9936 80.6456 14.5062 80.4926 14.9162L80.0845 16.3002H79.4724L79.1154 14.9162C79.0134 14.5062 78.8603 13.9936 78.8093 13.5323C78.8093 13.9936 78.7583 14.5574 78.7583 15.0188L78.7073 16.3515H77.9932L78.1972 12.8146H79.2684L79.6255 13.9936C79.7275 14.4037 79.8295 14.865 79.9315 15.2751C80.0335 14.865 80.1355 14.4037 80.2886 13.9936L80.6456 12.8146H81.6658L81.8699 16.3515H81.1047L80.9517 14.9675Z" fill="black"/>
<path d="M83.196 12.7634V16.3002H82.3799V12.7634H83.196Z" fill="black"/>
<path d="M83.9102 12.7634H84.7263V15.6339H86.1546V16.3002H83.9612V12.7634H83.9102Z" fill="black"/>
<path d="M87.3789 12.7634V16.3002H86.5627V12.7634H87.3789Z" fill="black"/>
<path d="M88.8581 12.7634V14.1474H90.1844V12.7634H91.0005V16.3002H90.1844V14.865H88.8581V16.3515H88.042V12.8146H88.8581V12.7634Z" fill="black"/>
<path d="M52.9987 19.7858H52.0295V19.1194H54.733V19.7858H53.7639V22.6563H52.9477V19.7858H52.9987Z" fill="black"/>
<path d="M57.2835 21.1185H56.0083V21.9387H57.4365V22.605H55.1921V19.0682H57.3855V19.7346H56.0083V20.5034H57.2835V21.1185Z" fill="black"/>
<path d="M58.7119 19.7858H57.7427V19.1194H60.4462V19.7858H59.477V22.6563H58.6608V19.7858H58.7119Z" fill="black"/>
<path d="M61.3131 21.7336L61.0581 22.6563H60.2419L61.3131 19.1194H62.3843L63.4555 22.6563H62.5884L62.3333 21.7336H61.3131ZM62.2313 21.1185L62.0273 20.3497C61.9763 20.1446 61.9252 19.8883 61.8742 19.6833C61.8232 19.8883 61.7722 20.1446 61.7212 20.3497L61.5172 21.1185H62.2313Z" fill="black"/>
<path d="M63.9148 19.1195C64.1698 19.0682 64.5269 19.0682 64.986 19.0682C65.4961 19.0682 65.8531 19.1707 66.0572 19.3757C66.2612 19.5295 66.4142 19.8371 66.4142 20.1959C66.4142 20.5547 66.3122 20.8622 66.1082 21.016C65.8531 21.2723 65.4451 21.3748 64.986 21.3748C64.884 21.3748 64.782 21.3748 64.7309 21.3748V22.6563H63.9658V19.1195H63.9148ZM64.7309 20.7597C64.782 20.7597 64.884 20.7597 64.986 20.7597C65.3941 20.7597 65.6491 20.5547 65.6491 20.1959C65.6491 19.8883 65.4451 19.6833 65.037 19.6833C64.884 19.6833 64.782 19.6833 64.7309 19.7346V20.7597Z" fill="black"/>
<path d="M101.151 98.4165L104.875 96.6224L102.835 90.5739L98.3459 89.5487C97.9378 89.4462 97.4787 89.3437 96.9686 89.1899C96.3565 89.0362 95.7954 88.7286 95.2853 88.3698C94.6732 87.9597 93.857 87.3446 93.5 86.832C93.0919 86.2682 92.1737 86.4732 92.1737 87.0883C92.1737 87.7547 93.2959 89.3437 95.2853 90.5227C97.2747 91.6503 93.755 92.2142 92.4798 92.4705C91.2046 92.6755 87.2259 93.5982 87.0218 94.0082C86.6648 94.6746 87.3279 95.1872 88.6031 94.9309C89.8783 94.6746 93.806 94.162 93.9081 94.8796C93.2449 95.9048 93.347 97.1863 94.0611 98.1602C94.7752 99.0828 95.8464 100.211 96.6626 100.005C98.0908 99.6979 101.151 98.4165 101.151 98.4165Z" fill="#B78876"/>
<path d="M100.896 87.7547L104.365 99.5442L131.298 91.2915C137.113 89.4975 140.326 83.2952 138.439 77.503L131.808 56.8458L117.474 60.4339L125.33 79.5533L100.896 87.7547Z" fill="#EE3765"/>
<path d="M131.961 91.1378C131.961 91.1378 131.91 91.1378 131.808 91.189C131.706 91.2403 131.604 91.2403 131.4 91.2915C131.043 91.3941 130.533 91.5478 129.869 91.7529C128.543 92.1629 126.605 92.7268 124.207 93.4956C119.362 94.9821 112.526 97.0325 104.569 99.4929H104.518V99.4416C103.294 95.8535 102.171 91.8554 100.794 87.806L100.743 87.7034L100.845 87.6522C101.049 87.6009 101.304 87.4984 101.508 87.4471C110.486 84.4229 118.8 81.7062 125.279 79.5021L125.228 79.6046C123.34 74.9913 121.759 71.1469 120.688 68.5327C120.178 67.2 119.719 66.1748 119.464 65.4572C119.311 65.0984 119.208 64.8421 119.157 64.6371C119.106 64.432 119.055 64.3808 119.055 64.3808C119.055 64.3808 119.106 64.4833 119.157 64.6371C119.259 64.8421 119.362 65.0984 119.515 65.4059C119.821 66.1236 120.229 67.1487 120.79 68.4302C121.861 71.0957 123.442 74.8888 125.381 79.5021L125.432 79.5533H125.381C118.851 81.7574 110.588 84.5254 101.61 87.5497C101.355 87.6522 101.151 87.7034 100.947 87.7547L100.998 87.6522C102.324 91.7529 103.498 95.6998 104.722 99.2879L104.62 99.2366C112.577 96.8275 119.413 94.7771 124.258 93.2906C126.656 92.573 128.594 92.0091 129.92 91.5991C130.584 91.394 131.094 91.2403 131.451 91.1378C131.604 91.0865 131.757 91.0352 131.859 91.0352C131.91 91.1378 131.961 91.1378 131.961 91.1378Z" fill="#263238"/>
<path d="M130.38 83.0389C130.38 83.0389 130.176 82.7313 129.819 82.27C129.462 81.8087 128.9 81.2449 128.186 80.7835C127.472 80.3222 126.707 80.0146 126.146 79.8609C125.585 79.7071 125.228 79.6558 125.228 79.6046C125.228 79.6046 125.33 79.6046 125.483 79.6046C125.636 79.6046 125.891 79.6558 126.146 79.7071C126.707 79.8609 127.472 80.1172 128.237 80.6297C129.002 81.1423 129.564 81.7062 129.87 82.2188C130.023 82.4751 130.176 82.6801 130.227 82.7826C130.329 82.9364 130.38 83.0389 130.38 83.0389Z" fill="#263238"/>
<path d="M123.851 61.459C123.907 61.459 123.953 60.6788 123.953 59.7162C123.953 58.7537 123.907 57.9735 123.851 57.9735C123.794 57.9735 123.749 58.7537 123.749 59.7162C123.749 60.6788 123.794 61.459 123.851 61.459Z" fill="#FAFBFB"/>
<path d="M129.267 61.7954C129.321 61.7792 129.136 60.9964 128.854 60.0471C128.571 59.0978 128.298 58.3414 128.244 58.3576C128.19 58.3738 128.376 59.1566 128.658 60.1059C128.941 61.0552 129.213 61.8116 129.267 61.7954Z" fill="#FAFBFB"/>
<path d="M125.891 66.6362C125.891 66.6874 125.126 66.6362 124.259 66.3799C123.391 66.1236 122.728 65.7135 122.728 65.7135C122.728 65.6622 123.442 65.9698 124.31 66.2261C125.177 66.5336 125.891 66.6362 125.891 66.6362Z" fill="#FAFBFB"/>
<path d="M132.413 67.7053C132.572 66.7847 132.655 66.0306 132.6 66.021C132.544 66.0113 132.371 66.7498 132.212 67.6703C132.054 68.5909 131.971 69.345 132.026 69.3546C132.082 69.3643 132.255 68.6259 132.413 67.7053Z" fill="#FAFBFB"/>
<path d="M129.823 73.7579C129.874 73.7343 129.593 73.0056 129.195 72.1302C128.796 71.2548 128.432 70.5642 128.381 70.5877C128.329 70.6113 128.611 71.34 129.009 72.2154C129.407 73.0909 129.772 73.7814 129.823 73.7579Z" fill="#FAFBFB"/>
<path d="M128.91 77.6023C128.935 77.5514 128.297 77.1897 127.486 76.7946C126.675 76.3994 125.997 76.1204 125.972 76.1714C125.948 76.2223 126.586 76.5839 127.397 76.9791C128.208 77.3742 128.885 77.6533 128.91 77.6023Z" fill="#FAFBFB"/>
<path d="M135.838 76.5803C135.889 76.5803 135.583 77.2467 135.226 78.0668C134.869 78.887 134.613 79.5533 134.613 79.5021C134.562 79.5021 134.766 78.7844 135.124 77.9643C135.379 77.1954 135.787 76.5803 135.838 76.5803Z" fill="#FAFBFB"/>
<path d="M133.878 85.9064C133.934 85.9008 133.901 85.097 133.804 84.1109C133.708 83.1248 133.584 82.3299 133.528 82.3355C133.471 82.3411 133.505 83.145 133.601 84.131C133.698 85.1171 133.822 85.912 133.878 85.9064Z" fill="#FAFBFB"/>
<path d="M129.036 88.8069C129.074 88.7652 128.567 88.2345 127.903 87.6216C127.239 87.0087 126.67 86.5456 126.632 86.5873C126.594 86.629 127.101 87.1597 127.765 87.7726C128.429 88.3855 128.998 88.8486 129.036 88.8069Z" fill="#FAFBFB"/>
<path d="M119.688 91.1345C120.254 90.3585 120.677 89.7023 120.631 89.6688C120.586 89.6353 120.09 90.2372 119.523 91.0132C118.956 91.7892 118.534 92.4454 118.579 92.4789C118.625 92.5124 119.121 91.9105 119.688 91.1345Z" fill="#FAFBFB"/>
<path d="M123.289 85.7043C123.238 85.7556 122.626 85.2943 122.014 84.5767C121.351 83.859 120.943 83.2439 120.994 83.1927C121.045 83.1414 121.504 83.7565 122.167 84.4741C122.779 85.1405 123.34 85.6531 123.289 85.7043Z" fill="#FAFBFB"/>
<path d="M116.964 86.627C116.964 86.6783 116.403 86.832 115.689 86.7808C114.975 86.7295 114.414 86.4732 114.465 86.422C114.465 86.3707 115.026 86.5245 115.689 86.5757C116.403 86.627 116.964 86.5757 116.964 86.627Z" fill="#FAFBFB"/>
<path d="M112.963 93.5761C113.019 93.5665 112.96 92.9481 112.831 92.1947C112.702 91.4414 112.553 90.8384 112.498 90.848C112.442 90.8576 112.501 91.476 112.63 92.2294C112.758 92.9827 112.908 93.5857 112.963 93.5761Z" fill="#FAFBFB"/>
<path d="M108.22 96.0108C108.25 95.963 107.579 95.4831 106.722 94.9391C105.864 94.3951 105.144 93.9929 105.114 94.0408C105.084 94.0887 105.755 94.5685 106.613 95.1125C107.47 95.6565 108.19 96.0587 108.22 96.0108Z" fill="#FAFBFB"/>
<path d="M109.925 87.4984C109.976 87.5497 109.517 88.0622 109.007 88.7799C108.497 89.4975 108.14 90.1126 108.089 90.0613C108.038 90.0613 108.344 89.395 108.905 88.6774C109.364 87.9597 109.874 87.4471 109.925 87.4984Z" fill="#FAFBFB"/>
<path d="M106.264 89.1438C106.289 89.0932 105.901 88.8469 105.397 88.5937C104.893 88.3405 104.464 88.1763 104.439 88.2269C104.413 88.2776 104.802 88.5239 105.306 88.7771C105.809 89.0303 106.238 89.1945 106.264 89.1438Z" fill="#FAFBFB"/>
<g opacity="0.2">
<path d="M125.177 79.092C126.605 79.2458 128.033 79.3995 129.513 79.5533C130.023 79.6046 130.533 79.7071 130.992 79.8609C131.451 80.0659 131.859 80.4247 132.012 80.886C132.165 81.3474 132.063 81.9625 131.604 82.2188C131.196 82.4751 130.686 82.3725 130.278 82.1675C129.87 81.9625 129.564 81.6037 129.206 81.2961C128.543 80.7835 127.829 80.3735 127.013 80.1172C126.656 80.0146 126.248 79.9634 125.942 79.7584C125.636 79.5533 125.381 79.1945 125.483 78.7844" fill="black"/>
</g>
</svg>
