<svg width="330" height="214" viewBox="0 0 330 214" fill="none" xmlns="http://www.w3.org/2000/svg">
<g clip-path="url(#clip0_2_49)">
<path d="M119.411 83.836L120.429 85.7857C120.522 85.8785 120.614 85.9714 120.707 85.9714L122.928 86.2499C123.206 86.2499 123.299 86.6212 123.114 86.8998L121.54 88.4781C121.447 88.5709 121.447 88.6638 121.447 88.7566L121.818 90.892C121.91 91.1705 121.54 91.449 121.262 91.2633L119.318 90.2421C119.226 90.1492 119.133 90.1492 118.948 90.2421L117.004 91.2633C116.726 91.3562 116.449 91.1705 116.449 90.892L116.819 88.7566C116.819 88.6638 116.819 88.4781 116.726 88.4781L115.153 86.8998C114.968 86.7141 115.06 86.3427 115.338 86.2499L117.56 85.9714C117.652 85.9714 117.745 85.8785 117.837 85.7857L118.856 83.836C118.856 83.5575 119.226 83.5575 119.411 83.836Z" fill="#E0E0E0"/>
<path d="M316.3 27.7596L317.318 29.7093C317.411 29.8022 317.503 29.895 317.596 29.895L319.818 30.1735C320.095 30.1735 320.188 30.5449 320.003 30.8234L318.429 32.4017C318.337 32.4946 318.337 32.5874 318.337 32.6803L318.707 34.8156C318.799 35.0941 318.429 35.3727 318.151 35.187L316.208 34.1657C316.115 34.0729 316.022 34.0729 315.837 34.1657L313.893 35.187C313.616 35.2798 313.338 35.0941 313.338 34.8156L313.708 32.6803C313.708 32.5874 313.708 32.4017 313.616 32.4017L312.042 30.8234C311.857 30.6377 311.949 30.2664 312.227 30.1735L314.449 29.895C314.541 29.895 314.634 29.8022 314.726 29.7093L315.745 27.7596C315.837 27.4811 316.208 27.4811 316.3 27.7596Z" fill="#E0E0E0"/>
<path d="M121.633 7.89153L121.355 9.09847C121.355 9.19131 121.355 9.19131 121.447 9.28415L122.28 10.2126C122.373 10.3054 122.28 10.4911 122.188 10.5839L120.985 10.7696C120.892 10.7696 120.892 10.8625 120.799 10.8625L120.244 11.9766C120.151 12.1622 119.966 12.1622 119.874 11.9766L119.318 10.8625C119.318 10.7696 119.226 10.7696 119.133 10.7696L117.93 10.5839C117.745 10.5839 117.745 10.3054 117.837 10.2126L118.763 9.377C118.856 9.377 118.856 9.28415 118.856 9.19131L118.67 7.98437C118.67 7.79869 118.856 7.70585 118.948 7.79869L120.059 8.44858C120.151 8.44858 120.151 8.44858 120.244 8.44858L121.355 7.89153C121.54 7.613 121.725 7.70585 121.633 7.89153Z" fill="#E0E0E0"/>
<path d="M23.3268 76.9657L22.9565 78.8226C22.9565 78.9154 22.9565 79.0082 23.0491 79.1011L24.345 80.4009C24.5301 80.5865 24.4376 80.8651 24.1599 80.8651L22.3085 81.0508C22.216 81.0508 22.1234 81.1436 22.1234 81.2364L21.2903 82.9076C21.1977 83.0933 20.8275 83.0933 20.7349 82.9076L19.9944 81.2364C19.9944 81.1436 19.9018 81.0508 19.8092 81.0508L17.9579 80.7722C17.6802 80.7722 17.5876 80.4009 17.7728 80.2152L19.1613 78.9154C19.2538 78.8226 19.2538 78.7297 19.2538 78.6369L18.9761 76.78C18.9761 76.5015 19.1613 76.3158 19.439 76.5015L21.1052 77.4299C21.1977 77.5228 21.2903 77.5228 21.3829 77.4299L23.0491 76.5944C23.1416 76.5015 23.4193 76.6872 23.3268 76.9657Z" fill="#E0E0E0"/>
<path d="M208.645 157.367L187.725 214L207.349 213.721L227.066 161.637L208.645 157.367Z" fill="#F5F5F5"/>
<path d="M328.889 132.114L318.522 132.578L315.56 159.688L303.248 134.156L284.828 143.626C284.828 143.626 296.306 171.2 302.323 179.927C302.323 179.927 311.209 192.739 323.243 187.819C333.795 183.548 328.889 132.114 328.889 132.114Z" fill="#F5F5F5"/>
<path d="M245.764 80.2152L248.078 119.394C248.449 126.079 250.393 135.734 260.853 134.62C269.832 132.949 271.683 124.129 271.313 117.909C271.128 114.938 271.035 112.524 271.035 112.153C271.035 112.153 280.94 110.574 281.032 100.733C281.125 95.9054 280.384 86.0642 279.736 77.1514C278.996 67.5887 270.942 60.1614 261.408 60.1614H260.482C250.208 60.8113 244.931 69.9098 245.764 80.2152Z" fill="#F5F5F5"/>
<path d="M271.035 112.338C271.035 112.338 264.833 112.71 258.168 108.532C258.168 108.532 261.316 115.774 271.128 114.938L271.035 112.338Z" fill="#E0E0E0"/>
<path d="M263.259 82.5362C263.074 82.7219 261.871 81.8863 260.205 81.9792C258.539 82.072 257.428 82.9076 257.15 82.7219C257.057 82.6291 257.243 82.2577 257.705 81.7935C258.168 81.4221 259.094 80.9579 260.112 80.9579C261.13 80.9579 262.056 81.2364 262.519 81.6078C263.167 82.072 263.352 82.4434 263.259 82.5362Z" fill="#E0E0E0"/>
<path d="M262.056 87.2712C262.056 88.0139 261.501 88.5709 260.76 88.6638C260.02 88.6638 259.372 88.1996 259.372 87.4568C259.372 86.7141 259.927 86.1571 260.668 86.0642C261.408 86.0642 261.964 86.6213 262.056 87.2712Z" fill="#E0E0E0"/>
<path d="M268.166 93.6772C268.166 93.5844 269.091 93.3987 270.665 93.213C271.035 93.213 271.405 93.1202 271.498 92.8416C271.59 92.5631 271.405 92.0989 271.22 91.7275C270.85 90.7991 270.48 89.7779 270.109 88.7566C268.536 84.5787 267.332 81.0508 267.518 80.9579C267.703 80.8651 269.091 84.3002 270.665 88.4781C271.035 89.4993 271.405 90.5206 271.776 91.449C271.961 91.9132 272.146 92.3774 271.961 92.9345C271.868 93.213 271.59 93.3987 271.313 93.4915C271.035 93.5844 270.85 93.5844 270.665 93.5844C269.184 93.7701 268.166 93.7701 268.166 93.6772Z" fill="#E0E0E0"/>
<path d="M263.259 77.2443C263.074 77.6156 261.778 77.3371 260.205 77.3371C258.631 77.3371 257.335 77.7085 257.15 77.3371C257.057 77.1514 257.335 76.8729 257.891 76.5015C258.446 76.223 259.279 75.9445 260.205 75.9445C261.13 75.9445 261.964 76.1302 262.519 76.5015C263.074 76.78 263.352 77.1514 263.259 77.2443Z" fill="#E0E0E0"/>
<path d="M278.348 79.6581C278.163 79.9367 276.867 79.751 275.293 79.751C273.719 79.751 272.424 80.1223 272.238 79.8438C272.146 79.6581 272.424 79.3796 272.886 79.1011C273.442 78.8226 274.182 78.544 275.201 78.544C276.126 78.544 276.959 78.7297 277.515 78.9154C278.163 79.2868 278.44 79.4725 278.348 79.6581Z" fill="#E0E0E0"/>
<path d="M246.597 87.5497C246.412 87.4568 239.84 85.5072 240.025 92.2846C240.21 99.062 246.968 97.4837 246.968 97.2981C246.968 97.1124 246.597 87.5497 246.597 87.5497Z" fill="#F5F5F5"/>
<path d="M244.839 94.7913C244.839 94.7913 244.746 94.8842 244.561 94.977C244.376 95.0699 244.006 95.1627 243.635 94.977C242.895 94.6985 242.247 93.5844 242.247 92.3774C242.247 91.7276 242.339 91.1705 242.525 90.7063C242.71 90.2421 242.987 89.8707 243.358 89.7779C243.728 89.685 244.006 89.8707 244.098 90.0564C244.191 90.2421 244.191 90.3349 244.191 90.4278C244.191 90.4278 244.376 90.3349 244.283 90.0564C244.283 89.9636 244.191 89.7779 244.006 89.685C243.82 89.5922 243.635 89.4994 243.358 89.4994C242.802 89.5922 242.339 90.0564 242.154 90.6135C241.877 91.1705 241.784 91.8204 241.784 92.4703C241.877 93.8629 242.617 95.0699 243.635 95.3484C244.098 95.4412 244.468 95.2555 244.746 95.1627C244.839 94.977 244.839 94.7913 244.839 94.7913Z" fill="#E0E0E0"/>
<path d="M236.878 77.3371C238.081 74.8304 238.266 71.9523 238.822 69.2599C239.377 66.5675 240.673 63.6894 243.173 62.5753H243.265C245.579 61.4612 248.449 61.2755 250.485 62.761C250.67 59.233 253.54 56.1692 256.965 55.0551C260.297 53.941 265.851 54.0338 269.184 55.1479C271.776 55.9835 274.367 57.9332 277.607 60.8113C278.996 62.0182 280.199 63.318 281.31 64.7106L284.92 73.7163L282.698 78.7297C282.606 79.1011 282.421 79.3796 282.236 79.751L280.662 90.0564C280.292 87.2711 279.829 77.6156 279.459 74.8304C275.201 74.9232 271.22 73.5306 268.073 70.5597C266.407 68.9813 265.111 66.9388 262.982 66.1033C260.297 64.9892 257.243 66.1961 254.558 67.3102L254.651 67.2174C253.262 67.9601 252.059 68.9813 251.041 70.2811C252.059 75.6659 251.874 81.3293 250.578 86.7141C250.393 87.5497 249.745 89.2208 249.004 89.5922C247.523 90.2421 247.06 88.7566 246.042 88.0139C245.302 87.4568 244.283 87.4568 243.265 87.5497C242.525 85.8785 241.599 83.0933 240.951 80.6794C240.025 81.0508 239.1 81.1436 238.174 81.0508C238.452 80.308 238.637 79.6581 238.914 78.9154C238.544 79.1939 238.174 79.4725 237.711 79.5653C237.248 79.6581 236.785 79.5653 236.508 79.1011C236.323 78.4512 236.6 77.8013 236.878 77.3371Z" fill="#E0E0E0"/>
<path d="M278.348 82.072C278.163 82.2577 276.959 81.4221 275.293 81.515C273.627 81.6078 272.516 82.4434 272.238 82.2577C272.146 82.1649 272.331 81.7935 272.794 81.3293C273.257 80.9579 274.182 80.4937 275.201 80.4937C276.219 80.4937 277.144 80.7722 277.607 81.1436C278.255 81.6078 278.44 81.9792 278.348 82.072Z" fill="#E0E0E0"/>
<path d="M276.034 86.9926C276.034 87.7354 275.478 88.2924 274.738 88.3853C273.997 88.3853 273.349 87.921 273.349 87.1783C273.349 86.4356 273.905 85.8785 274.645 85.7857C275.386 85.7857 276.034 86.2499 276.034 86.9926Z" fill="#E0E0E0"/>
<path d="M280.384 63.5965C281.31 64.6178 282.606 65.5462 283.994 65.3605C284.365 65.2677 285.475 64.8035 285.475 64.8035C285.938 65.082 285.938 66.7531 285.661 67.2174C285.383 67.6816 284.735 68.3314 284.735 68.3314C286.401 69.0742 287.882 68.61 289.548 67.8672C289.456 70.8382 287.604 73.6234 284.92 74.9232C284.087 75.3874 283.069 75.5731 282.236 75.1089C281.495 74.7375 281.217 73.8091 280.94 73.0664C280.014 70.1883 279.366 67.1245 279.181 64.0607L280.384 63.5965Z" fill="#E0E0E0"/>
<path d="M276.774 120.044L271.128 118.002L249.467 117.352L244.376 118.744L245.024 131L256.41 138.241L267.518 138.056L274.367 131.742L275.941 125.429L276.774 120.044Z" fill="#F5F5F5"/>
<path d="M212.533 138.891C214.107 135.549 215.68 132.856 217.069 130.721C219.753 126.543 223.919 123.572 228.732 122.458L246.875 117.538C246.875 117.538 248.079 129.793 260.575 129.793C273.072 129.793 273.349 118.373 273.349 118.373L296.213 126.729C296.954 127.007 301.86 128.679 307.506 140.934C312.875 152.539 315.282 158.481 315.282 158.481L293.714 164.33L292.233 184.384L293.529 213.629L227.714 213.443L227.251 182.62L226.973 161.544L225.585 164.144L205.035 155.881C205.128 155.974 207.164 149.939 212.533 138.891Z" fill="#EBEBEB"/>
<path d="M227.37 182.336C227.472 182.334 227.418 175.267 227.249 166.552C227.08 157.837 226.861 150.774 226.758 150.776C226.656 150.778 226.71 157.844 226.879 166.559C227.048 175.274 227.268 182.338 227.37 182.336Z" fill="#E0E0E0"/>
<path d="M268.813 99.2477C268.813 99.3406 268.443 99.4334 267.795 99.4334C267.147 99.4334 266.222 99.2477 265.389 98.5978C264.555 97.9479 264.185 97.1124 264 96.4625C263.815 95.8126 263.907 95.4412 264 95.4412C264.093 95.4412 264.093 95.8126 264.37 96.3696C264.555 96.9267 265.018 97.6694 265.759 98.2265C266.499 98.7835 267.24 99.062 267.888 99.062C268.351 99.1549 268.721 99.1549 268.813 99.2477Z" fill="#E0E0E0"/>
<path d="M328.334 116.423C328.334 116.423 329.537 113.36 328.056 112.524C326.575 111.688 316.856 108.718 315.837 109.089C314.819 109.46 314.449 110.017 314.171 111.131C313.893 112.246 313.616 113.081 313.616 113.081C313.616 113.081 312.69 112.153 311.024 113.081C311.024 113.081 309.265 114.01 309.08 114.752C308.802 115.495 309.265 116.609 309.543 117.352C309.82 118.095 311.764 120.973 311.764 120.973C311.764 120.973 311.764 123.387 313.338 125.986C314.912 128.493 318.059 129.236 318.614 131.092L317.966 139.355L329.167 145.669C329.167 145.669 328.982 135.363 328.797 130.907C328.612 126.357 328.612 121.901 328.889 120.416C329.167 118.744 328.797 116.609 328.334 116.423Z" fill="#F5F5F5"/>
<path d="M322.595 120.694C322.502 120.508 322.41 120.416 322.317 120.323C322.224 120.044 322.039 119.58 322.317 119.023V119.116C321.947 118.93 321.484 118.837 320.928 118.559L321.021 118.466C321.114 118.837 321.299 119.209 321.391 119.58C321.576 119.766 321.669 119.951 321.854 120.137C321.947 120.323 322.039 120.601 322.039 120.88C322.039 121.437 321.669 121.901 321.206 122.18C320.928 122.272 320.651 122.365 320.373 122.272C320.095 122.18 319.818 122.087 319.54 121.994C318.985 121.715 318.522 121.437 318.059 121.066C317.781 120.787 317.504 120.508 317.226 120.23L317.318 120.323C316.67 120.23 316.022 119.951 315.56 119.58C315.097 119.116 314.819 118.559 314.819 117.909L314.912 118.002C314.449 117.909 314.079 117.723 313.801 117.445C313.616 117.352 313.523 117.166 313.431 116.98C313.338 116.795 313.338 116.609 313.338 116.423C313.338 115.681 313.431 115.124 313.523 114.567C313.616 114.102 313.708 113.638 313.801 113.452C313.893 113.174 313.893 113.081 313.893 113.081C313.893 113.081 313.893 113.267 313.801 113.452C313.801 113.731 313.708 114.102 313.616 114.659C313.523 115.124 313.431 115.774 313.523 116.423C313.523 116.609 313.523 116.795 313.616 116.888C313.708 117.073 313.801 117.166 313.986 117.259C314.264 117.445 314.634 117.63 315.004 117.816H315.097V117.909C315.097 118.466 315.374 119.023 315.745 119.394C316.208 119.766 316.763 120.044 317.411 120.137H317.504C317.689 120.416 318.059 120.694 318.337 120.973C318.799 121.344 319.262 121.623 319.725 121.901C320.003 121.994 320.188 122.087 320.466 122.18C320.743 122.18 320.928 122.18 321.206 122.087C321.669 121.901 321.947 121.437 321.947 120.973C321.947 120.508 321.669 120.137 321.391 119.859C321.299 119.487 321.114 119.023 321.021 118.744L320.928 118.559L321.114 118.652C321.669 118.837 322.132 119.023 322.502 119.209H322.595L322.502 119.302C322.224 119.766 322.317 120.23 322.41 120.416C322.502 120.601 322.595 120.694 322.595 120.694Z" fill="#E0E0E0"/>
<path d="M325.927 115.402C325.927 115.402 325.742 115.402 325.372 115.309C325.001 115.216 324.539 115.124 323.983 115.031C323.335 114.938 322.687 114.752 321.947 114.567C321.576 114.474 321.114 114.381 320.743 114.288C320.281 114.195 319.91 114.102 319.447 114.102C318.985 114.195 318.707 114.474 318.522 114.752C318.337 115.124 318.244 115.495 318.059 115.866C317.874 116.609 317.781 117.352 317.689 117.909C317.504 119.116 317.504 119.859 317.411 119.859C317.411 119.859 317.411 119.673 317.411 119.302C317.411 118.93 317.411 118.466 317.504 117.909C317.596 117.352 317.689 116.609 317.874 115.866C317.966 115.495 318.059 115.031 318.337 114.659C318.522 114.288 318.985 113.917 319.447 113.824C319.91 113.731 320.373 113.917 320.836 114.01C321.299 114.102 321.669 114.195 322.039 114.288C322.78 114.474 323.52 114.659 324.076 114.752C324.631 114.845 325.094 115.031 325.464 115.124C325.835 115.216 325.927 115.309 325.927 115.402Z" fill="#E0E0E0"/>
<path d="M324.261 113.174C324.261 113.174 324.076 113.174 323.705 113.081C323.335 112.988 322.872 112.895 322.317 112.71C321.762 112.524 321.021 112.431 320.188 112.246C319.818 112.153 319.355 112.06 318.892 112.06C318.429 111.967 317.966 111.967 317.596 112.153C317.133 112.338 316.856 112.617 316.578 112.988C316.3 113.36 316.115 113.731 316.022 114.102C315.745 114.845 315.56 115.588 315.375 116.145C315.097 117.352 315.004 118.095 315.004 118.095C315.004 118.095 315.004 117.909 315.004 117.538C315.004 117.166 315.097 116.702 315.189 116.052C315.282 115.402 315.467 114.752 315.745 113.917C315.93 113.545 316.022 113.081 316.3 112.71C316.578 112.338 316.948 111.967 317.411 111.781C317.874 111.596 318.337 111.596 318.799 111.689C319.262 111.781 319.633 111.874 320.095 111.874C320.928 112.06 321.576 112.246 322.224 112.338C322.78 112.524 323.335 112.617 323.613 112.71C324.076 113.081 324.261 113.174 324.261 113.174Z" fill="#E0E0E0"/>
<path d="M328.334 114.288C328.334 114.381 327.778 114.01 327.038 113.731C326.297 113.452 325.649 113.452 325.649 113.36C325.649 113.267 326.297 113.174 327.13 113.545C327.871 113.824 328.334 114.288 328.334 114.288Z" fill="#E0E0E0"/>
<path d="M318.985 110.482C318.985 110.574 318.429 110.482 317.504 110.482C317.041 110.482 316.485 110.667 316.022 110.946C315.467 111.224 315.189 111.874 315.004 112.524C314.634 113.917 314.449 115.124 314.356 116.052C314.171 116.98 314.171 117.538 314.079 117.538C314.079 117.538 314.079 116.98 314.171 116.052C314.264 115.124 314.449 113.824 314.819 112.431C314.912 112.06 315.004 111.781 315.189 111.41C315.374 111.131 315.652 110.853 315.93 110.667C316.485 110.296 317.041 110.203 317.504 110.203C317.966 110.203 318.337 110.203 318.614 110.296C318.799 110.389 318.985 110.389 318.985 110.482Z" fill="#E0E0E0"/>
<path d="M324.049 111.771C324.061 111.721 323.509 111.537 322.816 111.36C322.122 111.183 321.55 111.079 321.537 111.129C321.525 111.179 322.077 111.363 322.77 111.54C323.464 111.717 324.036 111.821 324.049 111.771Z" fill="#E0E0E0"/>
<path d="M315.097 118.559C315.097 118.652 314.356 118.837 313.616 119.394C312.875 119.951 312.412 120.601 312.412 120.601C312.32 120.601 312.69 119.859 313.523 119.209C314.264 118.559 315.097 118.466 315.097 118.559Z" fill="#E0E0E0"/>
<path d="M313.523 116.98C313.523 116.98 313.431 117.166 313.153 117.259C312.875 117.445 312.505 117.538 312.042 117.538C311.579 117.538 311.209 117.352 310.931 117.259C310.654 117.166 310.561 117.073 310.561 116.98C310.561 116.888 311.209 117.259 312.042 117.259C312.875 117.352 313.523 116.888 313.523 116.98Z" fill="#E0E0E0"/>
<path d="M324.261 121.623C324.261 121.715 323.613 121.623 322.687 121.901C321.762 122.18 320.466 122.737 319.447 123.758C318.429 124.779 317.874 126.079 317.689 127.007C317.504 127.936 317.504 128.586 317.411 128.586C317.411 128.586 317.411 128.4 317.411 128.121C317.411 127.843 317.411 127.472 317.504 126.915C317.689 125.986 318.244 124.593 319.262 123.479C320.373 122.365 321.669 121.808 322.595 121.623C323.058 121.53 323.52 121.53 323.798 121.53C324.168 121.53 324.261 121.623 324.261 121.623Z" fill="#E0E0E0"/>
<path d="M326.02 132.114C326.02 132.114 325.649 132.299 325.094 132.299C324.539 132.392 323.613 132.392 322.78 132.207C321.854 132.021 321.114 131.742 320.558 131.464C320.003 131.185 319.725 131 319.725 130.907C319.725 130.814 321.021 131.649 322.78 131.928C324.539 132.299 326.02 132.021 326.02 132.114Z" fill="#E0E0E0"/>
<path d="M108.303 143.162L135.24 213.721L115.708 213.814L92.3815 156.252L108.303 143.162Z" fill="#F5F5F5"/>
<path d="M0.740526 122.458L10.2749 119.209L13.3296 148.639L31.4726 132.764L42.7658 146.411C42.7658 146.411 23.7896 166.279 16.8471 169.065C16.8471 169.065 6.38709 174.171 1.94389 167.486C-1.48107 162.287 0.740526 122.458 0.740526 122.458Z" fill="#F5F5F5"/>
<path d="M92.6592 104.911C92.3815 98.2265 92.1038 91.449 90.7153 84.8573C89.4194 78.2655 87.7532 71.8594 83.5877 66.5675L45.08 68.9813C43.5989 74.9232 42.2104 81.0508 42.8584 87.1783C43.5063 93.1202 46.0982 98.7835 45.7279 104.725C45.4502 108.903 43.6915 112.895 42.4881 116.888C41.1922 120.88 40.4516 125.336 42.0253 129.236C42.3955 130.257 43.0435 131.185 43.8766 131.742C44.9874 132.485 46.3759 132.485 47.6718 132.485C63.0379 132.392 78.4965 131.928 93.8626 131C93.3997 122.272 93.0295 113.545 92.6592 104.911Z" fill="#E0E0E0"/>
<path d="M54.892 59.3258C58.5021 57.3761 62.7602 57.0048 66.8331 57.7475C70.8135 58.4902 74.6087 60.3471 78.1262 62.2967C80.1627 63.4108 82.1066 64.7106 83.5877 66.4746C86.1795 69.7241 88.864 75.1089 89.1417 79.2868C89.3268 82.6291 88.1234 91.1705 86.7349 94.2343C85.439 97.1124 79.3296 99.2477 76.2749 99.9905L48.2272 67.9601C49.1529 64.3393 51.6522 61.1826 54.892 59.3258Z" fill="#E0E0E0"/>
<path d="M50.1711 63.7822L56.8359 62.5753C53.2258 71.3024 52.4853 91.1705 50.4488 100.362C47.9495 96.8338 42.2104 85.9714 42.4881 81.7006C42.6732 77.2443 42.2104 63.1323 50.1711 63.7822Z" fill="#E0E0E0"/>
<path d="M46.4684 77.987C46.8387 71.3024 51.1893 63.1323 57.8541 63.7822L73.1276 67.4959C78.0336 68.7028 81.366 72.8807 81.7363 77.8941C81.7363 78.1727 81.7363 77.8013 81.7363 77.987L78.7742 117.909L54.5217 144.462L57.1136 116.98C57.1136 113.731 57.021 111.131 57.021 111.131C57.021 111.131 48.5049 109.739 46.6536 98.6907C45.8205 93.213 46.0056 85.3215 46.4684 77.987Z" fill="#F5F5F5"/>
<path d="M50.6339 86.9926C50.6339 87.7354 51.1893 88.3852 52.0224 88.3852C52.7629 88.3852 53.5035 87.8282 53.5035 87.0855C53.5035 86.3427 52.9481 85.6928 52.115 85.6928C51.2819 85.6 50.6339 86.2499 50.6339 86.9926Z" fill="#E0E0E0"/>
<path d="M48.1346 82.2577C48.3198 82.4434 49.338 81.6078 50.9116 81.6078C52.4853 81.6078 53.5961 82.3505 53.6886 82.1649C53.7812 82.072 53.5961 81.7006 53.1332 81.4221C52.6704 81.1436 51.8373 80.7722 50.9116 80.7722C49.986 80.7722 49.1529 81.1436 48.69 81.515C48.2272 81.8863 48.0421 82.2577 48.1346 82.2577Z" fill="#E0E0E0"/>
<path d="M63.8709 86.8069C63.8709 87.5497 64.4263 88.1996 65.2594 88.1996C66 88.1996 66.7405 87.6425 66.7405 86.8998C66.7405 86.157 66.1851 85.5072 65.352 85.5072C64.6115 85.5072 63.8709 86.0642 63.8709 86.8069Z" fill="#E0E0E0"/>
<path d="M62.6676 82.1649C62.8527 82.3505 63.9635 81.515 65.4446 81.515C66.9256 81.515 68.129 82.2577 68.2216 82.072C68.3141 81.9792 68.129 81.6078 67.6662 81.3293C67.2033 80.9579 66.3702 80.6794 65.4446 80.6794C64.5189 80.6794 63.6858 81.0508 63.223 81.4221C62.7602 81.7935 62.575 82.072 62.6676 82.1649Z" fill="#E0E0E0"/>
<path d="M58.0392 94.2343C58.0392 94.1414 57.1136 93.9557 55.5399 93.7701C55.1697 93.7701 54.7994 93.6772 54.7068 93.3987C54.6143 93.1202 54.7994 92.656 54.9845 92.1917C55.3548 91.2633 55.7251 90.2421 56.0953 89.2208C57.669 84.9501 58.7798 81.4221 58.6872 81.4221C58.5021 81.3293 57.1136 84.7644 55.5399 89.0351C55.1697 90.0564 54.7994 91.0776 54.4291 92.0061C54.244 92.4703 54.0589 92.9345 54.244 93.5844C54.3366 93.8629 54.6143 94.0486 54.892 94.1414C55.1697 94.2343 55.3548 94.2343 55.5399 94.2343C57.021 94.3271 58.0392 94.3271 58.0392 94.2343Z" fill="#E0E0E0"/>
<path d="M71.7391 107.139C71.7391 107.139 68.2216 114.845 57.1136 113.824V111.224C57.021 111.131 64.3338 111.596 71.7391 107.139Z" fill="#EBEBEB"/>
<path d="M63.1304 76.5944C63.3155 76.9657 64.7966 76.78 66.6479 76.9657C68.4067 77.1514 69.8878 77.6156 70.1655 77.2442C70.258 77.0586 69.9803 76.6872 69.4249 76.3158C68.8695 75.9445 67.9439 75.5731 66.8331 75.3874C65.7223 75.2946 64.7966 75.4803 64.1486 75.7588C63.4081 76.1302 63.0378 76.4087 63.1304 76.5944Z" fill="#E0E0E0"/>
<path d="M48.5974 77.6156C48.8751 77.987 49.8934 77.6156 51.1893 77.6156C52.4852 77.5228 53.5035 77.8013 53.7812 77.4299C53.8737 77.2442 53.6886 76.8729 53.2258 76.5944C52.7629 76.223 52.0224 76.0373 51.0967 76.0373C50.2636 76.0373 49.4305 76.4087 49.0603 76.78C48.5974 77.0586 48.5049 77.4299 48.5974 77.6156Z" fill="#E0E0E0"/>
<path d="M49.338 67.7744C49.986 66.1032 51.8373 65.082 53.5961 64.9891C55.3548 64.8963 57.1136 65.5462 58.6872 66.4746C65.352 70.2811 68.777 79.4724 75.3492 83.3718C76.9229 84.3002 79.0519 83.4646 80.4404 84.6716C81.8289 85.9714 82.7545 88.0139 82.014 89.685C82.8471 88.4781 83.7728 87.2711 84.2356 85.7857C84.6984 84.3931 84.791 82.7219 84.0505 81.4221C83.4951 80.4009 82.4769 79.751 82.1992 78.6369C81.9215 77.7085 82.2917 76.6872 82.2917 75.6659C82.1992 74.6447 81.7363 73.7163 81.2735 72.8807C78.6816 68.3314 75.1641 64.3393 70.6283 61.8325C67.6662 60.1614 64.2412 59.233 60.9088 59.4186C57.4839 59.6043 54.1515 60.8113 51.6522 63.2252C50.1711 64.5249 48.5975 65.9176 49.338 67.7744Z" fill="#E0E0E0"/>
<path d="M80.3478 86.0642C80.4404 85.7857 86.1795 83.5575 86.3646 89.7779C86.4572 95.7197 80.4404 94.6056 80.4404 94.42C80.4404 94.2343 80.3478 86.0642 80.3478 86.0642Z" fill="#F5F5F5"/>
<path d="M82.1992 92.0989C82.1992 92.0989 82.2917 92.1918 82.4769 92.2846C82.662 92.3774 82.9397 92.3774 83.2174 92.2846C83.8654 92.0061 84.3282 90.9848 84.3282 89.9636C84.3282 89.4065 84.2356 88.9423 84.0505 88.4781C83.8654 88.0139 83.5877 87.7354 83.2174 87.7354C82.9397 87.6425 82.662 87.8282 82.5694 88.0139C82.4769 88.1996 82.5694 88.2924 82.4769 88.2924C82.4769 88.2924 82.3843 88.1996 82.3843 87.921C82.3843 87.8282 82.4769 87.6425 82.5694 87.5497C82.7546 87.4568 82.9397 87.364 83.1248 87.364C83.5877 87.364 84.0505 87.8282 84.2356 88.2924C84.5133 88.7566 84.6059 89.3137 84.6059 89.9636C84.6059 91.1705 83.9579 92.2846 83.1248 92.5631C82.662 92.656 82.3843 92.5631 82.1992 92.3774C82.2917 92.2846 82.1992 92.0989 82.1992 92.0989Z" fill="#E0E0E0"/>
<path d="M81.1809 84.6716C81.2735 86.3427 81.366 88.0139 80.6255 89.4993C79.885 90.9848 78.0336 92.0061 76.5526 91.1705C75.3492 90.5206 75.0715 89.0351 74.7938 87.7354C74.2384 83.9288 73.8681 80.0295 73.3127 76.3158L81.1809 84.6716Z" fill="#E0E0E0"/>
<path d="M61.7419 97.1124C62.2973 97.8551 62.4825 98.8763 62.2048 99.8048C61.9271 100.733 61.1865 101.476 60.2609 101.754C59.8906 101.847 59.5203 101.94 59.1501 101.754C58.5021 101.569 58.2244 100.826 57.9467 100.176C57.7616 99.6191 57.4839 99.1549 57.2987 98.5978C57.2062 98.4121 57.1136 98.2265 57.2062 98.0408C57.2987 97.8551 57.4839 97.7622 57.669 97.7622C58.9649 97.4837 60.2609 97.1124 61.4642 96.8338" fill="#EBEBEB"/>
<path d="M59.3352 101.662C59.3352 101.662 59.9832 101.754 61.094 101.383C61.6494 101.197 62.2048 100.826 62.575 100.083C62.7602 99.7119 62.8527 99.2477 62.7602 98.8764C62.7602 98.505 62.6676 98.0408 62.4825 97.6694C62.2973 97.298 62.0196 96.9267 61.7419 96.6482L61.6494 96.5553H61.5568C59.0575 97.4837 57.021 97.9479 57.1136 98.0408C57.1136 98.1336 59.1501 97.8551 61.7419 96.9267L61.5568 96.8338C61.8345 97.1124 62.0196 97.3909 62.2048 97.6694C62.4825 98.3193 62.6676 99.1549 62.2973 99.7119C62.0196 100.269 61.4642 100.64 61.0014 100.826C59.9832 101.476 59.3352 101.569 59.3352 101.662Z" fill="#E0E0E0"/>
<path d="M86.6424 119.58C86.087 119.209 78.1262 117.63 78.1262 117.63L59.1501 118.28L52.3927 119.58C52.3927 119.58 51.2819 140.748 51.467 141.119C51.6522 141.491 60.5386 148.639 60.9088 149.104C61.2791 149.475 79.3296 143.255 79.3296 143.255L91.0856 121.623L86.6424 119.58Z" fill="#F5F5F5"/>
<path d="M84.0505 117.538C84.9762 117.538 95.5288 120.323 98.9537 124.872C103.675 131.092 111.543 140.377 111.543 140.377L91.641 156.81L87.2903 182.248C87.2903 182.248 95.1585 204.252 96.3619 213.257C96.3619 213.257 31.0098 213.536 32.3058 213.257C32.3058 213.257 36.9341 177.885 36.0084 165.629C35.1753 153.374 35.7307 134.899 35.7307 134.899L43.9692 120.508L56.3731 118.652C56.3731 118.652 51.5596 127.75 61.5568 129.328C71.9243 131.092 84.0505 117.538 84.0505 117.538Z" fill="#EBEBEB"/>
<path d="M54.9846 119.023C54.9846 119.023 43.5063 120.601 39.7111 121.53C35.9159 122.458 21.1052 138.52 21.1052 138.52L36.3787 154.953L42.9509 141.119L54.9846 119.023Z" fill="#EBEBEB"/>
<path d="M36.1936 138.334C36.1936 138.334 36.101 138.891 36.0084 139.82C35.9159 140.748 35.9159 142.141 35.8233 143.812C35.7307 147.247 35.5456 151.889 35.5456 157.088C35.453 162.287 35.5456 166.929 35.5456 170.364C35.5456 172.036 35.6382 173.428 35.6382 174.357C35.6382 175.285 35.7307 175.842 35.7307 175.842C35.7307 175.842 35.8233 175.285 35.8233 174.357C35.8233 173.335 35.8233 171.943 35.9159 170.364C35.9159 166.836 36.0084 162.194 36.0084 157.088C36.101 151.982 36.101 147.34 36.1936 143.812C36.1936 142.141 36.1936 140.841 36.1936 139.82C36.2861 138.891 36.1936 138.334 36.1936 138.334Z" fill="#E0E0E0"/>
<path d="M0.925646 103.426C0.925646 103.426 -0.27772 100.547 1.11078 99.7119C2.49928 98.8763 11.5708 96.0911 12.4965 96.3696C13.5147 96.741 13.885 97.2052 14.0701 98.3193C14.3478 99.4334 14.6255 100.083 14.6255 100.083C14.6255 100.083 15.4586 99.2477 17.0322 99.9904C17.0322 99.9904 18.6984 100.826 18.8836 101.569C19.1613 102.311 18.791 103.24 18.5133 103.983C18.2356 104.725 16.4768 107.418 16.4768 107.418C16.4768 107.418 16.4768 109.646 14.9958 112.06C13.5147 114.474 10.5526 115.124 10.0897 116.888L10.7377 124.593L0.277679 130.628C0.277679 130.628 0.370246 120.973 0.555379 116.795C0.740513 112.617 0.647946 108.346 0.370246 106.954C0.185113 105.654 0.462813 103.704 0.925646 103.426Z" fill="#F5F5F5"/>
<path d="M6.29449 107.418C6.29449 107.418 6.38706 107.325 6.47963 107.046C6.57219 106.768 6.66476 106.397 6.38706 105.932L6.29449 105.839H6.38706C6.75733 105.654 7.22016 105.468 7.68299 105.282L7.86813 105.19L7.77556 105.375C7.68299 105.747 7.59043 106.025 7.40529 106.489C7.12759 106.768 6.84989 107.139 6.84989 107.511C6.84989 107.882 7.12759 108.346 7.49786 108.532C7.68299 108.625 7.96069 108.625 8.14583 108.625C8.33096 108.532 8.60866 108.439 8.79379 108.346C9.25663 108.161 9.71946 107.882 10.0897 107.511C10.3674 107.325 10.6451 107.046 10.8303 106.768H10.9228C11.4782 106.675 12.0336 106.489 12.4965 106.118C12.8667 105.747 13.1444 105.19 13.1444 104.725V104.633H13.237C13.6073 104.54 13.9775 104.354 14.2552 104.168C14.3478 104.075 14.5329 103.983 14.6255 103.797C14.7181 103.704 14.7181 103.518 14.7181 103.333C14.7181 102.683 14.6255 102.126 14.6255 101.662C14.5329 101.197 14.5329 100.826 14.4404 100.548C14.5329 100.826 14.6255 101.197 14.7181 101.662C14.8106 102.126 14.9032 102.683 14.9032 103.333C14.9032 103.518 14.9032 103.704 14.8106 103.89C14.7181 104.075 14.6255 104.168 14.4404 104.354C14.1627 104.633 13.7924 104.818 13.4221 104.911L13.5147 104.818C13.5147 105.375 13.3296 105.932 12.8667 106.397C12.4039 106.861 11.8485 107.046 11.2005 107.139L11.2931 107.046C11.0154 107.325 10.8303 107.603 10.46 107.882C9.99716 108.253 9.53433 108.532 9.07149 108.718C8.79379 108.81 8.60866 108.903 8.33096 108.996C8.05326 109.089 7.77556 108.996 7.49786 108.903C7.03503 108.718 6.66476 108.161 6.66476 107.696C6.66476 107.418 6.75733 107.232 6.84989 107.046C6.94246 106.861 7.12759 106.675 7.22016 106.489C7.31273 106.118 7.49786 105.747 7.59043 105.375L7.68299 105.468C7.22016 105.654 6.75733 105.839 6.38706 105.932V105.839C6.66476 106.304 6.57219 106.768 6.47963 107.046C6.47963 107.232 6.47963 107.325 6.29449 107.418Z" fill="#E0E0E0"/>
<path d="M3.14725 102.497C3.14725 102.497 3.33238 102.404 3.61008 102.311C3.88778 102.219 4.35061 102.126 4.90601 101.94C5.46141 101.847 6.10938 101.662 6.84991 101.476C7.22018 101.383 7.59045 101.29 7.96071 101.197C8.33098 101.105 8.79381 101.012 9.25664 101.012C9.71948 101.012 10.0897 101.383 10.2749 101.754C10.46 102.126 10.5526 102.497 10.6451 102.869C10.8303 103.611 10.9228 104.261 11.0154 104.818C11.108 105.375 11.108 105.839 11.108 106.118C11.108 106.397 11.108 106.582 11.108 106.582C11.108 106.582 11.0154 105.932 10.8303 104.818C10.7377 104.261 10.6451 103.611 10.46 102.869C10.3674 102.497 10.2749 102.126 10.0897 101.847C9.90461 101.476 9.62691 101.29 9.16408 101.197C8.79381 101.105 8.33098 101.29 7.96071 101.383C7.59045 101.476 7.22018 101.569 6.84991 101.662C6.10938 101.847 5.46141 101.94 4.90601 102.033C4.35061 102.126 3.88778 102.219 3.61008 102.311C3.33238 102.497 3.14725 102.497 3.14725 102.497Z" fill="#E0E0E0"/>
<path d="M4.72089 100.362C4.72089 100.362 4.90602 100.269 5.18372 100.176C5.46142 100.083 5.92425 99.8976 6.47965 99.8048C7.03505 99.6191 7.68302 99.4334 8.42355 99.3406C8.79382 99.2477 9.16408 99.1549 9.62692 99.1549C10.0897 99.062 10.46 99.062 10.9228 99.2477C11.3857 99.4334 11.7559 99.7119 11.9411 100.083C12.2188 100.455 12.4039 100.826 12.4965 101.197C12.7742 101.94 12.9593 102.59 13.0519 103.147C13.1444 103.704 13.237 104.168 13.237 104.54C13.237 104.818 13.237 105.004 13.237 105.004C13.237 105.004 13.1444 104.261 12.8667 103.147C12.6816 102.59 12.4965 101.94 12.3113 101.197C12.2188 100.826 12.0336 100.455 11.7559 100.176C11.4782 99.8976 11.2005 99.5262 10.8303 99.4334C10.46 99.3406 9.99718 99.3406 9.62692 99.3406C9.25665 99.4334 8.79382 99.4334 8.42355 99.5262C7.68302 99.7119 7.03505 99.8048 6.47965 99.9904C5.92425 100.083 5.55399 100.269 5.18372 100.269C4.90602 100.362 4.72089 100.362 4.72089 100.362Z" fill="#E0E0E0"/>
<path d="M0.925647 101.476C0.83308 101.476 1.29591 100.919 2.03645 100.733C2.77698 100.455 3.42495 100.548 3.42495 100.64C3.42495 100.733 2.86955 100.733 2.12901 101.012C1.48105 101.197 0.925647 101.569 0.925647 101.476Z" fill="#E0E0E0"/>
<path d="M9.62689 97.7622C9.62689 97.7622 9.71946 97.6694 9.99716 97.6694C10.2749 97.6694 10.5526 97.5766 11.0154 97.5766C11.4782 97.5766 12.0336 97.6694 12.4965 97.9479C12.7742 98.1336 12.9593 98.3193 13.1444 98.5978C13.3296 98.8763 13.4221 99.1549 13.5147 99.5262C13.7924 100.826 13.9775 102.033 14.1627 102.869C14.2552 103.704 14.2552 104.261 14.2552 104.261C14.2552 104.261 14.1627 103.704 13.9775 102.869C13.7924 102.033 13.6073 100.826 13.3296 99.5262C13.1444 98.8763 12.8667 98.3193 12.4039 98.0408C11.9411 97.7622 11.4782 97.6694 11.0154 97.5766C10.1823 97.7622 9.62689 97.8551 9.62689 97.7622Z" fill="#E0E0E0"/>
<path d="M6.05708 98.8789C6.69968 98.7089 7.21004 98.5309 7.197 98.4813C7.18395 98.4317 6.65245 98.5294 6.00985 98.6994C5.36725 98.8694 4.85689 99.0475 4.86993 99.0971C4.88297 99.1466 5.41447 99.049 6.05708 98.8789Z" fill="#E0E0E0"/>
<path d="M13.3296 105.282C13.3296 105.19 14.0701 105.282 14.9032 105.932C15.6437 106.489 16.014 107.232 15.9214 107.232C15.8289 107.232 15.4586 106.675 14.7181 106.118C14.0701 105.561 13.3296 105.375 13.3296 105.282Z" fill="#E0E0E0"/>
<path d="M14.8106 103.89C14.8106 103.797 15.4586 104.168 16.1991 104.168C16.9397 104.168 17.5876 103.797 17.5876 103.89C17.5876 103.89 17.0322 104.354 16.1991 104.447C15.7363 104.447 15.366 104.354 15.1809 104.168C14.9032 103.983 14.8106 103.89 14.8106 103.89Z" fill="#E0E0E0"/>
<path d="M4.72089 108.253C4.72089 108.253 4.90602 108.253 5.09115 108.253C5.36885 108.253 5.73912 108.253 6.20195 108.346C7.12762 108.532 8.33098 108.996 9.34922 110.017C10.3675 111.039 10.8303 112.338 11.0154 113.174C11.108 113.638 11.108 114.01 11.108 114.288C11.108 114.567 11.108 114.659 11.108 114.659C11.108 114.659 11.108 114.102 10.8303 113.174C10.6451 112.338 10.0897 111.131 9.16408 110.11C8.14585 109.089 7.03505 108.625 6.10939 108.439C5.27629 108.346 4.72089 108.346 4.72089 108.253Z" fill="#E0E0E0"/>
<path d="M3.23981 118.187C3.23981 118.095 4.62831 118.373 6.29451 118.002C7.9607 117.723 9.16407 116.98 9.16407 116.98C9.16407 116.98 8.88637 117.259 8.42354 117.445C7.96071 117.723 7.22017 118.002 6.38707 118.187C5.55397 118.373 4.72087 118.373 4.16547 118.28C3.51751 118.28 3.23981 118.187 3.23981 118.187Z" fill="#E0E0E0"/>
<path d="M6.66479 213.443C6.66479 213.35 75.9972 213.35 161.529 213.35C247.06 213.35 316.485 213.443 316.485 213.443C316.485 213.536 247.153 213.536 161.529 213.536C76.0898 213.536 6.66479 213.536 6.66479 213.443Z" fill="#263238"/>
<path d="M40.6367 10.3054L41.655 12.2551C41.7475 12.3479 41.8401 12.4408 41.9327 12.4408L44.1543 12.7193C44.432 12.7193 44.5245 13.0907 44.3394 13.3692L42.7658 14.9475C42.6732 15.0403 42.6732 15.1332 42.6732 15.226L43.0435 17.3614C43.136 17.6399 42.7658 17.9184 42.4881 17.7328L40.4516 16.7115C40.359 16.6187 40.2665 16.6187 40.0813 16.7115L38.1374 17.7328C37.8597 17.8256 37.582 17.6399 37.582 17.3614L37.9523 15.226C37.9523 15.1332 37.9523 14.9475 37.8597 14.9475L36.2861 13.3692C36.101 13.1835 36.1935 12.8121 36.4712 12.7193L38.6928 12.4408C38.7854 12.4408 38.878 12.3479 38.9705 12.2551L39.9888 10.3054C40.0813 10.0269 40.4516 10.0269 40.6367 10.3054Z" fill="#EE3765"/>
<path d="M15.8289 37.3223L15.5512 38.5293C15.5512 38.6221 15.5512 38.6221 15.6437 38.715L16.4768 39.6434C16.5694 39.7362 16.4768 39.9219 16.3843 40.0147L15.1809 40.2004C15.0883 40.2004 15.0883 40.2933 14.9958 40.2933L14.4404 41.4074C14.3478 41.593 14.1627 41.593 14.0701 41.4074L13.5147 40.2933C13.5147 40.2004 13.4221 40.2004 13.3296 40.2004L12.1262 40.0147C11.9411 40.0147 11.9411 39.7362 12.0336 39.6434L12.9593 38.8078C13.0519 38.8078 13.0519 38.715 13.0519 38.6221L12.8667 37.4152C12.8667 37.2295 13.0519 37.1366 13.1444 37.2295L14.2552 37.8794C14.3478 37.8794 14.3478 37.8794 14.4404 37.8794L15.5512 37.3223C15.7363 36.951 15.9214 37.1367 15.8289 37.3223Z" fill="#EE3765"/>
<path d="M163.38 5.75618L163.102 6.96312C163.102 7.05596 163.102 7.05596 163.195 7.1488L164.028 8.07722C164.121 8.17006 164.028 8.35574 163.935 8.44859L162.732 8.63427C162.64 8.63427 162.64 8.72711 162.547 8.72711L161.992 9.84121C161.899 10.0269 161.714 10.0269 161.621 9.84121L161.066 8.63427C161.066 8.54143 160.973 8.54143 160.881 8.54143L159.677 8.35574C159.492 8.35574 159.492 8.07722 159.585 7.98438L160.511 7.1488C160.603 7.1488 160.603 7.05596 160.603 6.96312L160.418 5.75618C160.418 5.57049 160.603 5.47765 160.696 5.5705L161.806 6.22039C161.899 6.22039 161.899 6.22039 161.992 6.22039L163.102 5.66334C163.288 5.47765 163.38 5.57049 163.38 5.75618Z" fill="#EE3765"/>
<path d="M295.102 48.5562L294.825 49.7631C294.825 49.856 294.825 49.856 294.917 49.9488L295.75 50.8772C295.843 50.9701 295.75 51.1557 295.658 51.2486L294.454 51.4343C294.362 51.4343 294.362 51.5271 294.269 51.5271L293.714 52.6412C293.621 52.8269 293.436 52.8269 293.344 52.6412L292.788 51.5271C292.788 51.4343 292.696 51.4343 292.603 51.4343L291.4 51.2486C291.215 51.2486 291.215 50.9701 291.307 50.8772L292.233 50.0416C292.325 50.0416 292.325 49.9488 292.325 49.856L292.14 48.649C292.14 48.4633 292.325 48.3705 292.418 48.4633L293.529 49.1132C293.621 49.1132 293.621 49.1132 293.714 49.1132L294.825 48.5562C295.01 48.2776 295.195 48.3705 295.102 48.5562Z" fill="#EE3765"/>
<path d="M290.752 19.4039L290.011 19.7753L289.919 19.8681L289.826 20.6108C289.826 20.7037 289.641 20.7965 289.641 20.7037L289.086 20.1466H288.993L288.252 20.2395C288.16 20.2395 288.067 20.1466 288.16 20.0538L288.53 19.3111V19.2182L288.16 18.4755C288.067 18.3826 288.16 18.2898 288.252 18.2898L288.993 18.4755H289.086L289.641 17.9184C289.734 17.8256 289.826 17.9184 289.826 18.0113L289.919 18.754C289.919 18.754 289.919 18.8468 290.011 18.8468L290.752 19.2182C290.844 19.2182 290.844 19.4039 290.752 19.4039Z" fill="#EE3765"/>
<path d="M54.7994 43.357L54.0589 43.7284L53.9663 43.8212L53.8738 44.564C53.8738 44.6568 53.6886 44.7497 53.6886 44.6568L53.1332 44.0998H53.0407L52.3001 44.1926C52.2076 44.1926 52.115 44.0998 52.2076 44.0069L52.5778 43.2642V43.1714L52.2076 42.4286C52.115 42.3358 52.2076 42.2429 52.3001 42.2429L53.0407 42.4286H53.1332L53.6886 41.8716C53.7812 41.7787 53.8738 41.8716 53.8738 41.9644L53.9663 42.7071C53.9663 42.7071 53.9663 42.8 54.0589 42.8L54.7994 43.1714C54.892 43.1714 54.892 43.357 54.7994 43.357Z" fill="#EE3765"/>
<path d="M262.611 27.8525L262.241 29.7093C262.241 29.8022 262.241 29.895 262.334 29.9878L263.63 31.3805C263.815 31.5662 263.722 31.8447 263.445 31.9375L261.593 32.1232C261.501 32.1232 261.408 32.216 261.316 32.3089L260.39 33.98C260.297 34.1657 259.927 34.1657 259.835 33.98L259.001 32.3089C259.001 32.216 258.909 32.1232 258.816 32.1232L256.965 31.8447C256.687 31.8447 256.595 31.4733 256.78 31.2876L258.168 29.9878C258.261 29.895 258.261 29.8022 258.261 29.7093L257.983 27.8525C257.983 27.574 258.168 27.3883 258.446 27.574L260.112 28.5024C260.205 28.5952 260.297 28.5952 260.39 28.5024L262.056 27.6668C262.334 27.3883 262.611 27.6668 262.611 27.8525Z" fill="#EE3765"/>
<path d="M40.8219 184.848C42.3029 184.941 43.784 185.776 44.7097 186.89C45.7279 188.004 46.2833 189.49 46.6536 190.975C47.3941 193.853 46.8387 197.196 46.0056 199.981C42.9509 198.867 41.0996 195.524 40.2665 193.761C38.9705 191.068 38.3226 185.312 40.8219 184.848Z" fill="#455B64"/>
<path d="M50.4488 203.509C49.5232 202.116 49.5231 200.167 50.2637 198.681C51.0042 197.196 52.4853 196.082 54.1515 195.617C54.892 195.432 55.7251 195.339 56.3731 195.71C57.021 196.082 57.2062 196.917 57.1136 197.66C57.021 198.403 56.6508 199.052 56.1879 199.61C54.7069 201.652 52.9481 203.323 50.4488 203.509Z" fill="#455B64"/>
<path d="M50.634 212.979C50.634 212.979 50.5414 212.793 50.5414 212.422C50.4488 211.957 50.3563 211.493 50.2637 210.843C50.0786 209.451 49.7083 207.501 49.986 205.366C50.2637 203.23 51.1894 201.466 52.0225 200.352C52.4853 199.795 52.8556 199.424 53.2258 199.145C53.411 199.052 53.5035 198.96 53.5961 198.867C53.6887 198.774 53.6887 198.774 53.6887 198.774C53.6887 198.774 52.9481 199.238 52.115 200.352C51.2819 201.466 50.4488 203.23 50.1711 205.273C49.8934 207.408 50.1711 209.265 50.3563 210.658C50.4488 211.308 50.5414 211.865 50.5414 212.329C50.634 212.793 50.634 212.979 50.634 212.979Z" fill="#263238"/>
<path d="M41.7476 189.211C41.7476 189.211 41.8401 189.304 41.8401 189.49C41.9327 189.675 42.0253 189.861 42.1178 190.14C42.3955 190.697 42.7658 191.625 43.2286 192.646C44.1543 194.782 45.3577 197.846 46.561 201.188C47.7644 204.53 48.8752 207.594 49.6157 209.822C49.986 210.936 50.2637 211.865 50.4488 212.422C50.5414 212.7 50.634 212.979 50.634 213.164C50.5414 212.979 50.4488 212.7 50.3563 212.422C50.1711 211.772 49.8009 210.936 49.4306 209.822C48.6901 207.594 47.5793 204.53 46.3759 201.188C45.1725 197.846 43.9692 194.875 43.1361 192.646C42.6732 191.532 42.3955 190.697 42.1178 190.047C42.0253 189.768 41.9327 189.49 41.8401 189.304C41.7476 189.304 41.7476 189.211 41.7476 189.211Z" fill="#263238"/>
<path d="M47.1164 206.666C45.3577 203.602 42.0253 201.374 38.4152 201.095C37.4895 201.002 36.3787 201.188 36.0084 201.931C35.6382 202.766 36.101 203.695 36.749 204.437C39.2483 207.223 43.5989 208.244 47.1164 206.944" fill="#455B64"/>
<path d="M39.7111 203.602C39.7111 203.602 39.8962 203.602 40.2665 203.602C40.4516 203.602 40.6368 203.602 40.9145 203.695C41.1922 203.787 41.4699 203.787 41.7476 203.88C42.0253 203.973 42.3955 204.066 42.7658 204.159C43.1361 204.252 43.5063 204.437 43.8766 204.623C44.6171 204.994 45.4502 205.459 46.2833 206.108C47.0239 206.758 47.7644 207.408 48.2272 208.151C48.5049 208.522 48.6901 208.801 48.8752 209.172C49.0603 209.451 49.2455 209.822 49.4306 210.101C49.6157 210.379 49.7083 210.658 49.8008 210.936C49.8934 211.215 49.986 211.4 49.986 211.586C50.0786 211.957 50.1711 212.143 50.1711 212.143C50.1711 212.143 49.8934 211.4 49.338 210.193C49.1529 209.915 49.0603 209.636 48.7826 209.265C48.5975 208.894 48.3198 208.615 48.0421 208.244C47.4867 207.594 46.8387 206.851 46.0982 206.294C45.3577 205.644 44.5246 205.18 43.784 204.809C43.4138 204.623 43.0435 204.437 42.6732 204.344C42.303 204.159 41.9327 204.159 41.655 204.066C40.5442 203.695 39.7111 203.602 39.7111 203.602Z" fill="#263238"/>
<path d="M257.15 176.585C258.724 177.606 259.649 179.463 259.927 181.32C260.205 183.177 259.927 185.126 259.372 186.89C258.261 190.418 255.576 193.668 252.892 196.082C250.393 192.925 250.578 188.19 250.763 185.776C251.226 182.062 254.188 175.378 257.15 176.585Z" fill="#455B64"/>
<path d="M255.299 202.673C255.206 200.538 256.41 198.495 258.261 197.381C260.112 196.267 262.334 196.082 264.37 196.639C265.296 196.917 266.314 197.381 266.684 198.217C267.055 199.052 266.777 200.074 266.222 200.816C265.666 201.559 264.833 202.023 264 202.302C261.13 203.509 258.076 204.066 255.299 202.673Z" fill="#455B64"/>
<path d="M249.467 212.886C249.467 212.886 249.56 212.607 249.745 212.143C249.93 211.679 250.208 211.029 250.485 210.193C251.133 208.615 251.966 206.294 253.725 204.252C255.391 202.209 257.52 200.816 259.186 200.259C260.02 199.981 260.668 199.795 261.223 199.795C261.501 199.795 261.686 199.795 261.778 199.795C261.871 199.795 261.963 199.795 261.963 199.795C261.963 199.888 260.853 199.888 259.279 200.445C257.705 201.002 255.669 202.395 254.003 204.437C252.337 206.48 251.411 208.708 250.763 210.286C250.393 211.122 250.115 211.772 249.93 212.143C249.56 212.7 249.467 212.886 249.467 212.886Z" fill="#263238"/>
<path d="M255.391 181.784C255.391 181.784 255.391 181.877 255.391 182.155C255.391 182.434 255.299 182.712 255.299 183.084C255.206 183.919 255.021 185.033 254.836 186.519C254.373 189.397 253.725 193.389 252.892 197.753C252.059 202.116 251.226 206.108 250.578 208.894C250.208 210.286 250.022 211.493 249.745 212.236C249.652 212.607 249.56 212.886 249.467 213.164C249.374 213.35 249.374 213.443 249.374 213.443C249.374 213.443 249.374 213.35 249.467 213.072C249.56 212.793 249.56 212.515 249.652 212.143C249.837 211.308 250.115 210.193 250.393 208.801C251.041 205.923 251.781 202.023 252.614 197.66C253.447 193.296 254.188 189.304 254.651 186.426C254.928 185.033 255.114 183.826 255.206 182.991C255.299 182.62 255.299 182.341 255.391 182.062C255.299 181.877 255.391 181.784 255.391 181.784Z" fill="#263238"/>
<path d="M249.745 203.88C249.837 199.424 247.708 194.967 244.098 192.368C243.172 191.718 241.969 191.161 240.951 191.718C240.025 192.275 239.933 193.668 240.118 194.782C240.951 199.424 244.931 203.323 249.56 204.159" fill="#455B64"/>
<path d="M243.913 195.803C243.913 195.803 244.098 195.896 244.468 196.174C244.654 196.267 244.839 196.453 245.116 196.731C245.394 196.917 245.672 197.196 245.95 197.474C246.227 197.753 246.597 198.124 246.875 198.495C247.153 198.867 247.523 199.238 247.801 199.702C248.356 200.631 249.004 201.652 249.374 202.859C249.837 204.066 250.022 205.18 250.208 206.294C250.3 206.851 250.3 207.315 250.3 207.872C250.3 208.337 250.3 208.801 250.208 209.172C250.208 209.544 250.115 209.915 250.022 210.286C250.022 210.565 249.93 210.843 249.837 211.122C249.745 211.586 249.652 211.772 249.652 211.772C249.56 211.772 249.837 210.751 250.022 209.172C250.022 208.801 250.115 208.337 250.022 207.872C250.022 207.408 249.93 206.851 249.93 206.387C249.837 205.366 249.56 204.159 249.097 203.045C248.634 201.931 248.079 200.816 247.523 199.981C247.245 199.517 246.968 199.145 246.597 198.774C246.32 198.403 246.042 198.031 245.764 197.753C244.746 196.453 243.913 195.803 243.913 195.803Z" fill="#263238"/>
<path d="M109.506 53.3839L102.934 52.6412C100.25 55.3336 96.8247 57.3761 92.8443 58.3974C81.4586 61.1826 69.9803 54.1267 67.1108 42.7071C64.3338 31.2876 71.2763 19.7753 82.662 16.99C94.0477 14.2048 105.526 21.1679 108.303 32.5874C109.506 37.3223 108.951 42.1501 107.1 46.328L109.506 53.3839Z" fill="white"/>
<path d="M109.506 53.3839C109.506 53.3839 109.414 53.1982 109.321 52.9197C109.229 52.6412 109.043 52.177 108.858 51.5271C108.488 50.3202 107.84 48.5562 107.1 46.2351V46.1423C108.21 43.6356 109.136 40.0147 108.858 35.8369C108.766 34.8156 108.581 33.7015 108.303 32.5874C108.025 31.4733 107.655 30.3592 107.192 29.2451C106.266 27.0169 104.878 24.7887 103.027 22.9319C101.175 20.9822 98.8611 19.311 96.1767 18.197C93.4923 17.0829 90.5301 16.433 87.3829 16.433C81.1809 16.5258 74.6087 19.6824 70.6283 25.3458C68.5918 28.2238 67.2959 31.4733 66.9256 34.8156C66.4628 38.1579 66.8331 41.5002 67.9439 44.4711C68.9621 47.5349 70.7209 50.1345 72.7573 52.2698C74.7938 54.4052 77.2931 55.9835 79.7924 57.0976C82.2917 58.1189 84.8836 58.6759 87.2903 58.7687C87.568 58.7687 87.9383 58.7687 88.216 58.7687C88.4937 58.7687 88.7714 58.7687 89.1416 58.7687C89.697 58.6759 90.345 58.6759 90.9004 58.5831C92.0112 58.3974 93.122 58.2117 94.1402 57.8403C98.2132 56.6334 101.175 54.4052 103.027 52.4555C103.027 52.4555 103.027 52.4555 103.119 52.4555C105.248 52.734 106.914 52.9197 108.025 53.1054C108.581 53.1982 109.043 53.1983 109.321 53.2911C109.321 53.3839 109.506 53.3839 109.506 53.3839C109.506 53.3839 109.414 53.3839 109.136 53.3839C108.858 53.3839 108.395 53.2911 107.84 53.2911C106.729 53.1983 105.063 53.0126 102.934 52.734H103.027C101.083 54.6837 98.2132 56.9119 94.0477 58.2117C93.0294 58.5831 91.9186 58.6759 90.8078 58.9544C90.2524 59.0473 89.697 59.0473 89.0491 59.1401C88.7714 59.1401 88.4937 59.1401 88.1234 59.1401C87.8457 59.1401 87.4754 59.1401 87.1977 59.1401C84.6984 59.0473 82.1066 58.5831 79.6073 57.469C77.108 56.4477 74.6087 54.7766 72.4796 52.6412C70.3506 50.5058 68.5918 47.8134 67.5736 44.7497C66.5554 41.6859 66.1851 38.3436 66.5554 34.9084C66.9256 31.5661 68.3141 28.2238 70.3506 25.2529C70.5357 24.8815 70.906 24.5102 71.0911 24.2317L71.9242 23.2104L72.8499 22.282C73.1276 22.0035 73.4053 21.6321 73.7756 21.4464C74.1458 21.1679 74.4235 20.8894 74.7938 20.6108C75.0715 20.3323 75.4418 20.1466 75.812 19.8681C76.1823 19.6824 76.46 19.4039 76.8303 19.2182C77.2005 19.0325 77.5708 18.8468 77.9411 18.6612C80.9032 17.0829 84.143 16.3401 87.2903 16.2473C90.4376 16.1544 93.4923 16.8043 96.1767 18.0113C98.8611 19.2182 101.268 20.8894 103.119 22.839C104.971 24.7887 106.359 27.0169 107.377 29.2451C107.933 30.3592 108.21 31.4733 108.488 32.5874C108.766 33.7015 108.951 34.8156 109.043 35.8369C109.414 40.1076 108.395 43.7284 107.285 46.2351L107.192 46.1423H107.285C108.025 48.4633 108.581 50.2273 108.951 51.4343C109.136 51.9913 109.321 52.4555 109.414 52.8269C109.414 53.2911 109.506 53.3839 109.506 53.3839Z" fill="#263238"/>
<path d="M77.6634 38.4364L80.3478 35.6512L85.7167 40.1076L95.6213 29.895L98.2131 32.4946L85.5315 45.3996L77.6634 38.4364Z" fill="#EE3765"/>
<path d="M155.474 109.719C155.475 109.668 154.233 109.603 152.699 109.573C151.166 109.544 149.922 109.561 149.921 109.613C149.92 109.664 151.162 109.729 152.696 109.759C154.229 109.788 155.473 109.771 155.474 109.719Z" fill="#263238"/>
<path d="M67.1108 107.603C67.1108 107.603 68.9621 118.095 70.7209 120.416C72.4797 122.644 73.5905 129.607 73.5905 129.607L87.9383 124.408L87.0126 119.116L87.8457 105.747C87.8457 105.747 82.9397 97.4837 83.1248 97.8551C83.31 98.0408 67.1108 107.603 67.1108 107.603Z" fill="#FBBF9E"/>
<path d="M73.5905 129.514C73.5905 129.421 72.3871 122.551 70.7209 120.323C69.7952 119.209 68.8696 115.774 68.2216 113.081C67.5736 110.203 67.1108 107.603 67.1108 107.511C67.1108 107.511 71.1837 105.097 75.1641 102.776C82.1066 98.5978 83.1248 97.8551 83.1248 97.7623C83.31 98.1336 87.7532 105.654 87.8457 105.654L87.0126 119.023L87.9383 124.315L73.5905 129.514ZM67.1108 107.603C67.2034 107.975 68.9621 118.187 70.7209 120.323C71.6466 121.437 72.3871 123.944 72.8499 125.8C73.3128 127.657 73.5905 129.421 73.5905 129.514L87.9383 124.315L87.0126 119.023L87.8457 105.654C87.7532 105.561 86.6424 103.611 85.439 101.662C84.791 100.547 84.2356 99.6191 83.7728 98.9692C83.4951 98.5978 83.4025 98.3193 83.2174 98.0408C83.1248 97.8551 83.0323 97.7623 83.0323 97.7623C82.662 98.505 67.8513 107.139 67.1108 107.603Z" fill="#F7996E"/>
<path d="M114.412 103.147C114.412 103.147 107.007 105.468 105.896 113.267C105.341 116.888 99.9719 150.218 99.9719 150.218L91.5484 126.357L69.5175 134.528C69.5175 134.528 77.5708 159.223 78.0337 160.709C82.1066 172.778 85.6241 189.768 104.323 187.819C123.762 185.869 120.151 147.897 120.151 147.897L114.412 103.147Z" fill="#455B64"/>
<path d="M190.23 7.50652L57.7408 121.679L58.887 123.017L191.377 8.84451L190.23 7.50652Z" fill="#E0E0E0"/>
<path d="M58.8724 123.015C58.8724 123.015 58.9649 122.922 59.0575 122.829C59.1501 122.737 59.3352 122.551 59.6129 122.365C60.0757 121.994 60.7237 121.344 61.6494 120.601C63.4081 119.023 66 116.795 69.3324 113.824C75.9972 107.975 85.7167 99.6191 97.6578 89.2208C121.54 68.5171 154.586 39.9219 191.15 8.35574L191.057 9.09847C190.687 8.7271 190.317 8.26289 189.947 7.79869L190.687 7.89153C121.262 67.7744 64.0561 116.795 57.8541 121.715V121.623C58.317 122.18 58.5947 122.551 58.7798 122.737C58.8724 122.922 58.8724 123.015 58.8724 123.015C58.8724 123.015 58.7798 123.015 58.6872 122.829C58.5021 122.644 58.2244 122.272 57.7616 121.808C63.5933 116.423 120.522 67.1245 189.947 7.24164L190.317 6.87027L190.687 7.24164C191.057 7.70584 191.428 8.17005 191.798 8.54142L192.168 8.91279L191.798 9.28415C155.049 40.9431 121.818 69.4455 97.7503 90.0564C85.7167 100.269 75.9972 108.625 69.3324 114.381C66 117.259 63.4081 119.394 61.6494 120.973C60.8163 121.715 60.0757 122.272 59.6129 122.644C59.1501 122.829 58.8724 123.015 58.8724 123.015Z" fill="#263238"/>
<path d="M82.7545 89.9635C82.8471 90.0564 84.791 92.0061 86.7349 93.4915C88.5862 94.977 89.1416 95.0698 89.697 97.298C90.2524 99.5262 91.0855 106.861 90.8078 108.439C90.6227 110.11 85.0687 120.601 85.0687 120.601C85.0687 120.601 79.7924 122.551 79.4222 115.495C79.0519 108.439 85.1613 103.983 85.1613 103.983L84.3282 98.5978C84.3282 98.5978 81.366 95.8126 81.0883 93.4915C80.7181 91.2633 81.7363 89.3137 82.7545 89.9635Z" fill="#FBBF9E"/>
<path d="M70.9986 103.797C68.6844 102.59 67.6662 103.89 67.2034 104.633C66.7405 105.375 66.7405 106.304 67.0182 107.139C67.2034 107.975 67.6662 108.625 68.129 109.275C68.777 110.11 69.6101 110.853 70.6283 110.946C71.6466 111.039 72.8499 109.739 72.9425 108.625" fill="#FBBF9E"/>
<path d="M73.035 108.532C73.035 108.532 73.035 108.625 73.035 108.718C73.035 108.81 73.035 108.996 72.9425 109.182C72.8499 109.553 72.4796 110.11 71.9242 110.574C71.6465 110.76 71.2763 111.039 70.8134 111.039C70.3506 111.039 69.8878 110.853 69.5175 110.574C69.0547 110.296 68.6844 109.925 68.4067 109.553C68.0364 109.182 67.7587 108.718 67.481 108.253C66.9256 107.232 66.8331 106.118 67.1108 105.19C67.3885 104.261 68.129 103.518 68.8695 103.426C69.6101 103.24 70.258 103.518 70.6283 103.611C70.8134 103.704 70.9986 103.797 71.0911 103.797C71.1837 103.89 71.2763 103.89 71.1837 103.89C71.1837 103.89 70.9986 103.797 70.6283 103.704C70.258 103.611 69.7026 103.426 68.9621 103.611C68.3141 103.797 67.6662 104.447 67.3885 105.282C67.1108 106.211 67.2033 107.232 67.7587 108.161C68.0364 108.625 68.3141 109.089 68.6844 109.46C69.0547 109.832 69.3324 110.203 69.7952 110.482C70.1655 110.76 70.6283 110.853 70.9986 110.853C71.3688 110.853 71.7391 110.667 72.0168 110.482C72.5722 110.017 72.8499 109.553 73.035 109.182C72.9425 108.718 72.9425 108.532 73.035 108.532Z" fill="#F7996E"/>
<path d="M74.0533 99.1549C73.4053 98.9692 72.7574 98.7835 72.1094 98.8763C71.4614 98.9692 70.7209 99.4334 70.4432 100.083C70.1655 100.64 70.1655 101.383 70.1655 102.033C70.4432 105.097 71.8317 107.975 73.9607 109.646C74.5161 110.11 75.3492 110.203 75.9972 109.739C76.46 109.46 76.8303 108.996 77.108 107.139" fill="#FBBF9E"/>
<path d="M77.108 107.232C77.108 107.232 77.108 107.325 77.108 107.418C77.108 107.511 77.0154 107.789 77.0154 107.975C76.9229 108.253 76.9229 108.532 76.7377 108.903C76.6452 109.275 76.3675 109.646 75.9972 109.925C75.6269 110.203 75.0715 110.389 74.5161 110.203C74.2384 110.11 73.9607 110.017 73.7756 109.832C73.5905 109.646 73.3128 109.46 73.1276 109.275C72.2945 108.439 71.4614 107.325 70.9986 106.025C70.4432 104.725 70.1655 103.426 70.0729 102.219C70.0729 101.569 70.0729 101.012 70.2581 100.455C70.4432 99.8976 70.8135 99.5262 71.1837 99.2477C71.554 98.9692 72.0168 98.8763 72.3871 98.8763C72.7574 98.8763 73.0351 98.9692 73.3128 98.9692C73.5905 99.062 73.7756 99.062 73.8682 99.1549C73.9607 99.2477 74.0533 99.2477 74.0533 99.2477C74.0533 99.2477 73.7756 99.1549 73.3128 99.062C72.8499 98.9692 72.0168 98.8763 71.2763 99.3406C70.906 99.6191 70.5358 99.9904 70.4432 100.455C70.2581 100.919 70.2581 101.476 70.3506 102.126C70.4432 103.333 70.7209 104.633 71.2763 105.839C71.8317 107.139 72.5722 108.253 73.4053 109.089C73.5905 109.275 73.8682 109.46 74.0533 109.646C74.2384 109.832 74.5161 109.924 74.7013 110.017C75.1641 110.203 75.7195 110.017 75.9972 109.739C76.3675 109.46 76.5526 109.182 76.7377 108.81C76.9229 108.439 76.9229 108.161 77.0154 107.975C77.0154 107.418 77.108 107.139 77.108 107.232Z" fill="#F7996E"/>
<path d="M78.2188 96.8338C77.5708 96.1839 76.6452 95.8126 75.7195 95.9983C74.7938 96.1839 73.9607 97.0195 73.7756 98.1336C73.683 98.7835 73.8682 99.4334 73.9607 99.9904C74.5161 102.219 75.3492 104.354 76.2749 106.304C76.5526 106.768 76.7377 107.325 77.2006 107.603C77.8485 108.068 78.7742 107.975 79.4222 107.418C80.0701 106.861 80.533 106.118 80.8107 104.54" fill="#FBBF9E"/>
<path d="M80.8106 104.54C80.8106 104.54 80.8106 104.633 80.8106 104.725C80.8106 104.911 80.7181 105.097 80.7181 105.375C80.6255 105.654 80.5329 105.932 80.3478 106.304C80.1627 106.675 79.885 107.046 79.5147 107.418C79.1444 107.789 78.589 108.068 78.0337 107.975C77.756 107.975 77.3857 107.882 77.108 107.696C76.8303 107.511 76.6451 107.232 76.46 106.954C75.812 105.839 75.2567 104.447 74.7938 103.054C74.5161 102.311 74.331 101.662 74.1458 101.012C73.9607 100.362 73.7756 99.7119 73.683 99.062C73.5904 98.4121 73.7756 97.7622 74.0533 97.2052C74.331 96.741 74.7938 96.3696 75.2567 96.0911C75.7195 95.9054 76.1823 95.9054 76.5526 95.9983C76.9228 96.0911 77.2931 96.1839 77.4782 96.3696C77.7559 96.5553 77.8485 96.6481 77.9411 96.741C78.0336 96.8338 78.1262 96.9267 78.1262 96.9267C78.1262 96.9267 77.8485 96.741 77.3857 96.4625C77.108 96.3696 76.8303 96.1839 76.46 96.1839C76.0897 96.0911 75.6269 96.1839 75.2567 96.3696C74.7938 96.5553 74.4235 96.9267 74.1458 97.3909C73.8681 97.8551 73.7756 98.505 73.8682 99.062C73.9607 99.7119 74.1459 100.362 74.331 101.012C74.5161 101.662 74.7938 102.404 74.9789 103.054C75.4418 104.447 75.9972 105.747 76.6452 106.861C76.8303 107.139 77.0154 107.418 77.2005 107.511C77.3857 107.696 77.6634 107.789 77.9411 107.789C78.4965 107.789 78.9593 107.603 79.3296 107.232C80.0701 106.582 80.3478 105.839 80.4404 105.282C80.7181 104.818 80.8106 104.54 80.8106 104.54Z" fill="#F7996E"/>
<path d="M83.4025 97.4837C83.7728 98.5978 84.143 99.7119 84.2356 100.919C84.3282 102.126 84.143 103.426 83.4951 104.261C82.8471 105.097 81.6437 105.468 80.8106 104.911C80.2552 104.54 79.885 103.797 79.6073 103.147C79.0519 101.847 78.6816 100.547 78.3113 99.1549C78.1262 98.505 77.9411 97.7622 77.9411 97.0195C77.9411 96.2768 78.0336 95.6269 78.2188 94.977C78.4965 94.3271 79.7924 93.213 81.0883 94.1414C81.1809 94.2343 82.5694 95.1627 83.4025 97.4837Z" fill="#FBBF9E"/>
<path d="M83.4025 97.4837C83.4025 97.4837 83.2174 97.1124 82.9397 96.4625C82.7545 96.1839 82.5694 95.8126 82.1991 95.3484C81.9214 94.977 81.5512 94.5128 80.9958 94.2343C80.4404 93.8629 79.6998 93.9557 79.1444 94.3271C78.8667 94.5128 78.589 94.7913 78.4039 95.0698C78.2188 95.4412 78.2188 95.8126 78.1262 96.1839C78.0336 97.0195 78.1262 97.8551 78.4039 98.7835C78.589 99.6191 78.8667 100.547 79.1444 101.476C79.4221 102.404 79.7924 103.24 80.2552 104.075C80.5329 104.447 80.8106 104.725 81.1809 104.911C81.5512 105.097 82.014 105.097 82.3843 105.004C83.1248 104.725 83.6802 104.075 83.8653 103.426C84.143 102.776 84.2356 102.033 84.2356 101.476C84.2356 100.269 83.9579 99.2477 83.7728 98.5978C83.6802 98.3193 83.5876 98.0408 83.4951 97.8551C83.4025 97.5766 83.3099 97.4837 83.4025 97.4837C83.4025 97.4837 83.4951 97.5766 83.4951 97.7622C83.5876 97.9479 83.6802 98.2265 83.7728 98.505C83.9579 99.1549 84.3282 100.176 84.3282 101.476C84.3282 102.126 84.3282 102.869 84.0505 103.518C83.9579 103.89 83.6802 104.261 83.4951 104.54C83.2174 104.818 82.8471 105.097 82.4768 105.282C82.1066 105.468 81.5512 105.375 81.1809 105.19C80.7181 105.004 80.4404 104.633 80.1627 104.261C79.6998 103.426 79.3296 102.59 79.0519 101.662C78.7742 100.733 78.4965 99.8048 78.3113 98.9692C78.2188 98.505 78.1262 98.0408 78.0336 97.6694C77.9411 97.2052 78.0336 96.8338 78.0336 96.3696C78.0336 95.9054 78.1262 95.534 78.3113 95.1627C78.4965 94.7913 78.7742 94.5128 79.1444 94.3271C79.5147 94.1414 79.885 93.9557 80.1627 93.9557C80.5329 93.9557 80.9032 94.0486 81.1809 94.2343C81.7363 94.6056 82.1066 95.0698 82.3843 95.4412C82.662 95.8126 82.9397 96.2768 83.0322 96.5553C83.2174 96.8338 83.3099 97.1124 83.3099 97.298C83.3099 97.3909 83.4025 97.4837 83.4025 97.4837Z" fill="#F7996E"/>
<path d="M84.3282 98.5978C84.3282 98.5978 84.3282 98.6907 84.4207 98.9692C84.5133 99.2477 84.5133 99.6191 84.6059 100.083C84.791 101.105 84.9761 102.404 85.2538 103.983V104.075H85.1613C84.5133 104.354 83.8653 104.633 83.3099 105.097C82.7545 105.561 82.1991 106.211 81.7363 106.861C79.9775 109.089 79.6998 111.688 79.5147 113.452C79.4221 114.381 79.5147 115.124 79.5147 115.588C79.6073 116.052 79.6073 116.331 79.6073 116.331C79.6073 116.331 79.6073 116.238 79.5147 116.145C79.5147 116.052 79.4221 115.866 79.4221 115.588C79.3296 115.124 79.237 114.381 79.3296 113.452C79.3296 112.524 79.5147 111.41 79.7924 110.296C79.9775 109.739 80.1627 109.089 80.4404 108.532C80.7181 107.975 81.0883 107.325 81.5512 106.768C82.014 106.118 82.5694 105.468 83.2174 105.004C83.8653 104.54 84.5133 104.168 85.1613 103.89L85.0687 103.983C84.8836 102.404 84.6984 101.012 84.5133 100.083C84.4207 99.6191 84.4207 99.2477 84.4207 98.9692C84.3282 98.7835 84.2356 98.5978 84.3282 98.5978Z" fill="#F7996E"/>
<path d="M102.934 168.043C102.934 168.043 102.842 167.765 102.749 167.393C102.656 166.929 102.564 166.279 102.379 165.444C102.101 163.773 101.731 161.544 101.268 159.131C100.805 156.624 100.435 154.396 100.25 152.817C100.157 151.982 100.065 151.332 99.972 150.868C99.8794 150.403 99.8794 150.125 99.8794 150.125C99.8794 150.125 99.972 150.403 100.065 150.775C100.157 151.239 100.25 151.889 100.435 152.725C100.712 154.396 101.083 156.624 101.546 159.038C102.008 161.544 102.379 163.773 102.564 165.351C102.656 166.187 102.749 166.836 102.842 167.301C102.934 167.858 102.934 168.043 102.934 168.043Z" fill="#263238"/>
<path d="M70.6283 134.063L68.4993 126.822L88.4011 120.416L90.2525 126.729L70.6283 134.063Z" fill="#E0E0E0"/>
<path d="M70.6283 134.063C70.6283 134.063 70.6283 134.063 70.7209 134.063C70.8135 134.063 70.906 133.97 70.9986 133.97C71.2763 133.878 71.6466 133.692 72.1094 133.506C73.1276 133.135 74.5161 132.578 76.1823 131.928C79.6999 130.628 84.5133 128.771 90.1599 126.636L90.0673 126.822C89.5119 124.779 88.864 122.737 88.216 120.508L88.4011 120.601C88.216 120.694 88.0309 120.694 87.9383 120.787C80.2553 123.201 73.3128 125.429 68.4993 126.915L68.5919 126.822C69.2398 129.05 69.7952 130.907 70.0729 132.206C70.2581 132.856 70.3506 133.321 70.4432 133.692C70.4432 133.878 70.5358 133.97 70.5358 134.063C70.6283 134.063 70.6283 134.063 70.6283 134.063C70.6283 134.063 70.6283 134.063 70.6283 133.97C70.6283 133.878 70.5358 133.785 70.5358 133.599C70.4432 133.228 70.2581 132.764 70.0729 132.206C69.7027 130.907 69.1473 129.05 68.4067 126.822V126.729H68.4993C73.3128 125.151 80.2553 122.922 87.9383 120.508C88.1234 120.416 88.3086 120.416 88.4011 120.323H88.4937V120.416C89.1417 122.644 89.6971 124.686 90.345 126.729V126.822H90.2525C84.6059 128.957 79.6999 130.721 76.1823 132.021C74.4236 132.671 73.0351 133.135 72.1094 133.506C71.6466 133.692 71.2763 133.785 70.9986 133.878C70.906 134.063 70.8135 134.063 70.6283 134.063Z" fill="#263238"/>
<g opacity="0.3">
<path d="M99.8794 150.218C103.582 156.995 105.248 165.072 105.341 172.778C105.341 173.428 105.156 174.357 104.415 174.357C103.767 174.357 103.582 173.614 103.489 172.964C102.656 165.629 100.712 157.459 99.8794 150.218Z" fill="black"/>
</g>
<path d="M242.432 40.5718C234.842 33.0516 235.027 19.7753 229.288 10.7696C222.438 0.278518 209.571 -1.39263 197.167 0.928409C196.797 1.02125 196.519 1.11409 196.241 1.39262L156.067 36.4868C154.586 37.7865 155.79 40.2933 157.734 39.8291C166.342 37.8794 177.265 38.3436 183.097 44.3783C189.021 50.5987 193.557 67.9601 198.37 75.1089C205.961 86.5284 214.569 94.42 229.843 95.6269C230.398 95.6269 230.954 95.4412 231.324 95.0698L233.083 93.3059L233.175 93.213C244.839 79.2868 255.021 66.1961 266.499 52.4555C267.425 51.2486 266.777 49.4846 265.296 49.2989C256.872 48.092 248.449 46.5137 242.432 40.5718Z" fill="#EE3765"/>
<path d="M209.201 74.3661C209.201 74.3661 209.201 74.3661 209.201 74.2733C209.201 74.1805 209.201 74.0876 209.108 73.9019C209.015 73.5306 208.923 73.0664 208.83 72.4165C208.738 72.1379 208.738 71.7666 208.645 71.3952C208.553 71.0238 208.553 70.5596 208.46 70.0954C208.367 69.167 208.182 68.1457 208.182 67.0317C208.182 66.4746 208.09 65.8247 208.09 65.2677C208.09 64.6178 208.09 63.9679 208.09 63.318C208.09 61.9254 208.182 60.5327 208.182 59.0473C208.367 55.9835 208.83 52.734 209.663 49.2989C210.496 45.8638 211.607 42.7071 212.718 39.9219C213.366 38.5293 213.921 37.2295 214.569 36.0225C214.847 35.4655 215.125 34.8156 215.495 34.2586C215.773 33.7015 216.143 33.2373 216.421 32.6802C216.976 31.659 217.624 30.8234 218.087 30.0807C218.365 29.7093 218.55 29.3379 218.827 29.0594C219.105 28.7809 219.29 28.5024 219.475 28.2238C219.846 27.7596 220.123 27.2954 220.401 27.0169C220.494 26.9241 220.586 26.8312 220.679 26.7384C220.586 26.8312 220.586 26.9241 220.494 27.0169C220.309 27.2954 220.031 27.6668 219.661 28.2238C219.475 28.5024 219.29 28.7809 219.013 29.0594C218.827 29.3379 218.55 29.7093 218.365 30.0807C217.902 30.8234 217.254 31.659 216.698 32.6802C216.421 33.1445 216.143 33.7015 215.773 34.2586C215.495 34.8156 215.217 35.3727 214.847 36.0225C214.199 37.2295 213.644 38.5293 213.088 39.9219C211.978 42.7071 210.867 45.8638 210.034 49.2989C209.201 52.734 208.83 55.9835 208.553 59.0473C208.46 60.5327 208.367 62.0182 208.367 63.318C208.367 63.9679 208.367 64.6178 208.367 65.2677C208.367 65.9176 208.46 66.4746 208.46 67.0317C208.46 68.1457 208.645 69.167 208.738 70.0954C208.83 70.5596 208.83 70.931 208.923 71.3952C209.015 71.7666 209.015 72.1379 209.108 72.4165C209.201 73.0664 209.293 73.5306 209.293 73.9019C209.293 74.0876 209.293 74.1805 209.386 74.2733C209.201 74.3661 209.201 74.3661 209.201 74.3661Z" fill="#263238"/>
<g opacity="0.3">
<path d="M252.892 65.2677C249.467 63.4108 245.95 61.4612 242.525 59.6043C239.84 58.1189 236.971 56.6334 233.916 56.5406C229.936 56.4477 226.14 58.8616 224.289 62.3896C222.438 65.8247 222.345 70.1883 223.734 73.9019C225.122 77.6156 227.806 80.6794 231.046 83.0004C232.157 83.7432 233.268 84.393 234.194 85.3215C235.119 86.2499 235.767 87.5497 235.582 88.8494L236.508 89.3137L254.188 67.4959L252.892 65.2677Z" fill="black"/>
</g>
<path d="M199.759 2.87808C199.759 2.87808 199.666 2.97092 199.481 3.15661C199.296 3.34229 199.018 3.62082 198.648 3.99218C197.907 4.73492 196.797 5.75617 195.501 6.96311C192.816 9.46984 189.021 12.905 184.856 16.5258C180.597 20.2395 176.71 23.3961 173.933 25.7171C172.544 26.8312 171.341 27.7596 170.508 28.4095C170.137 28.6881 169.767 28.9666 169.582 29.1523C169.397 29.338 169.212 29.4308 169.212 29.4308C169.212 29.4308 169.304 29.338 169.489 29.1523C169.675 28.9666 170.045 28.6881 170.415 28.4095C171.248 27.7596 172.359 26.8312 173.748 25.6243C176.525 23.3032 180.412 20.0538 184.67 16.3401C188.928 12.6265 192.631 9.28416 195.408 6.87027C196.797 5.66333 197.815 4.64207 198.648 3.99218C199.018 3.62082 199.296 3.43513 199.481 3.24945C199.666 2.97092 199.759 2.87808 199.759 2.87808Z" fill="#263238"/>
<g opacity="0.3">
<path d="M196.056 6.22038L167.638 30.7306C177.08 25.2529 188.558 17.6399 197.815 4.64207C197.722 4.82776 196.241 6.12754 196.056 6.22038Z" fill="black"/>
</g>
<path d="M183.189 136.756L172.359 84.9501L168.101 78.1727L139.868 87.2712C139.868 87.2712 137.832 91.449 137.832 91.9132L127.001 99.3406L131.445 156.438L127.649 174.078L129.13 213.443H189.762L183.189 136.756Z" fill="#E0E0E0"/>
<path d="M134.962 93.5844C134.222 94.0486 113.949 103.333 113.949 103.333L119.226 186.797L115.338 213.629L132.278 213.536C132.278 213.536 134.777 200.909 135.518 179.463C136.258 157.924 134.962 93.5844 134.962 93.5844Z" fill="#455B64"/>
<path d="M171.248 83.0004C171.248 83.0004 168.749 172.314 170.23 178.535C171.618 184.755 178.283 213.443 178.283 213.443H215.032L199.388 170.921L202.258 128.121L199.388 87.0855L181.338 86.6213L171.248 83.0004Z" fill="#455B64"/>
<path d="M113.579 115.309C113.579 115.309 113.579 115.402 113.579 115.495C113.579 115.588 113.579 115.774 113.672 116.052C113.672 116.516 113.764 117.259 113.857 118.095C114.042 119.859 114.227 122.551 114.505 125.8C114.783 129.05 115.06 132.856 115.245 137.22C115.338 139.355 115.523 141.584 115.616 143.905C115.708 146.226 115.708 148.639 115.893 151.146C116.171 156.067 116.541 160.802 117.004 165.072C117.374 169.343 117.837 173.15 118.115 176.399C118.485 179.649 118.763 182.248 118.948 184.012C119.041 184.941 119.133 185.59 119.133 186.055C119.133 186.24 119.133 186.426 119.226 186.612C119.226 186.519 119.226 186.333 119.133 186.055C119.041 185.59 118.948 184.848 118.856 184.012C118.67 182.248 118.3 179.649 117.93 176.399C117.56 173.15 117.097 169.343 116.726 165.072C116.356 160.802 115.893 156.067 115.616 151.146C115.431 148.639 115.431 146.226 115.338 143.905C115.245 141.584 115.153 139.355 114.968 137.22C114.69 132.949 114.505 129.05 114.227 125.8C114.042 122.551 113.857 119.951 113.672 118.095C113.579 117.166 113.579 116.516 113.487 116.052C113.487 115.866 113.487 115.681 113.487 115.495C113.579 115.309 113.579 115.309 113.579 115.309Z" fill="#263238"/>
<path d="M176.247 84.9501C176.247 84.9501 176.247 84.9501 176.339 85.043C176.339 85.1358 176.432 85.2286 176.525 85.3215C176.617 85.6 176.802 86.0642 177.08 86.6213C177.543 87.7354 178.191 89.3137 179.024 91.449C180.597 95.6269 182.634 101.662 184.393 109.182V109.275H184.3C183.282 109.553 182.171 109.925 181.06 110.296V110.11C181.801 110.296 182.541 110.76 183.097 111.317C183.652 111.874 184.022 112.617 184.3 113.453C184.763 115.031 184.578 116.702 184.208 118.373C183.467 121.623 182.634 124.965 181.801 128.493C178.654 141.676 175.784 153.56 173.748 162.102C172.729 166.372 171.896 169.9 171.248 172.314C170.971 173.521 170.693 174.449 170.6 175.099C170.508 175.378 170.415 175.656 170.415 175.842C170.415 176.028 170.323 176.121 170.323 176.121C170.323 176.121 170.323 176.028 170.323 175.842C170.323 175.656 170.415 175.471 170.508 175.099C170.693 174.449 170.878 173.521 171.156 172.314C171.711 169.9 172.544 166.372 173.562 162.102C175.599 153.467 178.468 141.584 181.523 128.4C182.356 124.965 183.189 121.53 183.93 118.28C184.3 116.702 184.485 115.031 184.022 113.453C183.837 112.71 183.467 111.967 182.912 111.41C182.449 110.853 181.708 110.389 181.06 110.296L180.69 110.203L181.06 110.11C182.171 109.739 183.282 109.46 184.3 109.089L184.208 109.182C182.449 101.754 180.505 95.7198 178.931 91.449C178.191 89.3137 177.543 87.7354 177.08 86.6213C176.895 86.0642 176.71 85.6929 176.525 85.3215C176.432 85.2286 176.432 85.043 176.432 84.9501C176.247 84.9501 176.247 84.9501 176.247 84.9501Z" fill="#263238"/>
<path d="M134.129 178.535C134.129 178.535 134.129 178.442 134.129 178.256C134.129 178.07 134.129 177.885 134.036 177.606C133.944 176.956 133.851 176.121 133.759 174.914C133.574 172.593 133.203 169.25 132.833 165.165C132 156.902 130.704 145.576 129.316 133.042C128.945 129.7 128.575 126.45 128.297 123.294C128.112 121.715 127.927 120.137 128.297 118.652C128.482 117.909 128.853 117.166 129.316 116.609C129.778 116.052 130.426 115.588 131.167 115.402V115.588C129.871 115.774 128.575 115.959 127.372 116.145H127.187L127.279 115.959C129.316 109.367 130.982 103.797 132.185 99.9905C132.741 98.0408 133.203 96.5553 133.574 95.5341C133.759 95.0699 133.851 94.6056 133.944 94.3271C133.851 94.6056 133.759 94.977 133.574 95.5341C133.296 96.5553 132.833 98.1336 132.278 99.9905C131.167 103.89 129.501 109.367 127.464 116.052L127.372 115.959C128.575 115.774 129.871 115.588 131.167 115.402V115.588C130.519 115.774 129.871 116.145 129.408 116.702C128.945 117.259 128.668 117.909 128.482 118.652C128.112 120.137 128.297 121.623 128.482 123.201C128.76 126.357 129.13 129.607 129.501 132.949C130.889 145.483 132.093 156.902 132.926 165.072C133.296 169.157 133.574 172.5 133.759 174.821C133.851 175.935 133.944 176.863 133.944 177.513C133.944 177.792 133.944 178.07 133.944 178.163C134.129 178.442 134.129 178.535 134.129 178.535Z" fill="#263238"/>
<path d="M147.644 104.075L149.865 109.553H155.697L157.826 103.24L153.105 97.4837L151.532 97.7623L147.644 104.075Z" fill="#EE3765"/>
<path d="M152.179 96.6482C152.087 96.8338 151.994 97.0195 151.809 97.2052C151.532 97.6694 151.069 98.4121 150.606 99.2477C149.588 100.919 148.107 103.333 146.625 106.211L146.533 106.397L146.44 106.211C145.885 105.468 145.422 104.818 144.867 104.075C142.645 100.919 140.886 97.9479 139.683 95.7197C139.128 94.6056 138.665 93.6772 138.294 93.0273C138.202 92.7488 138.017 92.4703 137.924 92.2846C137.832 92.0989 137.832 92.0061 137.832 92.0061C137.832 92.0061 137.924 92.0989 138.017 92.2846C138.109 92.4703 138.202 92.7488 138.387 93.0273C138.757 93.6772 139.22 94.5128 139.776 95.6269C140.979 97.8551 142.83 100.826 145.052 103.89C145.607 104.633 146.07 105.375 146.625 106.025H146.44C148.014 103.24 149.495 100.826 150.513 99.1549C151.069 98.3193 151.532 97.6694 151.809 97.2052C151.994 97.0195 152.087 96.8338 152.179 96.6482Z" fill="#263238"/>
<path d="M170.137 84.9501C170.137 84.9501 170.137 85.043 170.045 85.3215C169.952 85.5072 169.767 85.8785 169.582 86.2499C169.212 87.0855 168.656 88.1996 168.008 89.5922C166.62 92.4703 164.676 96.2768 162.64 100.64C161.806 102.404 160.973 104.075 160.233 105.561L160.14 105.747L160.048 105.654C157.641 103.24 155.604 101.012 154.309 99.3406C153.661 98.505 153.198 97.8551 152.827 97.3909C152.642 97.1124 152.55 96.9267 152.457 96.8339C152.365 96.741 152.365 96.6482 152.365 96.6482C152.365 96.6482 152.457 96.741 152.55 96.8339C152.642 96.9267 152.735 97.1124 152.92 97.3909C153.29 97.8551 153.753 98.505 154.401 99.3406C155.697 100.919 157.734 103.147 160.14 105.561H159.955C160.696 104.075 161.529 102.404 162.362 100.64C164.491 96.3696 166.435 92.4703 167.823 89.685C168.564 88.2924 169.119 87.1783 169.489 86.3427C169.675 85.9714 169.86 85.6929 169.952 85.4143C170.137 85.043 170.137 84.9501 170.137 84.9501Z" fill="#263238"/>
<g opacity="0.3">
<path d="M152.272 206.201C152.642 205.551 163.102 191.439 163.102 191.439L155.512 110.853L152.272 206.201Z" fill="black"/>
</g>
<path d="M149.958 109.553C149.958 109.553 143.015 190.604 144.219 195.432L152.272 206.201L160.603 190.325C160.788 189.583 155.512 109.553 155.512 109.553H149.958Z" fill="#EE3765"/>
<path d="M181.523 186.705C181.523 186.983 186.059 194.967 186.059 194.967L210.126 194.875L204.757 186.705H181.523Z" fill="#455B64"/>
<path d="M181.523 186.705C181.523 186.705 181.523 186.705 181.616 186.705C181.708 186.705 181.801 186.705 181.986 186.705C182.264 186.705 182.726 186.705 183.282 186.705C184.393 186.705 186.059 186.705 188.095 186.705C192.261 186.705 198.093 186.612 204.85 186.612H204.942V186.705C206.609 189.211 208.367 191.997 210.311 194.875L210.404 195.06H210.219C210.126 195.06 210.034 195.06 210.034 195.06C200.684 195.06 192.261 195.153 186.151 195.153H186.059C184.67 192.646 183.467 190.511 182.726 189.118C182.356 188.376 182.079 187.819 181.893 187.447C181.801 187.262 181.708 187.076 181.708 186.983C181.523 186.705 181.523 186.705 181.523 186.705C181.523 186.705 181.523 186.797 181.616 186.89C181.708 186.983 181.708 187.169 181.801 187.354C181.986 187.726 182.356 188.283 182.726 189.026C183.56 190.418 184.67 192.461 186.151 195.06H186.059C192.076 195.06 200.499 194.967 209.941 194.875C210.034 194.875 210.126 194.875 210.126 194.875L210.034 195.06C208.182 192.182 206.331 189.397 204.665 186.89L204.757 186.983C198 186.983 192.261 186.983 188.095 186.983C186.059 186.983 184.393 186.983 183.282 186.983C182.726 186.983 182.264 186.983 181.986 186.983C181.801 186.983 181.708 186.983 181.616 186.983C181.523 186.705 181.523 186.705 181.523 186.705Z" fill="#263238"/>
<path d="M156.16 101.29C156.16 101.29 155.79 101.754 155.234 102.497C154.679 103.24 153.846 104.261 153.013 105.375C152.18 106.489 151.346 107.511 150.791 108.346C150.236 109.089 149.865 109.553 149.865 109.553C149.865 109.553 150.143 108.996 150.606 108.253C151.161 107.511 151.902 106.397 152.735 105.282C153.568 104.168 154.401 103.147 155.049 102.404C155.79 101.662 156.16 101.29 156.16 101.29Z" fill="#263238"/>
<g opacity="0.3">
<path d="M152.92 97.2981C152.92 97.2981 158.011 106.397 160.14 107.139C162.269 107.882 166.065 93.1202 166.065 93.1202L160.048 105.097L152.92 97.2981Z" fill="black"/>
</g>
<g opacity="0.3">
<path d="M171.248 171.943C171.248 171.943 182.634 134.713 185.041 124.222C187.447 113.731 184.3 110.853 184.3 110.853L186.522 109.46L179.764 93.9557L184.208 109.089L180.968 110.11C180.968 110.11 183.56 110.296 184.208 114.102C184.856 117.909 171.248 171.943 171.248 171.943Z" fill="black"/>
</g>
<path d="M232.62 61.8325C232.62 61.8325 231.324 60.6256 229.102 61.8325C229.102 61.8325 226.788 63.0395 226.418 64.0607C226.048 65.082 226.603 66.4746 227.066 67.4959C227.529 68.5171 230.028 72.4165 230.028 72.4165C230.028 72.4165 230.028 75.6659 232.157 79.1011C234.286 82.5362 237.989 82.6291 238.637 85.0429C239.285 87.5497 239.562 88.1996 239.192 89.9636C238.822 91.6347 238.081 94.5128 238.081 94.5128L252.244 101.754C252.244 101.754 253.17 91.5419 252.892 85.5072C252.614 79.4724 252.614 73.4377 252.985 71.4881C253.355 69.5384 252.892 66.6603 252.244 66.3818C252.244 66.3818 253.91 62.2967 251.874 61.0898C249.837 59.8829 236.971 55.9835 235.582 56.5406C234.194 57.0976 233.638 57.7475 233.268 59.3258C232.898 60.9041 232.62 61.8325 232.62 61.8325Z" fill="#FBBF9E"/>
<path d="M244.654 72.138C244.654 72.138 244.468 71.9523 244.283 71.6738C244.098 71.3024 243.913 70.6525 244.376 70.0026V70.0954C243.82 69.9098 243.265 69.6312 242.525 69.4456L242.617 69.3527C242.802 69.8169 242.987 70.374 243.173 70.8382C243.358 71.0239 243.543 71.3024 243.728 71.5809C243.913 71.8594 244.006 72.2308 244.006 72.5093C244.006 73.1592 243.543 73.902 242.895 74.1805C242.525 74.3662 242.154 74.3662 241.784 74.3662C241.599 74.3662 241.414 74.2733 241.229 74.1805C241.043 74.0876 240.858 74.0876 240.673 73.9948C240.025 73.7163 239.285 73.2521 238.729 72.7879C238.359 72.4165 237.896 72.0451 237.619 71.6738L237.711 71.7666C236.785 71.6738 235.952 71.3024 235.304 70.7453C234.656 70.1883 234.379 69.3527 234.379 68.61L234.471 68.7028C233.916 68.5171 233.36 68.2386 232.99 67.9601C232.805 67.7744 232.62 67.5887 232.435 67.403C232.342 67.1245 232.25 66.9388 232.25 66.6603C232.25 65.7319 232.342 64.8963 232.435 64.2464C232.527 63.5965 232.62 63.0395 232.712 62.6681C232.805 62.2968 232.805 62.1111 232.898 62.1111C232.898 62.1111 232.898 62.2968 232.805 62.6681C232.712 63.0395 232.62 63.5965 232.527 64.2464C232.435 64.8963 232.342 65.7319 232.342 66.6603C232.342 66.846 232.435 67.1245 232.527 67.3102C232.62 67.4959 232.805 67.6816 232.99 67.8672C233.36 68.1458 233.916 68.4243 234.379 68.61H234.471V68.7028C234.471 69.4456 234.842 70.1883 235.397 70.6525C235.952 71.2095 236.785 71.4881 237.619 71.5809H237.711C237.989 71.9523 238.359 72.3237 238.822 72.695C239.377 73.1592 240.025 73.6234 240.766 73.902C240.951 73.9948 241.136 74.0876 241.229 74.0876C241.414 74.1805 241.599 74.1805 241.691 74.2733C242.062 74.3662 242.339 74.2733 242.617 74.1805C243.173 73.902 243.635 73.2521 243.635 72.695C243.635 72.0451 243.265 71.5809 242.895 71.2095C242.71 70.6525 242.525 70.1883 242.339 69.7241L242.247 69.5384L242.432 69.6312C243.08 69.9098 243.728 70.1883 244.283 70.374H244.376L244.283 70.4668C244.098 70.7453 244.006 71.1167 244.006 71.3024C244.006 71.5809 244.098 71.7666 244.191 71.9523C244.561 71.9523 244.654 72.138 244.654 72.138Z" fill="#F7996E"/>
<path d="M249.097 64.9892C249.097 64.9892 248.819 64.9892 248.449 64.8963C247.986 64.8035 247.338 64.7106 246.597 64.525C245.764 64.3393 244.839 64.1536 243.82 63.9679C243.265 63.8751 242.802 63.7822 242.247 63.5965C241.691 63.5037 241.136 63.318 240.581 63.4109C240.025 63.5037 239.562 63.8751 239.285 64.3393C239.007 64.8035 238.822 65.3605 238.729 65.8247C238.452 66.846 238.266 67.7744 238.174 68.61C238.081 69.4456 237.989 70.0026 237.989 70.4668C237.896 70.931 237.896 71.1167 237.896 71.1167C237.896 71.1167 237.896 70.8382 237.896 70.4668C237.896 70.0026 237.989 69.3527 238.081 68.61C238.174 67.7744 238.267 66.846 238.544 65.8247C238.729 65.2677 238.822 64.8035 239.1 64.2464C239.285 63.9679 239.47 63.6894 239.655 63.5037C239.933 63.318 240.21 63.1323 240.581 63.1323C241.229 63.0395 241.784 63.2252 242.339 63.318C242.895 63.4109 243.45 63.5965 243.913 63.6894C244.931 63.9679 245.857 64.1536 246.597 64.3393C247.338 64.525 247.986 64.7106 248.449 64.8035C248.912 64.8963 249.097 64.9892 249.097 64.9892Z" fill="#F7996E"/>
<path d="M246.875 62.0182C246.875 62.0182 246.597 62.0182 246.135 61.8325C245.672 61.7397 245.024 61.554 244.191 61.3683C243.358 61.1827 242.432 60.997 241.321 60.7184C240.766 60.6256 240.21 60.5328 239.655 60.4399C239.1 60.3471 238.452 60.3471 237.896 60.5328C237.341 60.7184 236.878 61.1827 236.508 61.6469C236.137 62.1111 235.952 62.6681 235.767 63.1323C235.397 64.1536 235.119 65.082 234.934 65.9176C234.749 66.7532 234.656 67.403 234.564 67.8672C234.471 68.3315 234.471 68.61 234.471 68.61C234.471 68.61 234.471 68.3315 234.471 67.8672C234.564 67.403 234.564 66.7532 234.749 65.9176C234.934 65.082 235.119 64.1536 235.489 63.1323C235.675 62.5753 235.952 62.1111 236.23 61.554C236.6 61.0898 237.063 60.6256 237.711 60.3471C238.359 60.1614 239.007 60.1614 239.562 60.2542C240.118 60.3471 240.766 60.4399 241.229 60.5328C242.339 60.7184 243.265 60.997 244.098 61.1827C244.931 61.3683 245.579 61.554 245.95 61.7397C246.597 61.9254 246.875 62.0182 246.875 62.0182Z" fill="#F7996E"/>
<path d="M252.244 63.5965C252.244 63.6894 251.504 63.1323 250.485 62.761C249.467 62.3896 248.634 62.3896 248.634 62.2968C248.634 62.2039 249.56 62.1111 250.578 62.4824C251.689 62.8538 252.337 63.5037 252.244 63.5965Z" fill="#F7996E"/>
<path d="M239.748 58.3974C239.748 58.3974 239.562 58.3974 239.192 58.3974C238.822 58.3974 238.359 58.3974 237.711 58.3974C237.063 58.4902 236.415 58.5831 235.675 59.0473C235.304 59.233 235.027 59.5115 234.842 59.8829C234.656 60.2542 234.471 60.7184 234.379 61.0898C233.916 62.9466 233.638 64.6178 233.453 65.8247C233.36 66.3818 233.268 66.846 233.268 67.3102C233.175 67.6816 233.175 67.8672 233.175 67.8672C233.175 67.8672 233.175 67.6816 233.175 67.3102C233.175 66.9388 233.268 66.4746 233.268 65.8247C233.453 64.6178 233.638 62.8538 234.101 61.0898C234.194 60.6256 234.379 60.1614 234.656 59.79C234.934 59.4187 235.212 59.0473 235.582 58.8616C236.323 58.3974 237.063 58.3046 237.711 58.3046C238.359 58.3046 238.822 58.3046 239.192 58.3974C239.562 58.3046 239.748 58.3974 239.748 58.3974Z" fill="#F7996E"/>
<path d="M246.531 60.0974C246.543 60.0477 245.831 59.8226 244.939 59.5947C244.047 59.3667 243.314 59.2222 243.302 59.2719C243.289 59.3215 244.002 59.5466 244.893 59.7746C245.785 60.0026 246.518 60.1471 246.531 60.0974Z" fill="#F7996E"/>
<path d="M234.564 69.167C234.564 69.2599 233.546 69.5384 232.527 70.2811C231.509 71.0239 230.954 71.9523 230.861 71.9523C230.769 71.9523 231.231 70.931 232.342 70.0955C233.453 69.2599 234.564 69.0742 234.564 69.167Z" fill="#F7996E"/>
<path d="M232.527 67.1245C232.527 67.1245 232.342 67.3102 232.065 67.4959C231.694 67.6816 231.231 67.8672 230.583 67.8672C229.936 67.8672 229.473 67.6816 229.102 67.4959C228.732 67.3102 228.547 67.2174 228.547 67.2174C228.547 67.1245 229.473 67.5887 230.583 67.5887C231.694 67.5887 232.435 67.0317 232.527 67.1245Z" fill="#F7996E"/>
<path d="M246.875 73.2521C246.875 73.3449 246.042 73.2521 244.839 73.6234C243.543 73.902 241.877 74.6447 240.488 76.1301C239.1 77.5228 238.359 79.2868 238.081 80.4937C237.804 81.7935 237.804 82.6291 237.804 82.6291C237.804 82.6291 237.804 82.4434 237.804 82.072C237.804 81.7006 237.804 81.1436 237.989 80.4937C238.266 79.1939 238.914 77.4299 240.396 75.9445C241.784 74.459 243.543 73.7163 244.839 73.4377C245.487 73.2521 246.042 73.2521 246.412 73.2521C246.69 73.2521 246.875 73.2521 246.875 73.2521Z" fill="#F7996E"/>
<path d="M249.189 87.364C249.189 87.364 248.727 87.5497 247.893 87.6425C247.06 87.7354 245.95 87.7354 244.746 87.5497C243.543 87.364 242.525 86.8998 241.784 86.5284C241.043 86.157 240.673 85.8785 240.673 85.8785C240.673 85.8785 241.136 86.0642 241.877 86.4356C242.617 86.7141 243.635 87.0855 244.839 87.364C246.042 87.5497 247.153 87.6425 247.893 87.5497C248.727 87.364 249.189 87.2711 249.189 87.364Z" fill="#F7996E"/>
<path d="M231.787 115.402L208.553 97.4837C208.553 97.4837 204.202 87.0855 199.296 87.1783V129.514L220.586 142.326C222.438 143.626 230.769 148.732 238.544 150.125C242.802 150.961 248.912 149.197 251.133 145.483C251.781 144.462 253.633 139.82 253.818 138.427C254.466 133.042 255.854 91.6347 255.854 91.6347L232.62 87.1783L231.787 115.402Z" fill="#455B64"/>
<path d="M234.564 141.491C234.564 141.491 234.471 141.398 234.379 141.305C234.286 141.119 234.101 140.934 233.916 140.655C233.823 140.469 233.731 140.377 233.546 140.191C233.453 140.005 233.268 139.82 233.175 139.541C232.898 139.077 232.62 138.613 232.342 138.056C232.157 137.777 232.065 137.498 231.879 137.127C231.694 136.849 231.602 136.477 231.417 136.106C231.139 135.456 230.861 134.62 230.583 133.878C230.121 132.207 229.658 130.443 229.473 128.493C229.288 126.543 229.38 124.686 229.473 122.922C229.565 122.087 229.658 121.251 229.843 120.508C229.936 120.137 229.936 119.766 230.028 119.394C230.121 119.023 230.213 118.744 230.306 118.373C230.491 117.723 230.676 117.166 230.861 116.702C230.954 116.423 231.046 116.238 231.139 116.052C231.231 115.866 231.324 115.681 231.417 115.495C231.602 115.216 231.694 114.938 231.787 114.752C231.694 114.938 231.602 115.216 231.509 115.495C231.417 115.681 231.324 115.866 231.324 116.052C231.231 116.238 231.139 116.516 231.139 116.702C230.954 117.166 230.769 117.723 230.676 118.373C230.583 118.652 230.491 119.023 230.398 119.302C230.306 119.673 230.306 120.044 230.213 120.323C230.028 121.066 229.936 121.901 229.843 122.737C229.658 124.408 229.658 126.265 229.843 128.214C230.028 130.164 230.398 132.021 230.861 133.599C231.139 134.435 231.324 135.177 231.694 135.827C231.879 136.199 231.972 136.477 232.065 136.849C232.25 137.127 232.342 137.498 232.527 137.777C232.805 138.334 233.083 138.891 233.36 139.262C233.453 139.448 233.638 139.727 233.731 139.912C233.823 140.098 233.916 140.284 234.008 140.377C234.194 140.655 234.379 140.934 234.471 141.119C234.564 141.398 234.564 141.491 234.564 141.491Z" fill="#263238"/>
<path d="M204.109 99.5262C204.109 99.6191 204.109 99.8048 204.109 100.083C204.109 100.548 204.017 101.29 204.017 102.126C203.924 103.983 203.739 106.582 203.554 109.832C203.091 116.331 202.536 125.243 201.888 135.085C201.24 144.926 200.592 153.931 200.129 160.338C199.944 163.587 199.666 166.187 199.574 168.043C199.481 168.972 199.481 169.622 199.388 170.086C199.388 170.272 199.388 170.457 199.296 170.643C199.296 170.55 199.296 170.364 199.296 170.086C199.296 169.622 199.388 168.879 199.388 168.043C199.481 166.187 199.666 163.587 199.851 160.338C200.314 153.839 200.87 144.926 201.518 135.085C202.165 125.243 202.813 116.238 203.276 109.832C203.461 106.582 203.739 103.983 203.832 102.126C203.924 101.197 203.924 100.548 204.017 100.083C204.017 99.8976 204.017 99.7119 204.109 99.5262Z" fill="#263238"/>
<g opacity="0.3">
<path d="M231.879 136.106C230.398 132.671 230.121 131.185 229.658 127.936C229.195 124.686 229.843 119.673 231.139 116.516C226.881 122.551 225.585 131.278 228.454 138.056C228.825 138.891 229.38 139.912 230.306 139.912C231.139 140.005 231.879 139.262 232.064 138.427C232.25 137.777 232.157 136.941 231.879 136.106Z" fill="black"/>
</g>
<path d="M169.027 60.7184C170.693 55.8907 172.266 51.0629 173.007 45.9566C173.748 40.9432 173.655 35.6512 171.989 30.8234C171.711 30.0807 169.489 25.2529 168.749 25.2529C168.194 25.3458 169.582 29.895 169.304 30.3592C166.62 34.9084 165.787 40.3861 166.157 45.5852C166.527 50.97 167.546 55.705 169.027 60.7184Z" fill="#263238"/>
<path d="M150.606 17.3614L149.403 17.4542C137.554 17.9184 128.02 27.4811 127.557 39.3648C127.094 50.413 126.816 62.6681 127.094 68.61C127.742 80.8651 140.053 82.2577 140.053 82.2577L140.146 87.4568L152.272 95.534L168.286 78.2655L169.675 41.3145C170.323 28.5024 163.38 17.5471 150.606 17.3614Z" fill="#FBBF9E"/>
<path d="M140.146 82.1648C140.146 82.1648 147.829 82.2577 155.882 76.78C155.882 76.78 152.457 86.157 140.238 85.6L140.146 82.1648Z" fill="#F7996E"/>
<path d="M133.296 49.5774C133.296 50.5058 134.129 51.2486 135.055 51.2486C135.98 51.2486 136.813 50.5058 136.813 49.5774C136.813 48.649 135.98 47.9063 135.055 47.9063C134.036 47.9063 133.296 48.649 133.296 49.5774Z" fill="#263238"/>
<path d="M130.426 44.6568C130.612 44.8425 131.907 43.8212 133.851 43.7284C135.703 43.6356 137.184 44.564 137.369 44.2855C137.461 44.1926 137.184 43.8212 136.628 43.357C135.98 42.9857 134.962 42.5215 133.851 42.6143C132.648 42.7071 131.722 43.1714 131.167 43.6356C130.519 44.0998 130.334 44.564 130.426 44.6568Z" fill="#263238"/>
<path d="M150.143 49.5774C150.143 50.5058 150.976 51.2486 151.902 51.2486C152.828 51.2486 153.661 50.5058 153.661 49.5774C153.661 48.649 152.828 47.9063 151.902 47.9063C150.884 47.9063 150.143 48.649 150.143 49.5774Z" fill="#263238"/>
<path d="M148.847 44.2855C149.032 44.4711 150.328 43.4499 152.272 43.357C154.123 43.2642 155.605 44.1926 155.79 43.9141C155.882 43.8212 155.605 43.4499 155.049 42.9857C154.401 42.6143 153.383 42.1501 152.272 42.2429C151.069 42.3358 150.143 42.8 149.588 43.2642C148.94 43.8212 148.755 44.1926 148.847 44.2855Z" fill="#263238"/>
<path d="M142.738 59.0473C142.738 58.9544 141.534 58.7688 139.683 58.5831C139.22 58.5831 138.757 58.4902 138.665 58.1189C138.572 57.7475 138.757 57.2833 138.943 56.7262C139.313 55.5193 139.776 54.3124 140.238 53.0126C141.997 47.7206 143.201 43.357 143.015 43.2642C142.83 43.1714 141.164 47.4421 139.498 52.734C139.035 54.0338 138.665 55.2408 138.295 56.4477C138.109 57.0048 137.832 57.6547 138.109 58.3045C138.295 58.6759 138.572 58.8616 138.943 58.9544C139.22 59.0473 139.498 59.0473 139.776 59.0473C141.534 59.233 142.738 59.1401 142.738 59.0473Z" fill="#263238"/>
<path d="M148.014 38.4364C148.292 38.9007 150.051 38.3436 152.272 38.1579C154.494 37.9722 156.345 38.2508 156.53 37.7865C156.623 37.508 156.252 37.1367 155.419 36.7653C154.586 36.3939 153.383 36.1154 152.087 36.2082C150.791 36.3011 149.588 36.7653 148.847 37.2295C148.199 37.7865 147.921 38.2508 148.014 38.4364Z" fill="#263238"/>
<path d="M130.149 39.0863C130.519 39.4577 132.093 38.9935 133.944 38.9935C135.795 38.9006 137.369 39.1792 137.739 38.715C137.924 38.5293 137.647 38.0651 136.906 37.6937C136.258 37.3223 135.055 37.0438 133.851 37.0438C132.555 37.1366 131.537 37.508 130.889 37.9722C130.149 38.4364 129.964 38.9006 130.149 39.0863Z" fill="#263238"/>
<path d="M169.119 50.413C169.304 50.3202 177.45 47.5349 177.45 55.9835C177.543 64.3392 169.119 62.7609 169.119 62.4824C169.119 62.2039 169.119 50.413 169.119 50.413Z" fill="#FBBF9E"/>
<path d="M171.711 59.3258C171.711 59.3258 171.896 59.4186 172.081 59.5115C172.359 59.6043 172.729 59.6972 173.192 59.5115C174.118 59.1401 174.766 57.7475 174.858 56.262C174.858 55.5193 174.673 54.7766 174.396 54.2195C174.118 53.5696 173.748 53.1983 173.285 53.1054C172.822 53.0126 172.544 53.2911 172.452 53.4768C172.359 53.7553 172.359 53.8481 172.359 53.8481C172.359 53.8481 172.174 53.7553 172.266 53.3839C172.266 53.1983 172.359 53.0126 172.637 52.8269C172.822 52.6412 173.1 52.5484 173.47 52.6412C174.118 52.6412 174.673 53.2911 175.043 53.941C175.414 54.5909 175.599 55.4265 175.599 56.262C175.599 57.9332 174.673 59.5115 173.47 59.8829C172.914 60.0685 172.359 59.8829 172.174 59.6972C171.711 59.5115 171.619 59.3258 171.711 59.3258Z" fill="#F7996E"/>
<path d="M133.018 25.4386C131.63 24.6959 135.703 20.3323 139.035 18.754C144.034 16.433 151.717 15.0403 156.345 16.3401C161.899 17.9184 166.527 20.7037 169.397 25.81C172.174 30.9163 173.285 36.8581 173.1 42.6143C173.007 44.3783 172.822 46.2351 171.896 47.7206C170.693 49.5774 168.471 50.7844 168.564 53.2911C168.564 54.2195 168.379 55.1479 167.731 55.8907C166.157 57.5618 164.306 55.9835 163.473 54.498C161.621 51.2486 161.436 47.2564 161.251 43.5427C161.159 40.8503 161.066 38.1579 161.806 35.5583C162.177 34.1657 162.917 32.8659 163.195 31.3805C163.565 29.9878 163.473 28.3167 162.64 27.2026C162.454 27.0169 162.269 26.7384 161.992 26.5527C159.585 24.5102 156.345 23.8603 153.29 24.8816C148.569 26.5527 140.516 29.0594 138.48 27.4811C135.425 25.1601 134.777 23.6746 134.777 23.6746L133.018 25.4386Z" fill="#263238"/>
<path d="M148.662 60.2542C148.384 60.2542 148.384 62.2039 146.718 63.5037C145.052 64.8963 143.015 64.6178 143.015 64.8963C143.015 64.9892 143.478 65.2677 144.311 65.2677C145.144 65.2677 146.44 64.9891 147.366 64.2464C148.384 63.4108 148.847 62.2967 148.847 61.4612C149.032 60.7184 148.755 60.2542 148.662 60.2542Z" fill="#263238"/>
</g>
<defs>
<clipPath id="clip0_2_49">
<rect width="330" height="214" fill="white"/>
</clipPath>
</defs>
</svg>
