<svg width="30" height="29" viewBox="0 0 30 29" fill="none" xmlns="http://www.w3.org/2000/svg">
<path d="M14.933 28.8412C24.2711 28.8412 31.8412 28.3825 31.8412 27.8165C31.8412 27.2506 24.2711 26.7918 14.933 26.7918C5.5948 26.7918 -1.97528 27.2506 -1.97528 27.8165C-1.97528 28.3825 5.5948 28.8412 14.933 28.8412Z" fill="white"/>
<path d="M22.0311 10.4181V6.92371H7.83488V10.4181H6.03668V25.9099C6.03668 26.8417 6.77489 27.5988 7.68345 27.5988H22.1826C23.0911 27.5988 23.8293 26.8417 23.8293 25.9099V10.4181H22.0311Z" fill="#EE3665"/>
<path d="M7.24808 6.78781L5.31738 10.554H24.5486L22.6179 6.78781H7.24808Z" fill="#252A34"/>
<path d="M11.2419 17.8922H10.163L10.3523 17.1351H13.2105L13.0212 17.8922H11.9991L11.3744 20.4547H10.6173L11.2419 17.8922Z" fill="white"/>
<path d="M14.1569 17.1351H15.7469C15.974 17.1351 16.1633 17.2127 16.2958 17.3874C16.4283 17.5621 16.4851 17.7563 16.4283 17.9892C16.3905 18.1834 16.3337 18.3387 16.3147 18.4746C16.2769 18.6105 16.258 18.7269 16.239 18.8434C16.2012 18.9987 16.1255 19.1346 15.993 19.2317C15.8605 19.3288 15.709 19.387 15.5576 19.387H13.873C13.873 19.387 13.8541 19.4452 13.8351 19.5423C13.8162 19.6394 13.7783 19.7558 13.7594 19.8917C13.7216 20.0276 13.7026 20.1635 13.6648 20.28C13.6458 20.3965 13.6269 20.4547 13.608 20.4935C13.608 20.4935 13.5701 20.4935 13.4944 20.4935C13.4187 20.4935 13.343 20.4935 13.2294 20.4935C13.1348 20.4935 13.0401 20.4935 12.9455 20.4935C12.8698 20.4935 12.813 20.4935 12.7941 20.4935C12.9266 19.9694 13.0212 19.5229 13.0969 19.1929C13.1726 18.8434 13.2483 18.5328 13.3241 18.2416C13.3998 17.9504 13.4376 17.7951 13.4376 17.7175C13.5891 17.3098 13.8351 17.1351 14.1569 17.1351ZM14.0812 18.6105H15.4251C15.4819 18.6105 15.5008 18.591 15.5198 18.5328L15.6523 18.0087C15.6523 17.9698 15.6522 17.9504 15.6333 17.931C15.6144 17.9116 15.5955 17.8922 15.5576 17.8922C15.5387 17.8922 15.4819 17.8922 15.3683 17.8922C15.2548 17.8922 15.1223 17.8922 14.9708 17.8922C14.8194 17.8922 14.668 17.8922 14.5544 17.8922C14.4219 17.8922 14.3462 17.8922 14.3273 17.8922C14.3083 17.8922 14.2894 17.8922 14.2705 17.9116C14.2516 17.931 14.2326 17.9504 14.2326 17.9698L14.1948 18.164C14.1569 18.2804 14.138 18.4163 14.0812 18.6105Z" fill="white"/>
<path d="M17.6587 17.8922C17.6397 17.8922 17.6208 17.8922 17.6019 17.9116C17.5829 17.931 17.5829 17.9504 17.564 17.9698C17.5451 18.0281 17.5451 18.0863 17.5262 18.1251C17.5072 18.164 17.5072 18.2028 17.5072 18.2416C17.5072 18.2804 17.4883 18.2999 17.4883 18.3193C17.4883 18.3581 17.4883 18.3775 17.5072 18.3969C17.5262 18.4163 17.5451 18.4357 17.5829 18.4357C17.6019 18.4357 17.6587 18.4357 17.7533 18.4357C17.8669 18.4357 17.9804 18.4357 18.1319 18.4357C18.2833 18.4357 18.4158 18.4357 18.5294 18.4357C18.6429 18.4357 18.7186 18.4357 18.7565 18.4357C18.9647 18.4357 19.154 18.5134 19.2676 18.6881C19.4001 18.8628 19.4379 19.057 19.3811 19.2899C19.3811 19.2899 19.3811 19.3288 19.3622 19.387C19.3433 19.4452 19.3244 19.5035 19.3054 19.5811C19.2865 19.6588 19.2676 19.7364 19.2486 19.7947C19.2297 19.8529 19.2297 19.9112 19.2108 19.9306C19.1729 20.0859 19.0783 20.2218 18.9647 20.3382C18.8322 20.4353 18.6997 20.4935 18.5294 20.4935C18.5104 20.4935 18.3969 20.4935 18.1697 20.4935C17.9426 20.4935 17.6965 20.4935 17.4126 20.4935C17.1287 20.4935 16.8637 20.4935 16.6176 20.4935C16.3715 20.4935 16.239 20.4935 16.2012 20.4935C16.239 20.3577 16.258 20.2412 16.2769 20.1441C16.2958 20.047 16.3147 19.9694 16.3337 19.8917C16.3526 19.8141 16.3715 19.7558 16.3715 19.7364C16.3905 19.7364 16.504 19.7364 16.6933 19.7364C16.8826 19.7364 17.1097 19.7364 17.3558 19.7364C17.6019 19.7364 17.8479 19.7364 18.0562 19.7364C18.2644 19.7364 18.3969 19.7364 18.4347 19.7364C18.4726 19.7364 18.5104 19.717 18.5294 19.6588C18.5483 19.6005 18.5483 19.5423 18.5672 19.5035C18.5861 19.4646 18.5861 19.4258 18.5861 19.387C18.5861 19.3482 18.6051 19.3288 18.6051 19.3093C18.624 19.2705 18.6051 19.2511 18.5861 19.2317C18.5861 19.1734 18.5483 19.1734 18.5294 19.1734C18.5104 19.1734 18.4536 19.1734 18.359 19.1734C18.2644 19.1734 18.1319 19.1734 17.9804 19.1734C17.829 19.1734 17.6965 19.1734 17.5829 19.1734C17.4694 19.1734 17.3937 19.1734 17.3558 19.1734C17.1476 19.1734 16.9583 19.0958 16.8258 18.9211C16.6933 18.7464 16.6555 18.5522 16.7122 18.3193V18.2999C16.7312 18.261 16.7312 18.2028 16.7501 18.1057C16.769 18.0087 16.788 17.931 16.8069 17.8533C16.8258 17.7757 16.8447 17.7175 16.8447 17.6786C16.9772 17.3292 17.2044 17.1351 17.5262 17.1351C17.5451 17.1351 17.6587 17.1351 17.8858 17.1351C18.1129 17.1351 18.359 17.1351 18.6429 17.1351C18.9269 17.1351 19.1919 17.1351 19.4379 17.1351C19.684 17.1351 19.8165 17.1351 19.8543 17.1351C19.8165 17.2709 19.7976 17.3874 19.7786 17.4845C19.7597 17.5816 19.7408 17.6592 19.7218 17.7369C19.7029 17.8145 19.684 17.8728 19.684 17.8922C19.6651 17.8922 19.5515 17.8922 19.3622 17.8922C19.1729 17.8922 18.9458 17.8922 18.6997 17.8922C18.4536 17.8922 18.2076 17.8922 17.9994 17.8922C17.8101 17.8922 17.6965 17.8922 17.6587 17.8922Z" fill="white"/>
<path d="M19.7786 8.63205L17.3747 8.69029L14.9708 8.72912C14.1758 8.74853 13.3619 8.76794 12.5669 8.74853C11.7719 8.72912 10.958 8.7097 10.163 8.63205V8.61264C10.958 8.53498 11.7719 8.51557 12.5669 8.49616C13.3619 8.47675 14.1758 8.51557 14.9708 8.51557L17.3747 8.5544L19.7786 8.61264V8.63205Z" fill="white"/>
<path d="M19.8922 3.09928L16.258 8.63206H13.0402L10.9959 7.21489L15.6334 0.148468L19.8922 3.09928Z" fill="white"/>
<path d="M24.5675 10.554H5.31738V11.4276H24.5675V10.554Z" fill="#252A34"/>
</svg>
