<svg width="34" height="36" viewBox="0 0 34 36" fill="none" xmlns="http://www.w3.org/2000/svg">
<g clip-path="url(#clip0_46_29897)">
<path d="M7.78522 1.14061C8.59019 0.844895 9.47988 1.47857 10.2849 1.26734C10.7932 1.14061 11.1322 0.71816 11.5558 0.422446C12.1913 -4.14066e-06 13.1234 -0.126739 13.8436 0.168976C14.5639 0.464691 15.0299 0.80265 15.157 1.56306C15.7501 1.18286 16.8517 1.85877 17.233 2.57694C17.6566 3.2951 17.6143 4.09776 17.4872 4.90041C17.233 6.2945 16.7246 7.68858 15.962 8.87144C15.8772 8.99817 15.7925 9.08266 15.6654 9.04042C15.5807 8.99817 15.5383 8.91368 15.5383 8.82919C15.3688 8.11103 15.4112 7.35062 15.4112 6.59021C15.4112 5.8298 15.4112 5.06939 15.1146 4.39347C14.8181 3.71755 14.2249 3.08388 13.4623 2.99939C12.9116 2.9149 12.3608 3.16837 11.8948 3.46408C11.4287 3.7598 11.0474 4.14 10.5814 4.52021C10.1578 4.85817 9.64935 5.15388 9.09859 5.23837C8.54782 5.32286 7.95469 5.06939 7.65812 4.6047C7.40392 4.14 7.61575 3.37959 8.12415 3.25286C7.61575 3.25286 7.14972 2.83041 7.06499 2.36571C7.02262 1.81653 7.31919 1.30959 7.78522 1.14061Z" fill="#263238"/>
<path d="M16.3433 5.19612L16.1314 13.5606C16.0891 14.997 14.691 16.1798 13.2505 16.0953C11.9371 16.0108 11.0898 14.7857 11.1322 13.4339C11.1322 12.8002 11.1745 12.2933 11.1745 12.2088C11.1745 12.2088 9.0562 11.9553 8.9291 9.84307C8.88673 8.82919 8.9291 6.71694 9.01383 4.77367C9.09856 2.70367 10.7509 1.09836 12.8268 1.01387H13.0387C15.2841 1.09836 16.4704 2.99938 16.3433 5.19612Z" fill="#FBBF9E"/>
<path d="M11.1745 12.2088C11.1745 12.2088 12.5302 12.251 13.9283 11.3216C13.9283 11.3216 13.3352 12.8847 11.2169 12.758L11.1745 12.2088Z" fill="#F7996E"/>
<path d="M16.2585 6.80144C16.3009 6.80144 17.699 6.33675 17.699 7.77307C17.699 9.2094 16.2585 8.91369 16.2585 8.87144C16.2161 8.8292 16.2585 6.80144 16.2585 6.80144Z" fill="#FBBF9E"/>
<path d="M16.6822 8.32226C16.6822 8.32226 16.7246 8.32225 16.7669 8.3645C16.8093 8.3645 16.894 8.40674 16.9364 8.3645C17.1059 8.32225 17.233 8.06878 17.233 7.81532C17.233 7.68858 17.1906 7.56185 17.1482 7.43511C17.1059 7.30838 17.0211 7.26613 16.9364 7.22389C16.8517 7.22389 16.8093 7.26613 16.7669 7.30838C16.7669 7.35062 16.7669 7.39287 16.7669 7.39287C16.7669 7.39287 16.7246 7.35062 16.7669 7.30838C16.7669 7.26613 16.8093 7.26613 16.8093 7.22389C16.8517 7.18164 16.894 7.18164 16.9788 7.18164C17.1059 7.18164 17.1906 7.30838 17.233 7.39287C17.2753 7.5196 17.3177 7.64634 17.3177 7.81532C17.3177 8.11103 17.1482 8.3645 16.9364 8.44899C16.8517 8.49123 16.7669 8.44899 16.7246 8.40674C16.6822 8.3645 16.6822 8.32226 16.6822 8.32226Z" fill="#F7996E"/>
<path d="M8.59021 4.43572C9.52228 4.64695 10.5814 4.39348 11.3017 3.71756C11.8101 3.25286 12.1914 2.61919 12.8269 2.40796C13.2505 2.23898 13.7589 2.32347 14.1402 2.5347C14.5639 2.74592 14.9028 3.08388 15.157 3.42184C14.7757 4.52021 15.1147 5.70307 15.4112 6.80144C15.4536 6.92818 15.496 7.05491 15.5807 7.1394C15.7502 7.26614 16.0044 7.1394 16.1738 6.97042C16.3857 6.71695 16.4704 6.33675 16.5128 5.99879C16.6399 5.23838 16.5975 4.39348 16.428 3.63307C16.2162 2.87266 15.8349 2.15449 15.2418 1.64755C14.5215 1.01388 13.5047 0.67592 12.4879 0.718165C11.5135 0.76041 10.5391 1.18286 9.77648 1.81653C9.43754 2.11225 9.09861 2.45021 8.92914 2.87266" fill="#263238"/>
<path d="M7.19208 1.64755C7.19208 1.64755 7.19208 1.6898 7.19208 1.77429C7.23444 1.85878 7.27681 1.98551 7.40391 2.07C7.57338 2.15449 7.78521 2.23898 7.99704 2.23898C8.12414 2.23898 8.25124 2.23898 8.33598 2.19674C8.46308 2.15449 8.59018 2.11225 8.71728 2.02776C8.80201 1.94327 8.88674 1.77429 8.88674 1.60531C8.88674 1.43633 8.71727 1.30959 8.54781 1.26735C8.46308 1.2251 8.37834 1.2251 8.29361 1.2251C8.20888 1.2251 8.12414 1.26735 8.03941 1.35184C7.91231 1.47857 7.82758 1.6898 7.82758 1.85878C7.82758 2.07 7.91231 2.23898 8.08178 2.36572C8.20888 2.49245 8.42071 2.57694 8.63254 2.66143C9.05621 2.74592 9.47987 2.66143 9.86117 2.49245C10.2425 2.32347 10.5814 2.07 10.9203 1.81653C11.2593 1.56306 11.5558 1.35184 11.8524 1.14061C12.1913 0.971631 12.5303 0.844896 12.8692 0.844896C13.2081 0.844896 13.5047 0.929386 13.7589 1.01388C14.2673 1.26735 14.5639 1.60531 14.7757 1.85878C14.8604 1.98551 14.9452 2.07 14.9875 2.15449C15.0299 2.23898 15.0299 2.28123 15.0723 2.28123C15.0723 2.28123 15.0723 2.28123 15.0723 2.23898C15.0723 2.23898 15.0299 2.19674 15.0299 2.15449C14.9028 2.11225 14.8604 1.98551 14.7757 1.85878C14.6062 1.60531 14.3097 1.2251 13.7589 0.971631C13.5047 0.844896 13.2081 0.760406 12.8692 0.760406C12.5303 0.760406 12.1913 0.844896 11.8524 1.05612C11.5135 1.2251 11.2169 1.47857 10.878 1.73204C10.5814 1.98551 10.2425 2.23898 9.86117 2.40796C9.47987 2.57694 9.05621 2.66143 8.67491 2.57694C8.46308 2.5347 8.29361 2.45021 8.16651 2.32347C8.03941 2.19674 7.95468 2.02776 7.95468 1.85878C7.95468 1.6898 7.99704 1.52082 8.12414 1.39408C8.25124 1.26735 8.42071 1.26735 8.59018 1.30959C8.71728 1.35184 8.84438 1.47857 8.88674 1.60531C8.88674 1.73204 8.84437 1.90102 8.75964 1.98551C8.67491 2.07 8.54781 2.11225 8.42071 2.15449C8.29361 2.19674 8.16651 2.19674 8.08178 2.19674C7.86994 2.19674 7.65811 2.15449 7.53101 2.07C7.40391 1.98551 7.36154 1.85878 7.31918 1.81653C7.19208 1.6898 7.23444 1.64755 7.19208 1.64755Z" fill="#455B64"/>
<path d="M17.5719 3.80204C17.5719 3.80204 17.4024 3.88653 17.1482 3.92878C17.0211 3.92878 16.8517 3.92878 16.6399 3.88653C16.4704 3.84429 16.2585 3.7598 16.0891 3.63307C15.7078 3.42184 15.496 3.04164 15.4112 2.78817C15.3265 2.5347 15.3265 2.32347 15.2841 2.32347C15.2841 2.32347 15.2841 2.36572 15.2841 2.45021C15.2841 2.5347 15.3265 2.66143 15.3689 2.78817C15.4536 3.04164 15.6654 3.42184 16.0467 3.67531C16.2586 3.80204 16.428 3.88653 16.6399 3.92878C16.8093 3.97102 17.0211 3.97102 17.1482 3.92878C17.2753 3.88653 17.4024 3.84429 17.4872 3.80204C17.5295 3.84429 17.5719 3.80204 17.5719 3.80204Z" fill="#455B64"/>
<path d="M17.5295 4.85817C17.5295 4.85817 17.36 4.90042 17.0635 4.90042C16.8093 4.90042 16.428 4.81593 16.0467 4.6047C15.7077 4.39348 15.4535 4.09776 15.3264 3.84429C15.1993 3.59082 15.157 3.42184 15.157 3.42184C15.157 3.42184 15.157 3.46409 15.157 3.54858C15.157 3.63307 15.1993 3.71756 15.2841 3.84429C15.4112 4.09776 15.6654 4.43572 16.0043 4.64695C16.3856 4.85817 16.7669 4.94266 17.0635 4.94266C17.1906 4.94266 17.3177 4.90042 17.4024 4.90042C17.5295 4.90042 17.5295 4.85817 17.5295 4.85817Z" fill="#455B64"/>
<path d="M13.9188 7.11534C13.9225 7.0924 13.9069 7.0708 13.8839 7.0671C13.8609 7.0634 13.8392 7.079 13.8355 7.10194C13.8318 7.12488 13.8474 7.14648 13.8705 7.15018C13.8935 7.15388 13.9151 7.13828 13.9188 7.11534Z" fill="#F7996E"/>
<path d="M13.2877 6.9985C13.2914 6.97555 13.2757 6.95396 13.2527 6.95027C13.2297 6.94657 13.208 6.96217 13.2043 6.98512C13.2006 7.00806 13.2163 7.02965 13.2393 7.03335C13.2623 7.03704 13.284 7.02144 13.2877 6.9985Z" fill="#F7996E"/>
<path d="M12.8751 6.98969C12.8772 6.96654 12.86 6.94612 12.8368 6.94409C12.8136 6.94205 12.7931 6.95917 12.791 6.98232C12.789 7.00546 12.8062 7.02588 12.8294 7.02792C12.8526 7.02995 12.8731 7.01284 12.8751 6.98969Z" fill="#F7996E"/>
<path d="M13.5905 7.56157C13.6138 7.56072 13.6319 7.5412 13.6311 7.51798C13.6302 7.49476 13.6106 7.47663 13.5873 7.47748C13.564 7.47834 13.5459 7.49786 13.5467 7.52108C13.5476 7.5443 13.5672 7.56243 13.5905 7.56157Z" fill="#F7996E"/>
<path d="M13.0539 7.41714C13.0551 7.39393 13.0371 7.37418 13.0138 7.37303C12.9906 7.37188 12.9708 7.38977 12.9696 7.41298C12.9685 7.43619 12.9864 7.45593 13.0097 7.45708C13.033 7.45823 13.0528 7.44035 13.0539 7.41714Z" fill="#F7996E"/>
<path d="M10.0594 7.15871C10.0631 7.13577 10.0474 7.11418 10.0244 7.11048C10.0014 7.10679 9.97977 7.12239 9.97607 7.14533C9.97236 7.16828 9.98801 7.18987 10.011 7.19356C10.034 7.19726 10.0557 7.18166 10.0594 7.15871Z" fill="#F7996E"/>
<path d="M9.65806 7.12337C9.65946 7.10018 9.64173 7.08024 9.61847 7.07885C9.59521 7.07746 9.57522 7.09513 9.57382 7.11833C9.57242 7.14152 9.59015 7.16145 9.61341 7.16285C9.63667 7.16424 9.65666 7.14657 9.65806 7.12337Z" fill="#F7996E"/>
<path d="M10.429 7.15706C10.4327 7.13412 10.417 7.11252 10.394 7.10882C10.371 7.10512 10.3494 7.12072 10.3456 7.14366C10.3419 7.1666 10.3576 7.18819 10.3806 7.19189C10.4036 7.19559 10.4252 7.18 10.429 7.15706Z" fill="#F7996E"/>
<path d="M10.1719 7.61081C10.1805 7.58922 10.1699 7.56475 10.1483 7.55617C10.1266 7.54759 10.1021 7.55814 10.0935 7.57974C10.0849 7.60133 10.0954 7.62579 10.1171 7.63437C10.1388 7.64296 10.1633 7.63241 10.1719 7.61081Z" fill="#F7996E"/>
<path d="M9.74051 7.55811C9.76275 7.55115 9.77512 7.52754 9.76814 7.50537C9.76116 7.4832 9.73748 7.47086 9.71525 7.47782C9.69301 7.48478 9.68064 7.50839 9.68762 7.53056C9.6946 7.55273 9.71828 7.56506 9.74051 7.55811Z" fill="#F7996E"/>
<path d="M11.1322 13.1804L12.9116 14.997L16.1315 13.0114L17.0635 14.659L15.496 33.458L8.92914 33.5003L9.3528 16.3066L11.1322 13.1804Z" fill="#F5F5F5"/>
<path d="M0.752393 33.5003L0.371094 29.487L4.09935 16.5178L5.32799 21.1647C5.32799 21.1647 6.09059 29.318 6.09059 29.487C6.09059 29.656 5.15852 31.219 5.15852 31.219L5.45509 33.458L0.752393 33.5003Z" fill="#EE3765"/>
<path d="M11.2593 13.0959L9.26809 14.7012L4.09937 16.5178L5.0738 21.7562L5.9635 29.7827L6.0906 33.5003H10.2002L10.4967 26.7411C10.4967 26.7411 9.73412 17.067 10.1154 15.2927L11.2593 13.0959Z" fill="#EE3765"/>
<path d="M16.1314 13.0114L18.0379 14.321L20.4952 15.3772C20.4952 15.3772 23.1219 15.9686 23.0372 16.1376C22.9101 16.3066 22.1899 25.4315 22.1899 25.4315L22.4017 33.5003H13.7589V29.8672L16.428 15.7151L16.1314 13.0114Z" fill="#EE3765"/>
<path d="M22.9525 16.0953C23.3338 16.1798 25.4097 20.0663 25.4097 20.0663L27.4433 21.7561L28.6296 19.6017L31.4258 19.6439L31.7224 23.277C31.7224 23.277 30.0701 26.8255 29.4346 27.2057C28.7991 27.586 26.7231 26.8255 25.7063 26.4453C24.6895 26.0651 21.851 22.7278 21.851 22.7278L22.9525 16.0953Z" fill="#EE3765"/>
<path d="M5.15853 31.3035C5.15853 31.3035 4.98906 31.0923 4.73486 30.7966C4.48066 30.5009 4.14173 30.0784 3.63333 29.7405C3.12493 29.4025 2.61653 29.2335 2.23523 29.1913C1.85393 29.149 1.59973 29.2335 1.59973 29.1913C1.59973 29.1913 1.6421 29.149 1.7692 29.149C1.8963 29.1068 2.0234 29.1068 2.23523 29.1068C2.6589 29.1068 3.20966 29.2758 3.71806 29.6137C4.22646 29.9517 4.56539 30.4164 4.81959 30.7543C5.03143 31.0501 5.15853 31.2613 5.15853 31.3035Z" fill="#263238"/>
<path d="M5.41274 30.0362C5.37037 30.0784 4.98907 29.4447 4.22648 29.0223C3.50624 28.5576 2.78601 28.4731 2.78601 28.4309C2.78601 28.4309 2.95548 28.4309 3.25204 28.4731C3.54861 28.5154 3.92991 28.6843 4.31121 28.8956C4.69251 29.149 4.98907 29.4025 5.15854 29.656C5.37037 29.8672 5.45511 30.0362 5.41274 30.0362Z" fill="#263238"/>
<path d="M10.2849 30.4586C10.2849 30.4586 10.2425 30.4164 10.2002 30.2896C10.1578 30.2052 10.0307 30.0362 9.94596 29.8249C9.73413 29.4447 9.39519 28.8533 9.05626 28.0929C8.71733 27.3747 8.33603 26.4454 8.03946 25.4315C7.7429 24.4176 7.4887 23.2347 7.40396 22.0096C7.31923 20.6578 7.3616 19.3482 7.40396 18.2076C7.40396 17.9119 7.44633 17.6584 7.44633 17.3627C7.44633 17.1092 7.4887 16.8135 7.57343 16.6023C7.6158 16.4755 7.65816 16.3488 7.74289 16.2643C7.82763 16.1798 7.91236 16.0953 8.03946 16.0531C8.25129 15.9686 8.50549 15.9686 8.71733 16.0953L8.67496 16.1798C8.50549 16.0953 8.37839 16.0108 8.25129 15.9264H8.20893V15.8841C8.37839 15.6306 8.54786 15.4617 8.67496 15.3349C8.84443 15.1659 8.97153 15.0392 9.05626 14.9547C9.14099 14.828 9.22573 14.7435 9.26809 14.7013C9.31046 14.659 9.35283 14.6168 9.35283 14.6168C9.35283 14.6168 9.35283 14.659 9.31046 14.7013C9.26809 14.7857 9.18336 14.8702 9.09863 14.9547C9.01389 15.0815 8.88679 15.2082 8.71733 15.3349C8.59023 15.5039 8.37839 15.6729 8.25129 15.8841V15.8419C8.37839 15.9264 8.50549 16.0108 8.67496 16.0953L8.63259 16.1798C8.50549 16.0531 8.25129 16.0531 8.08183 16.1376C7.99709 16.1798 7.91236 16.2643 7.82763 16.3488C7.7429 16.4333 7.70053 16.56 7.65816 16.6445C7.57343 16.8557 7.57343 17.1092 7.57343 17.4049C7.57343 17.6584 7.57343 17.9541 7.53106 18.2498C7.4887 19.3904 7.44633 20.6578 7.57343 22.0096C7.74289 24.5021 8.50549 26.6143 9.18336 28.0929C9.52229 28.8533 9.81886 29.4025 10.0307 29.8249C10.1154 30.0362 10.2002 30.1629 10.2849 30.2896C10.2849 30.3741 10.2849 30.4586 10.2849 30.4586Z" fill="#263238"/>
<path d="M13.9708 30.5853C13.9708 30.5853 13.9708 30.5431 14.0555 30.4164C14.0979 30.2896 14.1826 30.1207 14.2673 29.9094C14.4368 29.487 14.691 28.8533 14.9876 28.0929C15.5807 26.5721 16.3433 24.4176 17.1059 22.0096C17.5719 20.5733 17.9532 19.2215 18.3345 18.0386C18.4193 17.7429 18.504 17.4472 18.5887 17.1937C18.6735 16.898 18.7582 16.6445 18.7582 16.391C18.8006 15.8841 18.3769 15.4616 17.9532 15.5039V15.4194C18.1651 15.4194 18.3769 15.3772 18.5887 15.3772L18.5464 15.4194C18.6311 15.0392 18.4616 14.7857 18.2922 14.6167C18.1651 14.49 18.038 14.4478 18.038 14.4478C18.038 14.4478 18.1651 14.4478 18.2922 14.6167C18.4193 14.7435 18.6311 15.0392 18.5464 15.4194V15.4616H18.504C18.3345 15.4616 18.1227 15.5039 17.8685 15.5461V15.4616C18.3345 15.3772 18.8006 15.8419 18.7582 16.4333C18.7582 16.6868 18.6735 16.9825 18.6311 17.2782C18.5464 17.5739 18.4616 17.8274 18.3769 18.1653C18.038 19.3482 17.6143 20.7423 17.1483 22.1786C16.4704 24.4598 15.7078 26.6143 15.0723 28.1351C14.7757 28.8955 14.4792 29.5292 14.3097 29.9094C14.225 30.1207 14.1402 30.2474 14.0979 30.3741C14.0131 30.5431 13.9708 30.5853 13.9708 30.5853Z" fill="#263238"/>
<path d="M14.7832 31.8114C15.1327 31.7792 15.4125 31.7155 15.4082 31.669C15.4039 31.6225 15.1171 31.6109 14.7676 31.6431C14.4181 31.6752 14.1383 31.739 14.1425 31.7854C14.1468 31.8319 14.4337 31.8435 14.7832 31.8114Z" fill="#263238"/>
<path d="M9.69173 31.388C9.69173 31.388 9.56463 31.4303 9.47989 31.557C9.43753 31.6415 9.39516 31.726 9.43753 31.8105C9.47989 31.895 9.56463 31.9794 9.69173 31.9794C9.81883 31.9794 9.90356 31.9372 9.98829 31.8527C10.0307 31.7682 10.0307 31.6415 9.98829 31.5992C9.94593 31.4303 9.81883 31.388 9.81883 31.388C9.81883 31.388 9.98829 31.388 10.073 31.557C10.1154 31.6415 10.1578 31.7682 10.073 31.9372C9.98829 32.0639 9.81883 32.1484 9.69173 32.1484C9.52226 32.1484 9.39516 32.0217 9.35279 31.8527C9.31043 31.726 9.39516 31.5992 9.43753 31.5147C9.52226 31.3458 9.69173 31.388 9.69173 31.388Z" fill="#263238"/>
<path d="M18.9942 23.7423C19.9684 23.4915 20.7486 23.2516 20.7369 23.2064C20.7252 23.1612 19.926 23.3279 18.9519 23.5787C17.9777 23.8295 17.1975 24.0695 17.2092 24.1146C17.2209 24.1598 18.0201 23.9931 18.9942 23.7423Z" fill="#263238"/>
<path d="M22.0204 22.939C22.0204 22.939 21.9781 22.8545 21.9357 22.6855C21.8933 22.5166 21.851 22.2631 21.8086 21.9674C21.7239 21.3337 21.7239 20.4466 21.8086 19.5172C21.851 19.0525 21.8933 18.5878 21.9781 18.1653C22.0628 17.7429 22.2323 17.4049 22.3594 17.1092C22.5288 16.8135 22.6559 16.6023 22.783 16.4755C22.9101 16.3488 22.9949 16.2643 22.9949 16.2643C22.9949 16.2643 22.7407 16.56 22.4441 17.1092C22.317 17.4049 22.1899 17.7429 22.0628 18.1231C21.9781 18.5033 21.9357 18.968 21.8933 19.4749C21.851 20.4466 21.8086 21.2915 21.851 21.9251C21.8933 22.6011 22.0204 22.939 22.0204 22.939Z" fill="#263238"/>
<path d="M25.1979 20.1508C25.1979 20.1931 24.6472 20.2353 24.0964 20.6578C23.5456 21.038 23.3338 21.5872 23.2914 21.5872C23.2914 21.5872 23.2914 21.4604 23.4185 21.2492C23.5456 21.038 23.7151 20.7845 24.0117 20.5733C24.3082 20.3621 24.6048 20.2353 24.8166 20.1931C25.0708 20.1508 25.1979 20.1508 25.1979 20.1508Z" fill="#263238"/>
<path d="M25.7487 25.2625C25.7487 25.2625 25.8335 25.009 25.9606 24.5866C26.13 24.1641 26.3419 23.6149 26.6384 23.0235C26.935 22.4321 27.2315 21.8829 27.4857 21.5027C27.6976 21.1225 27.867 20.9113 27.9094 20.9113C27.9094 20.9113 27.7823 21.1647 27.5705 21.5449C27.3586 21.9251 27.0621 22.4743 26.7655 23.0657C26.4689 23.6572 26.2147 24.2064 26.0453 24.6288C25.8758 25.009 25.7487 25.2625 25.7487 25.2625Z" fill="#263238"/>
<path d="M24.9014 24.7978C24.9014 24.7978 24.9437 24.5866 25.0285 24.2064C25.1556 23.8684 25.325 23.3615 25.664 22.8968C26.0029 22.4321 26.4266 22.1364 26.7655 21.9674C27.1044 21.7984 27.3163 21.7561 27.3163 21.7561C27.3163 21.7561 27.1044 21.8829 26.8079 22.0519C26.5113 22.2208 26.0876 22.5588 25.7487 22.9813C25.4098 23.4459 25.2403 23.9106 25.0708 24.2486C24.9861 24.5866 24.9437 24.7978 24.9014 24.7978Z" fill="#263238"/>
<path d="M29.6888 25.6427C29.6888 25.6427 29.6464 25.6849 29.5193 25.7272C29.3922 25.7272 29.2651 25.7272 29.0533 25.6427C28.8838 25.5582 28.7143 25.3892 28.5449 25.178C28.4178 24.9668 28.2907 24.7133 28.1636 24.4598C27.9517 23.9107 27.9094 23.3615 27.9094 22.9813C27.9094 22.6011 27.9941 22.3898 27.9941 22.3898C28.0365 22.3898 27.9941 22.6433 27.9941 22.9813C27.9941 23.3615 28.0788 23.8684 28.2483 24.3753C28.4601 24.8823 28.7143 25.347 29.0533 25.516C29.4346 25.7272 29.6888 25.6004 29.6888 25.6427Z" fill="#263238"/>
<path d="M13.8013 16.3066C13.8013 16.3066 13.7166 15.3772 13.2506 15.2927C12.7845 15.2504 11.9372 15.3349 11.8948 16.3066L12.3609 17.0247C12.3609 17.0247 11.5135 19.0525 11.3441 19.6862C11.1746 20.3198 10.6238 32.9933 10.6238 32.9933L12.0219 35.866L13.5471 32.9511L13.8013 19.3059L13.2082 17.1515L13.8013 16.3066Z" fill="#EE3765"/>
<path d="M16.3433 15.6729C16.3433 15.6729 16.3009 15.7574 16.2162 15.8419C16.1315 15.9263 15.962 16.0953 15.7925 16.2643C15.4112 16.6023 14.8605 17.067 14.225 17.4894L14.1402 17.5317V17.4049V17.3627C14.1402 16.9825 14.0979 16.6023 14.0131 16.2643C13.9284 15.9263 13.8013 15.6729 13.6318 15.4617C13.2929 15.0814 12.954 14.997 12.954 14.9547C12.954 14.9547 13.0387 14.9547 13.1658 15.0392C13.2929 15.0814 13.5047 15.2082 13.6742 15.4194C13.8437 15.6306 14.0131 15.9263 14.0979 16.2643C14.1826 16.6023 14.225 16.9825 14.225 17.4049V17.4472L14.1402 17.4049C14.7757 16.9825 15.3689 16.5178 15.7502 16.2221C16.1315 15.8841 16.3433 15.6729 16.3433 15.6729Z" fill="#263238"/>
<path d="M12.9116 14.997C12.9116 15.0392 12.6574 15.1237 12.3609 15.3772C12.0219 15.6306 11.6406 16.0953 11.4712 16.6868C11.3864 16.7713 11.3864 16.8557 11.3864 16.9825L11.3441 17.1092L11.2593 17.0247C10.878 16.6023 10.5815 16.1798 10.3273 15.9264C10.1154 15.6306 9.98834 15.4617 9.98834 15.4617C9.98834 15.4617 10.1578 15.6306 10.412 15.8841C10.6662 16.1376 11.0051 16.5178 11.3441 16.9825L11.217 17.0247C11.217 16.9402 11.2593 16.8135 11.3017 16.729C11.4712 16.0953 11.8948 15.6306 12.2761 15.3772C12.4456 15.2504 12.6151 15.1659 12.6998 15.1237C12.8269 14.997 12.9116 14.997 12.9116 14.997Z" fill="#263238"/>
<path d="M12.7013 16.9825C12.9352 16.9779 13.1241 16.9364 13.1232 16.8897C13.1223 16.843 12.9319 16.8089 12.6979 16.8135C12.464 16.8181 12.2751 16.8596 12.276 16.9063C12.2769 16.9529 12.4673 16.987 12.7013 16.9825Z" fill="#263238"/>
<path d="M13.5471 15.6306C13.5895 15.6306 13.3353 15.9686 12.9964 16.3066C12.6151 16.6445 12.2761 16.8135 12.2761 16.7713C12.2761 16.729 12.5727 16.5178 12.9116 16.2221C13.2506 15.8841 13.5048 15.5884 13.5471 15.6306Z" fill="#263238"/>
<path d="M12.6033 17.8077C12.6758 17.2759 12.6971 16.8398 12.6507 16.8335C12.6043 16.8272 12.5079 17.2531 12.4354 17.7849C12.3628 18.3166 12.3416 18.7528 12.388 18.7591C12.4343 18.7653 12.5307 18.3394 12.6033 17.8077Z" fill="#263238"/>
<path d="M12.8682 18.7088C12.9 17.7294 12.8878 16.9342 12.8411 16.9327C12.7943 16.9312 12.7306 17.7239 12.6988 18.7034C12.667 19.6828 12.6792 20.478 12.7259 20.4795C12.7727 20.481 12.8364 19.6882 12.8682 18.7088Z" fill="#263238"/>
<g opacity="0.4">
<path d="M13.8013 16.3066C13.8013 16.3066 13.7166 15.3772 13.2506 15.2927C12.7845 15.2504 11.9372 15.3349 11.8948 16.3066L12.3609 17.0247C12.3609 17.0247 11.5135 19.0525 11.3441 19.6862C11.1746 20.3198 10.6238 32.9933 10.6238 32.9933L12.0219 35.866L13.5471 32.9511L13.8013 19.3059L13.2082 17.1515L13.8013 16.3066Z" fill="black"/>
</g>
<path d="M6.13295 33.5002C6.13295 33.5002 6.13295 33.458 6.13295 33.3313C6.13295 33.2045 6.13295 33.0778 6.13295 32.8666C6.13295 32.4864 6.09058 31.8949 6.04822 31.1768C5.96348 29.7404 5.83638 27.7549 5.58218 25.6004C5.32798 23.4459 5.03142 21.4604 4.81958 20.0663C4.69248 19.3904 4.60775 18.799 4.56538 18.3765C4.52302 18.2076 4.52302 18.0386 4.48065 17.9119C4.48065 17.8274 4.48065 17.7429 4.48065 17.7429C4.48065 17.7429 4.48065 17.7851 4.52302 17.9119C4.56539 18.0386 4.56539 18.1653 4.60775 18.3765C4.69248 18.7568 4.77722 19.3482 4.90432 20.0241C5.15852 21.4182 5.45508 23.4037 5.70928 25.5582C5.96348 27.7127 6.09058 29.6982 6.13295 31.1345C6.17532 31.8527 6.17532 32.4441 6.17532 32.8243C6.17532 32.9933 6.17532 33.1623 6.17532 33.289C6.13295 33.458 6.13295 33.5002 6.13295 33.5002Z" fill="#263238"/>
<g opacity="0.4">
<path d="M7.48865 17.3627C7.27682 19.6017 7.02262 21.8829 7.19209 24.1641C7.36155 26.4453 7.99705 28.6843 9.31042 30.5431C9.39515 30.6698 9.47988 30.7966 9.64935 30.8811C9.77645 30.9656 9.98828 30.9656 10.073 30.8811C10.2848 30.7121 10.1577 30.3741 10.0306 30.1629C7.95468 26.1919 7.06499 21.7984 7.48865 17.3627Z" fill="black"/>
</g>
<g opacity="0.4">
<path d="M14.0555 30.4164C14.0131 30.6698 14.3521 30.8388 14.6063 30.7966C14.8605 30.7543 15.0299 30.5431 15.1994 30.3319C16.428 28.7266 17.1483 26.7411 17.5719 24.7133C17.9532 22.7278 18.038 21.038 18.1227 19.0102C17.0635 23.1925 15.1994 28.4309 13.9284 30.6698" fill="black"/>
</g>
<g opacity="0.4">
<path d="M21.7662 20.3198C21.7662 20.3198 21.6815 23.0235 22.3594 23.446L22.1475 25.4315C22.1475 25.4315 22.1899 27.2058 22.2323 27.8394C21.6391 26.7411 21.4273 25.4737 21.4273 24.2064C21.3849 22.939 21.5544 21.7139 21.7239 20.4888" fill="black"/>
</g>
<g opacity="0.4">
<path d="M28.4601 19.8551C28.5872 20.4466 29.0109 20.9957 29.5193 21.2915C29.6888 21.376 29.8582 21.4604 30.0701 21.4604C30.4937 21.4604 30.875 21.207 31.0869 20.8268C31.2987 20.4466 31.3411 20.0241 31.3834 19.6017L28.5872 19.5594L28.4601 19.8551Z" fill="black"/>
</g>
<g opacity="0.4">
<path d="M5.11613 31.3035C4.48063 29.9939 2.9978 29.149 1.55733 29.3602C1.4726 29.3602 1.3455 29.4025 1.26077 29.3602C1.17603 29.318 1.04893 29.2335 1.0913 29.149C1.0913 29.0645 1.17603 29.0223 1.2184 28.98C1.93863 28.3886 3.04016 28.4309 3.80276 28.9378C4.523 29.4447 5.07376 30.3741 5.11613 31.3035Z" fill="black"/>
</g>
<g opacity="0.4">
<path d="M27.3163 21.7561C26.0029 22.0941 24.9014 23.108 24.393 24.3753C24.3506 24.5021 24.3082 24.6711 24.393 24.7978C24.4777 24.8823 24.6895 24.8823 24.7743 24.7555C24.859 24.6711 24.9014 24.5021 24.9861 24.3753C25.3674 23.2347 26.2147 22.3053 27.3163 21.7984" fill="black"/>
</g>
<path d="M28.672 20.3621L28.7144 18.7145C28.7144 18.6723 28.7144 18.63 28.7567 18.5878L29.138 17.7006C29.138 17.7006 27.6552 16.0108 27.5705 15.7996C27.4857 15.5884 27.5281 15.3772 27.9094 15.5039C28.2907 15.6729 29.477 16.7712 29.477 16.7712L29.943 15.9686C29.943 15.9686 28.8415 14.828 28.7567 14.7012C28.6296 14.5745 28.7144 13.9408 29.0957 14.1521C29.5193 14.3633 30.5361 15.2927 30.5361 15.2927L30.8327 14.997L30.0277 13.7719C30.0277 13.7719 29.7312 13.3494 30.0701 13.2227C30.409 13.0959 30.5785 13.3494 30.8327 13.6451C31.0869 13.9408 31.4682 14.5323 31.4682 14.5323H31.7224L32.1037 14.4478L32.0613 14.0253C32.0613 14.0253 31.5529 13.3072 31.4682 13.1382C31.3835 13.0114 31.1716 12.7157 31.4682 12.589C31.7648 12.4623 31.9342 12.42 32.0613 12.6735C32.1461 12.8425 32.3579 13.0114 32.3579 13.0114C32.3579 13.0114 32.6545 12.7157 32.8663 12.6735C33.0781 12.589 33.3323 12.8425 33.0781 13.5606C33.0358 13.6874 32.7816 14.9547 32.7816 14.9547L32.7392 15.6306L32.4426 16.2221L31.1293 18.5455L31.1716 20.1508C31.1716 20.4888 31.1293 20.9113 30.9174 21.1647C30.7056 21.4182 30.3243 21.6294 29.9006 21.4604C28.9686 21.1225 28.672 20.3621 28.672 20.3621Z" fill="#FBBF9E"/>
<path d="M31.0445 16.6445C31.0445 16.6445 31.0022 16.5178 30.9598 16.3065L30.8751 15.8841C30.8751 15.7996 30.8327 15.7151 30.8327 15.6729C30.8327 15.6729 30.8327 15.6729 30.8327 15.6306C30.8327 15.6306 30.8327 15.6306 30.8327 15.5884L30.8751 15.5461C30.9174 15.5461 30.9174 15.5461 30.9174 15.5461C30.9174 15.5461 30.9174 15.5461 30.9174 15.5884C30.9174 15.5884 30.9174 15.6306 30.8751 15.6306C30.8327 15.6306 30.8327 15.6306 30.8327 15.6306V15.5884C30.8327 15.5461 30.7903 15.5039 30.748 15.5039C30.5361 15.2504 30.2819 15.0392 30.1125 14.9125C29.943 14.7857 29.8583 14.659 29.8583 14.659C29.8583 14.659 29.9854 14.7012 30.1972 14.828C30.3667 14.9547 30.6632 15.1237 30.8751 15.4194C30.9174 15.4617 30.9174 15.5039 30.9598 15.5461V15.5884C30.9598 15.5884 30.9174 15.5884 30.9174 15.6306C30.9174 15.6306 30.9174 15.6306 30.8751 15.6306C30.7903 15.6306 30.8327 15.6306 30.8327 15.6306H30.8751C30.8751 15.6306 30.8751 15.6306 30.9174 15.6306C30.9174 15.6306 30.9174 15.6306 30.9598 15.6306C30.9598 15.7151 31.0022 15.7996 31.0022 15.8419C31.0445 15.9686 31.0445 16.1376 31.0869 16.2221C31.0869 16.4755 31.0869 16.6445 31.0445 16.6445Z" fill="#F7996E"/>
<path d="M31.8072 15.7996C31.7648 15.7996 31.8495 15.4194 31.6801 14.997C31.5106 14.5745 31.2564 14.321 31.2988 14.2788C31.2988 14.2365 31.6377 14.49 31.8072 14.9547C31.8919 15.1659 31.8919 15.3772 31.8919 15.5461C31.8495 15.7151 31.8072 15.7996 31.8072 15.7996Z" fill="#F7996E"/>
<path d="M29.6456 18.3239C29.6809 18.2933 29.4486 17.9685 29.1266 17.5983C28.8046 17.2282 28.5149 16.953 28.4795 16.9836C28.4442 17.0141 28.6766 17.339 28.9985 17.7091C29.3205 18.0792 29.6102 18.3544 29.6456 18.3239Z" fill="#F7996E"/>
<path d="M30.1907 17.5295C30.2233 17.4961 29.9918 17.2182 29.6735 16.9087C29.3553 16.5991 29.0708 16.3753 29.0381 16.4087C29.0054 16.4421 29.237 16.7201 29.5552 17.0296C29.8735 17.3391 30.158 17.563 30.1907 17.5295Z" fill="#F7996E"/>
<path d="M29.2228 19.8129C29.2228 19.8129 29.0957 19.7706 28.9262 19.6017C28.7991 19.4327 28.6296 19.137 28.6296 18.799C28.6296 18.63 28.672 18.461 28.7567 18.3343C28.8415 18.2076 28.8838 18.1231 28.9686 17.9964C29.0957 17.8274 29.0957 17.7006 29.0957 17.7006C29.0957 17.7006 29.138 17.8274 29.0533 18.0386C28.9686 18.2498 28.7991 18.461 28.7991 18.799C28.7991 19.0947 28.8838 19.3904 29.0109 19.5594C29.0957 19.7284 29.2228 19.7706 29.2228 19.8129Z" fill="#F7996E"/>
<path d="M31.0869 18.5455C31.1293 18.5455 30.8751 19.0102 30.5361 19.5594C30.4514 19.6862 30.3667 19.8129 30.2396 19.9396C30.1548 20.0241 30.0277 20.1086 29.9006 20.1509C29.6888 20.2353 29.5617 20.1931 29.5617 20.1931C29.5617 20.1508 29.6888 20.1931 29.8583 20.0664C30.0277 19.9819 30.2396 19.8129 30.3667 19.5172C30.748 18.9257 31.0445 18.5033 31.0869 18.5455Z" fill="#F7996E"/>
<path d="M32.019 14.7012C31.9766 14.7012 31.9766 14.4055 31.9766 14.0253V14.0676C31.8919 13.9831 31.8495 13.8986 31.8072 13.7719C31.6801 13.5184 31.553 13.3072 31.4682 13.1382C31.3835 12.9692 31.3411 12.8847 31.3411 12.8425C31.3411 12.8425 31.4259 12.927 31.553 13.0537C31.6801 13.2227 31.7648 13.4339 31.9343 13.6874C31.9766 13.7719 32.0614 13.8986 32.1037 13.9831C32.0614 14.4055 32.019 14.7012 32.019 14.7012Z" fill="#F7996E"/>
<path d="M32.6545 15.6729C32.6545 15.6729 32.6545 15.5884 32.6969 15.4194C32.6969 15.2504 32.6969 14.997 32.6969 14.7012C32.7392 14.49 32.7816 14.2788 32.8239 14.0253V13.9831C32.8239 13.7719 32.6968 13.6029 32.5697 13.4761C32.485 13.3494 32.3579 13.1804 32.2732 13.0537C32.1037 12.8002 32.019 12.6735 32.019 12.6312C32.019 12.6312 32.1461 12.758 32.3579 12.9692C32.4426 13.0959 32.5698 13.2227 32.6969 13.3917C32.7392 13.4761 32.8239 13.5606 32.8663 13.6451C32.9087 13.7296 32.9934 13.8563 32.951 13.9831V14.0253C32.9087 14.2788 32.8663 14.49 32.8239 14.7012C32.8239 14.997 32.7816 15.2504 32.7816 15.4194C32.7392 15.5884 32.6968 15.6729 32.6545 15.6729Z" fill="#F7996E"/>
<path d="M30.0277 17.0247C29.9854 17.0247 30.0277 16.7713 29.9854 16.4755C29.943 16.1798 29.8583 15.9686 29.9006 15.9686C29.943 15.9686 30.0701 16.1798 30.1125 16.4755C30.1972 16.7713 30.0701 17.0247 30.0277 17.0247Z" fill="#F7996E"/>
<path d="M31.0445 16.0953C31.0022 16.0953 31.0022 15.8419 30.9174 15.5461C30.8327 15.2504 30.7056 15.0392 30.748 14.997C30.7903 14.9547 30.9598 15.1659 31.0445 15.5039C31.1293 15.8419 31.0869 16.0953 31.0445 16.0953Z" fill="#F7996E"/>
</g>
<defs>
<clipPath id="clip0_46_29897">
<rect width="32.7918" height="35.866" fill="white" transform="translate(0.371094)"/>
</clipPath>
</defs>
</svg>
