<svg width="38" height="36" viewBox="0 0 38 36" fill="none" xmlns="http://www.w3.org/2000/svg">
<mask id="mask0_46_29661" style="mask-type:luminance" maskUnits="userSpaceOnUse" x="0" y="0" width="38" height="36">
<path d="M18.7456 35.984C28.9276 35.984 37.1818 27.9342 37.1818 18.0044C37.1818 8.0745 28.9276 0.0247498 18.7456 0.0247498C8.56351 0.0247498 0.309326 8.0745 0.309326 18.0044C0.309326 27.9342 8.56351 35.984 18.7456 35.984Z" fill="white"/>
</mask>
<g mask="url(#mask0_46_29661)">
<path d="M17.7308 20.2128C17.731 20.203 17.5108 20.1909 17.2389 20.1858C16.967 20.1807 16.7465 20.1846 16.7463 20.1944C16.7461 20.2042 16.9663 20.2163 17.2382 20.2214C17.5101 20.2265 17.7306 20.2226 17.7308 20.2128Z" fill="#263238"/>
<path d="M2.224 19.8539C2.224 19.8539 2.55224 21.6501 2.86225 22.0235C3.17225 22.397 3.37284 23.5885 3.37284 23.5885L5.88936 22.6993L5.72524 21.7923L5.87113 19.516C5.87113 19.516 5.01405 18.1111 5.05052 18.1644C5.06876 18.2356 2.224 19.8539 2.224 19.8539Z" fill="#FBBF9E"/>
<path d="M3.35469 23.6065C3.35469 23.5887 3.15409 22.415 2.84409 22.0415C2.67997 21.8459 2.51585 21.259 2.40643 20.8144C2.29702 20.3164 2.20584 19.8718 2.20584 19.8718C2.20584 19.8718 2.91703 19.4628 3.60999 19.0716C4.83177 18.3602 5.01413 18.2357 5.01413 18.2179C5.0506 18.2891 5.83474 19.5517 5.83474 19.5695L5.68885 21.8459L5.85297 22.7529L3.35469 23.6065ZM2.22408 19.8541C2.24231 19.9074 2.55232 21.6502 2.86232 22.0237C3.02645 22.2193 3.15409 22.6461 3.22704 22.9485C3.31822 23.2686 3.35469 23.5531 3.37292 23.5887L5.88944 22.6995L5.72532 21.7925L5.87121 19.5162C5.85297 19.4984 5.65238 19.1605 5.45179 18.8404C5.32414 18.6447 5.23296 18.4847 5.16002 18.378C5.12355 18.3069 5.08707 18.2535 5.06884 18.2179C5.0506 18.1824 5.03237 18.1646 5.03237 18.1646C4.95942 18.3069 2.35173 19.7829 2.22408 19.8541Z" fill="#F7996E"/>
<path d="M10.5213 19.0892C10.5213 19.0892 9.22656 19.4804 9.02597 20.8142C8.93479 21.4367 7.98654 27.1276 7.98654 27.1276L6.50945 23.055L2.64349 24.46C2.64349 24.46 4.04764 28.6748 4.13882 28.9237C4.86824 30.9867 5.47002 33.8855 8.75244 33.5476C12.1625 33.2097 11.5243 26.7363 11.5243 26.7363L10.5213 19.0892Z" fill="#455B64"/>
<path d="M4.95943 16.8484C4.97767 16.8662 5.32415 17.1863 5.65239 17.4353C5.98063 17.6843 6.07181 17.702 6.16299 18.0933C6.25416 18.4845 6.40005 19.7116 6.36358 19.9962C6.32711 20.2807 5.36062 22.0769 5.36062 22.0769C5.36062 22.0769 4.4306 22.4148 4.37589 21.2055C4.32118 19.9962 5.37885 19.2492 5.37885 19.2492L5.23297 18.3245C5.23297 18.3245 4.72237 17.8443 4.64943 17.4531C4.59472 17.0796 4.77708 16.7417 4.95943 16.8484Z" fill="#FBBF9E"/>
<path d="M2.8987 19.2135C2.49752 19.0179 2.31516 19.2313 2.24222 19.3558C2.16928 19.4803 2.16928 19.6403 2.20575 19.7826C2.24222 19.9249 2.31516 20.0316 2.40634 20.1383C2.51576 20.2805 2.67988 20.405 2.844 20.4228C3.02635 20.4406 3.22695 20.2272 3.24518 20.0138" fill="#FBBF9E"/>
<path d="M3.2635 20.0139C3.2635 20.0139 3.2635 20.0317 3.2635 20.0495C3.2635 20.0673 3.2635 20.1029 3.24527 20.1206C3.22703 20.1918 3.17232 20.2807 3.06291 20.3518C3.0082 20.3874 2.9535 20.423 2.86232 20.423C2.78938 20.423 2.6982 20.3874 2.62526 20.3518C2.55231 20.2985 2.47937 20.2451 2.42466 20.174C2.36996 20.1029 2.31525 20.0317 2.26054 19.9428C2.16936 19.765 2.13289 19.5693 2.1876 19.4093C2.24231 19.2492 2.36996 19.1247 2.49761 19.107C2.62526 19.0714 2.73467 19.107 2.78938 19.1425C2.82585 19.1603 2.84408 19.1603 2.86232 19.1781C2.88055 19.1781 2.88055 19.1959 2.88055 19.1959C2.88055 19.1959 2.84408 19.1781 2.77114 19.1603C2.6982 19.1425 2.60702 19.107 2.47937 19.1425C2.35172 19.1603 2.24231 19.2848 2.1876 19.4271C2.13289 19.5693 2.16936 19.765 2.26054 19.925C2.29701 20.0139 2.35172 20.0851 2.42466 20.1384C2.47937 20.2096 2.55231 20.2629 2.60702 20.2985C2.67996 20.3341 2.7529 20.3696 2.82585 20.3696C2.89879 20.3696 2.9535 20.3341 3.0082 20.2985C3.09938 20.2273 3.15409 20.1384 3.19056 20.0851C3.24527 20.0495 3.24527 20.0139 3.2635 20.0139Z" fill="#F7996E"/>
<path d="M3.44576 18.4311C3.33634 18.3956 3.22693 18.36 3.09928 18.3778C2.98987 18.3956 2.86222 18.4667 2.80751 18.5912C2.7528 18.6979 2.7528 18.8224 2.77104 18.9291C2.80751 19.4626 3.06281 19.9428 3.42752 20.2273C3.53694 20.3162 3.68282 20.3162 3.79223 20.2273C3.86518 20.174 3.93812 20.1028 3.99283 19.7827" fill="#FBBF9E"/>
<path d="M3.9747 19.7828C3.9747 19.7828 3.9747 19.8006 3.9747 19.8183C3.9747 19.8361 3.9747 19.8717 3.95647 19.925C3.93823 19.9606 3.93823 20.014 3.90176 20.0851C3.88353 20.1384 3.84705 20.2096 3.77411 20.2629C3.70117 20.3163 3.60999 20.3341 3.51881 20.3163C3.46411 20.2985 3.42763 20.2807 3.39116 20.2451C3.35469 20.2096 3.31822 20.174 3.28175 20.1384C3.13586 19.9962 2.98998 19.8005 2.8988 19.5694C2.80762 19.356 2.75292 19.1248 2.73468 18.9113C2.73468 18.8046 2.73468 18.6979 2.77115 18.609C2.80762 18.5201 2.86233 18.449 2.93527 18.4134C3.00821 18.3778 3.08116 18.36 3.1541 18.36C3.22704 18.36 3.28175 18.3778 3.31822 18.3778C3.35469 18.3956 3.39116 18.3956 3.4094 18.4134C3.42763 18.4134 3.44587 18.4312 3.44587 18.4312C3.44587 18.4312 3.39116 18.4134 3.31822 18.3956C3.22704 18.3778 3.09939 18.36 2.97174 18.449C2.8988 18.4845 2.84409 18.5557 2.82586 18.6268C2.78939 18.7157 2.78939 18.8046 2.80762 18.9113C2.82586 19.107 2.88057 19.3382 2.97174 19.5516C3.06292 19.765 3.19057 19.9606 3.33646 20.1029C3.37293 20.1384 3.4094 20.174 3.44587 20.2096C3.48234 20.2451 3.51881 20.2629 3.57352 20.2807C3.6647 20.2985 3.73764 20.2807 3.81058 20.2451C3.88353 20.2096 3.92 20.1384 3.93823 20.0851C3.95647 20.0317 3.9747 19.9784 3.99294 19.9428C3.9747 19.8361 3.9747 19.7828 3.9747 19.7828Z" fill="#F7996E"/>
<path d="M4.17512 18.0221C4.04747 17.9154 3.90159 17.8443 3.73746 17.8799C3.57334 17.9154 3.42746 18.0577 3.40922 18.2355C3.39099 18.3422 3.40922 18.4489 3.44569 18.5556C3.55511 18.9291 3.68276 19.2848 3.84688 19.6405C3.88335 19.7294 3.93806 19.8183 4.011 19.8539C4.12041 19.9428 4.28453 19.9072 4.39395 19.8183C4.50336 19.7294 4.59454 19.6049 4.63101 19.3204" fill="#FBBF9E"/>
<path d="M4.63117 19.3382C4.63117 19.3382 4.63117 19.3559 4.63117 19.3737C4.63117 19.3915 4.61293 19.4271 4.61293 19.4804C4.5947 19.5338 4.57646 19.5871 4.55823 19.6405C4.52176 19.6938 4.48529 19.765 4.41234 19.8183C4.3394 19.8717 4.24822 19.925 4.13881 19.925C4.0841 19.925 4.02939 19.9073 3.97469 19.8717C3.91998 19.8361 3.90174 19.8005 3.86527 19.7472C3.75586 19.5516 3.66468 19.3204 3.5735 19.0892C3.53703 18.9647 3.48232 18.858 3.46409 18.7335C3.42762 18.609 3.39115 18.5023 3.37291 18.3956C3.35467 18.2889 3.37291 18.1644 3.44585 18.0755C3.50056 17.9866 3.5735 17.9332 3.66468 17.8977C3.75586 17.8621 3.8288 17.8621 3.90174 17.8799C3.97469 17.8977 4.02939 17.9154 4.06587 17.951C4.10234 17.9688 4.13881 18.0044 4.15704 18.0221C4.17528 18.0399 4.17528 18.0577 4.17528 18.0577C4.17528 18.0577 4.13881 18.0221 4.04763 17.9866C4.01116 17.9688 3.95645 17.951 3.88351 17.9332C3.81057 17.9154 3.73762 17.9332 3.66468 17.951C3.59174 17.9866 3.5188 18.0399 3.46409 18.1289C3.40938 18.2178 3.39115 18.3067 3.40938 18.4134C3.42762 18.5201 3.46409 18.6268 3.50056 18.7513C3.53703 18.858 3.5735 18.9825 3.60997 19.107C3.70115 19.3382 3.79233 19.5694 3.90174 19.765C3.91998 19.8183 3.95645 19.8539 3.99292 19.8895C4.02939 19.925 4.0841 19.925 4.12057 19.9428C4.21175 19.9428 4.30293 19.9073 4.35764 19.8539C4.48529 19.7472 4.52176 19.6049 4.55823 19.5338C4.61293 19.3737 4.63117 19.3382 4.63117 19.3382Z" fill="#F7996E"/>
<path d="M5.0688 18.1287C5.14174 18.3244 5.19645 18.52 5.21468 18.7156C5.23292 18.9112 5.19645 19.1424 5.08703 19.2847C4.97762 19.427 4.75879 19.4981 4.61291 19.3914C4.52173 19.3203 4.44879 19.2136 4.41231 19.0891C4.32114 18.8757 4.24819 18.6445 4.19349 18.4133C4.15702 18.2888 4.13878 18.1821 4.12054 18.0576C4.12054 17.9331 4.12054 17.8264 4.17525 17.7197C4.21172 17.613 4.46702 17.4174 4.66761 17.5774C4.68585 17.5774 4.92291 17.7375 5.0688 18.1287Z" fill="#FBBF9E"/>
<path d="M5.06883 18.1288C5.06883 18.1288 5.0506 18.0755 4.97765 17.9688C4.94118 17.9154 4.90471 17.8621 4.85 17.7909C4.7953 17.7198 4.72235 17.6487 4.63118 17.5953C4.54 17.542 4.41235 17.542 4.30293 17.6131C4.24823 17.6487 4.19352 17.6842 4.17528 17.7554C4.15705 17.8087 4.13881 17.8799 4.12058 17.951C4.10234 18.0933 4.12058 18.2355 4.17528 18.3956C4.21176 18.5379 4.24823 18.6979 4.30293 18.858C4.35764 19.018 4.41235 19.1603 4.48529 19.3026C4.52176 19.3737 4.57647 19.4271 4.64941 19.4449C4.72235 19.4804 4.7953 19.4804 4.85 19.4626C4.97765 19.4271 5.06883 19.3026 5.12354 19.1959C5.17825 19.0892 5.17825 18.9647 5.17825 18.858C5.17825 18.6446 5.12354 18.4667 5.08707 18.36C5.06883 18.3067 5.0506 18.2533 5.0506 18.2355C5.06883 18.1466 5.06883 18.1288 5.06883 18.1288C5.06883 18.1288 5.06883 18.1466 5.08707 18.1644C5.1053 18.2 5.12354 18.2355 5.14177 18.2889C5.17825 18.3956 5.23295 18.5734 5.25119 18.7868C5.25119 18.8936 5.25119 19.018 5.19648 19.1425C5.17825 19.1959 5.14177 19.267 5.08707 19.3204C5.03236 19.3737 4.97765 19.4093 4.90471 19.4449C4.83177 19.4626 4.74059 19.4626 4.66765 19.4271C4.5947 19.3915 4.54 19.3382 4.48529 19.267C4.39411 19.1247 4.33941 18.9825 4.2847 18.8224C4.22999 18.6624 4.19352 18.5023 4.15705 18.36C4.13881 18.2889 4.12058 18.2 4.12058 18.1288C4.12058 18.0577 4.12058 17.9866 4.12058 17.8976C4.12058 17.8265 4.13881 17.7554 4.17528 17.6842C4.21176 17.6131 4.26646 17.5775 4.32117 17.542C4.37588 17.5064 4.44882 17.4886 4.50353 17.4886C4.57647 17.4886 4.63118 17.5064 4.68588 17.542C4.77706 17.5953 4.85 17.6842 4.90471 17.7554C4.95942 17.8265 4.99589 17.8976 5.01412 17.951C5.0506 18.0044 5.0506 18.0577 5.06883 18.0755C5.06883 18.1111 5.06883 18.1288 5.06883 18.1288Z" fill="#F7996E"/>
<path d="M5.23295 18.3245C5.23295 18.3245 5.23295 18.3423 5.25118 18.3956C5.26942 18.449 5.26942 18.5023 5.28765 18.5913C5.32412 18.7691 5.3606 18.9825 5.39707 19.267V19.2848H5.37883C5.26942 19.3204 5.16 19.3915 5.05059 19.4627C4.94118 19.5516 4.85 19.6405 4.77706 19.765C4.46705 20.1385 4.41234 20.5831 4.39411 20.8854C4.39411 21.0454 4.39411 21.1699 4.39411 21.2589C4.41234 21.3478 4.41234 21.3833 4.41234 21.4011C4.41234 21.4011 4.41234 21.3833 4.39411 21.3656C4.39411 21.3478 4.37587 21.3122 4.37587 21.2589C4.35764 21.1699 4.35764 21.0454 4.35764 20.8854C4.35764 20.7253 4.37587 20.5475 4.43058 20.3341C4.44881 20.2274 4.48529 20.1207 4.53999 20.0318C4.5947 19.9251 4.64941 19.8361 4.72235 19.7294C4.81353 19.6049 4.9047 19.516 5.01412 19.4271C5.12353 19.3382 5.23295 19.2848 5.3606 19.2493L5.34236 19.267C5.30589 19.0003 5.26942 18.7691 5.25118 18.5913C5.23295 18.5201 5.23295 18.449 5.23295 18.3956C5.23295 18.3601 5.23295 18.3245 5.23295 18.3245Z" fill="#F7996E"/>
<path d="M8.49714 30.1686C8.49714 30.1686 8.47891 30.133 8.46067 30.0441C8.44244 29.9552 8.4242 29.8485 8.40596 29.724C8.35126 29.4395 8.27831 29.066 8.20537 28.657C8.13243 28.2302 8.05949 27.8567 8.02302 27.5721C8.00478 27.4299 7.98654 27.3232 7.96831 27.252C7.95007 27.1809 7.95007 27.1275 7.95007 27.1275C7.95007 27.1275 7.96831 27.1631 7.98654 27.252C8.00478 27.341 8.02302 27.4477 8.04125 27.5721C8.09596 27.8567 8.1689 28.2302 8.24184 28.6392C8.31479 29.066 8.38773 29.4395 8.4242 29.724C8.44244 29.8663 8.46067 29.973 8.47891 30.0441C8.49714 30.133 8.51538 30.1686 8.49714 30.1686Z" fill="#263238"/>
<path d="M2.84407 24.3887L2.46112 23.126L5.96237 22.0412L6.27237 23.126L2.84407 24.3887Z" fill="#E0E0E0"/>
<path d="M2.84407 24.3888C2.84407 24.371 2.84407 24.371 2.84407 24.3888C2.88054 24.371 2.89878 24.371 2.91701 24.3533C2.97172 24.3355 3.02643 24.3177 3.1176 24.2821C3.28172 24.211 3.53702 24.1221 3.82879 24.0154C4.44881 23.7842 5.28765 23.4818 6.27237 23.1084L6.25414 23.1262C6.14472 22.7883 6.05354 22.4148 5.92589 22.0591L5.96237 22.0769C5.92589 22.0769 5.90766 22.0947 5.87119 22.1125C4.52175 22.5215 3.29996 22.895 2.46112 23.1617L2.47936 23.1439C2.58877 23.5352 2.67995 23.8375 2.75289 24.0509C2.78936 24.1576 2.8076 24.2466 2.82583 24.2999C2.82583 24.3355 2.84407 24.3533 2.84407 24.371C2.84407 24.371 2.84407 24.371 2.84407 24.3888C2.84407 24.3888 2.84407 24.3888 2.84407 24.371C2.84407 24.3533 2.82583 24.3355 2.82583 24.2999C2.8076 24.2466 2.78936 24.1576 2.75289 24.0509C2.67995 23.8375 2.58877 23.5174 2.46112 23.1262V23.1084H2.47936C3.3182 22.8416 4.53998 22.4682 5.88942 22.0413C5.92589 22.0236 5.94413 22.0236 5.9806 22.0058H5.99884V22.0236C6.10825 22.397 6.21766 22.7527 6.30884 23.0906V23.1084H6.29061C5.30588 23.4641 4.43057 23.7842 3.81056 23.9976C3.50055 24.1043 3.26349 24.1932 3.09937 24.2466C3.02643 24.2821 2.95348 24.2999 2.91701 24.3177C2.88054 24.371 2.8623 24.371 2.84407 24.3888Z" fill="#263238"/>
<g opacity="0.3">
<path d="M7.96829 27.1275C8.60654 28.2835 8.89831 29.6529 8.91655 30.9689C8.91655 31.0756 8.88007 31.2357 8.75243 31.2357C8.64301 31.2357 8.60654 31.1112 8.5883 31.0045C8.46066 29.7596 8.11418 28.3724 7.96829 27.1275Z" fill="black"/>
</g>
<path d="M22.575 24.8156L20.6785 15.977L19.9309 14.821L14.989 16.386C14.989 16.386 14.6243 17.0974 14.6243 17.1863L12.7278 18.4489L13.5119 28.1946L12.8372 31.2001L13.0925 37.9224H23.7239L22.575 24.8156Z" fill="#E0E0E0"/>
<path d="M14.1137 17.4708C13.9861 17.5597 10.4301 19.1425 10.4301 19.1425L11.3419 33.3697L10.6672 37.9402L13.6396 37.9224C13.6396 37.9224 14.0772 35.7705 14.2049 32.107C14.3508 28.4435 14.1137 17.4708 14.1137 17.4708Z" fill="#455B64"/>
<path d="M20.4962 15.6747C20.4962 15.6747 20.0585 30.9155 20.3138 31.9648C20.5691 33.014 21.718 37.9224 21.718 37.9224H28.1734L25.438 30.6666L25.9486 23.3751L25.438 16.3682L22.2833 16.2793L20.4962 15.6747Z" fill="#455B64"/>
<path d="M10.3754 21.1699C10.3754 21.1699 10.3754 21.1877 10.3754 21.2055C10.3754 21.2232 10.3754 21.2588 10.3936 21.2944C10.3936 21.3833 10.4119 21.49 10.4301 21.6501C10.4666 21.9524 10.503 22.397 10.5395 22.9483C10.576 23.4996 10.6307 24.1576 10.6672 24.8867C10.6854 25.2602 10.7036 25.6337 10.7219 26.0249C10.7401 26.4162 10.7401 26.843 10.7766 27.252C10.8313 28.0879 10.9042 28.8881 10.9589 29.6173C11.0319 30.3464 11.1048 31.0044 11.1595 31.5557C11.2142 32.107 11.2689 32.5516 11.3054 32.854C11.3237 33.014 11.3419 33.1207 11.3419 33.2097C11.3419 33.2452 11.3419 33.2808 11.3601 33.2986C11.3601 33.2808 11.3601 33.2452 11.3419 33.2097C11.3237 33.1207 11.3054 33.014 11.2872 32.854C11.2507 32.5516 11.196 32.107 11.1231 31.5557C11.0501 31.0044 10.9772 30.3464 10.9042 29.6173C10.8313 28.8881 10.7583 28.0879 10.7036 27.2342C10.6854 26.8074 10.6672 26.3984 10.6672 26.0071C10.6489 25.6159 10.6307 25.2246 10.6125 24.869C10.576 24.1398 10.5213 23.4818 10.4848 22.9305C10.4483 22.3792 10.4119 21.9346 10.3936 21.6145C10.3754 21.4544 10.3754 21.3477 10.3754 21.2588C10.3754 21.2232 10.3754 21.1877 10.3754 21.1699Z" fill="#263238"/>
<path d="M21.3715 15.9948C21.3715 15.9948 21.3715 15.9948 21.3897 16.0125C21.3897 16.0303 21.408 16.0481 21.408 16.0659C21.4262 16.1192 21.4627 16.1904 21.4991 16.2793C21.5903 16.4749 21.6997 16.7417 21.8456 17.0974C22.1192 17.8087 22.4839 18.8402 22.7939 20.1206V20.1384H22.7756C22.5933 20.1918 22.4109 20.2451 22.2103 20.3163V20.2807C22.338 20.3163 22.4656 20.3874 22.5568 20.4941C22.648 20.6008 22.7209 20.7253 22.7574 20.8498C22.8303 21.1165 22.7939 21.4189 22.7392 21.6856C22.6115 22.2369 22.4656 22.8238 22.3197 23.4107C21.7727 25.6515 21.2621 27.6788 20.9156 29.1549C20.7332 29.884 20.5874 30.4887 20.4779 30.8977C20.4232 31.0934 20.3868 31.2534 20.3503 31.3779C20.3321 31.4313 20.3321 31.4668 20.3138 31.5024C20.3138 31.538 20.2956 31.538 20.2956 31.538C20.2956 31.538 20.2956 31.5202 20.2956 31.5024C20.2956 31.4668 20.3138 31.4313 20.3321 31.3779C20.3503 31.2712 20.3868 31.1111 20.4415 30.8977C20.5327 30.4887 20.6785 29.884 20.8609 29.1549C21.2256 27.6788 21.718 25.6515 22.265 23.4107C22.4109 22.8238 22.5568 22.2369 22.6845 21.6856C22.7392 21.4189 22.7756 21.1343 22.7027 20.8676C22.6662 20.7431 22.5933 20.6186 22.5021 20.5297C22.4109 20.4407 22.3015 20.3696 22.1739 20.334L22.1009 20.3163L22.1739 20.2985C22.3745 20.2451 22.575 20.174 22.7392 20.1206C22.4292 18.858 22.0827 17.8265 21.8092 17.0974C21.6815 16.7417 21.5539 16.4571 21.4809 16.2615C21.4444 16.1726 21.408 16.1015 21.3897 16.0481C21.3715 16.0303 21.3715 16.0125 21.3715 15.9948Z" fill="#263238"/>
<path d="M13.9861 31.9648C13.9861 31.9648 13.9861 31.947 13.9861 31.9292C13.9861 31.8936 13.9861 31.8581 13.9678 31.8047C13.9496 31.698 13.9496 31.5557 13.9313 31.3601C13.8949 30.9689 13.8402 30.3998 13.7672 29.6884C13.6213 28.2835 13.3843 26.345 13.1472 24.211C13.0925 23.6419 13.0196 23.0728 12.9649 22.5393C12.9466 22.2725 12.9102 22.0057 12.9649 21.739C13.0013 21.6145 13.056 21.49 13.1472 21.4011C13.2384 21.2944 13.3478 21.2232 13.4755 21.2055V21.241C13.2384 21.2766 13.0196 21.2944 12.819 21.33H12.7825V21.2944C13.129 20.174 13.4207 19.2314 13.6396 18.5734C13.749 18.2533 13.8219 17.9866 13.8766 17.8087C13.9131 17.7198 13.9313 17.6487 13.9496 17.6131C13.9496 17.5953 13.9678 17.5775 13.9678 17.5597C13.9678 17.5775 13.9678 17.5953 13.9496 17.6131C13.9313 17.6664 13.9131 17.7198 13.8949 17.8087C13.8402 17.9866 13.7672 18.2533 13.6578 18.5734C13.4572 19.2314 13.1654 20.174 12.819 21.3122L12.8007 21.2944C13.0196 21.2588 13.2384 21.241 13.4572 21.2055V21.241C13.3478 21.2766 13.2384 21.3477 13.1472 21.4367C13.0743 21.5256 13.0013 21.6501 12.9831 21.7746C12.9284 22.0235 12.9466 22.2903 12.9831 22.557C13.0378 23.0906 13.0925 23.6419 13.1654 24.2287C13.4025 26.3628 13.6213 28.3013 13.7672 29.724C13.8402 30.4354 13.8949 31.0044 13.9131 31.3957C13.9313 31.5913 13.9313 31.7514 13.9496 31.8581C13.9496 31.9114 13.9496 31.947 13.9496 31.9826C13.9861 31.947 13.9861 31.9648 13.9861 31.9648Z" fill="#263238"/>
<path d="M16.3567 19.267L16.7396 20.1918H17.7608L18.1438 19.1069L17.3049 18.1466L17.0314 18.1822L16.3567 19.267Z" fill="#EE3765"/>
<path d="M17.1773 17.951C17.1773 17.951 17.1773 17.9688 17.1591 17.9866C17.1408 18.0043 17.1226 18.0399 17.1044 18.0755C17.0497 18.1644 16.9767 18.2711 16.8855 18.4134C16.7032 18.6979 16.4479 19.1247 16.1743 19.5871L16.1561 19.6227L16.1379 19.6049C16.0467 19.4804 15.9555 19.3559 15.8643 19.2314C15.4814 18.6979 15.1714 18.1822 14.9526 17.8087C14.8431 17.6131 14.7702 17.4708 14.7155 17.3641C14.6973 17.3108 14.679 17.2752 14.6608 17.2396C14.6425 17.2041 14.6425 17.2041 14.6425 17.1863C14.6425 17.1863 14.6608 17.2041 14.6608 17.2218C14.679 17.2574 14.6973 17.293 14.7337 17.3463C14.7884 17.453 14.8796 17.6131 14.989 17.7909C15.2079 18.1644 15.5179 18.6801 15.9008 19.2137C15.992 19.3381 16.0832 19.4626 16.1743 19.5871H16.1379C16.4114 19.107 16.6667 18.6979 16.8491 18.4134C16.9402 18.2711 17.0132 18.1466 17.0679 18.0755C17.0861 18.0399 17.1226 18.0043 17.1226 17.9866C17.1591 17.9688 17.1773 17.951 17.1773 17.951Z" fill="#263238"/>
<path d="M20.2956 15.9948C20.2956 15.9948 20.2956 16.0125 20.2774 16.0481C20.2591 16.0837 20.2409 16.137 20.2044 16.2082C20.1315 16.3504 20.0403 16.5461 19.9126 16.7772C19.6756 17.2574 19.3291 17.9154 18.9644 18.6623C18.8185 18.9647 18.6726 19.2492 18.5267 19.4982L18.5085 19.516L18.4903 19.4982C18.0708 19.0892 17.7244 18.6979 17.4873 18.4312C17.3779 18.2889 17.2867 18.1822 17.232 18.0933C17.1955 18.0577 17.1773 18.0221 17.1773 18.0043C17.1591 17.9866 17.1591 17.9688 17.1591 17.9688C17.1591 17.9688 17.1773 17.9866 17.1773 18.0043C17.1955 18.0221 17.2138 18.0577 17.2502 18.0933C17.3049 18.1644 17.3961 18.2889 17.5238 18.4134C17.7608 18.6979 18.1073 19.0536 18.5267 19.4804H18.4903C18.6179 19.2137 18.7638 18.9291 18.9097 18.6446C19.2926 17.9154 19.6209 17.2574 19.8762 16.7772C20.0038 16.5461 20.095 16.3504 20.1679 16.2082C20.2044 16.137 20.2226 16.1015 20.2591 16.0481C20.2956 16.0125 20.2956 15.9948 20.2956 15.9948Z" fill="#263238"/>
<g opacity="0.3">
<path d="M17.1591 36.6775C17.2138 36.5708 19.0738 34.17 19.0738 34.17L17.7426 20.423L17.1591 36.6775Z" fill="black"/>
</g>
<path d="M16.7579 20.1918C16.7579 20.1918 15.5361 34.0099 15.7549 34.8458L17.1591 36.6775L18.6179 33.9566C18.6544 33.8321 17.7244 20.1918 17.7244 20.1918H16.7579Z" fill="#EE3765"/>
<path d="M22.2833 33.3519C22.2833 33.3875 23.0674 34.7569 23.0674 34.7569L27.2798 34.7391L26.3498 33.3342L22.2833 33.3519Z" fill="#455B64"/>
<path d="M22.2833 33.3519C22.2833 33.3519 22.2833 33.3519 22.3015 33.3519C22.3197 33.3519 22.338 33.3519 22.3562 33.3519C22.4109 33.3519 22.4839 33.3519 22.575 33.3519C22.7756 33.3519 23.0674 33.3519 23.4139 33.3519C24.1433 33.3519 25.1645 33.3342 26.3498 33.3342H26.368V33.3519C26.6598 33.7788 26.9698 34.2589 27.2981 34.7391L27.3163 34.7747H27.2798C27.2616 34.7747 27.2616 34.7747 27.2434 34.7747C25.6022 34.7747 24.1251 34.7924 23.0674 34.7924C22.8121 34.3656 22.6115 34.0099 22.4839 33.761C22.4109 33.6365 22.3744 33.5476 22.338 33.4764C22.3197 33.4409 22.3015 33.4231 22.3015 33.4053C22.2833 33.3519 22.2833 33.3519 22.2833 33.3519C22.2833 33.3519 22.2833 33.3697 22.3015 33.3697C22.3197 33.3875 22.3197 33.4053 22.338 33.4409C22.3744 33.512 22.4291 33.6009 22.5021 33.7254C22.648 33.9744 22.8486 34.3123 23.1039 34.7569H23.0856C24.1433 34.7569 25.6204 34.7391 27.2616 34.7213C27.2798 34.7213 27.2798 34.7213 27.2981 34.7213L27.2798 34.7569C26.9516 34.2589 26.6416 33.7965 26.3498 33.3519L26.368 33.3697C25.1827 33.3697 24.1798 33.3697 23.4503 33.3697C23.0856 33.3697 22.7939 33.3697 22.5933 33.3697C22.5021 33.3697 22.4109 33.3697 22.3562 33.3697C22.338 33.3697 22.3197 33.3697 22.3015 33.3697C22.3015 33.3519 22.2833 33.3519 22.2833 33.3519Z" fill="#263238"/>
<path d="M17.852 18.7868C17.852 18.7868 17.7973 18.8758 17.6879 19.0002C17.5785 19.1247 17.4508 19.3026 17.2867 19.4982C17.1408 19.6938 16.9949 19.8717 16.9037 19.9961C16.8126 20.1206 16.7396 20.2096 16.7396 20.1918C16.7396 20.1918 16.7943 20.1028 16.8855 19.9784C16.9767 19.8539 17.1043 19.6583 17.2502 19.4626C17.3961 19.267 17.542 19.1069 17.6514 18.9825C17.7791 18.858 17.852 18.7868 17.852 18.7868Z" fill="#263238"/>
<g opacity="0.3">
<path d="M17.2685 18.111C17.2685 18.111 18.162 19.676 18.5267 19.7827C18.9097 19.9072 19.5662 17.3997 19.5662 17.3997L18.5085 19.4271L17.2685 18.111Z" fill="black"/>
</g>
<g opacity="0.3">
<path d="M20.4962 30.8444C20.4962 30.8444 22.4839 24.4955 22.9215 22.7171C23.3409 20.9387 22.7939 20.423 22.7939 20.423L23.1951 20.1918L22.0097 17.542L22.7939 20.1384L22.2286 20.3163C22.2286 20.3163 22.6845 20.3518 22.7939 20.9921C22.8851 21.6145 20.4962 30.8444 20.4962 30.8444Z" fill="black"/>
</g>
<path d="M31.2552 12.0467C31.2552 12.0467 31.0364 11.8333 30.6352 12.0467C30.6352 12.0467 30.234 12.2601 30.1611 12.438C30.1064 12.6158 30.1976 12.847 30.2705 13.0248C30.3435 13.2027 30.7993 13.8607 30.7993 13.8607C30.7993 13.8607 30.7993 14.412 31.1823 14.9989C31.5652 15.5857 32.2035 15.6035 32.3129 16.0125C32.4406 16.4394 32.477 16.5638 32.4041 16.8484C32.3311 17.1329 32.2217 17.6309 32.2217 17.6309L34.7018 18.858C34.7018 18.858 34.8659 17.1152 34.8112 16.0837C34.7565 15.0522 34.7565 14.0207 34.8294 13.7006C34.9024 13.3627 34.8112 12.8826 34.7018 12.8292C34.7018 12.8292 34.9935 12.1356 34.6471 11.9222C34.3006 11.7266 32.0394 11.0508 31.7841 11.1397C31.547 11.2287 31.4558 11.3531 31.3829 11.6021C31.3099 11.8867 31.2552 12.0467 31.2552 12.0467Z" fill="#FBBF9E"/>
<path d="M33.3706 13.8073C33.3706 13.8073 33.3341 13.7895 33.3159 13.7184C33.2794 13.6651 33.2612 13.5406 33.3341 13.4339V13.4516C33.2429 13.4161 33.1335 13.3805 33.0059 13.3272L33.0241 13.3094C33.0606 13.3805 33.0788 13.4694 33.1153 13.5761C33.1517 13.6117 33.1882 13.6473 33.2065 13.7006C33.2429 13.754 33.2612 13.8073 33.2612 13.8607C33.2612 13.9852 33.1882 14.0919 33.0606 14.1452C33.0059 14.1808 32.9329 14.1808 32.86 14.163C32.8235 14.163 32.787 14.1452 32.7688 14.1274C32.7323 14.1097 32.7141 14.1097 32.6776 14.0919C32.55 14.0385 32.4406 13.9674 32.3311 13.8785C32.2582 13.8251 32.1853 13.754 32.1306 13.6828H32.1488C32.0029 13.6651 31.8388 13.6117 31.7294 13.505C31.62 13.3983 31.5652 13.2738 31.5652 13.1315L31.5835 13.1493C31.4923 13.1138 31.4011 13.0782 31.3282 13.0248C31.2917 12.9893 31.2552 12.9715 31.237 12.9181C31.2188 12.8826 31.2188 12.8292 31.2005 12.7936C31.2005 12.6336 31.2188 12.4913 31.237 12.3846C31.2552 12.2779 31.2735 12.189 31.2917 12.1179C31.2735 12.1712 31.2735 12.2601 31.2552 12.3846C31.237 12.4913 31.2188 12.6336 31.2188 12.7936C31.2188 12.8292 31.237 12.8648 31.237 12.9003C31.2552 12.9359 31.2917 12.9715 31.3282 12.9893C31.4011 13.0426 31.4923 13.0782 31.5835 13.1138H31.6017V13.1315C31.6017 13.256 31.6564 13.3805 31.7658 13.4694C31.8753 13.5584 32.0029 13.6117 32.167 13.6295C32.2217 13.7006 32.2947 13.754 32.3494 13.8073C32.4588 13.8962 32.5682 13.9496 32.6776 14.003C32.7141 14.0207 32.7323 14.0207 32.7688 14.0385C32.8053 14.0563 32.8235 14.0563 32.86 14.0741C32.9147 14.0919 32.9694 14.0741 33.0241 14.0563C33.1335 14.003 33.2065 13.8962 33.1882 13.8073C33.1882 13.7006 33.1153 13.6117 33.0606 13.5406C33.0241 13.4516 33.0059 13.3627 32.9694 13.2738L32.9512 13.2382L32.9876 13.256C33.1153 13.3094 33.2247 13.3449 33.3159 13.3805H33.3341V13.3983C33.2976 13.4516 33.2976 13.505 33.2976 13.5406C33.2976 13.5939 33.3159 13.6295 33.3159 13.6651C33.3523 13.7718 33.3706 13.8073 33.3706 13.8073Z" fill="#F7996E"/>
<path d="M34.1547 12.5802C34.1547 12.5802 34.1182 12.5802 34.027 12.5624C33.9359 12.5447 33.8265 12.5269 33.6988 12.4913C33.5529 12.4557 33.3888 12.438 33.2247 12.3846C33.1335 12.3668 33.0423 12.349 32.9329 12.3313C32.8417 12.3135 32.7323 12.2779 32.6411 12.2957C32.5317 12.3135 32.4588 12.3668 32.4223 12.4557C32.3676 12.5447 32.3494 12.6336 32.3311 12.7225C32.2764 12.9003 32.2582 13.0604 32.2399 13.1849C32.2217 13.3272 32.2035 13.4339 32.2035 13.505C32.2035 13.5761 32.1852 13.6295 32.1852 13.6295C32.1852 13.6295 32.1852 13.5939 32.1852 13.505C32.1852 13.4339 32.2035 13.3272 32.2035 13.1849C32.2217 13.0426 32.2399 12.8826 32.2947 12.7047C32.3129 12.6158 32.3494 12.5269 32.4041 12.438C32.4223 12.4024 32.4588 12.349 32.5135 12.3135C32.55 12.2779 32.6047 12.2601 32.6594 12.2423C32.7688 12.2246 32.8782 12.2601 32.9694 12.2779C33.0606 12.2957 33.17 12.3135 33.2611 12.3313C33.4435 12.3668 33.6076 12.4024 33.7353 12.438C33.8629 12.4735 33.9723 12.4913 34.0635 12.5091C34.1182 12.5802 34.1547 12.5802 34.1547 12.5802Z" fill="#F7996E"/>
<path d="M33.7535 12.0823C33.7535 12.0823 33.717 12.0823 33.6259 12.0645C33.5347 12.0467 33.4253 12.0112 33.2976 11.9934C33.1517 11.9578 32.9876 11.9222 32.8053 11.8867C32.7141 11.8689 32.6047 11.8511 32.5135 11.8333C32.4041 11.8155 32.3129 11.8155 32.2035 11.8511C32.1123 11.8867 32.0211 11.9578 31.9664 12.0289C31.9117 12.1179 31.8752 12.2068 31.8388 12.2779C31.7658 12.4558 31.7294 12.6158 31.6929 12.7581C31.6564 12.9004 31.6382 13.0071 31.6199 13.0782C31.6017 13.1493 31.6017 13.2027 31.6017 13.2027C31.6017 13.2027 31.6017 13.1671 31.6017 13.0782C31.6017 13.0071 31.6199 12.8826 31.6564 12.7403C31.6929 12.598 31.7294 12.438 31.7841 12.2601C31.8205 12.1712 31.857 12.0823 31.9117 11.9934C31.9664 11.9045 32.0576 11.8333 32.167 11.7977C32.2764 11.7622 32.3858 11.7622 32.4953 11.78C32.6047 11.7977 32.6959 11.8155 32.787 11.8333C32.9694 11.8689 33.1517 11.9044 33.2794 11.94C33.4253 11.9756 33.5347 12.0112 33.6076 12.0289C33.7171 12.0645 33.7535 12.0823 33.7535 12.0823Z" fill="#F7996E"/>
<path d="M34.7018 12.349C34.7018 12.3668 34.5741 12.2779 34.3918 12.2068C34.2277 12.1534 34.0635 12.1356 34.0635 12.1356C34.0635 12.1179 34.2277 12.1179 34.41 12.1712C34.5924 12.2423 34.72 12.349 34.7018 12.349Z" fill="#F7996E"/>
<path d="M32.5135 11.4598C32.5135 11.4598 32.477 11.4598 32.4223 11.4598C32.3676 11.4598 32.2764 11.4598 32.167 11.4598C32.0576 11.4598 31.93 11.4954 31.8205 11.5666C31.7658 11.6021 31.7111 11.6555 31.6747 11.7088C31.6382 11.7622 31.6017 11.8511 31.5835 11.9222C31.5105 12.2423 31.4558 12.5269 31.4194 12.7225C31.4011 12.8114 31.4011 12.9003 31.3829 12.9715C31.3829 13.0248 31.3647 13.0604 31.3647 13.0604C31.3647 13.0604 31.3647 13.0248 31.3647 12.9715C31.3647 12.9181 31.3829 12.8292 31.3829 12.7225C31.4011 12.5091 31.4558 12.2246 31.5288 11.9044C31.547 11.8333 31.5835 11.7444 31.62 11.6733C31.6564 11.6021 31.7294 11.5488 31.7841 11.5132C31.9117 11.4421 32.0394 11.4243 32.1488 11.4065C32.2582 11.4065 32.3494 11.4065 32.4041 11.4243C32.477 11.4598 32.5135 11.4598 32.5135 11.4598Z" fill="#F7996E"/>
<path d="M33.6964 11.7649C33.6989 11.7554 33.5743 11.7162 33.4182 11.6774C33.2621 11.6386 33.1335 11.6148 33.131 11.6243C33.1285 11.6339 33.253 11.673 33.4092 11.7119C33.5653 11.7507 33.6939 11.7744 33.6964 11.7649Z" fill="#F7996E"/>
<path d="M31.6017 13.3094C31.6017 13.3272 31.4194 13.3627 31.2552 13.505C31.0729 13.6295 30.9817 13.7895 30.9635 13.7895C30.9452 13.7895 31.0364 13.6117 31.2188 13.4694C31.4011 13.3272 31.6017 13.2916 31.6017 13.3094Z" fill="#F7996E"/>
<path d="M31.237 12.9537C31.237 12.9537 31.2005 12.9893 31.1458 13.0248C31.0911 13.0604 30.9999 13.096 30.8905 13.0782C30.7811 13.0782 30.6899 13.0426 30.6352 13.0248C30.5805 13.007 30.544 12.9715 30.544 12.9715C30.544 12.9537 30.7082 13.0248 30.8905 13.0426C31.0911 13.0426 31.237 12.9359 31.237 12.9537Z" fill="#F7996E"/>
<path d="M33.7718 14.003C33.7718 14.003 33.6259 14.003 33.407 14.0563C33.1882 14.1097 32.8964 14.2341 32.6412 14.4831C32.4041 14.7321 32.2764 15.0166 32.2217 15.23C32.167 15.4435 32.1853 15.5857 32.167 15.5857C32.167 15.5857 32.167 15.5502 32.167 15.4968C32.167 15.4257 32.167 15.3368 32.2035 15.23C32.24 15.0166 32.3676 14.7143 32.6229 14.4476C32.8782 14.1986 33.1882 14.0741 33.407 14.0207C33.5165 14.003 33.6076 13.9852 33.6806 13.9852C33.7353 14.003 33.7718 14.003 33.7718 14.003Z" fill="#F7996E"/>
<path d="M34.1547 16.4038C34.1547 16.4038 34.0635 16.4394 33.9359 16.4394C33.79 16.4571 33.6076 16.4571 33.3888 16.4216C33.17 16.386 32.9876 16.3149 32.86 16.2615C32.7323 16.2082 32.6594 16.1548 32.6594 16.137C32.6594 16.137 32.7323 16.1726 32.86 16.2259C32.9876 16.2793 33.17 16.3326 33.3706 16.386C33.5712 16.4216 33.7718 16.4216 33.8994 16.4216C34.0818 16.4038 34.1547 16.4038 34.1547 16.4038Z" fill="#F7996E"/>
<path d="M31.1094 21.1877L27.0428 18.1289C27.0428 18.1289 26.2769 16.3505 25.4198 16.3682V23.5885L29.1581 25.776C29.4681 25.9894 30.9452 26.8608 32.3129 27.1098C33.0606 27.252 34.1365 26.9497 34.5194 26.3273C34.6288 26.1494 34.9571 25.3492 34.9935 25.118C35.1212 24.1932 35.34 17.1329 35.34 17.1329L31.2735 16.3682L31.1094 21.1877Z" fill="#455B64"/>
<path d="M31.6017 25.6337C31.6017 25.6337 31.5835 25.6159 31.5652 25.5981C31.547 25.5625 31.5105 25.527 31.4741 25.4914C31.4558 25.4736 31.4376 25.4381 31.4194 25.4025C31.4011 25.3669 31.3829 25.3314 31.3464 25.2958C31.3099 25.2246 31.237 25.1357 31.2005 25.029C31.1823 24.9757 31.1458 24.9223 31.1276 24.869C31.1094 24.8156 31.0729 24.7623 31.0547 24.6911C30.9999 24.5666 30.9635 24.4422 30.9088 24.2999C30.8176 24.0153 30.7446 23.713 30.7264 23.3751C30.6899 23.0372 30.7082 22.7171 30.7264 22.4326C30.7446 22.2903 30.7629 22.148 30.7994 22.0235C30.8176 21.9524 30.8176 21.899 30.8358 21.8457C30.8541 21.7923 30.8723 21.739 30.8905 21.6856C30.9088 21.5789 30.9635 21.49 30.9817 21.4011C30.9999 21.3655 31.0182 21.33 31.0182 21.2944C31.0364 21.2588 31.0547 21.2233 31.0547 21.2055C31.0729 21.1521 31.0911 21.1165 31.1094 21.081C31.1276 21.0454 31.1276 21.0454 31.1276 21.0454C31.1276 21.0454 31.1276 21.0632 31.1094 21.0988C31.0911 21.1343 31.0729 21.1699 31.0547 21.2233C31.0364 21.2588 31.0364 21.2766 31.0182 21.3122C30.9999 21.3477 30.9999 21.3833 30.9817 21.4189C30.9635 21.5078 30.927 21.5967 30.8905 21.7034C30.8723 21.7568 30.8541 21.8101 30.8541 21.8635C30.8358 21.9168 30.8358 21.988 30.8176 22.0413C30.7811 22.1658 30.7811 22.3081 30.7629 22.4503C30.7446 22.7349 30.7264 23.055 30.7629 23.3929C30.7994 23.7308 30.8723 24.0331 30.9452 24.3177C30.9999 24.4599 31.0364 24.5844 31.0911 24.7089C31.1094 24.7623 31.1458 24.8334 31.1641 24.8868C31.1823 24.9401 31.2188 24.9935 31.237 25.0468C31.2735 25.1535 31.3282 25.2246 31.3829 25.3136C31.4011 25.3491 31.4194 25.3847 31.4376 25.4203C31.4558 25.4558 31.4741 25.4736 31.4923 25.5092C31.5288 25.5625 31.547 25.5981 31.5652 25.6337C31.5835 25.6159 31.6017 25.6337 31.6017 25.6337Z" fill="#263238"/>
<path d="M26.2587 18.4845C26.2587 18.5023 26.2587 18.5379 26.2587 18.5734C26.2587 18.6624 26.2404 18.7691 26.2404 18.9291C26.2222 19.2492 26.1857 19.6938 26.1493 20.2451C26.0763 21.3477 25.9669 22.8772 25.8575 24.5666C25.7481 26.2561 25.6387 27.7678 25.5475 28.8881C25.511 29.4395 25.4745 29.8841 25.4563 30.1864C25.4381 30.3464 25.4381 30.4531 25.4198 30.5421C25.4198 30.4531 25.4381 30.3464 25.4381 30.1864C25.4563 29.8663 25.4928 29.4217 25.5292 28.8704C25.6022 27.7678 25.7116 26.2383 25.821 24.5489C25.9304 22.8594 26.0398 21.3477 26.131 20.2273C26.1675 19.676 26.204 19.2314 26.2222 18.9291C26.2404 18.7691 26.2404 18.6624 26.2587 18.5734C26.2587 18.5379 26.2587 18.5023 26.2587 18.4845Z" fill="#263238"/>
<g opacity="0.3">
<path d="M31.1276 24.7267C30.8723 24.1398 30.8176 23.8909 30.7447 23.3395C30.6717 22.7705 30.7811 21.9168 31 21.4011C30.2523 22.4326 30.0152 23.9086 30.5258 25.0824C30.5805 25.2246 30.6899 25.4025 30.8541 25.4025C31 25.4203 31.1276 25.2958 31.1641 25.1535C31.1823 25.0112 31.1823 24.8512 31.1276 24.7267Z" fill="black"/>
</g>
<path d="M20.095 11.8689C20.3868 11.0508 20.6603 10.215 20.8062 9.36135C20.9338 8.50772 20.9338 7.60074 20.6238 6.78267C20.5874 6.65819 20.1862 5.82234 20.0585 5.84012C19.9673 5.84012 20.2044 6.62262 20.1497 6.71154C19.6756 7.47625 19.5297 8.4188 19.6026 9.308C19.6573 10.1972 19.8397 10.9975 20.095 11.8689Z" fill="#263238"/>
<path d="M16.8855 4.47073H16.6849C14.6061 4.55965 12.9284 6.178 12.8555 8.20537C12.7825 10.0905 12.7278 12.189 12.7825 13.1849C12.8919 15.2656 15.062 15.5146 15.062 15.5146L15.0802 16.4038L17.2138 17.7909L20.0221 14.8566L20.2774 8.56105C20.3321 6.37362 19.1103 4.5063 16.8855 4.47073Z" fill="#FBBF9E"/>
<path d="M15.0255 15.5324C15.0255 15.5324 16.3749 15.5502 17.7791 14.6076C17.7791 14.6076 17.1773 16.2082 15.0255 16.1015V15.5324Z" fill="#F7996E"/>
<path d="M20.1133 10.1083C20.1497 10.0905 21.5721 9.62809 21.5903 11.0508C21.6086 12.4735 20.1315 12.2068 20.1315 12.1534C20.1133 12.1179 20.1133 10.1083 20.1133 10.1083Z" fill="#FBBF9E"/>
<path d="M20.5691 11.6199C20.5691 11.6199 20.5874 11.6377 20.6421 11.6555C20.6785 11.6732 20.7515 11.691 20.8244 11.6555C20.9703 11.6021 21.1162 11.3531 21.1162 11.1042C21.1162 10.9797 21.098 10.8552 21.0432 10.7485C20.9885 10.6418 20.9338 10.5706 20.8427 10.5529C20.7697 10.5351 20.715 10.5884 20.6968 10.624C20.6785 10.6596 20.6785 10.6951 20.6785 10.6951C20.6785 10.6951 20.6421 10.6773 20.6603 10.6062C20.6603 10.5706 20.6785 10.5351 20.715 10.5173C20.7515 10.4817 20.8062 10.4817 20.8609 10.4817C20.9703 10.4817 21.0797 10.5884 21.1344 10.6951C21.1891 10.8018 21.2256 10.9441 21.2256 11.0864C21.2256 11.3709 21.0615 11.6377 20.8609 11.7088C20.7515 11.7444 20.6785 11.7088 20.6238 11.6732C20.5691 11.6555 20.5691 11.6199 20.5691 11.6199Z" fill="#F7996E"/>
<path d="M13.7855 5.84011C13.5484 5.71563 14.2596 4.9687 14.8431 4.70194C15.7184 4.31069 17.0679 4.06171 17.8885 4.29291C18.8732 4.55967 19.6756 5.03983 20.1679 5.91125C20.6603 6.78266 20.8427 7.79635 20.8244 8.79225C20.8244 9.09458 20.7879 9.41469 20.6238 9.66367C20.4232 9.98378 20.0221 10.1794 20.0403 10.624C20.0403 10.7841 20.0038 10.9441 19.8944 11.0686C19.6209 11.3531 19.2926 11.0864 19.1467 10.8196C18.8185 10.2505 18.782 9.59253 18.7638 8.95231C18.7456 8.48993 18.7273 8.02754 18.855 7.58294C18.9279 7.35175 19.0373 7.12056 19.092 6.87158C19.1467 6.62261 19.1467 6.35585 18.9826 6.16022C18.9644 6.12466 18.9097 6.08909 18.855 6.03574C18.4355 5.68006 17.852 5.57335 17.3414 5.75119C16.5208 6.03574 15.0984 6.46255 14.7337 6.19579C14.2049 5.80455 14.0772 5.53779 14.0772 5.53779L13.7855 5.84011Z" fill="#263238"/>
</g>
</svg>
