<svg width="25" height="31" viewBox="0 0 25 31" fill="none" xmlns="http://www.w3.org/2000/svg">
<path d="M23.7172 2.75735V22.2205L16.3189 29.9678H3.38601C1.93647 29.9678 0.750488 28.7715 0.750488 27.3094V2.75735C0.750488 1.29524 1.93647 0.0989685 3.38601 0.0989685H21.0816C22.5312 0.0989685 23.7172 1.29524 23.7172 2.75735Z" fill="#F5F5F5"/>
<path opacity="0.35" d="M15.7541 30.8412V24.9358C15.7541 23.2269 17.1284 21.8597 18.8038 21.8597H24.3196L15.7541 30.8412Z" fill="#455B64"/>
<path d="M21.5334 4.27643H11.5561V5.75753H21.5334V4.27643Z" fill="#EE3765"/>
<path d="M21.5334 6.63098H11.5561V10.4477H21.5334V6.63098Z" fill="#EE3765"/>
<path d="M21.5146 11.8908H3.19775V19.714H21.5146V11.8908Z" fill="#EE3765"/>
<path d="M12.9868 20.7204H3.19775V23.7396H12.9868V20.7204Z" fill="#EE3765"/>
<mask id="mask0_46_29602" style="mask-type:luminance" maskUnits="userSpaceOnUse" x="3" y="3" width="9" height="9">
<path d="M7.15103 11.3591C9.33437 11.3591 11.1043 9.57382 11.1043 7.37154C11.1043 5.16927 9.33437 3.38397 7.15103 3.38397C4.9677 3.38397 3.19775 5.16927 3.19775 7.37154C3.19775 9.57382 4.9677 11.3591 7.15103 11.3591Z" fill="white"/>
</mask>
<g mask="url(#mask0_46_29602)">
<path d="M6.00271 7.59941L5.68268 7.75131C5.68268 7.75131 5.96506 5.9664 6.04036 5.52967C6.15331 4.80811 6.45451 3.9916 7.47107 4.08655C7.47107 4.08655 8.2429 4.14351 8.44997 4.71316C8.56292 5.01698 8.58175 5.83348 8.60057 6.76391L8.6194 6.91582C8.71353 7.31458 8.73235 7.59941 8.8453 7.99816C8.9959 8.51085 8.9959 9.51724 8.90178 10.1249L8.05465 10.2008L6.00271 7.59941Z" fill="#263238"/>
<path d="M7.58401 4.31439L7.52753 4.23843L6.81218 4.52326C6.71805 4.52326 6.62393 4.6182 6.62393 4.71314L6.6051 7.02973C6.6051 7.18164 6.62393 7.33355 6.71805 7.44748L6.81218 7.5804C7.03808 7.88421 7.50871 7.86522 7.67814 7.54242C7.71579 7.52343 7.71579 7.50444 7.71579 7.48546C7.71579 7.46647 7.73461 7.44748 7.73461 7.42849C7.75344 7.23861 7.75344 7.0867 7.75344 7.0867C7.77226 6.87783 7.77226 6.80187 7.77226 6.80187C7.77226 6.80187 8.20524 6.7639 8.33702 6.19424C8.39349 5.90942 8.39349 5.52965 8.37467 5.14988C8.35584 4.63719 7.99816 4.31439 7.58401 4.31439Z" fill="#FBBF9E"/>
<path d="M7.77227 6.80187C7.77227 6.80187 7.39576 6.80187 7.03809 6.55502C7.03809 6.55502 7.20751 6.95378 7.77227 6.93479V6.80187Z" fill="#F7996E"/>
<path d="M6.62394 5.70056C6.62394 5.70056 7.01927 5.83347 7.24517 4.84608C7.32047 4.50428 7.6405 4.23845 7.6405 4.23845L7.52755 4.20047C7.52755 4.20047 6.73689 4.40934 6.73689 4.42833C6.71807 4.44732 6.52982 4.82709 6.52982 4.82709L6.62394 5.70056Z" fill="#263238"/>
<path d="M6.07799 10.4097C6.07799 10.4097 5.51323 11.7959 5.45676 12.2516C5.40028 12.7073 5.32498 13.6187 5.32498 13.6187L8.93941 13.7137C8.93941 13.7137 9.10883 13.0111 8.93941 11.7009C8.86411 11.0553 8.61938 10.5806 8.58173 10.4857C8.54408 10.3717 8.80763 8.52985 8.80763 8.52985L8.76998 7.39054L8.35583 7.14369H7.75342C7.4334 7.56144 7.01924 7.35257 6.58627 7.12471C6.41684 7.02976 5.77679 7.50448 5.77679 7.50448C5.77679 7.50448 5.77679 8.49187 5.87091 9.13748C5.98386 9.7641 6.07799 10.4097 6.07799 10.4097Z" fill="#EE3765"/>
<path d="M6.05917 7.37155C6.05917 7.37155 5.34382 7.59941 5.24969 8.03615C5.15557 8.47288 5.00496 9.76409 4.98614 9.95398C4.94849 10.1249 4.81671 10.4287 4.74141 10.9604C4.64729 11.587 4.55316 12.4225 4.55316 12.4225L5.11792 12.4605C5.11792 12.4605 5.41912 11.7199 5.58854 11.1502C5.73915 10.5996 5.81445 10.3717 5.90857 10.0869C6.02152 9.63117 6.02152 9.25141 6.02152 9.25141L6.05917 7.37155Z" fill="#EE3765"/>
<path d="M8.6947 7.27661C8.6947 7.27661 9.41006 7.50447 9.50418 7.94121C9.59831 8.37794 9.74891 9.66915 9.76774 9.85904C9.80539 10.0299 9.93716 10.3337 10.0125 10.8654C10.1066 11.492 10.2007 12.3275 10.2007 12.3275L9.63596 12.3655C9.63596 12.3655 9.33476 11.625 9.16533 11.0553C9.01473 10.5046 8.93943 10.2768 8.8453 9.99196C8.73235 9.53623 8.73235 9.15647 8.73235 9.15647L8.6947 7.27661Z" fill="#EE3765"/>
<path d="M5.11789 9.44128C5.11789 9.4602 5.13664 9.47911 5.15539 9.47911C5.11789 9.49802 5.09914 9.4602 5.11789 9.44128Z" fill="#263238"/>
<path d="M6.88748 8.4539C6.96278 8.16907 7.07573 7.88424 7.07573 7.59942C7.07573 7.31459 6.96278 7.04875 6.86866 6.78291C6.77453 6.51708 6.71805 6.21326 6.81218 5.94742C6.86866 5.79552 6.96278 5.68159 7.03808 5.54867C7.11338 5.41575 7.65931 4.37138 7.60284 4.23846L6.17212 4.88407C6.0027 5.79552 5.9274 7.2956 5.98387 8.1121C6.0027 8.35895 6.19095 9.53624 6.32273 9.74511C6.36038 9.80207 6.71805 9.87803 6.71805 9.87803C6.71805 9.87803 6.73688 9.65017 6.73688 9.66916C6.73688 9.68814 6.79335 9.97297 6.81218 9.97297C6.90631 10.0679 7.07573 10.1818 7.16986 10.1629C7.03808 9.93499 6.81218 8.73872 6.88748 8.4539Z" fill="#263238"/>
<path d="M8.63821 7.82727C8.63821 7.82727 8.63821 7.84626 8.65704 7.88424C8.67586 7.92221 8.67586 7.96019 8.69469 8.01715C8.71351 8.13109 8.75116 8.30198 8.76999 8.47288C8.78881 8.66276 8.76999 8.81467 8.76999 8.9286C8.76999 8.98556 8.75116 9.04253 8.75116 9.06152C8.75116 9.0995 8.75116 9.11848 8.73234 9.11848C8.73234 9.11848 8.73234 9.04253 8.75116 8.9286C8.75116 8.81467 8.75116 8.64377 8.75116 8.47288C8.73234 8.30198 8.71351 8.13109 8.69469 8.01715C8.65704 7.90322 8.63821 7.82727 8.63821 7.82727Z" fill="#263238"/>
<path d="M5.73914 8.26401C5.73914 8.26401 5.73914 8.283 5.75796 8.33996C5.75796 8.39693 5.77679 8.47288 5.79561 8.54883C5.83326 8.73872 5.87091 8.96658 5.90856 9.23242C5.94621 9.49826 6.00269 9.74511 6.02151 9.916C6.04034 9.99195 6.04034 10.0679 6.05916 10.1249C6.04034 10.0679 6.04034 10.0109 6.02151 9.916C5.98386 9.74511 5.94621 9.49826 5.88974 9.23242C5.85209 8.96658 5.81444 8.71973 5.79561 8.54883C5.77679 8.45389 5.77679 8.39693 5.77679 8.33996C5.73914 8.30198 5.73914 8.26401 5.73914 8.26401Z" fill="#263238"/>
<path d="M7.62167 10.5996C7.62167 10.5996 7.5652 10.6186 7.4899 10.6376C7.39577 10.6565 7.28282 10.6755 7.15104 10.6945C7.01927 10.7135 6.88749 10.7135 6.81219 10.7325C6.71807 10.7325 6.66159 10.7325 6.66159 10.7325C6.66159 10.7325 6.71807 10.7135 6.81219 10.7135C6.90632 10.6945 7.01927 10.6945 7.15104 10.6755C7.28282 10.6565 7.39577 10.6376 7.4899 10.6376C7.5652 10.5996 7.62167 10.5996 7.62167 10.5996Z" fill="#263238"/>
<path d="M7.49774 10.8422C7.84354 10.6978 8.12065 10.5728 8.11667 10.5631C8.1127 10.5535 7.82914 10.6627 7.48334 10.8071C7.13754 10.9515 6.86043 11.0764 6.86441 11.0861C6.86839 11.0958 7.15194 10.9866 7.49774 10.8422Z" fill="#263238"/>
</g>
</svg>
