<svg width="38" height="47" viewBox="0 0 38 47" fill="none" xmlns="http://www.w3.org/2000/svg">
<mask id="mask0_46_29253" style="mask-type:luminance" maskUnits="userSpaceOnUse" x="2" y="0" width="35" height="35">
<path d="M19.8046 34.506C29.0998 34.506 36.6351 26.7982 36.6351 17.2901C36.6351 7.78207 29.0998 0.0742493 19.8046 0.0742493C10.5093 0.0742493 2.974 7.78207 2.974 17.2901C2.974 26.7982 10.5093 34.506 19.8046 34.506Z" fill="white"/>
</mask>
<g mask="url(#mask0_46_29253)">
<path d="M20.3872 16.5068C20.3872 16.5068 22.3516 16.2855 23.467 18.0564C24.5824 19.8274 27.2293 23.9994 27.2293 23.9994L32.44 22.8755L33.5553 25.0722C33.5553 25.0722 30.126 27.32 28.2282 28.1714C26.3137 29.0399 24.5657 27.303 24.5657 27.303L22.1019 24.0335L20.3872 16.5068Z" fill="#F5F5F5"/>
<path d="M8.18463 23.165C8.18463 23.165 9.86602 22.8585 10.8316 24.3911C11.7971 25.9236 14.544 29.738 14.544 29.738L17.99 27.4222L19.4549 29.1931C19.4549 29.1931 17.3074 32.5478 15.6593 33.297C14.0112 34.0463 11.8637 32.1902 11.8637 32.1902L9.66625 29.5848L8.18463 23.165Z" fill="#EE3765"/>
<path d="M18.1565 27.303C18.1565 27.303 18.2397 26.3664 18.3396 26.111C18.4395 25.8555 18.889 25.1063 18.9222 24.7146C18.9222 24.7146 19.2053 24.6124 19.2385 24.953C19.2718 25.2936 19.172 25.7874 19.0721 25.9918C18.9722 26.1961 19.1387 26.2642 19.2885 26.1791C19.4383 26.111 20.304 25.4128 20.304 25.4128C20.304 25.4128 21.1697 24.4762 21.3361 24.4762C21.5026 24.4932 21.5858 24.6806 21.5359 24.7998C21.5026 24.8679 20.8367 25.7534 20.8367 25.7534L20.4205 26.128C20.4205 26.128 21.8189 25.0382 22.002 25.0722C22.1851 25.1063 22.2018 25.2425 22.1851 25.3447C22.1685 25.4468 21.5359 25.9236 21.5359 25.9236L20.7368 26.6218L22.4182 25.5831C22.4182 25.5831 22.5847 25.4979 22.6679 25.6342C22.7512 25.7704 22.618 25.9747 22.618 25.9747L20.9865 27.2178C20.9865 27.2178 21.9188 26.5707 22.0187 26.6218C22.1352 26.6729 22.1685 26.7751 22.1186 26.8432C22.002 26.9964 21.1863 27.6095 21.1863 27.6095L19.5715 28.6823L18.8224 29.2612L17.7236 27.6606L18.1565 27.303Z" fill="#FBBF9E"/>
<path d="M14.7604 11.6707C14.4441 10.9385 14.1278 10.1892 13.9446 9.4059C13.7615 8.62259 13.6949 7.78819 13.8947 7.00487C13.928 6.88567 14.211 6.08533 14.3275 6.08533C14.4108 6.08533 14.2609 6.81756 14.3109 6.88567C14.7937 7.56681 14.9934 8.41824 14.9934 9.25264C15.0267 10.087 14.9268 10.8533 14.7604 11.6707Z" fill="#263238"/>
<path d="M19.6047 15.6894C19.5548 15.1275 19.5215 14.6677 19.5215 14.6677C19.5215 14.6677 21.4027 14.2761 21.3527 12.3348C21.3194 11.3982 21.103 9.47401 20.8866 7.72006C20.6535 5.84692 19.0554 4.46761 17.2075 4.55275L17.0244 4.56978C15.06 4.77412 14.1277 6.61321 14.3775 8.62258L15.0766 15.6894L16.5749 17.188C17.7735 18.3629 19.7712 17.3753 19.6047 15.6894Z" fill="#AE7462"/>
<path d="M19.5215 14.6677C19.5215 14.6677 18.3229 14.804 17.0078 14.0377C17.0078 14.0377 17.6736 15.417 19.5548 15.1616L19.5215 14.6677Z" fill="#6F453A"/>
<path d="M14.6105 10.036C14.5772 10.0189 13.2787 9.69539 13.3953 11.0236C13.4952 12.3518 14.777 11.9772 14.777 11.9432C14.7604 11.9091 14.6105 10.036 14.6105 10.036Z" fill="#AE7462"/>
<path d="M14.3275 11.4664C14.3275 11.4664 14.3109 11.4834 14.2776 11.5004C14.2443 11.5174 14.1777 11.5345 14.1111 11.5174C13.9779 11.4834 13.8447 11.262 13.8114 11.0236C13.7948 10.9044 13.8114 10.7852 13.8447 10.683C13.878 10.5809 13.928 10.5128 13.9946 10.4957C14.0612 10.4787 14.1111 10.5128 14.1278 10.5468C14.1444 10.5809 14.1444 10.6149 14.1444 10.6149C14.1444 10.6149 14.1777 10.5979 14.161 10.5298C14.161 10.4957 14.1444 10.4787 14.1111 10.4446C14.0778 10.4276 14.0279 10.4106 13.9779 10.4276C13.878 10.4446 13.7948 10.5468 13.7615 10.649C13.7116 10.7512 13.6949 10.8874 13.7116 11.0236C13.7449 11.2961 13.8947 11.5345 14.0778 11.5685C14.1777 11.5856 14.2443 11.5515 14.2776 11.5174C14.3275 11.5004 14.3275 11.4834 14.3275 11.4664Z" fill="#6F453A"/>
<path d="M19.8545 5.5915C20.0543 5.45528 19.3717 4.80819 18.8224 4.62087C18.0066 4.33139 16.808 4.21219 16.1088 4.48465C15.2598 4.80819 14.5773 5.31905 14.211 6.15345C13.8448 7.00488 13.7615 7.95848 13.8614 8.86099C13.8947 9.13345 13.9447 9.42294 14.1111 9.66134C14.3109 9.93379 14.6771 10.0871 14.6938 10.4957C14.6938 10.649 14.7604 10.7852 14.8603 10.8874C15.1266 11.1258 15.393 10.8533 15.5095 10.5979C15.7426 10.053 15.7259 9.42294 15.7093 8.82694C15.6926 8.40122 15.676 7.97551 15.5262 7.56682C15.4429 7.34545 15.3264 7.15813 15.2598 6.93676C15.1932 6.71539 15.1766 6.45996 15.2931 6.27265C15.3097 6.23859 15.343 6.20453 15.393 6.15345C15.7259 5.79585 16.242 5.64259 16.7081 5.77882C17.4573 5.98316 18.7391 6.25562 19.0388 5.98316C19.4716 5.57448 19.5715 5.33607 19.5715 5.33607L19.8545 5.5915Z" fill="#263238"/>
<path d="M22.3516 19.7763L21.6524 16.3706L19.7879 16.1492L19.5715 15.1446L18.5893 16.0982L14.7271 14.2761L14.3775 15.7406L10.9814 17.2731L10.8649 26.741L10.8482 30.6746L10.4154 34.6763C10.3654 35.1872 10.3987 35.5278 10.5652 36.0046L20.3373 36.1749C21.2529 36.1238 21.9188 36.0216 22.3682 35.9365C22.851 35.8513 23.2006 35.4597 23.2173 34.9829C23.3837 31.8326 23.4004 22.3817 23.4004 22.3817L22.3516 19.7763Z" fill="#F5F5F5"/>
<path d="M20.5537 35.8172C20.5537 35.8172 20.5537 35.8002 20.5537 35.7662C20.5537 35.7321 20.5537 35.681 20.5537 35.6299C20.5537 35.4937 20.5537 35.3234 20.5703 35.085C20.5703 34.6082 20.587 33.9271 20.6036 33.0927C20.6203 31.4068 20.6203 29.0739 20.5204 26.5196C20.4704 25.2425 20.3872 24.0164 20.2374 22.9096C20.0875 21.8027 19.8711 20.8321 19.6714 19.9977C19.4716 19.1803 19.3051 18.5162 19.1719 18.0735C19.1053 17.8521 19.0554 17.6818 19.0221 17.5456C19.0055 17.4945 18.9888 17.4434 18.9888 17.4093C18.9722 17.3753 18.9722 17.3583 18.9722 17.3583C18.9722 17.3583 18.9722 17.3753 18.9722 17.4093C18.9722 17.4434 18.9888 17.4945 19.0055 17.5456C19.0388 17.6818 19.0721 17.8521 19.1386 18.0735C19.2552 18.5332 19.405 19.1973 19.6048 20.0147C19.7879 20.8321 19.9877 21.8198 20.1375 22.9096C20.2873 24.0164 20.3539 25.2255 20.4038 26.5196C20.5037 29.091 20.5037 31.4068 20.5037 33.0927C20.5037 33.9271 20.5037 34.6082 20.5037 35.085C20.5037 35.3064 20.5037 35.4937 20.5037 35.6299C20.5037 35.681 20.5037 35.7321 20.5037 35.7662C20.537 35.8002 20.5537 35.8172 20.5537 35.8172Z" fill="#263238"/>
<path d="M17.6404 21.4281C17.6404 21.4281 17.5738 21.4281 17.424 21.4451C17.2575 21.4622 17.0411 21.4792 16.7747 21.5132C16.192 21.5643 15.3763 21.6495 14.3941 21.7516H14.3442V21.8027C14.4607 22.9096 14.5939 24.2548 14.7437 25.6852V25.7193L14.7604 25.7363C14.8769 25.8215 14.9934 25.8896 15.1266 25.9747C15.343 26.111 15.5761 26.2472 15.8092 26.3494C16.0422 26.4515 16.2753 26.5537 16.5416 26.5707C16.808 26.5707 17.0411 26.4856 17.2575 26.3834C17.4739 26.2642 17.657 26.128 17.8235 25.9747C17.9067 25.8896 17.99 25.8215 18.0732 25.7363C18.1065 25.7023 18.1564 25.6512 18.1897 25.6001C18.223 25.549 18.2397 25.4979 18.2563 25.4298C18.3063 25.2084 18.3063 24.9871 18.2896 24.7827C18.273 24.374 18.2064 23.9994 18.1564 23.6418C18.0399 22.9607 17.9067 22.4158 17.8068 22.0241C17.7569 21.8368 17.7236 21.6835 17.6903 21.5984C17.657 21.4792 17.6404 21.4281 17.6404 21.4281C17.6404 21.4281 17.6404 21.4792 17.6737 21.5814C17.6903 21.6835 17.7236 21.8368 17.7736 22.0241C17.8568 22.3987 17.9733 22.9607 18.0899 23.6418C18.1398 23.9824 18.1897 24.357 18.2064 24.7657C18.2064 24.97 18.2064 25.1744 18.1564 25.3787C18.1231 25.4809 18.0899 25.566 18.0066 25.6342C17.9234 25.7193 17.8401 25.7874 17.7569 25.8555C17.5904 26.0088 17.4073 26.145 17.2075 26.2472C17.0078 26.3494 16.7747 26.4345 16.5416 26.4175C16.3086 26.4175 16.0755 26.3153 15.8591 26.2131C15.626 26.111 15.4096 25.9747 15.1932 25.8385C15.0767 25.7534 14.9435 25.6852 14.8436 25.6001L14.8602 25.6342C14.7104 24.2038 14.5606 22.8585 14.4441 21.7516L14.4108 21.8027C15.3763 21.6835 16.1754 21.5984 16.7581 21.5132C17.0411 21.4792 17.2575 21.4451 17.424 21.4281C17.4905 21.4111 17.5571 21.4111 17.6071 21.4111C17.6237 21.4281 17.6404 21.4281 17.6404 21.4281Z" fill="#263238"/>
<path d="M16.2753 15.0594C15.1433 14.4804 14.7104 14.3783 14.7104 14.3783L14.4108 15.9279L18.6226 17.9372V16.1322C18.6226 16.1322 17.374 15.6214 16.2753 15.0594Z" fill="#F5F5F5"/>
<path d="M16.163 22.6536C17.1137 22.5489 17.8819 22.4412 17.879 22.4131C17.876 22.3851 17.103 22.4473 16.1523 22.552C15.2017 22.6568 14.4334 22.7644 14.4364 22.7925C14.4393 22.8205 15.2124 22.7584 16.163 22.6536Z" fill="#263238"/>
<g opacity="0.3">
<path d="M18.1398 25.549C17.9567 25.8726 17.8069 26.2983 17.5572 26.5707C17.3074 26.8432 16.9911 27.0475 16.6249 27.0816C16.3086 27.1156 15.9923 26.9964 15.7259 26.8432C15.2931 26.5878 15.0101 26.145 14.7937 25.6682C14.7604 25.6342 15.4263 26.0599 15.7759 26.2302C16.1255 26.4175 16.3752 26.4686 16.7747 26.4175C17.3074 26.3664 17.7569 25.9236 18.1398 25.549Z" fill="black"/>
</g>
<g opacity="0.3">
<path d="M18.6226 16.3195L18.9722 18.5162L14.827 16.0641L18.6226 17.9372V16.3195Z" fill="black"/>
</g>
<path d="M19.405 18.4311C19.405 18.4311 20.5204 22.5349 21.0531 27.5924C21.2695 29.738 21.4693 32.5818 21.4693 32.5818L20.5703 33.7908L19.0887 32.5307C19.0887 32.5307 18.9722 26.4856 18.839 24.4592C18.7225 22.7904 18.8556 18.5332 18.8556 18.5332L19.405 18.4311Z" fill="#EE3765"/>
<path d="M18.6392 16.9836L18.9722 16.7623L19.3717 17.4264L19.405 18.4311L18.8723 18.5332L18.6392 17.9543V16.9836Z" fill="#EE3765"/>
<path d="M18.5893 16.1152C18.5893 16.1152 18.6725 16.2514 18.8057 16.4728C18.9389 16.6941 19.122 17.0007 19.3051 17.3583C19.3218 17.3923 19.3384 17.4093 19.3384 17.4434L19.3717 17.4945L19.3884 17.4434C19.5382 17.1028 19.6381 16.7793 19.7047 16.5409C19.738 16.4217 19.7546 16.3365 19.7713 16.2684C19.7879 16.2003 19.7879 16.1663 19.7879 16.1663C19.7879 16.1663 19.738 16.3025 19.6714 16.5409C19.6048 16.7623 19.4883 17.0858 19.3384 17.4264H19.3884C19.3717 17.3923 19.3551 17.3753 19.3384 17.3412C19.1553 16.9836 18.9722 16.6771 18.8224 16.4557C18.7558 16.3536 18.6892 16.2684 18.6392 16.2003C18.6059 16.1322 18.5893 16.1152 18.5893 16.1152Z" fill="#263238"/>
<path d="M14.3775 15.8427C14.3775 15.8427 14.3941 15.8597 14.4274 15.8768C14.4774 15.8938 14.5273 15.9279 14.5939 15.9619C14.7437 16.03 14.9602 16.1492 15.2099 16.2684C15.7426 16.5239 16.4584 16.8985 17.2575 17.3072C17.7403 17.5456 18.2064 17.784 18.606 17.9713L18.6392 17.9883V17.9543C18.6226 17.4264 18.6226 16.9836 18.6226 16.6771C18.6226 16.5239 18.6226 16.4047 18.606 16.3195C18.606 16.2344 18.606 16.1833 18.5893 16.1833C18.5893 16.1833 18.5893 16.2344 18.5893 16.3195C18.5893 16.4047 18.5893 16.5239 18.5893 16.6771C18.5893 17.0007 18.5893 17.4434 18.5893 17.9543L18.6226 17.9372C18.2231 17.7499 17.7736 17.5115 17.2742 17.2731C16.4751 16.8644 15.7592 16.5068 15.2265 16.2514C14.9602 16.1322 14.7437 16.03 14.5939 15.9619C14.5273 15.9279 14.4607 15.9108 14.4274 15.8938C14.3941 15.8597 14.3775 15.8427 14.3775 15.8427Z" fill="#263238"/>
<path d="M19.1748 18.5467C19.2816 18.4732 19.3598 18.4009 19.3495 18.3853C19.3393 18.3697 19.2444 18.4167 19.1376 18.4902C19.0309 18.5638 18.9527 18.6361 18.9629 18.6517C18.9732 18.6673 19.0681 18.6203 19.1748 18.5467Z" fill="#263238"/>
<path d="M19.1176 17.8247C19.2314 17.537 19.3098 17.298 19.2927 17.291C19.2757 17.2839 19.1696 17.5114 19.0559 17.7991C18.9421 18.0868 18.8637 18.3258 18.8807 18.3328C18.8978 18.3399 19.0038 18.1124 19.1176 17.8247Z" fill="#263238"/>
<path d="M23.4836 19.1122C23.4836 19.1122 23.4836 19.1463 23.5003 19.2144C23.5003 19.2825 23.5003 19.3847 23.5169 19.4868C23.5336 19.7252 23.5336 20.0828 23.5336 20.5086C23.5502 21.377 23.5336 22.569 23.4836 23.8972C23.4503 25.2255 23.417 26.4175 23.417 27.2859C23.417 27.7116 23.417 28.0522 23.417 28.3076C23.417 28.4268 23.417 28.512 23.417 28.5801C23.417 28.6482 23.417 28.6823 23.417 28.6823C23.417 28.6823 23.417 28.6482 23.4004 28.5801C23.4004 28.512 23.4004 28.4098 23.3837 28.3076C23.3671 28.0692 23.3671 27.7116 23.3671 27.2859C23.3504 26.4175 23.3671 25.2255 23.417 23.8972C23.4503 22.569 23.4836 21.377 23.4836 20.5086C23.4836 20.0828 23.4836 19.7423 23.4836 19.4868C23.4836 19.3676 23.4836 19.2825 23.4836 19.2144C23.467 19.1463 23.4836 19.1122 23.4836 19.1122Z" fill="#263238"/>
<path d="M13.7948 8.5715L15.7093 8.26499C15.7093 8.26499 15.6593 7.90739 15.6094 7.77116C15.5595 7.63493 13.7615 8.00956 13.7615 8.00956C13.7615 8.00956 13.7948 8.50339 13.7948 8.5715Z" fill="#F5F5F5"/>
<path d="M10.9387 24.583C10.9657 24.5773 10.7972 23.6243 10.5622 22.4544C10.3273 21.2845 10.1149 20.3407 10.0879 20.3464C10.0609 20.3521 10.2295 21.3051 10.4644 22.475C10.6993 23.6449 10.9117 24.5887 10.9387 24.583Z" fill="#263238"/>
<path d="M5.22138 23.744L4.15594 24.2378C4.15594 24.2378 5.0882 18.2438 5.32127 16.7452C5.68751 14.3272 6.68636 11.5685 10.0658 11.858C10.0658 11.858 12.6128 12.0624 13.3453 13.9526C13.7449 14.9743 13.7615 17.7159 13.8448 20.8662L13.9113 21.4111C14.211 22.7734 14.2609 23.744 14.6438 25.0892C15.1433 26.8432 15.1433 30.2319 14.8103 32.2412L11.9802 32.5307L5.22138 23.744Z" fill="#263238"/>
<path d="M10.482 12.6584L10.2656 12.437L7.90162 13.3736C7.56868 13.3906 7.28567 13.6631 7.26902 14.0207L7.20243 21.8538C7.18578 22.3817 7.28567 22.8415 7.60197 23.2672L7.93492 23.7099C8.68405 24.7316 10.2323 24.6635 10.8316 23.5567C10.8815 23.4715 10.8982 23.4034 10.9148 23.3523C10.9315 23.2842 10.9481 23.2331 10.9481 23.182C11.0313 22.552 11.0313 22.0071 11.0313 22.0071C11.0813 21.3089 11.0979 21.0364 11.0979 21.0364C11.0979 21.0364 12.5463 20.8832 12.9458 18.993C13.1456 18.0564 13.1289 16.7623 13.079 15.4851C13.0623 13.7482 11.8804 12.6754 10.482 12.6584Z" fill="#FBBF9E"/>
<path d="M11.1312 21.0705C11.1312 21.0705 9.86599 21.0705 8.68402 20.2361C8.68402 20.2361 9.23339 21.5984 11.1145 21.5303L11.1312 21.0705Z" fill="#F7996E"/>
<path d="M7.30231 17.3923C7.30231 17.3923 8.61746 17.818 9.39989 14.5145C9.66624 13.3736 10.6984 12.4711 10.6984 12.4711L10.2822 12.3348C10.2822 12.3348 7.66855 13.05 7.63526 13.0841C7.58532 13.1182 6.96936 14.4464 6.96936 14.4464L7.30231 17.3923Z" fill="#263238"/>
<path d="M5.48773 33.2459C5.48773 33.2459 3.60657 37.9118 3.42345 39.4784C3.24033 41.045 3.00726 44.0931 3.00726 44.0931L15.0101 44.3997C15.0101 44.3997 15.5594 42.0667 15.0101 37.6223C14.7437 35.4767 13.928 33.876 13.7948 33.5184C13.6783 33.1608 14.5606 26.9283 14.5606 26.9283L14.4607 23.0969L13.079 22.2625H11.1146C10.0325 23.6418 8.65074 22.9607 7.21906 22.2114C6.6697 21.9219 4.55547 23.5056 4.55547 23.5056C4.55547 23.5056 4.52218 26.8262 4.85513 29.0229C5.15478 31.1003 5.48773 33.2459 5.48773 33.2459Z" fill="#EE3765"/>
<path d="M5.40451 22.9947C5.40451 22.9947 3.04057 23.7781 2.72427 25.2085C2.40797 26.6389 1.94184 31.0493 1.84196 31.6453C1.74207 32.2413 1.30924 33.2119 1.02623 35.0169C0.709932 37.1114 0.410278 39.9893 0.410278 39.9893L2.27479 40.1255C2.27479 40.1255 3.29028 37.6223 3.823 35.6981C4.33907 33.8079 4.60543 33.1097 4.85514 32.088C5.23804 30.5725 5.25468 29.2613 5.25468 29.2613L5.40451 22.9947Z" fill="#EE3765"/>
<path d="M14.1444 22.6542C14.1444 22.6542 16.5083 23.4375 16.8246 24.8679C17.1409 26.2983 17.6071 30.7087 17.707 31.3047C17.8068 31.9007 18.2397 32.8713 18.5227 34.6763C18.839 36.7538 19.1386 39.6317 19.1386 39.6317L17.2741 39.7679C17.2741 39.7679 16.2586 37.2647 15.7259 35.3405C15.2098 33.4503 14.9435 32.7521 14.6938 31.7304C14.3109 30.2148 14.2942 28.9036 14.2942 28.9036L14.1444 22.6542Z" fill="#EE3765"/>
<path d="M8.18465 26.6559C8.43436 25.7023 8.81726 24.7487 8.80061 23.761C8.78396 22.8074 8.40107 21.9219 8.10142 21.0194C7.80176 20.1169 7.60199 19.1122 7.93494 18.2267C8.11806 17.7499 8.43436 17.3412 8.68408 16.8815C8.93379 16.4217 10.7317 12.9308 10.5652 12.437L5.80407 14.6507C5.2547 17.7329 4.9717 22.7734 5.20476 25.532C5.27135 26.3834 5.90395 30.3341 6.32014 31.0663C6.45332 31.2877 7.63529 31.5431 7.63529 31.5431C7.63529 31.5431 7.71853 30.7598 7.71853 30.8109C7.73517 30.8619 7.91829 31.8155 7.96824 31.8666C8.30119 32.1561 8.81726 32.5478 9.1835 32.4797C8.65078 31.6623 7.93494 27.6095 8.18465 26.6559Z" fill="#263238"/>
<path d="M14.0113 24.5443C14.0113 24.5443 14.0445 24.5954 14.0778 24.7146C14.1111 24.8168 14.1611 24.97 14.1944 25.1744C14.2943 25.566 14.3775 26.111 14.4274 26.707C14.4774 27.32 14.4607 27.8649 14.4108 28.2736C14.3941 28.4779 14.3775 28.6312 14.3609 28.7504C14.3442 28.8526 14.3276 28.9207 14.3276 28.9207C14.3109 28.9207 14.3442 28.6823 14.3609 28.2736C14.3775 27.8819 14.3941 27.337 14.3442 26.724C14.2943 26.128 14.211 25.5831 14.1278 25.1914C14.0612 24.7827 13.9946 24.5443 14.0113 24.5443Z" fill="#263238"/>
<path d="M4.33908 26.0088C4.33908 26.0088 4.35573 26.0939 4.38903 26.2642C4.42232 26.4515 4.45562 26.6899 4.48891 26.9624C4.5888 27.5754 4.70533 28.3928 4.85516 29.2953C5.00498 30.1978 5.13816 31.0152 5.23805 31.6112C5.28799 31.9007 5.32128 32.1391 5.35458 32.3094C5.38787 32.4797 5.40452 32.5648 5.38787 32.5648C5.38787 32.5648 5.35458 32.4797 5.32128 32.3094C5.28799 32.1391 5.2214 31.9007 5.17146 31.6112C5.05492 31.0152 4.9051 30.1978 4.75527 29.2953C4.60544 28.3928 4.48891 27.5584 4.42232 26.9624C4.38903 26.6559 4.35573 26.4175 4.33908 26.2472C4.32244 26.111 4.32244 26.0088 4.33908 26.0088Z" fill="#263238"/>
<path d="M10.6151 33.91C10.6151 33.9271 10.432 33.9611 10.149 34.0122C9.86601 34.0633 9.44983 34.1314 9.00035 34.1825C8.55086 34.2336 8.15133 34.2676 7.85167 34.3017C7.55202 34.3187 7.3689 34.3187 7.3689 34.3187C7.3689 34.3017 7.55202 34.2847 7.83502 34.2506C8.15133 34.2166 8.55086 34.1655 8.9837 34.1144C9.41653 34.0633 9.79942 34.0122 10.1324 33.9611C10.432 33.91 10.6151 33.893 10.6151 33.91Z" fill="#263238"/>
<path d="M10.169 34.6901C11.3073 34.2081 12.2215 33.7962 12.2109 33.7701C12.2004 33.7441 11.2691 34.1137 10.1308 34.5957C8.99256 35.0778 8.07838 35.4897 8.08893 35.5157C8.09948 35.5418 9.03077 35.1722 10.169 34.6901Z" fill="#263238"/>
<path d="M24.882 22.1092C24.9986 22.0411 26.7632 21.36 26.7632 21.36L30.4756 21.2237L32.1237 21.5813L30.5089 24.3229L28.0783 24.5273L25.9641 23.6248L25.1151 22.6031L24.882 22.1092Z" fill="#AE7462"/>
<path d="M28.0284 9.23563C28.0617 8.80992 28.5112 8.45232 28.9274 8.53746C29.1604 8.06066 29.8097 7.85632 30.2758 8.11174C30.4922 8.23094 30.6587 8.43529 30.8751 8.57152C31.0749 8.69072 31.3246 8.75883 31.5244 8.861C31.7408 8.96317 31.9405 9.15049 31.9738 9.38889C32.0071 9.66135 31.7907 9.89975 31.541 10.0019C31.2913 10.1041 31.0249 10.0871 30.7586 10.07C30.8751 10.1381 30.8917 10.3084 30.8418 10.4276C30.7752 10.5468 30.6587 10.632 30.5422 10.6831C30.126 10.8533 29.6265 10.7512 29.3102 10.4447L28.8108 10.053C28.378 10.0871 27.9951 9.66135 28.0284 9.23563Z" fill="#263238"/>
<path d="M29.277 10.9215C29.3602 11.0066 29.5267 11.0066 29.6266 10.9215C29.7265 10.8363 29.7431 10.6831 29.7098 10.5639C29.6765 10.4447 29.5766 10.3425 29.4767 10.2574C29.3769 10.1892 29.2437 10.1382 29.1271 10.1041C28.944 10.053 28.7443 10.0019 28.5445 9.98489C28.4779 9.98489 28.3947 9.98489 28.3281 10.019C28.2615 10.053 28.2115 10.1041 28.1949 10.1722C28.1949 10.2744 28.2781 10.3595 28.3447 10.4106C28.6444 10.632 28.9607 10.8363 29.2936 11.0066" fill="#EE3765"/>
<path d="M29.56 10.8704C30.0261 10.3254 31.1914 10.4106 31.4744 10.7512C31.8739 10.5298 32.44 10.7171 32.6397 11.1428C33.0559 11.228 33.4721 11.3301 33.8883 11.4153C34.1047 11.4664 34.3211 11.5174 34.4876 11.6537C34.6541 11.8069 34.7373 12.0794 34.6041 12.2497C35.037 12.3689 35.2201 13.033 34.9038 13.3565C35.0869 13.5438 35.0536 13.9014 34.8372 14.0547C35.1868 14.4804 35.4531 14.9572 35.6529 15.4681C35.7362 15.6894 35.8027 15.9278 35.7195 16.1322C35.6363 16.3536 35.3699 16.4898 35.1868 16.3706C35.32 16.5409 35.32 16.7963 35.2201 16.9836C35.4365 16.9836 35.5031 17.3242 35.3533 17.4774C35.2034 17.6307 34.9704 17.6477 34.7706 17.6477C34.5542 17.6477 34.3378 17.6307 34.1546 17.7669C34.1546 17.835 34.1879 17.8691 34.2212 17.9032C34.5875 18.1926 34.6874 18.7205 34.421 19.1122C34.4044 19.1462 34.3711 19.1803 34.3544 19.2144C34.2379 19.3846 33.9382 19.5549 33.7385 19.6571C33.2723 19.9125 32.9727 19.8614 32.4566 19.9466C32.6064 20.3042 31.7408 21.0705 30.7586 20.3212C28.7942 20.8832 27.3791 21.0875 25.3315 21.1045C25.0485 21.1045 24.6823 21.0705 24.5657 20.798C24.3327 20.8661 24.0829 20.7469 23.8998 20.5766C23.7167 20.4064 23.6168 20.168 23.5003 19.9466C23.0009 19.8104 22.6013 19.3165 22.5847 18.7886C22.2351 18.5162 22.0187 18.0905 21.9854 17.6477C21.5026 17.4945 21.2196 16.8474 21.4527 16.3876C21.5525 15.7746 21.7523 15.1786 22.052 14.6337C21.719 14.5656 21.5858 14.1058 21.719 13.7822C21.8522 13.4587 22.1518 13.2544 22.4349 13.067C22.1851 13.1352 21.9687 12.8116 22.0187 12.5562C22.0686 12.3008 22.3017 12.1134 22.5181 11.9772C22.8344 11.7729 23.184 11.6196 23.5502 11.5004C23.6668 11.0577 24.2161 10.5298 24.6323 10.3254C26.2804 9.50807 27.4291 9.30372 29.56 10.8704Z" fill="#263238"/>
<path d="M29.9595 12.7265L27.0462 11.7388C25.9142 11.5685 25.0818 12.9649 24.9653 14.1399C24.8321 15.434 24.7155 17.0347 24.8154 18.0053C25.0318 19.9807 26.7299 20.5085 26.7299 20.5085L26.6799 21.7005C26.8298 22.6201 27.7787 22.6371 27.7787 22.6371C30.3923 22.7052 30.5588 21.1897 30.5588 21.1897L30.5421 13.7993C30.5754 13.4417 30.3091 12.7776 29.9595 12.7265Z" fill="#AE7462"/>
<path d="M26.7299 20.5085C26.7299 20.5085 27.762 20.4404 29.0772 19.7252C29.0772 19.7252 28.6277 20.9513 26.7133 21.1046L26.7299 20.5085Z" fill="#6F453A"/>
<path d="M25.3981 14.0547C25.448 14.1228 25.6312 14.0547 25.8476 14.0717C26.064 14.0717 26.2471 14.1399 26.2971 14.0717C26.3137 14.0377 26.2971 13.9866 26.2138 13.9185C26.1306 13.8504 25.9974 13.7993 25.8476 13.7993C25.6978 13.7993 25.5646 13.8504 25.4813 13.9015C25.4147 13.9696 25.3815 14.0207 25.3981 14.0547Z" fill="#263238"/>
<path d="M24.0996 15.0764C24.1162 14.7699 24.2161 14.4634 24.4159 14.242C24.5324 14.1228 24.6656 14.0207 24.7655 13.8844C24.9819 13.5949 24.9486 13.1863 25.0485 12.8457C25.165 12.3859 25.5146 12.0113 25.9475 11.858C26.3137 11.7218 26.7132 11.7388 27.0462 11.5685C27.2959 11.4323 27.479 11.1939 27.7454 11.0747C28.2448 10.8363 28.8275 11.1088 29.2936 11.3983C29.3935 11.7729 29.1438 12.1135 28.9274 12.437C28.6943 12.7605 28.328 12.9649 27.9452 12.9819C27.6455 12.9989 27.2959 12.9308 27.0961 13.1522C26.8797 13.3736 26.963 13.7823 26.7798 14.0547C26.5135 14.4293 25.9308 14.2931 25.5479 14.5145C25.2483 14.7018 25.1151 15.0594 24.9653 15.3829C24.8154 15.7065 24.5491 16.03 24.1995 16.013C24.1329 15.6895 24.083 15.3829 24.0996 15.0764Z" fill="#263238"/>
<path d="M28.5444 12.0794C29.4101 12.0624 30.2924 12.2326 31.1081 12.5562C31.3578 12.6584 31.6076 12.7776 31.7407 12.9989C31.8573 13.2033 31.8739 13.4417 31.8739 13.6801C31.8573 14.4123 31.5743 15.3148 31.3079 15.9789L30.4089 16.5238C29.7264 16.3536 30.0427 15.1445 30.076 14.5315C29.5932 14.3101 29.2603 13.7993 29.2603 13.2544C28.8441 13.016 28.5777 12.5562 28.5444 12.0794Z" fill="#263238"/>
<path d="M30.409 16.2684C30.4423 15.8427 30.9417 15.7746 31.2913 15.9789C31.4911 16.0981 31.6243 16.3365 31.6076 16.7793C31.541 17.9713 30.3923 17.6477 30.3923 17.6137C30.3923 17.5967 30.3757 16.7623 30.409 16.2684Z" fill="#AE7462"/>
<path d="M30.7752 17.188C30.7752 17.188 30.7919 17.205 30.8252 17.222C30.8584 17.2391 30.9084 17.2561 30.975 17.2391C31.1082 17.205 31.208 17.0007 31.2247 16.7963C31.2413 16.6942 31.2247 16.592 31.1914 16.4898C31.1581 16.4047 31.1082 16.3366 31.0416 16.3195C30.975 16.3025 30.9417 16.3366 30.925 16.3706C30.9084 16.4047 30.9084 16.4217 30.9084 16.4217C30.9084 16.4217 30.8917 16.4047 30.8917 16.3536C30.8917 16.3366 30.9084 16.3025 30.9417 16.2855C30.975 16.2684 31.0083 16.2514 31.0582 16.2684C31.1415 16.2855 31.2247 16.3706 31.258 16.4728C31.2913 16.575 31.3246 16.6942 31.3079 16.8134C31.2913 17.0518 31.1581 17.2731 30.9916 17.3072C30.9084 17.3242 30.8418 17.2902 30.8085 17.2731C30.7752 17.222 30.7752 17.188 30.7752 17.188Z" fill="#6F453A"/>
<path d="M30.9084 17.6818C30.9084 17.7159 30.9084 17.7329 30.925 17.7499C30.9417 17.784 30.9916 17.8351 31.0582 17.8691C31.1248 17.9032 31.2247 17.9202 31.3412 17.9372C31.3912 17.9372 31.4578 17.9372 31.5244 17.9202C31.5909 17.9032 31.6575 17.8862 31.7241 17.8521H31.7075C31.7241 18.0054 31.8407 18.1927 32.0071 18.2778C32.1903 18.38 32.4233 18.363 32.6231 18.2267H32.6064C32.6397 18.2778 32.6897 18.3119 32.7563 18.3289C32.8229 18.3459 32.8894 18.3289 32.9394 18.3119C33.006 18.2948 33.0559 18.2438 33.0892 18.1927C33.1225 18.1416 33.1392 18.0735 33.1558 18.0054C33.1558 17.8691 33.1225 17.7159 33.0226 17.6137C32.9394 17.4945 32.8229 17.4094 32.723 17.3072V17.3412C32.8229 17.2902 32.8894 17.171 32.9061 17.0688C32.9227 16.9496 32.9227 16.8304 32.8728 16.7112C32.8229 16.592 32.7563 16.5068 32.673 16.4217C32.5898 16.3366 32.4899 16.2514 32.4067 16.1833V16.2174C32.4899 16.1322 32.5232 15.996 32.5232 15.8768C32.5232 15.7576 32.4733 15.6214 32.39 15.5192C32.2402 15.3319 32.0238 15.2127 31.824 15.1105L31.8407 15.1275C31.9072 14.8721 31.824 14.5826 31.6575 14.3953C31.4911 14.208 31.2413 14.1228 31.0083 14.1399L31.0249 14.1569C31.0749 13.9526 30.9916 13.7312 30.8751 13.5779C30.7419 13.4247 30.5755 13.3225 30.3923 13.3395L30.409 13.3566C30.409 13.1352 30.2924 12.9479 30.1426 12.8457C29.9928 12.7265 29.8097 12.6754 29.6598 12.7095L29.6765 12.7265C29.6765 12.6073 29.6265 12.5051 29.5766 12.42C29.5267 12.3348 29.4601 12.2667 29.3935 12.1986C29.2603 12.0794 29.1105 12.0283 28.9939 12.0283C28.9773 12.0283 28.9606 12.0283 28.944 12.0283C28.9274 12.0283 28.9107 12.0283 28.9107 12.0283C28.8774 12.0283 28.8608 12.0283 28.8441 12.0453C28.7942 12.0624 28.7609 12.0624 28.7276 12.0794C28.6943 12.0964 28.6776 12.0964 28.661 12.1135C28.6443 12.1135 28.6443 12.1305 28.6443 12.1305C28.6443 12.1305 28.6443 12.1305 28.661 12.1305C28.6776 12.1305 28.6943 12.1135 28.7276 12.1135C28.7609 12.0964 28.7942 12.0964 28.8441 12.0794C28.8608 12.0794 28.8941 12.0794 28.9107 12.0794C28.9274 12.0794 28.944 12.0794 28.944 12.0794C28.9606 12.0794 28.9773 12.0794 28.9939 12.0794C29.1105 12.0964 29.2603 12.1305 29.3768 12.2497C29.4434 12.3008 29.4934 12.3859 29.5433 12.4711C29.5933 12.5562 29.6265 12.6584 29.6265 12.7605V12.7776H29.6432C29.793 12.7605 29.9761 12.7946 30.1093 12.9138C30.2425 13.016 30.359 13.2033 30.359 13.4076V13.4247H30.3757C30.5422 13.4247 30.7253 13.5098 30.8418 13.6631C30.9583 13.7993 31.0416 14.0207 30.9916 14.208V14.225H31.0083C31.2247 14.191 31.4744 14.2761 31.6409 14.4634C31.8074 14.6337 31.874 14.9062 31.8074 15.1616V15.1786H31.824C32.0238 15.2808 32.2402 15.383 32.3734 15.5703C32.44 15.6724 32.4899 15.7916 32.4899 15.9108C32.4899 16.03 32.4566 16.1492 32.39 16.2344L32.3734 16.2514L32.39 16.2684C32.5731 16.4217 32.7729 16.575 32.8561 16.7793C32.9061 16.8815 32.9061 17.0007 32.8894 17.1028C32.8728 17.205 32.8062 17.3072 32.723 17.3583L32.7063 17.3753L32.723 17.3923C32.8395 17.4775 32.9394 17.5796 33.0226 17.6818C33.1059 17.784 33.1558 17.9202 33.1392 18.0564C33.1392 18.1927 33.0559 18.3119 32.956 18.3459C32.8395 18.397 32.7063 18.363 32.6564 18.2778V18.2608L32.6397 18.2778C32.4566 18.414 32.2235 18.4311 32.0571 18.3289C31.8906 18.2438 31.7907 18.0735 31.7574 17.9202V17.9032H31.7408C31.6742 17.9372 31.6076 17.9543 31.541 17.9713C31.4744 17.9883 31.4078 17.9883 31.3579 17.9883C31.2413 17.9883 31.1415 17.9713 31.0749 17.9372C31.0083 17.9032 30.9583 17.8521 30.9417 17.818C30.9084 17.7159 30.9084 17.6818 30.9084 17.6818Z" fill="#455B64"/>
<path d="M35.32 16.4217C35.32 16.4217 35.3366 16.4047 35.3699 16.3536C35.3866 16.3025 35.4199 16.2174 35.4365 16.1152C35.4365 16.013 35.4199 15.8768 35.3366 15.7406C35.2534 15.6213 35.1036 15.5022 34.9204 15.4681L34.9371 15.4851C34.9704 15.2978 34.9537 15.0935 34.8372 14.9061C34.7873 14.804 34.704 14.7188 34.6041 14.6677C34.5042 14.5996 34.3877 14.5656 34.2878 14.5145C34.2379 14.4975 34.1879 14.4634 34.138 14.4293C34.0881 14.3953 34.0548 14.3442 34.0381 14.2761C33.9882 14.1569 33.9715 14.0207 33.9049 13.9015C33.7718 13.6631 33.4888 13.4928 33.2057 13.5439L33.2224 13.5609C33.2557 13.2884 33.1725 12.9819 32.9727 12.7776C32.7729 12.5562 32.4733 12.454 32.1902 12.4881L32.2069 12.5051C32.2402 12.1645 32.0571 11.824 31.7741 11.6707C31.4911 11.5175 31.1581 11.5685 30.9417 11.7218H30.9583C30.8418 11.6026 30.692 11.5175 30.5588 11.4664C30.409 11.4153 30.2758 11.3812 30.1426 11.3642C29.8763 11.3301 29.6432 11.3642 29.4601 11.4153C29.2769 11.4664 29.1438 11.5345 29.0439 11.5856C28.9939 11.6196 28.9773 11.6367 28.944 11.6537C28.9274 11.6707 28.9107 11.6877 28.9107 11.6877C28.9107 11.6877 28.9606 11.6537 29.0439 11.6026C29.1271 11.5515 29.2603 11.4834 29.4434 11.4323C29.6265 11.3812 29.8596 11.3642 30.126 11.3983C30.2591 11.4153 30.3923 11.4493 30.5422 11.5004C30.6753 11.5515 30.8252 11.6367 30.9417 11.7559L30.9583 11.7729H30.975C31.1914 11.6196 31.5077 11.5856 31.7741 11.7218C32.0404 11.858 32.2235 12.1816 32.1902 12.5221V12.5392H32.2069C32.4733 12.5051 32.7729 12.6073 32.956 12.8287C33.1392 13.033 33.2224 13.3225 33.1891 13.5779V13.5949H33.2057C33.4721 13.5439 33.7551 13.7141 33.8716 13.9355C33.9382 14.0547 33.9549 14.1909 34.0048 14.3101C34.0381 14.3783 34.0714 14.4293 34.1214 14.4634C34.1713 14.4975 34.2212 14.5315 34.2878 14.5656C34.4044 14.6167 34.5042 14.6507 34.6041 14.7188C34.704 14.7869 34.7706 14.8721 34.8205 14.9572C34.9371 15.1445 34.9537 15.3489 34.9204 15.5192V15.5362H34.9371C35.1202 15.5703 35.27 15.6724 35.3366 15.7916C35.4199 15.9108 35.4365 16.0471 35.4365 16.1492C35.4365 16.2514 35.4032 16.3366 35.3866 16.3876C35.3366 16.4047 35.32 16.4217 35.32 16.4217Z" fill="#455B64"/>
<path d="M24.2328 16.7452C24.2328 16.7452 24.2494 16.7112 24.2328 16.6431C24.2161 16.609 24.1995 16.5749 24.1662 16.5409C24.1329 16.5068 24.0829 16.4898 24.0164 16.4728C23.9664 16.4557 23.8998 16.4387 23.8332 16.3876C23.7666 16.3536 23.7333 16.2855 23.7001 16.2003C23.6668 16.1152 23.6668 16.03 23.6668 15.9279C23.6668 15.8257 23.6834 15.7235 23.6834 15.6213C23.6834 15.4 23.6002 15.1616 23.5336 14.9232C23.5003 14.804 23.5003 14.6677 23.5169 14.5315C23.5336 14.3953 23.6002 14.2761 23.7333 14.1909C23.8499 14.1228 23.9997 14.0888 24.1329 14.0547C24.1995 14.0377 24.2827 14.0036 24.3327 13.9525C24.3992 13.9015 24.4492 13.8333 24.4825 13.7652C24.5491 13.612 24.5657 13.4587 24.599 13.3055C24.6157 13.2203 24.6323 13.1522 24.6823 13.0841C24.7155 13.016 24.7821 12.9649 24.8487 12.9308C24.9486 12.8968 25.0651 12.8968 25.165 12.8797C25.215 12.8797 25.2816 12.8627 25.3315 12.8457C25.3814 12.8287 25.4314 12.7776 25.4647 12.7435C25.5313 12.6413 25.5479 12.5392 25.5812 12.437C25.6145 12.3348 25.6645 12.2497 25.731 12.1645C25.8642 12.0113 26.0473 11.9261 26.2305 11.9261C26.4136 11.9261 26.5967 11.9943 26.7299 12.1135L26.7465 12.1305L26.7632 12.1135C26.913 11.7899 27.1794 11.5856 27.4457 11.5004C27.5789 11.4664 27.7121 11.4493 27.8286 11.4664C27.9451 11.4834 28.0617 11.5175 28.1449 11.5515C28.328 11.6367 28.4279 11.7729 28.4779 11.8751C28.5112 11.9261 28.5278 11.9602 28.5278 11.9943C28.5278 12.0113 28.5445 12.0113 28.5445 12.0283V12.0453C28.5445 12.0453 28.5445 12.0453 28.5445 12.0283C28.5445 12.0283 28.5445 12.0113 28.5278 11.9943C28.5112 11.9602 28.4945 11.9261 28.4779 11.8751C28.4279 11.7729 28.328 11.6367 28.1449 11.5515C28.0617 11.5004 27.9451 11.4664 27.8286 11.4493C27.7121 11.4323 27.5623 11.4493 27.4291 11.4834C27.1627 11.5685 26.8631 11.7729 26.7132 12.0964H26.7299C26.5967 11.9772 26.4136 11.8921 26.2138 11.9091C26.014 11.9091 25.8143 12.0113 25.6811 12.1645C25.6145 12.2497 25.5646 12.3348 25.5313 12.437C25.498 12.5392 25.4813 12.6413 25.4147 12.7265C25.3648 12.8116 25.2483 12.8627 25.1484 12.8627C25.0485 12.8797 24.932 12.8627 24.8154 12.9138C24.7322 12.9479 24.6656 13.016 24.6323 13.0841C24.5824 13.1522 24.5657 13.2373 24.5491 13.3225C24.5158 13.4757 24.4991 13.646 24.4325 13.7823C24.3992 13.8504 24.3493 13.9185 24.2994 13.9525C24.2328 14.0036 24.1662 14.0207 24.0996 14.0547C23.9664 14.1058 23.8166 14.1228 23.6834 14.208C23.6168 14.242 23.5669 14.2931 23.5336 14.3612C23.5003 14.4293 23.467 14.4975 23.467 14.5656C23.4503 14.7018 23.4503 14.838 23.4836 14.9743C23.5502 15.2297 23.6335 15.4511 23.6335 15.6724C23.6335 15.7746 23.6168 15.8768 23.6168 15.9789C23.6168 16.0811 23.6168 16.1663 23.6501 16.2514C23.6834 16.3365 23.7333 16.4047 23.7833 16.4557C23.8499 16.5068 23.9165 16.5068 23.9664 16.5239C24.0164 16.5409 24.0663 16.5579 24.0996 16.592C24.1329 16.626 24.1495 16.6601 24.1662 16.6771C24.2494 16.7112 24.2328 16.7452 24.2328 16.7452Z" fill="#455B64"/>
<path d="M21.9854 14.9061C21.9854 14.9061 21.9854 14.9061 22.002 14.8891C22.002 14.8721 22.0186 14.855 22.0353 14.821C22.0686 14.7529 22.1019 14.6677 22.1518 14.5656C22.2018 14.4464 22.2684 14.3101 22.3516 14.1569C22.4348 14.0036 22.5514 13.8333 22.7345 13.7312C22.8344 13.6801 22.9343 13.646 23.0508 13.5949C23.1007 13.5779 23.1673 13.5438 23.2173 13.4928C23.2672 13.4587 23.3005 13.4076 23.3338 13.3395C23.3837 13.2203 23.3837 13.0841 23.4337 12.9478C23.4503 12.8797 23.4836 12.8286 23.5502 12.7776C23.6002 12.7435 23.6667 12.7094 23.7333 12.6924C23.7999 12.6754 23.8665 12.6413 23.9331 12.6073C23.9997 12.5732 24.0496 12.5051 24.0996 12.437C24.1662 12.3008 24.1662 12.1305 24.1995 11.9772C24.2161 11.8921 24.2328 11.824 24.2827 11.7558C24.316 11.6877 24.3992 11.6537 24.4658 11.6366C24.6156 11.6026 24.7821 11.6537 24.9486 11.6366C25.0318 11.6196 25.1151 11.5856 25.165 11.5174C25.2316 11.4493 25.2649 11.3812 25.3148 11.3131C25.3481 11.245 25.3981 11.1769 25.448 11.1088C25.498 11.0406 25.5479 10.9896 25.6145 10.9555C25.7477 10.8874 25.9141 10.9214 26.0473 10.9555C26.1972 10.9896 26.347 11.0236 26.4802 10.9896C26.63 10.9555 26.7465 10.8874 26.863 10.8193C26.9796 10.7512 27.0795 10.666 27.196 10.632C27.4291 10.5468 27.6788 10.5638 27.8785 10.6149C28.095 10.666 28.2614 10.7682 28.3946 10.8874C28.5278 11.0066 28.611 11.1258 28.6776 11.228C28.7442 11.3301 28.7775 11.4153 28.7942 11.4834C28.8108 11.5174 28.8108 11.5345 28.8274 11.5515C28.8274 11.5685 28.8441 11.5685 28.8441 11.5685C28.8441 11.5685 28.8441 11.5685 28.8441 11.5515C28.8441 11.5345 28.8274 11.5174 28.8274 11.4834C28.8108 11.4153 28.7775 11.3301 28.7109 11.228C28.6443 11.1258 28.5611 10.9896 28.4279 10.8874C28.2947 10.7682 28.1283 10.666 27.9118 10.6149C27.6954 10.5638 27.4457 10.5468 27.2126 10.632C27.0961 10.683 26.9796 10.7512 26.863 10.8193C26.7465 10.8874 26.63 10.9725 26.4968 10.9896C26.3636 11.0236 26.2138 10.9896 26.064 10.9555C25.9974 10.9385 25.9141 10.9214 25.8309 10.9214C25.7477 10.9214 25.6644 10.9214 25.5978 10.9555C25.5313 10.9896 25.4647 11.0577 25.4147 11.1088C25.3648 11.1769 25.3315 11.245 25.2815 11.3131C25.2482 11.3812 25.1983 11.4493 25.1484 11.5174C25.0984 11.5685 25.0152 11.6196 24.9486 11.6366C24.7988 11.6707 24.6323 11.6026 24.4658 11.6366C24.3826 11.6537 24.2993 11.7048 24.266 11.7729C24.2161 11.841 24.1995 11.9261 24.1828 12.0113C24.1495 12.1645 24.1495 12.3348 24.0829 12.454C24.0496 12.5221 23.9997 12.5732 23.9331 12.6073C23.8665 12.6413 23.7999 12.6584 23.7333 12.6924C23.6667 12.7094 23.6002 12.7435 23.5336 12.7946C23.467 12.8457 23.4337 12.8968 23.417 12.9649C23.3671 13.1011 23.3671 13.2373 23.3171 13.3565C23.2672 13.4757 23.1673 13.5438 23.0508 13.5949C22.9509 13.646 22.8344 13.6801 22.7345 13.7312C22.5347 13.8333 22.4182 14.0206 22.3349 14.1739C22.2517 14.3272 22.2018 14.4634 22.1518 14.5826C22.1019 14.7018 22.0686 14.7869 22.0353 14.838C22.0186 14.8721 22.0186 14.8891 22.002 14.9061C21.9854 14.8891 21.9854 14.9061 21.9854 14.9061Z" fill="#455B64"/>
<path d="M23.2173 13.6631C23.2173 13.6631 23.2173 13.6631 23.2006 13.6631C23.184 13.6631 23.1673 13.6631 23.134 13.6801C23.0841 13.6971 23.0342 13.7823 23.0175 13.8844C23.0175 13.9355 23.0341 14.0036 23.0341 14.0547C23.0508 14.1228 23.0674 14.1909 23.0674 14.2591C23.0674 14.3272 23.0342 14.4123 22.9842 14.4804C22.9343 14.5485 22.8843 14.6167 22.8344 14.7018C22.7844 14.7869 22.7678 14.9061 22.8011 15.0083C22.8344 15.1105 22.9176 15.1956 22.9509 15.2978C22.9842 15.4 22.9676 15.5192 22.9176 15.6213C22.8677 15.7235 22.8011 15.8427 22.7678 15.9619C22.7511 16.03 22.7345 16.0811 22.7345 16.1492C22.7345 16.2173 22.7511 16.2855 22.7844 16.3536C22.8344 16.4728 22.9343 16.5749 23.0009 16.6941C23.0841 16.7963 23.134 16.9325 23.1174 17.0688C23.1007 17.205 23.0342 17.3242 22.9842 17.4604C22.9509 17.5285 22.9343 17.5967 22.9343 17.6818C22.9343 17.7499 22.9509 17.8351 22.9842 17.9032C23.0508 18.0394 23.1507 18.1416 23.2339 18.2437C23.3172 18.3459 23.4004 18.4481 23.4337 18.5843C23.467 18.7035 23.5003 18.8397 23.5502 18.9589C23.5835 19.01 23.6168 19.0781 23.6668 19.1122C23.7167 19.1463 23.7833 19.1803 23.8332 19.1973C23.8832 19.2144 23.9498 19.2314 23.9997 19.2484C24.0496 19.2655 24.0996 19.2995 24.1329 19.3336C24.2161 19.4017 24.2661 19.5039 24.316 19.589C24.3659 19.6741 24.4159 19.7593 24.4658 19.8444C24.5824 19.9977 24.7322 20.0999 24.8654 20.1509C25.0152 20.202 25.1484 20.202 25.2483 20.185C25.3481 20.168 25.4314 20.1339 25.4813 20.1169C25.5313 20.0999 25.5479 20.0658 25.5479 20.0658C25.5479 20.0658 25.448 20.1339 25.2483 20.168C25.1484 20.185 25.0152 20.168 24.882 20.1339C24.7488 20.0828 24.599 19.9807 24.4991 19.8274C24.4492 19.7423 24.3992 19.6571 24.3493 19.572C24.2994 19.4868 24.2328 19.3847 24.1495 19.3165C24.1162 19.2825 24.0663 19.2484 24.0163 19.2144C23.9664 19.1803 23.8998 19.1803 23.8499 19.1463C23.7999 19.1292 23.7333 19.1122 23.7 19.0781C23.6501 19.0441 23.6168 18.993 23.6002 18.9419C23.5502 18.8397 23.5169 18.7035 23.4836 18.5843C23.4503 18.4481 23.3671 18.3459 23.2672 18.2437C23.184 18.1416 23.0841 18.0394 23.0175 17.9202C22.9842 17.8521 22.9676 17.784 22.9676 17.7159C22.9676 17.6477 22.9842 17.5796 23.0009 17.5115C23.0508 17.3753 23.134 17.2561 23.1507 17.1028C23.1673 17.0347 23.1507 16.9496 23.1174 16.8815C23.0841 16.8133 23.0508 16.7452 23.0175 16.6941C22.9343 16.5749 22.851 16.4728 22.8011 16.3536C22.7678 16.3025 22.7678 16.2344 22.7678 16.1663C22.7678 16.0981 22.7844 16.0471 22.8011 15.9789C22.851 15.8597 22.901 15.7576 22.9509 15.6384C23.0009 15.5362 23.0175 15.4 22.9842 15.2978C22.9509 15.1956 22.8677 15.1105 22.8344 15.0083C22.8011 14.9061 22.8177 14.821 22.8677 14.7359C22.9176 14.6507 22.9676 14.5826 23.0175 14.5145C23.0674 14.4464 23.1007 14.3612 23.1007 14.2761C23.1007 14.1909 23.0841 14.1228 23.0674 14.0717C23.0508 14.0036 23.0341 13.9525 23.0341 13.9015C23.0341 13.7993 23.1007 13.7312 23.134 13.6971C23.184 13.6631 23.2173 13.6631 23.2173 13.6631Z" fill="#455B64"/>
<path d="M31.5909 17.4945C31.5909 17.4945 31.6575 17.5115 31.7574 17.5967C31.8573 17.6818 31.9905 17.8351 32.0404 18.0735C32.0571 18.1927 32.0737 18.3289 32.0238 18.4651C31.9905 18.6013 31.9239 18.7376 31.8073 18.8568C31.7075 18.976 31.5576 19.0781 31.4078 19.1292C31.2413 19.1803 31.0582 19.1973 30.8917 19.1463C30.7253 19.0952 30.5588 18.993 30.4423 18.8738C30.3257 18.7376 30.2591 18.5843 30.2258 18.4311C30.1759 18.1075 30.2924 17.818 30.4589 17.6477C30.5421 17.5626 30.642 17.5115 30.7253 17.4775C30.8085 17.4434 30.8917 17.4264 30.9583 17.4093C31.0249 17.4093 31.0749 17.4093 31.1081 17.4093C31.1414 17.4093 31.1581 17.4264 31.1581 17.4264C31.1581 17.4264 31.0915 17.4093 30.9583 17.4264C30.8917 17.4434 30.8251 17.4604 30.7419 17.4945C30.6587 17.5285 30.5754 17.5796 30.4922 17.6648C30.3424 17.8351 30.2258 18.1075 30.2758 18.414C30.3091 18.5673 30.3757 18.7205 30.4755 18.8397C30.5921 18.9589 30.7253 19.0611 30.8917 19.0952C31.0582 19.1463 31.2247 19.1463 31.3912 19.0781C31.541 19.0271 31.6742 18.9249 31.774 18.8227C31.8739 18.7035 31.9405 18.5843 31.9738 18.4481C32.0071 18.3119 32.0071 18.1927 31.9905 18.0735C31.9572 17.8521 31.824 17.6818 31.7241 17.6137C31.6575 17.5285 31.5909 17.4945 31.5909 17.4945Z" fill="#E0E0E0"/>
<path d="M22.1019 10.0189C22.1019 10.036 22.2018 9.91676 22.4182 9.83162C22.5348 9.79756 22.6679 9.74647 22.8344 9.7635C23.0009 9.7635 23.184 9.81459 23.3671 9.91676L23.4004 9.93379L23.4171 9.89973C23.5336 9.69539 23.7334 9.54213 23.9997 9.45699C24.2494 9.38887 24.5657 9.4059 24.8155 9.59322L24.8488 9.61024L24.8654 9.57619C25.0818 9.26967 25.4481 9.03127 25.8642 8.96316C26.1805 8.91207 26.4969 8.96316 26.7632 9.09939C27.0296 9.23562 27.246 9.43996 27.3958 9.66133L27.4125 9.67836H27.4291C27.7787 9.69539 28.1117 9.78053 28.3614 9.91676C28.6277 10.036 28.8275 10.2062 28.9773 10.3595C29.277 10.666 29.3935 10.8874 29.4102 10.8874C29.4102 10.8874 29.4102 10.8704 29.3935 10.8533C29.3769 10.8193 29.3602 10.7852 29.3269 10.7341C29.2603 10.632 29.1604 10.4957 29.0106 10.3425C28.8608 10.1892 28.6444 10.0189 28.378 9.8827C28.1117 9.74647 27.7787 9.6443 27.4125 9.62727L27.4458 9.6443C27.2959 9.4059 27.0795 9.18453 26.7965 9.0483C26.5135 8.91207 26.1806 8.84396 25.8476 8.89504C25.4148 8.96316 25.0319 9.21859 24.8155 9.54213H24.8654C24.599 9.35482 24.2661 9.32076 23.9831 9.4059C23.7001 9.49104 23.4837 9.66133 23.3671 9.8827L23.4004 9.86567C23.2173 9.74647 23.0175 9.71242 22.8344 9.71242C22.6679 9.71242 22.5181 9.7635 22.4016 9.79756C22.2851 9.84864 22.2185 9.89973 22.1685 9.95082C22.1186 9.98487 22.1019 10.0019 22.1019 10.0189Z" fill="#263238"/>
<path d="M29.9595 9.59322C29.9595 9.59322 30.0594 9.64431 30.2425 9.66133C30.4256 9.67836 30.7419 9.62728 31.0083 9.38888C31.1415 9.26968 31.2414 9.08236 31.2913 8.87802C31.3413 8.67368 31.3246 8.41825 31.2247 8.19688C31.1248 7.97551 30.9417 7.77116 30.692 7.66899C30.4423 7.56682 30.1593 7.54979 29.8929 7.66899L29.9429 7.68602C29.843 7.54979 29.6765 7.46465 29.51 7.43059C29.3602 7.39653 29.227 7.41356 29.0939 7.46465C28.9607 7.51573 28.8441 7.61791 28.7775 7.73711C28.6277 7.97551 28.5944 8.26499 28.711 8.50339L28.7609 8.45231C28.5778 8.33311 28.3447 8.35013 28.1616 8.43528C27.9785 8.52042 27.8619 8.69071 27.812 8.86099C27.7121 9.21859 27.8619 9.54213 28.0451 9.71242C28.2282 9.89973 28.428 9.95082 28.5611 9.98488C28.6277 10.0019 28.6777 10.0019 28.711 10.0019C28.7443 10.0019 28.7609 10.0019 28.7609 10.0019C28.7609 10.0019 28.6943 10.0019 28.5611 9.95082C28.428 9.91676 28.2448 9.84865 28.0784 9.67836C27.9119 9.50808 27.7787 9.20156 27.8786 8.87802C27.9285 8.72476 28.0451 8.57151 28.1949 8.50339C28.3614 8.41825 28.5611 8.41825 28.7276 8.52042L28.8275 8.58853L28.7775 8.46933C28.6777 8.26499 28.711 7.99253 28.8441 7.77116C28.9107 7.66899 29.0106 7.58385 29.1271 7.53276C29.2437 7.48168 29.3769 7.48168 29.51 7.4987C29.6599 7.53276 29.8097 7.61791 29.8929 7.72008L29.9096 7.73711L29.9429 7.72008C30.1759 7.61791 30.4589 7.63493 30.6754 7.72008C30.9084 7.80522 31.0749 7.99253 31.1748 8.19688C31.2747 8.40122 31.2747 8.63962 31.2414 8.82693C31.2081 9.03128 31.1082 9.20156 30.975 9.32076C30.7253 9.55916 30.4256 9.61025 30.2425 9.61025C30.0594 9.64431 29.9595 9.59322 29.9595 9.59322Z" fill="#263238"/>
<path d="M35.4698 12.6754C35.4698 12.6754 35.4865 12.6584 35.4865 12.6243C35.5031 12.5903 35.5197 12.5562 35.5364 12.4881C35.5697 12.3689 35.5863 12.1816 35.553 11.9432C35.5031 11.7218 35.3866 11.4323 35.1535 11.228C34.9204 11.0236 34.5542 10.8704 34.1713 10.9215L34.2046 10.9385C34.0548 10.632 33.7718 10.3425 33.4222 10.1892C33.1558 10.07 32.8728 10.053 32.6064 10.0871C32.3401 10.1381 32.107 10.2403 31.9239 10.3936H31.9572C31.6742 10.2403 31.3912 10.1892 31.1248 10.1892C30.8751 10.1892 30.642 10.2573 30.4756 10.3255C30.3091 10.3936 30.1759 10.4787 30.1093 10.5468C30.0261 10.6149 29.9928 10.649 29.9928 10.649C29.9928 10.666 30.1593 10.4957 30.4922 10.3595C30.6587 10.2914 30.8751 10.2403 31.1248 10.2403C31.3745 10.2403 31.6575 10.2914 31.9073 10.4447L31.9239 10.4617L31.9405 10.4447C32.1237 10.3084 32.3401 10.2063 32.5898 10.1552C32.8395 10.1211 33.1059 10.1381 33.3556 10.2403C33.6885 10.3936 33.9549 10.649 34.1047 10.9555L34.1214 10.9725H34.1547C34.5043 10.9215 34.8538 11.0577 35.0869 11.245C35.32 11.4493 35.4365 11.7048 35.4865 11.9261C35.5364 12.1475 35.5197 12.3348 35.5031 12.454C35.4865 12.6073 35.4698 12.6754 35.4698 12.6754Z" fill="#263238"/>
<path d="M33.3889 21.956C33.3889 21.956 35.5197 22.9607 35.7861 24.4421C36.0524 25.9236 36.3687 30.4021 36.452 31.0322C36.5352 31.6452 37.0513 32.6499 37.1512 34.489C37.2511 36.3451 37.2511 39.2059 37.2511 39.2059L35.9193 39.5976C35.9193 39.5976 34.8372 36.89 34.5708 34.8807C34.3045 32.8543 33.805 31.9858 33.9216 31.1684C34.0381 30.3511 33.6053 28.2565 33.6053 28.2565L33.3889 21.956Z" fill="#AE7462"/>
<path d="M23.3004 22.8074C23.3004 22.8074 21.1695 23.8121 20.9031 25.2936C20.6368 26.7751 20.3205 31.2536 20.2372 31.8836C20.154 32.4967 19.6379 33.5014 19.5381 35.3404C19.4382 37.1966 19.4382 40.0574 19.4382 40.0574L20.77 40.449C20.77 40.449 21.852 37.7415 22.1184 35.7321C22.3848 33.7057 22.8842 32.8372 22.7677 32.0199C22.6511 31.2025 23.084 29.108 23.084 29.108L23.3004 22.8074Z" fill="#AE7462"/>
<path d="M33.3889 26.2472C33.4555 26.3834 33.3889 29.1591 33.6053 29.2272C33.8051 29.3123 36.5353 29.125 36.5353 29.125C36.5353 29.125 36.2023 24.8679 35.7362 23.9994C35.27 23.1309 34.1214 22.0922 33.8883 22.0922C33.6552 22.0922 32.9561 25.6682 32.9561 25.6682L33.3889 26.2472Z" fill="#EE3765"/>
<path d="M25.2316 21.8708C25.0652 22.0071 22.5514 23.1309 22.5514 23.1309L23.4504 29.4996L23.8665 32.122L22.5514 37.6563C22.5514 37.6563 25.4148 40.415 30.0094 40.0403C34.6041 39.6657 35.6363 38.031 35.6363 38.031L33.6719 29.9253C33.6719 29.9253 33.4721 27.4221 33.4721 26.5196C33.4721 26.3493 33.9049 22.0922 33.9049 22.0922L31.7741 21.4451C31.7741 21.4451 31.3745 23.0799 28.6111 23.0799C25.8476 23.0799 25.2316 21.8708 25.2316 21.8708Z" fill="#EE3765"/>
<path d="M33.1725 25.7363C33.1725 25.7363 33.2058 25.7874 33.2557 25.8896C33.3057 25.9917 33.3723 26.128 33.4388 26.3153C33.5887 26.6899 33.7218 27.2178 33.7718 27.8138C33.8217 28.4098 33.7551 28.9717 33.6719 29.3464C33.6386 29.5337 33.5887 29.6869 33.5554 29.8061C33.5221 29.9083 33.5054 29.9594 33.4888 29.9594C33.4721 29.9594 33.5387 29.721 33.6053 29.3293C33.6719 28.9377 33.7218 28.4098 33.6719 27.8138C33.622 27.2178 33.4888 26.6899 33.3556 26.3323C33.2557 25.9577 33.1558 25.7363 33.1725 25.7363Z" fill="#263238"/>
<path d="M20.5704 28.1373C20.5704 28.0011 21.3362 23.9824 22.2018 23.4034L22.6014 23.0969L23.5003 28.6141V28.9888L20.5704 28.1373Z" fill="#EE3765"/>
<path d="M23.5003 29.6699C23.4836 29.6699 23.4337 29.4826 23.3505 29.1761C23.2672 28.8696 23.184 28.4268 23.1007 27.95C23.0175 27.4732 22.9676 27.0305 22.9509 26.7069C22.9176 26.3834 22.9176 26.1961 22.9343 26.1791C22.9509 26.1791 22.9676 26.3664 23.0175 26.6899C23.0675 27.0135 23.1174 27.4392 23.2006 27.933C23.2839 28.4098 23.3671 28.8525 23.417 29.1591C23.467 29.4656 23.5003 29.6699 23.5003 29.6699Z" fill="#263238"/>
</g>
</svg>
