<svg width="33" height="33" viewBox="0 0 33 33" fill="none" xmlns="http://www.w3.org/2000/svg">
<mask id="mask0_46_29550" style="mask-type:luminance" maskUnits="userSpaceOnUse" x="0" y="0" width="33" height="33">
<path d="M16.4558 32.07C25.5065 32.07 32.8436 24.9131 32.8436 16.0845C32.8436 7.25593 25.5065 0.0989685 16.4558 0.0989685C7.40511 0.0989685 0.0680542 7.25593 0.0680542 16.0845C0.0680542 24.9131 7.40511 32.07 16.4558 32.07Z" fill="white"/>
</mask>
<g mask="url(#mask0_46_29550)">
<path d="M11.674 16.9541L10.3448 17.5392C10.3448 17.5392 11.5119 10.4081 11.8037 8.62143C12.2576 5.74372 13.5057 2.47072 17.7202 2.80276C17.7202 2.80276 20.8972 3.03994 21.8049 5.28518C22.3074 6.50268 22.3399 9.75987 22.4209 13.5072L22.5019 14.1555C22.8748 15.7841 22.9396 16.9225 23.4097 18.5195C24.0256 20.5908 24.0256 24.6386 23.6204 27.0261L20.0867 27.3582L11.674 16.9541Z" fill="#263238"/>
<path d="M18.2389 3.78308L17.9633 3.53009L15.0132 4.65271C14.5918 4.66853 14.2514 5.00057 14.2352 5.41167L14.1541 14.7405C14.1379 15.373 14.2676 15.9264 14.6566 16.4324L15.0618 16.9699C15.9858 18.1874 17.9147 18.1084 18.6765 16.7802C18.7252 16.6853 18.7738 16.6063 18.79 16.543C18.8062 16.464 18.8224 16.4007 18.8386 16.3375C18.9359 15.5943 18.9521 14.9303 18.9521 14.9303C19.0169 14.1081 19.0332 13.776 19.0332 13.776C19.0332 13.776 20.8324 13.5863 21.3349 11.341C21.5942 10.2184 21.5618 8.68467 21.5132 7.16676C21.4484 5.07963 19.9733 3.79889 18.2389 3.78308Z" fill="#FBBF9E"/>
<path d="M19.0331 13.776C19.0331 13.776 17.4608 13.776 15.9695 12.7799C15.9695 12.7799 16.6503 14.3927 19.0007 14.3136L19.0331 13.776Z" fill="#F7996E"/>
<path d="M14.2514 9.3962C14.2514 9.3962 15.8885 9.91798 16.8611 5.96508C17.2015 4.62109 18.4982 3.53009 18.4982 3.53009L17.9795 3.37198C17.9795 3.37198 14.7377 4.2258 14.6728 4.27324C14.6242 4.32067 13.8461 5.90183 13.8461 5.90183L14.2514 9.3962Z" fill="#263238"/>
<path d="M11.9983 28.2752C11.9983 28.2752 9.6641 33.8251 9.42096 35.6909C9.19403 37.5567 8.88605 41.1775 8.88605 41.1775L23.8636 41.5412C23.8636 41.5412 24.5444 38.7583 23.8636 33.4773C23.5394 30.9316 22.5182 29.0184 22.3561 28.5915C22.2102 28.1646 23.3125 20.7489 23.3125 20.7489L23.199 16.1952L21.4808 15.199H19.0008C17.6392 16.8435 15.921 16.0371 14.1379 15.1358C13.4571 14.7879 10.815 16.6695 10.815 16.6695C10.815 16.6695 10.7826 20.6066 11.1878 23.2313C11.5768 25.698 11.9983 28.2752 11.9983 28.2752Z" fill="#EE3765"/>
<path d="M11.901 16.0687C11.901 16.0687 8.96707 16.9858 8.56183 18.7092C8.1566 20.4327 7.57306 25.6505 7.45959 26.3779C7.34612 27.0894 6.795 28.2436 6.43839 30.394C6.03316 32.8764 5.66034 36.2759 5.66034 36.2759L7.97829 36.434C7.97829 36.434 9.24263 33.4615 9.90722 31.1688C10.5556 28.9235 10.8798 28.0855 11.204 26.868C11.6903 25.0655 11.7065 23.5001 11.7065 23.5001L11.901 16.0687Z" fill="#EE3765"/>
<path d="M22.8099 15.6734C22.8099 15.6734 25.7438 16.5905 26.1491 18.3139C26.5543 20.0374 27.1379 25.2552 27.2513 25.9826C27.3648 26.6941 27.9159 27.8483 28.2725 29.9987C28.6778 32.4811 29.0506 35.8806 29.0506 35.8806L26.7326 36.0387C26.7326 36.0387 25.4683 33.0662 24.8037 30.7735C24.1553 28.5282 23.8311 27.6902 23.5069 26.4727C23.0207 24.6702 23.0044 23.1049 23.0044 23.1049L22.8099 15.6734Z" fill="#EE3765"/>
<path d="M7.97828 24.4014C8.01057 24.4644 8.059 24.5116 8.10743 24.5746C8.01057 24.5746 7.96213 24.4802 7.97828 24.4014Z" fill="#263238"/>
<path d="M15.3536 20.4327C15.6616 19.2943 16.1316 18.1716 16.1154 17.0016C16.0992 15.8789 15.6129 14.8038 15.2401 13.7444C14.8673 12.6692 14.6079 11.4833 15.0294 10.4239C15.2563 9.85473 15.6616 9.36457 15.9695 8.82697C16.2775 8.28938 18.5306 4.13093 18.3037 3.5459L12.371 6.15481C11.6902 9.80729 11.3336 15.8157 11.6254 19.1045C11.7227 20.1165 12.4845 24.8125 13.0194 25.6821C13.1815 25.9351 14.6728 26.2355 14.6728 26.2355C14.6728 26.2355 14.77 25.3027 14.7863 25.3659C14.8025 25.4292 15.0456 26.5676 15.0942 26.615C15.5157 26.9629 16.1641 27.4214 16.6179 27.3424C15.9533 26.3779 15.0456 21.5711 15.3536 20.4327Z" fill="#263238"/>
<path d="M22.6316 17.9187C22.6316 17.9187 22.6641 17.9819 22.7127 18.1084C22.7613 18.2349 22.8099 18.4246 22.8586 18.646C22.972 19.1045 23.1017 19.7528 23.1503 20.4801C23.199 21.2075 23.1828 21.8557 23.1341 22.3301C23.1179 22.5673 23.0855 22.757 23.0693 22.8835C23.0531 23.01 23.0369 23.089 23.0207 23.089C23.0045 23.089 23.0369 22.7886 23.0531 22.3301C23.0855 21.8557 23.0855 21.2075 23.0369 20.4959C22.9882 19.7844 22.8748 19.1361 22.7775 18.6776C22.6803 18.2033 22.6154 17.9187 22.6316 17.9187Z" fill="#263238"/>
<path d="M10.5556 19.6579C10.5556 19.6579 10.588 19.7686 10.6042 19.9583C10.6366 20.1797 10.6853 20.4643 10.7339 20.7964C10.8473 21.5237 11.0094 22.4882 11.1877 23.5634C11.3661 24.6386 11.5444 25.6031 11.674 26.3304C11.7389 26.6625 11.7875 26.9471 11.8199 27.1684C11.8523 27.3582 11.8848 27.4689 11.8685 27.4689C11.8685 27.4689 11.8361 27.3582 11.7713 27.1684C11.7227 26.9787 11.6578 26.6941 11.5768 26.3304C11.4309 25.6189 11.2526 24.6544 11.0581 23.5634C10.8798 22.4882 10.7339 21.5079 10.6366 20.7964C10.588 20.4327 10.5556 20.1481 10.5394 19.9583C10.5556 19.7686 10.5556 19.6579 10.5556 19.6579Z" fill="#263238"/>
<path d="M18.401 29.05C18.401 29.0658 18.1741 29.1133 17.8175 29.1765C17.4609 29.2398 16.9584 29.3188 16.391 29.3821C15.8399 29.4453 15.3212 29.4927 14.9484 29.5086C14.5756 29.5244 14.3486 29.5402 14.3486 29.5244C14.3486 29.5086 14.5756 29.4769 14.9322 29.4453C15.3374 29.3979 15.8237 29.3504 16.3586 29.2872C16.8935 29.2239 17.3798 29.1607 17.785 29.1133C18.1579 29.05 18.3848 29.0342 18.401 29.05Z" fill="#263238"/>
<path d="M17.8343 29.9644C19.2486 29.3932 20.3868 28.9105 20.3766 28.8863C20.3663 28.8621 19.2114 29.3055 17.7971 29.8767C16.3828 30.4479 15.2445 30.9305 15.2548 30.9547C15.2651 30.9789 16.42 30.5355 17.8343 29.9644Z" fill="#263238"/>
</g>
</svg>
