<svg width="29" height="33" viewBox="0 0 29 33" fill="none" xmlns="http://www.w3.org/2000/svg">
<g clip-path="url(#clip0_46_29860)">
<path d="M26.9535 18.6237C27.3524 18.6451 27.6512 18.1858 27.5727 17.7971C27.4942 17.4083 27.1513 17.12 26.7826 16.9683C26.4139 16.8167 26.0119 16.7707 25.6249 16.6725C25.0499 16.5228 24.5117 16.2582 24.043 15.895C23.5743 15.5318 23.185 15.0776 22.8989 14.56C22.6937 14.1651 22.525 13.7526 22.3947 13.3275C21.8572 11.0559 21.1048 7.80812 20.9166 6.54255C20.4447 3.27555 19.6052 -0.311851 14.9056 0.0213637C14.9056 0.0213637 11.7807 0.605558 10.5821 2.83233C9.52759 4.78997 10.136 10.6938 9.99734 14.9466L11.0218 15.5596L11.1809 15.5692C11.2996 16.0043 11.4907 16.4165 11.7463 16.7889C12.6826 18.1154 13.9553 19.1801 15.3366 20.0409C18.1315 21.7807 21.4638 22.7291 24.7424 22.4034C25.4346 22.3339 26.1398 22.2047 26.7418 21.864C27.3438 21.5233 27.8468 20.9402 27.9382 20.2556C28.0296 19.571 27.6232 18.8095 26.9535 18.6237Z" fill="#263238"/>
<path d="M14.2799 1.23888L14.5745 0.961197L17.752 2.23211C17.974 2.24434 18.1832 2.33893 18.3383 2.49717C18.4934 2.65541 18.583 2.86574 18.5894 3.08651L18.5614 13.3713C18.5614 14.0687 18.4249 14.6732 18.0014 15.2286L17.5553 15.8138C16.5384 17.1488 14.4455 17.0388 13.6393 15.5682C13.5921 15.4845 13.556 15.3951 13.5318 15.3022C13.5117 15.2267 13.4959 15.15 13.4845 15.0726C13.3899 14.2449 13.3845 13.5272 13.3845 13.5272C13.3275 12.6184 13.3093 12.2456 13.3093 12.2542C13.3093 12.2627 11.3636 12.032 10.8369 9.55002C10.5703 8.31542 10.6187 6.62158 10.6907 4.94589C10.7982 2.63368 12.4106 1.23674 14.2799 1.23888Z" fill="#FBBF9E"/>
<path d="M13.3038 12.2542C14.4922 12.214 15.6459 11.8465 16.6362 11.1926C16.6362 11.1926 15.8762 12.9666 13.3436 12.8576L13.3038 12.2542Z" fill="#F7996E"/>
<path d="M18.5259 7.47599C18.5259 7.47599 16.7458 8.02493 15.7429 3.6611C15.3946 2.16804 14.0015 0.961209 14.0015 0.961209L14.5658 0.792465C14.5658 0.792465 18.0755 1.77502 18.1346 1.81881C18.1938 1.8626 19.0204 3.62265 19.0204 3.62265L18.5259 7.47599Z" fill="#263238"/>
<path d="M18.0874 7.31257C18.0788 7.12674 18.2733 6.67177 18.4572 6.63866C18.9473 6.5372 19.8406 6.53186 19.9126 7.78035C20.0105 9.48914 18.2669 9.23069 18.2615 9.18263C18.2561 9.13457 18.1175 7.9555 18.0874 7.31257Z" fill="#FBBF9E"/>
<path d="M18.7474 8.50553C18.7549 8.49912 18.7786 8.52475 18.8302 8.54504C18.903 8.57096 18.9831 8.5679 19.0538 8.5365C19.2311 8.46067 19.3677 8.1659 19.358 7.85725C19.3542 7.71078 19.3174 7.56701 19.2505 7.43646C19.2312 7.38443 19.1995 7.33781 19.1582 7.30061C19.1168 7.2634 19.067 7.23673 19.0129 7.22286C18.9781 7.21572 18.9419 7.22089 18.9105 7.23746C18.8791 7.25403 18.8545 7.28098 18.8409 7.31364C18.8205 7.36277 18.8334 7.39588 18.8248 7.39908C18.8162 7.40229 18.7861 7.37238 18.7958 7.30189C18.8037 7.26053 18.8253 7.22297 18.8571 7.19509C18.9022 7.15722 18.9605 7.13843 19.0194 7.14276C19.0897 7.15348 19.1562 7.18173 19.2126 7.22487C19.269 7.26801 19.3134 7.32464 19.3419 7.38947C19.4236 7.5331 19.4686 7.69445 19.473 7.85939C19.4816 8.20328 19.3225 8.53543 19.0785 8.62087C19.0331 8.63666 18.9848 8.64217 18.937 8.637C18.8892 8.63183 18.8431 8.6161 18.8022 8.59097C18.7528 8.54397 18.742 8.50873 18.7474 8.50553Z" fill="#F7996E"/>
<path d="M19.976 13.7569C19.9492 13.5593 19.9367 13.3602 19.9384 13.1609C19.9459 12.6174 20.0017 12.0756 20.105 11.5418L20.305 10.4354C20.3824 10.0117 20.4337 9.5837 20.4587 9.15379C20.4875 8.68085 20.4513 8.20621 20.3512 7.74297C20.2957 7.4992 20.2146 7.26187 20.1093 7.03489C19.9994 6.80169 19.863 6.58169 19.703 6.37914C19.3787 5.98484 19.0169 5.62254 18.6227 5.29726C18.2464 4.97686 17.8863 4.65646 17.566 4.33072C16.9953 3.75686 16.4786 3.13233 16.0224 2.46493C15.7153 2.01719 15.4371 1.55061 15.1893 1.06799C15.0979 0.897114 15.0366 0.762547 14.9904 0.669631L14.9421 0.562832C14.9361 0.551148 14.931 0.539005 14.927 0.52652C14.9344 0.537374 14.9408 0.548803 14.9464 0.560696L14.999 0.667495C15.0431 0.758275 15.1065 0.891774 15.2011 1.06159C15.4555 1.54065 15.7384 2.00426 16.0482 2.44998C16.5069 3.11272 17.0246 3.73322 17.595 4.30402C17.9175 4.62442 18.2744 4.94482 18.6506 5.26522C19.0478 5.59178 19.4121 5.95589 19.7385 6.35244C19.9007 6.55794 20.0389 6.78117 20.1502 7.0178C20.2566 7.24788 20.3384 7.48843 20.3942 7.73549C20.4953 8.20293 20.5315 8.68194 20.5017 9.15913C20.4752 9.58917 20.422 10.0172 20.3426 10.4407L20.1373 11.5461C20.0315 12.078 19.9711 12.6178 19.9567 13.1598C19.9567 13.3521 19.9567 13.5005 19.9674 13.602L19.9749 13.7173C19.9764 13.7305 19.9767 13.7437 19.976 13.7569Z" fill="#455B64"/>
<path d="M20.5286 13.9171C20.5018 13.7196 20.4892 13.5204 20.4909 13.3211C20.4984 12.7776 20.5542 12.2358 20.6576 11.702L20.8575 10.5956C20.9349 10.1719 20.9862 9.7439 21.0112 9.31399C21.0397 8.841 21.0031 8.36637 20.9027 7.90317C20.8471 7.6594 20.7661 7.42208 20.6608 7.19509C20.5516 6.96316 20.4164 6.74425 20.2577 6.54254C19.9351 6.1485 19.5751 5.78621 19.1827 5.46066C18.8065 5.14027 18.4464 4.81987 18.1261 4.49413C17.5553 3.92027 17.0386 3.29574 16.5824 2.62834C16.2731 2.17973 15.9927 1.71208 15.7429 1.2282C15.6548 1.05732 15.5903 0.922749 15.5483 0.829833L15.5 0.723034C15.494 0.711356 15.4889 0.699212 15.4849 0.686722C15.4923 0.697578 15.4988 0.709007 15.5043 0.720898L15.5569 0.827697C15.601 0.918477 15.6644 1.05198 15.759 1.22179C16.0135 1.70085 16.2963 2.16447 16.6061 2.61018C17.0649 3.27292 17.5826 3.89342 18.1529 4.46422C18.4754 4.78462 18.8323 5.10502 19.2085 5.42542C19.6058 5.75265 19.9702 6.11749 20.2964 6.51478C20.4586 6.71993 20.5967 6.94281 20.7081 7.17907C20.8145 7.40915 20.8963 7.6497 20.9521 7.89676C21.0532 8.3642 21.0894 8.84321 21.0596 9.3204C21.0331 9.75044 20.98 10.1784 20.9005 10.602L20.6877 11.7074C20.5819 12.2393 20.5215 12.7791 20.5071 13.3211C20.5071 13.5134 20.5071 13.6618 20.5178 13.7633L20.5253 13.8786C20.5274 13.8913 20.5285 13.9042 20.5286 13.9171Z" fill="#455B64"/>
<path d="M8.24301 16.3745C7.50237 16.8444 6.67467 17.607 6.28338 18.3888C5.57285 19.8039 0.59692 23.6081 0.40343 24.5297C-0.0437481 28.4653 4.33666 28.414 6.11139 26.309C7.0294 25.2197 9.05245 21.1378 9.05245 21.1378L8.24301 16.3745Z" fill="#455B64"/>
<path d="M2.60602 22.46C2.60602 22.46 5.89535 17.1947 6.54032 16.4632C7.5282 15.3375 9.24489 14.8868 9.24489 14.8868L9.61574 21.7871C9.63832 21.6921 6.21676 26.0367 6.21676 26.0367C6.21676 26.0367 3.01987 23.6753 2.60602 22.46Z" fill="#455B64"/>
<path d="M4.64945 17.1371L1.0731 23.9231C0.898766 24.2478 0.852611 24.6254 0.943662 24.9822C1.03471 25.3389 1.25642 25.649 1.56542 25.8519L1.58047 25.8615C2.95211 26.7234 4.76984 25.8818 5.0719 24.298L6.33066 17.9584L4.64945 17.1371Z" fill="#FBBF9E"/>
<path d="M8.12906 11.2332L5.83405 16.6778L6.35647 16.8957L8.58161 11.3912L8.12906 11.2332Z" fill="#455B64"/>
<path d="M11.8376 8.83554C11.8183 10.3574 10.6552 11.5888 9.23302 11.5867C7.81086 11.5846 6.67894 10.3489 6.69937 8.82807C6.71979 7.30724 7.88503 6.07477 9.30396 6.07691C10.7229 6.07904 11.857 7.31365 11.8376 8.83554Z" fill="#FBBF9E"/>
<path d="M11.8376 8.83554C11.8205 8.77908 11.8118 8.72043 11.8118 8.66146L11.8043 8.56641C11.8043 8.53116 11.7925 8.49378 11.786 8.4532C11.7731 8.35881 11.7541 8.26535 11.7291 8.17338C11.668 7.92307 11.5717 7.68254 11.4431 7.4589C11.2812 7.16935 11.0652 6.9131 10.8067 6.70382C10.5042 6.45689 10.1449 6.28813 9.76083 6.21254C9.65726 6.19245 9.55235 6.17995 9.44694 6.17516C9.39319 6.17516 9.33945 6.16769 9.28462 6.16876L9.12016 6.17837C9.09221 6.17837 9.06426 6.17837 9.03739 6.18478L8.95462 6.19866C8.89979 6.20827 8.84712 6.21575 8.788 6.22856C8.55877 6.28518 8.33823 6.37211 8.13228 6.48702C8.07961 6.51799 8.02479 6.55323 7.97749 6.58634C7.92478 6.61826 7.87448 6.65396 7.827 6.69314C7.72687 6.77233 7.63207 6.85795 7.54321 6.94946C7.45473 7.04835 7.37286 7.15288 7.29812 7.26238C7.14118 7.48592 7.01939 7.73188 6.93694 7.99183C6.7607 8.53413 6.75321 9.11664 6.91544 9.66324C6.991 9.92324 7.10667 10.17 7.25835 10.3948C7.33059 10.5028 7.40995 10.6059 7.49591 10.7035C7.58211 10.7953 7.67441 10.8813 7.77218 10.9609C7.81853 11 7.86776 11.0357 7.91944 11.0677C7.97104 11.1008 8.02049 11.1371 8.07209 11.167C8.27424 11.2824 8.4912 11.3701 8.71705 11.4276C8.77188 11.4404 8.82455 11.4479 8.88367 11.4575L8.96644 11.4714C8.99439 11.4714 9.02126 11.4714 9.04921 11.4778L9.21368 11.4884C9.2685 11.4884 9.32117 11.4884 9.376 11.4831C9.48173 11.4787 9.587 11.4665 9.69095 11.4468C10.0785 11.3717 10.4418 11.2042 10.7498 10.9587C11.013 10.7519 11.2353 10.4984 11.4055 10.2111C11.5388 9.9883 11.6405 9.74822 11.7076 9.4977C11.7347 9.40586 11.7558 9.3124 11.771 9.21788C11.7785 9.1773 11.7871 9.13885 11.7925 9.10468L11.8032 9.00963C11.8047 8.95046 11.8149 8.89182 11.8333 8.83554C11.8455 8.89382 11.8487 8.95359 11.843 9.01283V9.11108C11.843 9.1474 11.8355 9.18585 11.8301 9.22857C11.8214 9.32641 11.8056 9.42349 11.7828 9.51906C11.7264 9.78285 11.6312 10.0369 11.5001 10.2731C11.3317 10.5834 11.1051 10.8589 10.8325 11.0847C10.5128 11.3523 10.1319 11.5379 9.7232 11.6251C9.61267 11.6483 9.50057 11.6633 9.38782 11.67C9.33085 11.67 9.2728 11.6785 9.21475 11.6785L9.03954 11.67C9.01051 11.67 8.98042 11.67 8.95032 11.6647L8.86217 11.6508C8.80305 11.6412 8.74285 11.6337 8.68373 11.6209C8.4389 11.5627 8.20338 11.4711 7.98394 11.3485C7.92804 11.3165 7.87645 11.278 7.81947 11.2417C7.76324 11.2062 7.70971 11.1665 7.65931 11.1232C7.55282 11.039 7.45226 10.9476 7.35832 10.8498C7.26491 10.7453 7.17871 10.6347 7.10033 10.5187C6.93549 10.2769 6.80964 10.0109 6.72733 9.73052C6.55078 9.14006 6.55903 8.51024 6.75098 7.92454C6.84064 7.64418 6.97296 7.37909 7.14333 7.1385C7.22478 7.02278 7.31383 6.91253 7.40992 6.80849C7.50581 6.71068 7.60815 6.61935 7.71628 6.53508C7.7675 6.49213 7.82174 6.45287 7.8786 6.4176C7.93449 6.38236 7.98609 6.34498 8.04629 6.3108C8.26927 6.18927 8.50798 6.09871 8.75575 6.04166C8.81595 6.02885 8.87615 6.02244 8.93527 6.01176L9.02449 5.99788C9.05459 5.99788 9.08361 5.99788 9.11371 5.99254L9.28678 5.98079C9.34482 5.98079 9.40287 5.9872 9.45984 5.98933C9.57224 5.99604 9.68398 6.01104 9.79415 6.03419C10.2012 6.12136 10.5796 6.30864 10.8949 6.57887C11.3675 6.98492 11.688 7.53783 11.8043 8.14775C11.8246 8.2435 11.8379 8.34058 11.8441 8.43825C11.8441 8.48097 11.8527 8.51942 11.8537 8.55573V8.65398C11.8577 8.71497 11.8523 8.7762 11.8376 8.83554Z" fill="#263238"/>
<path d="M7.87107 10.5999C7.85818 10.6212 7.68188 10.5336 7.46904 10.2933C7.18857 9.96595 7.00807 9.56578 6.94877 9.13991C6.8874 8.70687 6.9469 8.2654 7.12076 7.86365C7.25621 7.56141 7.3981 7.4183 7.41745 7.43645C7.4368 7.45461 7.34543 7.62549 7.25083 7.92239C7.1274 8.3052 7.0907 8.71039 7.14334 9.10894C7.20124 9.50019 7.34831 9.87315 7.57331 10.1994C7.74961 10.445 7.89042 10.5732 7.87107 10.5999Z" fill="white"/>
<path d="M8.56012 11.0271C8.55646 11.0435 8.54778 11.0583 8.53527 11.0696C8.52275 11.0809 8.50702 11.0881 8.49025 11.0901C8.43827 11.1004 8.38429 11.0913 8.33868 11.0645C8.2909 11.039 8.25306 10.9984 8.23118 10.9491C8.22274 10.934 8.21896 10.9167 8.22029 10.8994C8.22163 10.8821 8.22803 10.8656 8.23871 10.8519C8.28171 10.8135 8.3591 10.8359 8.43112 10.8743C8.50315 10.9128 8.56442 10.9683 8.56012 11.0271Z" fill="white"/>
<path d="M5.04826 16.2891C5.04826 16.2891 6.08021 13.5721 6.2307 13.4311C6.3812 13.2902 7.90439 12.0192 7.90439 12.0192C8.06321 11.994 8.22598 12.0163 8.372 12.0833C8.52141 12.1709 8.88475 12.7401 9.02986 12.974C9.06886 13.0381 9.08084 13.1148 9.06319 13.1876L8.89764 13.7216C8.89764 13.7216 9.09651 14.0324 9.04921 14.2556C9.01549 14.4028 8.96007 14.5442 8.88475 14.6753C8.98626 14.8694 9.01081 15.0943 8.95354 15.3055C8.8757 15.5037 8.7262 15.6659 8.53431 15.7604C8.53431 15.7604 8.41822 16.3179 8.40209 16.4279C8.38597 16.5379 7.82592 16.7889 7.76788 16.7729C7.70983 16.7569 7.30135 16.5839 7.30135 16.5839C7.30135 16.5839 7.11323 17.4949 6.87137 17.6988C6.71377 17.8266 6.52635 17.9129 6.32637 17.9498L6.03721 19.4034L4.22485 18.0385L5.04826 16.2891Z" fill="#FBBF9E"/>
<path d="M7.54858 15.4667C7.71661 15.5064 7.88151 15.5581 8.04198 15.6216C8.20729 15.6718 8.36983 15.7306 8.52894 15.7978C8.35808 15.7713 8.19077 15.7258 8.03016 15.6622C7.86397 15.6118 7.70277 15.5463 7.54858 15.4667Z" fill="#F7996E"/>
<path d="M7.56366 14.3368C7.63223 14.3383 7.70039 14.3476 7.76682 14.3646C7.89152 14.3881 8.06136 14.4265 8.2484 14.4778C8.43544 14.529 8.60206 14.5846 8.72138 14.6262C8.78763 14.6457 8.85145 14.6726 8.91164 14.7063C8.84384 14.6957 8.77724 14.6785 8.71278 14.6551C8.59131 14.6198 8.42362 14.5707 8.23873 14.5194C8.05384 14.4682 7.88399 14.4254 7.76145 14.3945C7.6938 14.3816 7.62756 14.3623 7.56366 14.3368Z" fill="#F7996E"/>
<path d="M7.36584 13.4568C7.44022 13.4459 7.51563 13.4437 7.59051 13.4503C7.95376 13.4648 8.31312 13.5303 8.65793 13.6447C8.73274 13.6647 8.80491 13.6933 8.87292 13.7302C8.79995 13.7166 8.72809 13.6977 8.65793 13.6736C8.52464 13.6362 8.33545 13.5892 8.13121 13.5518C7.92697 13.5144 7.73455 13.492 7.59373 13.4803C7.51728 13.4782 7.44109 13.4704 7.36584 13.4568Z" fill="#F7996E"/>
<path d="M8.501 13.5935C8.45184 13.4663 8.43629 13.3288 8.45585 13.194C8.39516 13.2005 8.33378 13.1933 8.27628 13.173C8.21877 13.1526 8.16662 13.1197 8.12369 13.0766C8.02802 13.1962 7.9001 13.3617 7.80121 13.4813L8.501 13.5935Z" fill="#455B64"/>
<path d="M8.52893 15.8726L9.05995 22.1257C9.05995 22.1257 10.036 28.3948 9.96398 28.8391C9.89196 29.2834 9.01803 31.444 9.01803 31.444C12.7954 32.9605 18.4593 33.5532 23.5029 31.303L22.2291 28.3884L23.648 15.3685L18.5141 13.6276C18.5141 13.6276 18.2056 15.486 15.7429 15.2798C13.2802 15.0737 13.3275 13.7248 13.3275 13.7248L8.97073 14.9648L8.52893 15.8726Z" fill="#455B64"/>
<path d="M28.0392 28.5945C28.0392 28.5945 24.9015 15.4731 23.5148 15.3685L22.4742 25.3222L24.4382 30.8758C25.7776 30.1805 27.0073 29.4329 28.0392 28.5945Z" fill="#455B64"/>
<path d="M22.9942 21.4045C23.1794 19.4537 23.3172 17.8711 23.3018 17.8697C23.2864 17.8682 23.1238 19.4485 22.9385 21.3993C22.7533 23.3501 22.6155 24.9326 22.6309 24.9341C22.6463 24.9355 22.8089 23.3553 22.9942 21.4045Z" fill="#263238"/>
<path d="M8.5956 17.7565C8.60198 17.7792 8.60594 17.8024 8.60743 17.8259L8.63215 18.0267L8.71277 18.7647C8.77942 19.3873 8.86864 20.2481 8.97828 21.1976C9.08793 22.147 9.20187 23.0046 9.29324 23.6241L9.40074 24.3578L9.42976 24.5575C9.4344 24.5807 9.43656 24.6043 9.43621 24.628C9.42808 24.6059 9.42231 24.583 9.41901 24.5596L9.37924 24.3621C9.34592 24.1901 9.30184 23.9349 9.2524 23.6305C9.15135 23.0121 9.03741 22.1534 8.92239 21.204C8.80737 20.2545 8.7289 19.3884 8.673 18.7679L8.61065 18.0288L8.59668 17.827C8.59384 17.8036 8.59348 17.78 8.5956 17.7565Z" fill="#263238"/>
<path d="M12.7632 14.0441L13.2652 13.2485L15.9085 15.3685L18.4916 12.864L19.3139 13.8989L16.1869 17.2278L12.7632 14.0441Z" fill="#455B64"/>
<path d="M15.8149 15.5543C15.8112 15.5976 15.8036 15.6405 15.7923 15.6825C15.7741 15.7647 15.7461 15.8843 15.7042 16.0349C15.5884 16.4436 15.4385 16.8419 15.2559 17.2257L15.2377 17.2652L15.2119 17.23C15.0022 16.9416 14.769 16.6244 14.5207 16.2923C14.0359 15.644 13.5876 15.0652 13.2608 14.6465L12.8738 14.151L12.7664 14.0153C12.7532 14 12.742 13.9832 12.733 13.9651C12.7487 13.9776 12.7628 13.9919 12.775 14.0078L12.8824 14.1371C12.9781 14.2503 13.1157 14.4158 13.2834 14.6209C13.6177 15.0331 14.0724 15.6088 14.5561 16.257C14.8045 16.5892 15.0366 16.9074 15.2441 17.1979H15.2C15.3842 16.8183 15.5397 16.4256 15.6655 16.0231C15.7117 15.8747 15.745 15.7572 15.773 15.676C15.7837 15.6344 15.7977 15.5937 15.8149 15.5543Z" fill="#263238"/>
<path d="M19.1827 14.0388C19.1774 14.0555 19.1698 14.0713 19.1601 14.0858L19.0849 14.215C19.0172 14.3218 18.9172 14.4852 18.785 14.6775C18.4415 15.1777 18.0617 15.6525 17.6488 16.0979C17.3747 16.3927 17.1027 16.6597 16.8544 16.884L16.8361 16.9L16.8189 16.8829C16.572 16.6315 16.3664 16.3432 16.2094 16.0285C16.1653 15.9394 16.1258 15.8482 16.0912 15.7551C16.0772 15.7225 16.0667 15.6885 16.06 15.6536C16.0783 15.6838 16.0938 15.7157 16.1062 15.7487C16.1342 15.8117 16.1761 15.9025 16.2363 16.0146C16.4001 16.3222 16.6083 16.6043 16.8544 16.8519H16.8189C17.064 16.6255 17.3338 16.3585 17.6058 16.0648C18.0174 15.6192 18.4005 15.1483 18.7527 14.6551C18.8882 14.466 18.9935 14.3112 19.0666 14.2033L19.1505 14.0794C19.1593 14.0645 19.1701 14.0508 19.1827 14.0388Z" fill="#263238"/>
<path d="M15.9396 32.4831C15.9246 32.4831 15.9117 28.7814 15.9117 24.2168C15.9117 19.6522 15.9246 15.9505 15.9396 15.9505C15.9547 15.9505 15.9676 19.6511 15.9676 24.2168C15.9676 28.7825 15.9579 32.4831 15.9396 32.4831Z" fill="#263238"/>
<path d="M17.2556 27.3936C17.259 27.3786 16.1941 27.1235 14.877 26.8238C13.5599 26.5241 12.4894 26.2933 12.4859 26.3082C12.4825 26.3232 13.5474 26.5783 14.8645 26.878C16.1816 27.1777 17.2521 27.4085 17.2556 27.3936Z" fill="#263238"/>
<path d="M4.98164 26.3165C4.97196 26.309 5.08913 26.1809 5.21383 25.9406C5.28853 25.8002 5.35006 25.6532 5.39764 25.5016C5.51469 25.1296 5.54736 24.7364 5.49331 24.3503C5.47182 24.1932 5.43583 24.0384 5.38582 23.8879C5.29767 23.6305 5.20738 23.4852 5.21813 23.4799C5.24396 23.5102 5.26598 23.5436 5.2837 23.5792C5.30856 23.6189 5.33047 23.6603 5.34927 23.7031C5.37696 23.7586 5.40137 23.8157 5.42237 23.874C5.47961 24.0257 5.52103 24.1828 5.54599 24.3428C5.6074 24.7365 5.57425 25.1391 5.44924 25.5176C5.39832 25.6714 5.33169 25.8195 5.25038 25.9598C5.22015 26.014 5.18677 26.0664 5.15041 26.1168C5.12467 26.1543 5.0963 26.19 5.06549 26.2236C5.04163 26.258 5.01346 26.2892 4.98164 26.3165Z" fill="#263238"/>
</g>
<defs>
<clipPath id="clip0_46_29860">
<rect width="27.668" height="32.7918" fill="white" transform="translate(0.371155)"/>
</clipPath>
</defs>
</svg>
