<svg width="38" height="38" viewBox="0 0 38 38" fill="none" xmlns="http://www.w3.org/2000/svg">
<mask id="mask0_46_30159" style="mask-type:luminance" maskUnits="userSpaceOnUse" x="0" y="0" width="38" height="38">
<path d="M18.7175 37.3745C28.9045 37.3745 37.1628 29.008 37.1628 18.6873C37.1628 8.36657 28.9045 0 18.7175 0C8.53036 0 0.272095 8.36657 0.272095 18.6873C0.272095 29.008 8.53036 37.3745 18.7175 37.3745Z" fill="white"/>
</mask>
<g mask="url(#mask0_46_30159)">
<path d="M27.1163 35.9413C27.1701 36.0864 27.2775 39.0981 27.3491 39.969C27.4029 40.5133 27.4924 44.922 27.4924 44.922V55.3361H21.7797L20.6873 43.7064L20.2038 55.3361H13.9001V36.3585L27.1163 35.9413Z" fill="#263238"/>
<path d="M25.1644 7.47492L24.5913 15.8207C24.5018 17.1814 23.3735 18.2337 22.0304 18.2337C20.5441 18.2337 19.3621 16.9637 19.4696 15.4578C19.5233 14.6595 19.5591 14.0064 19.5591 14.0064C19.5591 14.0064 17.5713 13.698 17.5355 11.6659C17.5176 10.5048 17.7146 7.85592 17.8937 5.8239C18.0011 4.44504 19.1472 3.39275 20.5082 3.39275H21.7081C23.7854 3.53789 25.3434 5.37033 25.1644 7.47492Z" fill="#FBBF9E"/>
<path d="M19.5591 14.0245C19.5591 14.0245 20.8127 14.0971 22.1558 13.2444C22.1558 13.2444 21.5111 14.714 19.5233 14.5325L19.5591 14.0245Z" fill="#F7996E"/>
<path d="M24.5017 8.98079C24.5376 8.96265 25.8628 8.5635 25.8269 9.94237C25.7911 11.3212 24.4301 10.9947 24.4301 10.9584C24.4301 10.9221 24.5017 8.98079 24.5017 8.98079Z" fill="#FBBF9E"/>
<path d="M24.8599 10.4685C24.8599 10.4685 24.8778 10.4867 24.9316 10.5048C24.9674 10.5229 25.039 10.5411 25.1106 10.5229C25.2539 10.4685 25.3793 10.2508 25.3972 9.99679C25.3972 9.86979 25.3793 9.74279 25.3434 9.65207C25.3076 9.54322 25.236 9.47064 25.1644 9.47064C25.0927 9.4525 25.039 9.48879 25.0211 9.52507C25.0032 9.56136 25.0032 9.59764 25.0032 9.59764C25.0032 9.59764 24.9674 9.5795 24.9853 9.52507C24.9853 9.48879 25.0032 9.47064 25.039 9.43436C25.0748 9.41621 25.1285 9.39807 25.1644 9.39807C25.2718 9.41621 25.3614 9.50693 25.3972 9.61579C25.4509 9.72465 25.4688 9.86979 25.4688 9.99679C25.4509 10.2689 25.3076 10.5229 25.1106 10.5774C25.0211 10.5955 24.9316 10.5592 24.8957 10.5411C24.8599 10.4866 24.8599 10.4685 24.8599 10.4685Z" fill="#F7996E"/>
<path d="M25.2539 8.94449C25.039 8.89006 24.6809 9.08963 24.5913 9.28921C24.5018 9.48878 24.4839 9.7065 24.3943 9.90607C24.3048 10.1056 24.1078 10.2871 23.8929 10.2326C23.7496 10.1964 23.6422 10.0694 23.6064 9.92421C23.5706 9.77907 23.5885 9.63392 23.6064 9.47064C23.678 8.81749 23.8213 8.18249 23.8392 7.52934C23.8571 6.87619 23.7675 6.2049 23.4452 5.66061C23.1049 5.11632 22.4961 4.69903 21.8514 4.75346C21.4216 4.78975 21.0455 5.00746 20.6157 5.08004C20.1143 5.15261 19.595 4.97118 19.2368 4.60832C19.1831 4.55389 18.9861 4.42689 18.9861 4.42689C18.9861 4.3906 19.0219 4.10032 19.1293 3.99146C19.971 3.21131 21.4753 2.99359 22.5677 3.26574C23.678 3.53788 24.6988 4.33617 25.1823 5.38847C25.6658 6.42262 25.5225 7.87405 25.2539 8.94449Z" fill="#263238"/>
<path d="M17.6788 5.47918C17.8578 5.89647 18.3055 6.15047 18.7533 6.18676C19.201 6.24118 19.6487 6.11418 20.0785 5.98718C20.5082 5.86018 21.6723 5.66061 22.12 5.67875C22.1916 5.67875 22.2632 5.67875 22.2991 5.62432C22.3528 5.55175 22.2632 5.46104 22.1916 5.40661C21.6006 4.93489 20.168 4.6446 19.4159 4.60832C18.6637 4.57203 17.8758 4.8986 17.4639 5.55175" fill="#263238"/>
<path d="M17.8757 5.53362C17.8757 5.53362 18.4488 4.9349 19.3621 4.86233C21.0813 4.71718 23.9108 5.24333 25.3971 8.25506C25.3971 8.25506 25.7016 7.27534 25.7016 6.65848C25.7016 6.24119 25.4509 3.81003 22.9795 3.02989C22.9795 3.02989 19.2367 1.57845 17.8757 5.53362Z" fill="#455B64"/>
<g opacity="0.2">
<path d="M17.8757 5.53362C17.8757 5.53362 18.4667 4.8079 19.5412 4.77161C21.0813 4.69904 24.0003 5.42476 25.3971 8.25506C25.3971 8.25506 25.7016 7.27534 25.7016 6.65848C25.7016 6.24119 25.4509 3.81003 22.9795 3.02989C22.9795 3.02989 19.2367 1.57845 17.8757 5.53362Z" fill="black"/>
</g>
<path d="M25.1643 7.81963C24.4122 6.54962 23.3019 5.67876 22.1021 4.91675C20.9022 4.15475 18.9144 3.41088 17.5355 3.02988C17.1236 2.92102 16.6938 2.83031 16.2819 2.90288C15.87 2.97545 15.4581 3.26574 15.3507 3.68303C15.2253 4.20918 16.1387 5.00747 16.5684 5.33404C16.9982 5.64247 17.8757 6.11419 17.8757 6.11419C17.8757 6.11419 17.8578 5.13447 19.3979 4.93489C21.4932 4.66275 25.236 7.87406 25.1643 7.81963Z" fill="#455B64"/>
<path d="M22.3886 4.02776C22.3707 4.06404 21.7976 3.6649 20.9917 3.46532C20.1859 3.26575 19.5054 3.33832 19.5054 3.32018C19.5054 3.30204 19.6665 3.26575 19.9531 3.26575C20.2217 3.24761 20.6157 3.28389 21.0276 3.37461C21.4394 3.48347 21.7976 3.62861 22.0304 3.77375C22.2632 3.90075 22.3886 4.00961 22.3886 4.02776Z" fill="white"/>
<path d="M17.4997 16.5101H15.9417C15.4402 16.6915 11.393 20.175 11.393 20.175L13.6852 23.8217L16.658 22.0619L17.4997 16.5101Z" fill="#455B64"/>
<path d="M15.9416 16.5101L19.38 15.1857C19.38 15.1857 19.8814 16.2561 21.4215 16.0203C22.9616 15.7844 24.7704 14.6958 24.7704 14.6958C24.7704 14.6958 27.4028 16.2198 28.1908 16.8548C28.9788 17.4898 27.564 30.8431 27.564 30.8431L27.2059 34.8345C27.2059 34.8345 27.4745 35.0341 27.4745 35.7235C27.4745 36.413 27.4924 36.8665 27.4924 36.8665C22.7288 38.318 18.2339 39.3521 13.9001 37.937C13.9001 37.937 13.6494 35.6147 13.9001 34.9797C14.1508 34.3447 13.9001 33.1654 13.9001 33.1654L14.6523 27.1963L14.7239 21.699L15.9416 16.5101Z" fill="#455B64"/>
<path d="M28.1908 16.873C28.1908 16.873 29.2832 17.1814 29.6235 18.8506C29.9458 20.5016 29.8921 26.8153 29.8921 26.8153L23.7496 25.4727C23.7496 25.4727 24.5913 22.8239 24.5913 22.6424C24.5913 22.461 26.2926 18.1974 26.3463 18.1067C26.3821 17.9978 28.1908 16.873 28.1908 16.873Z" fill="#455B64"/>
<path d="M14.7067 24.0393C14.7363 24.0389 14.7442 22.9339 14.7242 21.5713C14.7042 20.2087 14.6639 19.1045 14.6342 19.1049C14.6046 19.1054 14.5967 20.2103 14.6167 21.5729C14.6367 22.9355 14.677 24.0397 14.7067 24.0393Z" fill="#263238"/>
<path d="M25.3255 19.7033C25.3255 19.7033 25.3255 19.7759 25.3076 19.921C25.2897 20.0661 25.2539 20.2657 25.2002 20.5197C25.1106 21.0096 24.9494 21.699 24.7524 22.4429C24.5555 23.1867 24.3585 23.858 24.1973 24.3479C24.1257 24.5837 24.054 24.7833 24.0003 24.9103C23.9466 25.0373 23.9287 25.1099 23.9108 25.1099C23.9108 25.1099 23.9287 25.0373 23.9645 24.8922C24.0182 24.7289 24.0719 24.5475 24.1257 24.3116C24.2689 23.8217 24.448 23.1504 24.645 22.4066C24.842 21.6627 25.0032 20.9733 25.1106 20.4834C25.1643 20.2476 25.2181 20.0661 25.2539 19.9029C25.3076 19.7758 25.3255 19.7033 25.3255 19.7033Z" fill="#263238"/>
<path d="M24.7384 20.8285C24.7749 20.1281 24.7804 19.559 24.7508 19.5574C24.7212 19.5558 24.6676 20.1223 24.6311 20.8228C24.5946 21.5232 24.5891 22.0923 24.6187 22.0939C24.6483 22.0954 24.7019 21.5289 24.7384 20.8285Z" fill="#263238"/>
<path d="M21.9051 21.699C22.637 21.699 23.2303 21.6746 23.2303 21.6446C23.2303 21.6145 22.637 21.5901 21.9051 21.5901C21.1732 21.5901 20.5799 21.6145 20.5799 21.6446C20.5799 21.6746 21.1732 21.699 21.9051 21.699Z" fill="white"/>
<path d="M15.6193 31.2422L23.1049 30.3351L24.2869 25.5453L28.4774 26.4706C28.4774 26.4706 26.8298 33.1291 25.1106 33.7822C23.4094 34.4172 14.9926 33.2379 14.9926 33.2379L15.6193 31.2422Z" fill="#FBBF9E"/>
<path d="M24.3406 32.2582C24.3048 32.2764 24.1794 31.8046 23.8571 31.3148C23.5348 30.8249 23.1408 30.5346 23.1766 30.4983C23.1945 30.4802 23.6243 30.7342 23.9646 31.2422C24.3048 31.7684 24.3764 32.2582 24.3406 32.2582Z" fill="#F7996E"/>
<path d="M4.30139 24.4749C4.30139 24.62 4.30139 31.8228 4.30139 31.8228H16.461V24.4749H4.30139Z" fill="#F3725F"/>
<path d="M17.1952 21.1003H3.76416V24.493H17.1952V21.1003Z" fill="#F3725F"/>
<g opacity="0.4">
<path d="M12.0019 24.4749H9.49475V31.8228H12.0019V24.4749Z" fill="white"/>
</g>
<path d="M10.4797 24.5112C14.1886 24.5112 17.1952 24.4949 17.1952 24.4749C17.1952 24.4548 14.1886 24.4386 10.4797 24.4386C6.77081 24.4386 3.76416 24.4548 3.76416 24.4749C3.76416 24.4949 6.77081 24.5112 10.4797 24.5112Z" fill="#263238"/>
<g opacity="0.4">
<path d="M11.2139 24.4386H8.34863V21.1003H11.2139V24.4386Z" fill="white"/>
</g>
<path d="M9.90663 19.8303C9.56638 19.8484 9.22612 19.7214 8.92168 19.5581C8.61725 19.3949 8.33072 19.1953 8.02628 19.032C7.27414 18.651 6.37873 18.5784 5.57287 18.8324C5.53705 18.8506 5.50123 18.8506 5.46542 18.8868C5.44751 18.9231 5.44751 18.9776 5.44751 19.0138C5.53705 20.048 5.62659 21.0821 5.71613 22.1163C5.73404 22.2252 5.73404 22.334 5.80567 22.4247C5.91312 22.5336 6.07429 22.5336 6.23547 22.5336C6.71899 22.4973 7.20251 22.4429 7.68602 22.2977C8.15164 22.1526 8.59934 21.9167 8.93959 21.572C9.10077 21.4087 9.22612 21.2091 9.3873 21.0459C9.54847 20.8826 9.76337 20.7556 9.97826 20.7374L9.90663 19.8303Z" fill="#F3725F"/>
<path d="M15.6014 21.8986C15.6193 20.6104 15.6193 19.3041 15.4403 18.016C14.6165 17.8527 13.7748 18.1067 13.0227 18.5058C12.2705 18.8868 11.59 19.3948 10.8558 19.7758L10.7125 20.683C10.9632 20.6286 11.2319 20.7011 11.4647 20.81C11.6975 20.9188 11.9124 21.0821 12.1094 21.2454C12.5929 21.5901 13.0943 21.9167 13.6674 22.1163C14.2225 22.3159 14.8493 22.3521 15.4224 22.1707C15.494 22.1526 15.5656 22.1163 15.6014 22.0437C15.6014 22.0074 15.6014 21.953 15.6014 21.8986Z" fill="#F3725F"/>
<g opacity="0.3">
<path d="M9.90663 19.8303C9.56638 19.8484 9.22612 19.7214 8.92168 19.5581C8.61725 19.3949 8.33072 19.1953 8.02628 19.032C7.27414 18.651 6.37873 18.5784 5.57287 18.8324C5.53705 18.8506 5.50123 18.8506 5.46542 18.8868C5.44751 18.9231 5.44751 18.9776 5.44751 19.0138C5.53705 20.048 5.62659 21.0821 5.71613 22.1163C5.73404 22.2252 5.73404 22.334 5.80567 22.4247C5.91312 22.5336 6.07429 22.5336 6.23547 22.5336C6.71899 22.4973 7.20251 22.4429 7.68602 22.2977C8.15164 22.1526 8.59934 21.9167 8.93959 21.572C9.10077 21.4087 9.22612 21.2091 9.3873 21.0459C9.54847 20.8826 9.76337 20.7556 9.97826 20.7374L9.90663 19.8303Z" fill="black"/>
</g>
<path d="M9.90665 19.8303C9.90665 19.8303 9.90665 19.8484 9.90665 19.8847C9.90665 19.921 9.92456 19.9936 9.92456 20.0661C9.94247 20.2294 9.96038 20.4471 9.99619 20.7556V20.7737H9.97828C9.83502 20.7737 9.67385 20.8463 9.54849 20.9551C9.40523 21.064 9.27987 21.2091 9.15451 21.3724C9.02915 21.5357 8.86798 21.699 8.6889 21.8441C8.49191 21.9893 8.27701 22.1163 8.04421 22.207C7.56069 22.4066 6.98763 22.4973 6.39666 22.5517C6.2534 22.5517 6.09222 22.588 5.93105 22.5336C5.85942 22.4973 5.78779 22.4429 5.75197 22.3521C5.71615 22.2796 5.71615 22.1889 5.71615 22.1163C5.68034 21.8079 5.66243 21.4813 5.62661 21.1547C5.5908 20.6648 5.53707 20.1931 5.50126 19.7396C5.48335 19.5037 5.46544 19.286 5.44753 19.0683C5.44753 19.0138 5.42962 18.9594 5.46544 18.8868C5.50126 18.8324 5.57289 18.8143 5.6087 18.7961C5.71615 18.7598 5.80569 18.7417 5.91314 18.7236C6.32503 18.651 6.73692 18.651 7.09508 18.7054C7.47115 18.7598 7.79349 18.8868 8.08002 19.032C8.36655 19.1771 8.59936 19.3404 8.81426 19.4674C9.02915 19.5944 9.22614 19.6851 9.38732 19.7396C9.54849 19.794 9.69175 19.8121 9.7813 19.8121C9.85293 19.8303 9.90665 19.8303 9.90665 19.8303C9.90665 19.8303 9.88874 19.8303 9.87084 19.8303C9.85293 19.8303 9.81711 19.8303 9.76339 19.8303C9.67385 19.8303 9.53058 19.8121 9.36941 19.7577C9.20824 19.7033 8.99334 19.6126 8.77844 19.4856C8.56354 19.3586 8.33074 19.1953 8.04421 19.0501C7.75768 18.905 7.43533 18.7961 7.07717 18.7417C6.71901 18.6873 6.30712 18.6873 5.91314 18.7598C5.80569 18.778 5.71615 18.8143 5.6087 18.8324C5.55498 18.8506 5.50126 18.8687 5.48335 18.905C5.46544 18.9413 5.46544 18.9957 5.46544 19.0501C5.48335 19.2678 5.50126 19.4856 5.51916 19.7214C5.55498 20.175 5.6087 20.6467 5.64452 21.1366C5.68034 21.4631 5.69824 21.7897 5.73406 22.0981C5.73406 22.1707 5.75197 22.2614 5.76988 22.3159C5.78779 22.3884 5.84151 22.4429 5.91314 22.461C6.05641 22.5154 6.19967 22.4791 6.36085 22.4791C6.95181 22.4247 7.52487 22.334 7.99048 22.1526C8.22329 22.0619 8.45609 21.9349 8.63518 21.7897C8.83217 21.6446 8.97543 21.4813 9.10079 21.318C9.22614 21.1547 9.36941 21.0096 9.51267 20.9007C9.65594 20.7919 9.81711 20.7374 9.96038 20.7193L9.94247 20.7374C9.92456 20.4471 9.90665 20.2113 9.88874 20.0661C9.88874 19.9936 9.88874 19.9391 9.87084 19.8847C9.90665 19.8666 9.90665 19.8303 9.90665 19.8303Z" fill="#263238"/>
<g opacity="0.3">
<path d="M15.6014 21.8986C15.6193 20.6104 15.6193 19.3041 15.4403 18.016C14.6165 17.8527 13.7748 18.1067 13.0227 18.5058C12.2705 18.8868 11.59 19.3948 10.8558 19.7758L10.7125 20.683C10.9632 20.6286 11.2319 20.7011 11.4647 20.81C11.6975 20.9188 11.9124 21.0821 12.1094 21.2454C12.5929 21.5901 13.0943 21.9167 13.6674 22.1163C14.2225 22.3159 14.8493 22.3521 15.4224 22.1707C15.494 22.1526 15.5656 22.1163 15.6014 22.0437C15.6014 22.0074 15.6014 21.953 15.6014 21.8986Z" fill="black"/>
</g>
<path d="M15.6014 21.8986C15.6014 21.8986 15.6014 21.9349 15.6014 22.0074C15.6014 22.0437 15.5656 22.08 15.5298 22.1163C15.494 22.1526 15.4223 22.1707 15.3686 22.1889C15.1179 22.2614 14.7239 22.334 14.2404 22.2614C13.7569 22.1889 13.1838 21.9711 12.6287 21.6264C12.4854 21.5357 12.3421 21.445 12.1989 21.3361C12.0556 21.2273 11.9123 21.1184 11.7691 21.0277C11.6258 20.9189 11.4646 20.8281 11.2855 20.7737C11.1065 20.7193 10.9095 20.683 10.7304 20.7193H10.6946V20.683C10.7483 20.3927 10.802 20.0843 10.8378 19.7758V19.7577H10.8558C11.2139 19.5763 11.5721 19.3586 11.9302 19.1408C12.5212 18.778 13.0943 18.4151 13.7031 18.1974C14.2941 17.9797 14.9209 17.889 15.476 18.016H15.494V18.0341C15.6551 19.1953 15.6551 20.1569 15.6551 20.8463C15.6551 21.191 15.6551 21.445 15.6372 21.6446C15.6372 21.7353 15.6372 21.8079 15.6372 21.8441C15.6014 21.8441 15.6014 21.8623 15.6014 21.8986C15.6014 21.8623 15.6014 21.8441 15.6014 21.826C15.6014 21.7716 15.6014 21.699 15.6014 21.6264C15.6014 21.445 15.6014 21.1729 15.6014 20.8463C15.5835 20.175 15.5835 19.1953 15.4223 18.0341L15.4402 18.0523C14.903 17.9434 14.2941 18.016 13.7031 18.2337C13.1122 18.4514 12.5212 18.8143 11.9481 19.1771C11.59 19.3948 11.2318 19.6126 10.8737 19.794L10.8916 19.7758C10.8378 20.0843 10.7841 20.3927 10.7304 20.683L10.6946 20.6467C10.8916 20.6104 11.1065 20.6467 11.2855 20.7011C11.4646 20.7737 11.6258 20.8644 11.787 20.9733C11.9481 21.0821 12.0735 21.191 12.2168 21.2999C12.36 21.4087 12.5033 21.4994 12.6466 21.5901C13.2017 21.953 13.7569 22.1707 14.2404 22.2252C14.7239 22.2977 15.1179 22.2433 15.3686 22.1707C15.4402 22.1526 15.494 22.1344 15.5298 22.0981C15.5656 22.0619 15.5835 22.0256 15.6014 21.9893C15.6014 21.9349 15.6014 21.8986 15.6014 21.8986Z" fill="#263238"/>
<path d="M10.0678 20.9551C10.0678 20.9551 9.83501 20.9551 9.54848 21.5539C9.26195 22.1526 8.34863 25.0736 8.34863 25.0736L11.0169 26.3436L10.6946 21.1547L10.0678 20.9551Z" fill="#F3725F"/>
<path d="M10.9274 21.1184L12.0019 24.6382L13.7927 23.0234C13.7927 23.0234 12.2347 21.0459 11.0707 20.8463L10.9274 21.1184Z" fill="#F3725F"/>
<g opacity="0.3">
<path d="M10.0678 20.9551C10.0678 20.9551 9.83501 20.9551 9.54848 21.5539C9.26195 22.1526 8.34863 25.0736 8.34863 25.0736L11.0169 26.3436L10.6946 21.1547L10.0678 20.9551Z" fill="black"/>
</g>
<g opacity="0.3">
<path d="M10.9274 21.1184L12.0019 24.6382L13.7927 23.0234C13.7927 23.0234 12.2347 21.0459 11.0707 20.8463L10.9274 21.1184Z" fill="black"/>
</g>
<path d="M10.0678 20.9551C10.0678 20.9551 10.0857 20.9551 10.1036 20.9733C10.1394 20.9914 10.1752 20.9914 10.229 21.0096C10.3364 21.0459 10.4976 21.1003 10.6946 21.1547C10.7662 22.0981 10.8916 24.0394 11.0348 26.3436V26.3799L10.999 26.3617C10.7662 26.2529 10.5155 26.1259 10.2469 25.9989C9.56637 25.6723 8.92168 25.3639 8.33071 25.0736H8.31281V25.0555C8.70678 23.7854 9.06495 22.715 9.35148 21.953C9.49474 21.572 9.63801 21.2817 9.78127 21.1184C9.8529 21.0277 9.92454 20.9914 9.97826 20.9551C9.99617 20.937 10.032 20.937 10.032 20.937C10.0678 20.9551 10.0678 20.9551 10.0678 20.9551C10.0678 20.9551 10.0678 20.9551 10.0499 20.9551C10.032 20.9551 10.0141 20.9733 9.99617 20.9733C9.94244 20.9914 9.88872 21.0459 9.81709 21.1366C9.67382 21.2999 9.53056 21.5901 9.4052 21.9711C9.13658 22.7332 8.77842 23.8036 8.38444 25.0736L8.36653 25.0373C8.9575 25.3276 9.6201 25.636 10.3006 25.9626C10.5513 26.0896 10.802 26.1985 11.0527 26.3255L11.0169 26.3436C10.8737 24.0394 10.7662 22.0981 10.7125 21.1547V21.1729C10.5155 21.1003 10.3543 21.0459 10.2469 21.0096C10.1932 20.9914 10.1573 20.9733 10.1215 20.9733C10.0857 20.9733 10.0678 20.9551 10.0678 20.9551Z" fill="#263238"/>
<path d="M10.9274 21.1184C10.9274 21.1184 10.9274 21.1184 10.9274 21.1003C10.9274 21.0821 10.9453 21.064 10.9453 21.0459C10.9632 20.9914 10.9991 20.9189 11.0528 20.8281C11.3393 20.8644 11.787 21.064 12.2705 21.445C12.7541 21.826 13.2913 22.3521 13.8106 22.9872L13.8285 23.0053L13.8106 23.0234C13.542 23.2593 13.2734 23.5133 12.9869 23.7673C12.6466 24.0757 12.3243 24.366 12.0198 24.6382L11.984 24.6563L11.9661 24.62C11.6617 23.604 11.393 22.715 11.1961 22.0981C11.1065 21.7897 11.0349 21.5357 10.9812 21.3724C10.9632 21.2817 10.9453 21.2273 10.9274 21.1729C10.9274 21.1366 10.9274 21.1184 10.9274 21.1184C10.9274 21.1184 10.9453 21.1366 10.9453 21.191C10.9632 21.2454 10.9812 21.2999 11.017 21.3906C11.0707 21.572 11.1423 21.8079 11.2498 22.1163C11.4468 22.7513 11.7154 23.6222 12.0198 24.6382L11.984 24.62C12.2884 24.3479 12.6108 24.0394 12.951 23.731C13.2376 23.477 13.5062 23.223 13.7748 22.9872V23.0234C13.2555 22.3884 12.7361 21.8623 12.2526 21.4813C11.7691 21.1003 11.3393 20.9007 11.0528 20.8463H11.0707C11.017 20.937 10.9812 20.9914 10.9632 21.0459C10.9453 21.064 10.9453 21.0821 10.9274 21.1184Z" fill="#263238"/>
<path d="M9.83504 20.5197C9.83504 20.5197 9.70968 20.5379 9.49478 20.5379C9.27989 20.556 8.99336 20.5741 8.6531 20.6104C8.33076 20.6649 8.04423 20.7193 7.82933 20.7737C7.61443 20.8281 7.48907 20.8644 7.48907 20.8644C7.48907 20.8644 7.52489 20.8463 7.57862 20.8281C7.63234 20.81 7.72188 20.7737 7.82933 20.7556C8.04423 20.7011 8.33076 20.6286 8.6531 20.5741C8.97545 20.5197 9.27989 20.5016 9.49478 20.5016C9.60223 20.5016 9.69177 20.5016 9.7455 20.5016C9.79922 20.5016 9.83504 20.5016 9.83504 20.5197Z" fill="#263238"/>
<path d="M9.78129 20.175C9.78129 20.175 9.65593 20.1569 9.45894 20.1206C9.26195 20.0843 8.99333 20.048 8.68889 20.048C8.38445 20.0299 8.11583 20.048 7.91884 20.048C7.72185 20.048 7.5965 20.0661 7.5965 20.048C7.5965 20.048 7.63231 20.0299 7.68604 20.0299C7.73976 20.0299 7.8293 20.0117 7.91884 20.0117C8.11583 19.9936 8.40236 19.9754 8.7068 19.9936C9.01124 20.0117 9.27986 20.048 9.47685 20.0843C9.56639 20.1024 9.65593 20.1206 9.70965 20.1387C9.76338 20.175 9.78129 20.175 9.78129 20.175Z" fill="#263238"/>
<path d="M13.9181 19.8484C13.9181 19.8484 13.7569 19.8303 13.5241 19.8121C13.2734 19.794 12.9331 19.7759 12.557 19.8121C12.181 19.8484 11.8586 19.9391 11.6258 20.0299C11.393 20.1206 11.2498 20.175 11.2498 20.175C11.2498 20.175 11.2856 20.1569 11.3393 20.1206C11.393 20.0843 11.5005 20.048 11.6079 19.9936C11.8407 19.9029 12.181 19.8121 12.557 19.7577C12.9331 19.7214 13.2734 19.7396 13.5241 19.7759C13.6494 19.794 13.739 19.8121 13.8106 19.8303C13.8822 19.8303 13.9181 19.8484 13.9181 19.8484Z" fill="#263238"/>
<path d="M13.6137 20.683C13.6137 20.683 13.5778 20.683 13.5241 20.7011C13.4704 20.7011 13.3809 20.7193 13.2734 20.7193C13.0585 20.7374 12.772 20.7374 12.4317 20.7011C12.1094 20.6649 11.8229 20.6104 11.608 20.556C11.5005 20.5197 11.4289 20.5016 11.3572 20.4834C11.3035 20.4653 11.2677 20.4471 11.2677 20.4471C11.2677 20.4471 11.3931 20.4653 11.608 20.5197C11.8229 20.5741 12.1094 20.6286 12.4317 20.6649C12.7541 20.7011 13.0406 20.7011 13.2555 20.7011C13.4883 20.683 13.6137 20.683 13.6137 20.683Z" fill="#263238"/>
<path d="M11.3033 20.5741C11.3033 20.3927 11.2675 20.2294 11.2138 20.048C11.1601 19.9028 11.1601 19.7577 10.9989 19.6488C10.8556 19.5762 10.6228 19.5581 10.4796 19.6488C10.3721 19.5037 10.1572 19.54 10.0139 19.6125C9.87068 19.6851 9.76323 19.8665 9.74532 20.0298C9.72741 20.1931 9.76323 20.3745 9.81695 20.5378C9.90649 20.7737 10.0318 21.0095 10.2467 21.1547C10.4258 21.2817 10.6765 21.318 10.8735 21.2273C11.1601 21.1365 11.3033 20.8644 11.3033 20.5741Z" fill="#F3725F"/>
<g opacity="0.3">
<path d="M11.3033 20.5741C11.3033 20.3927 11.2675 20.2294 11.2138 20.048C11.1601 19.9028 11.1601 19.7577 10.9989 19.6488C10.8556 19.5762 10.6228 19.5581 10.4796 19.6488C10.3721 19.5037 10.1572 19.54 10.0139 19.6125C9.87068 19.6851 9.76323 19.8665 9.74532 20.0298C9.72741 20.1931 9.76323 20.3745 9.81695 20.5378C9.90649 20.7737 10.0318 21.0095 10.2467 21.1547C10.4258 21.2817 10.6765 21.318 10.8735 21.2273C11.1601 21.1365 11.3033 20.8644 11.3033 20.5741Z" fill="black"/>
</g>
<path d="M11.3035 20.5741C11.3035 20.5741 11.3035 20.5923 11.3035 20.6286C11.3035 20.6649 11.3035 20.7193 11.2856 20.7919C11.2498 20.9189 11.1602 21.1184 10.9453 21.2454C10.8379 21.2999 10.6946 21.3361 10.5513 21.318C10.4081 21.2999 10.2469 21.2273 10.1395 21.1184C10.0141 21.0096 9.92455 20.8644 9.85292 20.7011C9.78129 20.5379 9.72756 20.3564 9.70966 20.175C9.70966 19.9573 9.7992 19.7396 9.96037 19.6307C10.0499 19.5763 10.1395 19.54 10.229 19.54C10.3185 19.54 10.426 19.5581 10.4797 19.6489H10.4439C10.5513 19.5763 10.6588 19.5763 10.7662 19.5763C10.8737 19.5944 10.9811 19.6126 11.0528 19.6851C11.1244 19.7577 11.1602 19.8484 11.1781 19.921C11.196 19.9936 11.2139 20.0661 11.2318 20.1387C11.2677 20.2657 11.2856 20.3746 11.2856 20.4471C11.2856 20.4834 11.2856 20.5197 11.2856 20.5379C11.3035 20.556 11.3035 20.5741 11.3035 20.5741C11.3035 20.5741 11.3035 20.5379 11.2856 20.4653C11.2856 20.3927 11.2498 20.2839 11.2139 20.1569C11.196 20.0843 11.1781 20.0299 11.1423 19.9391C11.1244 19.8666 11.0886 19.7759 11.0169 19.7214C10.9453 19.667 10.8558 19.6307 10.7662 19.6126C10.6767 19.6126 10.5513 19.6126 10.4618 19.667L10.4439 19.6851L10.426 19.667C10.3723 19.5944 10.3006 19.5763 10.2111 19.5763C10.1215 19.5763 10.032 19.6126 9.96037 19.6489C9.7992 19.7396 9.72756 19.9573 9.72756 20.1569C9.72756 20.3383 9.78129 20.5197 9.85292 20.6649C9.92455 20.8281 10.0141 20.9551 10.1395 21.064C10.2469 21.1729 10.3902 21.2454 10.5334 21.2454C10.6767 21.2636 10.8021 21.2273 10.9095 21.1729C11.1244 21.064 11.2139 20.8826 11.2498 20.7556C11.3035 20.6467 11.3035 20.5741 11.3035 20.5741Z" fill="#263238"/>
<path d="M10.1036 21.0459C10.1036 21.0459 10.1574 20.9914 10.2469 20.8826C10.3364 20.7737 10.426 20.6104 10.4797 20.4109C10.5334 20.2113 10.5334 20.0117 10.5155 19.8847C10.4976 19.7396 10.4618 19.667 10.4797 19.667C10.4797 19.667 10.5334 19.7396 10.5513 19.8847C10.5872 20.0299 10.5872 20.2294 10.5334 20.429C10.4797 20.6467 10.3723 20.81 10.2648 20.9189C10.1753 21.0096 10.1036 21.0459 10.1036 21.0459Z" fill="#263238"/>
<path d="M11.2497 20.175C11.2497 20.175 11.2497 20.2476 11.196 20.3746C11.1423 20.5016 11.0707 20.6649 10.9453 20.81C10.8199 20.9551 10.6767 21.064 10.5513 21.1366C10.4439 21.191 10.3543 21.2273 10.3543 21.2091C10.3364 21.191 10.6409 21.0821 10.8916 20.7737C11.1602 20.4834 11.2318 20.1569 11.2497 20.175Z" fill="#263238"/>
<path d="M15.2612 31.115C15.2612 31.115 14.8672 30.5889 14.527 30.5163C14.3837 30.48 14.2404 30.48 14.0972 30.48C13.8644 30.4982 13.6853 30.6978 13.6853 30.9518L13.7032 31.369L12.4675 31.7863L11.6438 31.6412C11.6438 31.6412 10.2111 31.3872 10.0499 31.6956C10.0499 31.6956 9.15452 31.3509 8.99335 31.5323C8.99335 31.5323 8.52774 31.6412 8.58146 31.8589C8.63519 32.0766 10.2469 32.8023 10.2469 32.8023L12.5033 33.2196C12.5033 33.2196 13.9002 33.0926 14.2583 33.0926C14.5628 33.0926 15.0105 33.2015 15.0105 33.2015H14.9568L16.4789 33.4011C16.4789 33.4011 16.4073 32.9656 16.5864 32.1492C16.7655 31.3328 16.658 31.1513 16.658 31.1513L15.2612 31.115Z" fill="#FBBF9E"/>
<path d="M14.6523 32.0042C14.6523 32.0042 14.5986 32.0042 14.5091 31.9316C14.4374 31.8591 14.3658 31.7321 14.2584 31.6232C14.2046 31.5688 14.1151 31.5506 14.0076 31.5325C13.9181 31.5144 13.7927 31.4599 13.7032 31.3692C13.6137 31.2785 13.5599 31.1515 13.5599 31.0064C13.5599 30.8794 13.5958 30.7161 13.7211 30.6254C13.936 30.4258 14.2404 30.4076 14.4553 30.4802C14.6881 30.5528 14.8493 30.6798 14.9747 30.8068C15.1 30.9338 15.1896 31.0426 15.2433 31.1152C15.297 31.1878 15.3328 31.2422 15.3149 31.2422C15.297 31.2604 15.1717 31.0789 14.921 30.8612C14.7956 30.7524 14.6344 30.6254 14.4195 30.5709C14.2225 30.5165 13.9539 30.5346 13.7748 30.6979C13.5958 30.8612 13.6316 31.1515 13.7569 31.2966C13.8823 31.4599 14.133 31.4418 14.2763 31.5688C14.4195 31.6958 14.4553 31.8409 14.5091 31.9135C14.6165 31.9861 14.6523 32.0042 14.6523 32.0042Z" fill="#F7996E"/>
<path d="M13.4883 31.5325C13.4883 31.5506 13.3808 31.5325 13.2196 31.5869C13.0585 31.6414 12.8615 31.7865 12.5749 31.8409C12.2884 31.8772 12.0556 31.7684 11.8765 31.7321C11.7154 31.6776 11.6079 31.6776 11.6079 31.6595C11.6079 31.6414 11.7154 31.6232 11.8944 31.6414C12.0735 31.6595 12.3063 31.7502 12.557 31.7139C12.8078 31.6776 13.0227 31.5325 13.2017 31.4962C13.3808 31.4781 13.4883 31.5144 13.4883 31.5325Z" fill="#F7996E"/>
<path d="M13.4524 32.4578C13.4524 32.4578 13.3987 32.4941 13.3092 32.5304C13.2196 32.5666 13.0764 32.6211 12.8973 32.6574C12.5391 32.7299 12.0377 32.7299 11.4825 32.6211C11.2139 32.5666 10.9632 32.4941 10.7304 32.4396C10.4976 32.3852 10.2827 32.3489 10.1215 32.2582C10.032 32.2038 9.97827 32.1312 9.94245 32.0586C9.90664 31.9861 9.90664 31.9135 9.92454 31.8591C9.96036 31.7502 10.032 31.7321 10.032 31.7321C10.032 31.7321 9.97827 31.7684 9.97827 31.8591C9.96036 31.9498 9.99618 32.0949 10.1573 32.1675C10.3006 32.2401 10.5155 32.2764 10.7483 32.3308C10.9811 32.3852 11.2318 32.4396 11.5005 32.4941C12.0377 32.5848 12.5212 32.6029 12.8794 32.5485C13.2555 32.5304 13.4524 32.4396 13.4524 32.4578Z" fill="#F7996E"/>
<path d="M4.26557 25.2369C4.1044 25.2006 3.94323 25.3457 3.8895 25.4909C3.83578 25.636 3.8895 25.7993 3.94323 25.9626C4.01486 26.1622 4.12231 26.3617 4.24766 26.525C4.35511 26.6883 4.5521 26.8335 4.73118 26.779C4.83863 26.7428 4.91026 26.652 4.94608 26.5613C4.9819 26.4706 4.9819 26.3617 4.96399 26.2529C4.92817 25.9263 4.51629 25.4727 4.26557 25.2369Z" fill="#FBBF9E"/>
<path d="M4.05067 26.017C3.88949 25.9808 3.72832 26.1259 3.6746 26.271C3.62087 26.4162 3.6746 26.5795 3.72832 26.7428C3.79995 26.9423 3.9074 27.1419 4.03276 27.3052C4.14021 27.4685 4.3372 27.6136 4.51628 27.5592C4.62373 27.5229 4.69536 27.4322 4.73118 27.3415C4.76699 27.2508 4.76699 27.1419 4.74908 27.033C4.71327 26.7065 4.30138 26.2529 4.05067 26.017Z" fill="#FBBF9E"/>
<path d="M3.99696 26.8153C3.83578 26.779 3.67461 26.9242 3.62089 27.0693C3.56716 27.2145 3.62089 27.3778 3.67461 27.5411C3.74624 27.7406 3.85369 27.9402 3.97905 28.1035C4.0865 28.2668 4.28349 28.4119 4.46257 28.3575C4.57002 28.3212 4.64165 28.2305 4.67746 28.1398C4.71328 28.0491 4.71328 27.9402 4.69537 27.8313C4.65956 27.5048 4.24767 27.0512 3.99696 26.8153Z" fill="#FBBF9E"/>
</g>
</svg>
