<svg width="105" height="105" viewBox="0 0 105 105" fill="none" xmlns="http://www.w3.org/2000/svg">
<mask id="mask0_18_143" style="mask-type:luminance" maskUnits="userSpaceOnUse" x="0" y="0" width="105" height="105">
<path d="M14.0174 0L0 14.0174V105H91.0696L105 91.0696V0H14.0174Z" fill="white"/>
</mask>
<g mask="url(#mask0_18_143)">
<path d="M14.0174 0L0 14.0174V105H91.0696L105 91.0696V0H14.0174Z" fill="#EE3665"/>
</g>
<mask id="mask1_18_143" style="mask-type:luminance" maskUnits="userSpaceOnUse" x="0" y="0" width="105" height="105">
<path d="M14.0174 0L0 14.0174V105H91.0696L105 91.0696V0H14.0174Z" fill="white"/>
</mask>
<g mask="url(#mask1_18_143)">
<path d="M69.9129 59.9005H41.704L22.9851 77.5746V9.57712H69.9129C86.7164 9.57712 100.386 20.8085 100.386 34.7388C100.386 48.5821 86.8035 59.9005 69.9129 59.9005Z" fill="white"/>
</g>
<mask id="mask2_18_143" style="mask-type:luminance" maskUnits="userSpaceOnUse" x="0" y="0" width="105" height="105">
<path d="M14.0174 0L0 14.0174V105H91.0696L105 91.0696V0H14.0174Z" fill="white"/>
</mask>
<g mask="url(#mask2_18_143)">
<path d="M44.7512 66.6915V77.4876H42.3134V66.6915H44.7512Z" fill="white"/>
<path d="M46.8408 66.6915H49.2786V75.398H53.5448V77.4876H46.8408V66.6915Z" fill="white"/>
<path d="M55.0249 66.6915H57.4627V71.4801C57.7239 71.0448 57.9851 70.6965 58.1592 70.2612L60.597 66.6915H63.5572L60.0746 71.306L63.8184 77.4876H60.9453L58.3333 72.8731L57.3756 74.005V77.4876H54.9378V66.6915H55.0249Z" fill="white"/>
<path d="M67.4751 74.7015L66.7786 77.4876H64.2537L67.5622 66.6915H70.7836L74.005 77.4876H71.393L70.5224 74.7015H67.4751ZM70.2612 72.8731L69.5647 70.6095C69.3906 70 69.2164 69.1294 69.0423 68.5199C68.8682 69.1294 68.694 70 68.5199 70.6095L67.9105 72.8731H70.2612Z" fill="white"/>
<path d="M75.4851 66.8657C76.3557 66.6915 77.5746 66.6045 78.7935 66.6045C80.796 66.6045 82.1891 66.9527 83.2338 67.7363C84.3657 68.607 85.0622 69.9129 85.0622 71.8284C85.0622 73.9179 84.2786 75.3109 83.2338 76.1816C82.102 77.1393 80.3607 77.5746 78.2711 77.5746C76.9652 77.5746 76.0945 77.4876 75.4851 77.4005V66.8657ZM77.9229 75.6592C78.097 75.7463 78.4453 75.7463 78.7935 75.7463C80.9701 75.7463 82.4502 74.5274 82.4502 72.0025C82.4502 69.7388 81.1443 68.607 79.0547 68.607C78.5323 68.607 78.1841 68.694 77.9229 68.694V75.6592Z" fill="white"/>
<path d="M88.893 74.7015L88.1094 77.4876H85.5846L88.893 66.6915H92.1144L95.4229 77.4876H92.8109L91.9403 74.7015H88.893ZM91.592 72.8731L90.8955 70.6095C90.7214 70 90.5473 69.1294 90.3731 68.5199C90.199 69.1294 90.0249 70 89.8507 70.6095L89.2413 72.8731H91.592Z" fill="white"/>
</g>
<mask id="mask3_18_143" style="mask-type:luminance" maskUnits="userSpaceOnUse" x="0" y="0" width="105" height="105">
<path d="M14.0174 0L0 14.0174V105H91.0696L105 91.0696V0H14.0174Z" fill="white"/>
</mask>
<g mask="url(#mask3_18_143)">
<path d="M14.0174 0V91.0697H105" stroke="white" stroke-miterlimit="10"/>
</g>
</svg>
